M48
; DRILL file {KiCad (5.1.8)-1} date 02/18/21 11:59:39
; FORMAT={-:-/ absolute / metric / decimal}
; #@! TF.CreationDate,2021-02-18T11:59:39+08:00
; #@! TF.GenerationSoftware,Kicad,Pcbnew,(5.1.8)-1
; #@! TF.FileFunction,Plated,1,2,PTH
FMAT,2
METRIC
T1C0.400
T2C0.800
T3C0.889
T4C0.900
T5C1.000
T6C1.016
T7C1.397
%
G90
G05
T1
X140.0Y-82.0
X142.85Y-72.5
T2
X132.0Y-73.5
X132.0Y-76.0
T3
X74.84Y-93.46
X74.84Y-96.0
X74.84Y-98.54
X82.46Y-106.16
X85.0Y-106.16
X87.54Y-106.16
X141.84Y-93.46
X141.84Y-96.0
X141.84Y-98.54
X149.46Y-106.16
X152.0Y-106.16
X154.54Y-106.16
T4
X81.825Y-83.3
X81.825Y-88.38
X88.175Y-83.3
X88.175Y-88.38
X148.825Y-83.3
X148.825Y-88.38
X155.175Y-83.3
X155.175Y-88.38
T5
X97.0Y-73.0
X99.54Y-73.0
T6
X112.331Y-73.745
X112.331Y-76.284
X114.871Y-73.745
X114.871Y-76.284
X117.411Y-73.745
X117.411Y-76.284
X119.951Y-73.745
X119.951Y-76.284
X110.38Y-85.76
X110.38Y-88.3
X110.38Y-90.84
X110.38Y-93.38
X110.38Y-95.92
X110.38Y-98.46
X110.38Y-101.0
X110.38Y-103.54
X110.38Y-106.08
X110.38Y-108.62
X110.38Y-111.16
X110.38Y-113.7
X111.65Y-116.24
X113.301Y-91.983
X113.301Y-94.523
X113.301Y-102.397
X113.301Y-104.937
X114.19Y-116.24
X116.73Y-116.24
X119.27Y-116.24
X121.81Y-116.24
X124.35Y-116.24
X125.62Y-85.76
X125.62Y-88.3
X125.62Y-90.84
X125.62Y-93.38
X125.62Y-95.92
X125.62Y-98.46
X125.62Y-101.0
X125.62Y-103.54
X125.62Y-106.08
X125.62Y-108.62
X125.62Y-111.16
X125.62Y-113.7
T7
X77.38Y-89.332
X77.38Y-102.667
X92.62Y-89.332
X92.62Y-102.667
X144.38Y-89.332
X144.38Y-102.667
X159.62Y-89.332
X159.62Y-102.667
T0
M30
