%TF.GenerationSoftware,KiCad,Pcbnew,(5.1.8)-1*%
%TF.CreationDate,2021-02-18T11:59:36+08:00*%
%TF.ProjectId,remoter,72656d6f-7465-4722-9e6b-696361645f70,rev?*%
%TF.SameCoordinates,Original*%
%TF.FileFunction,Soldermask,Top*%
%TF.FilePolarity,Negative*%
%FSLAX46Y46*%
G04 Gerber Fmt 4.6, Leading zero omitted, Abs format (unit mm)*
G04 Created by KiCad (PCBNEW (5.1.8)-1) date 2021-02-18 11:59:36*
%MOMM*%
%LPD*%
G01*
G04 APERTURE LIST*
%ADD10C,1.879600*%
%ADD11C,1.400000*%
%ADD12C,1.200000*%
%ADD13C,0.100000*%
%ADD14R,2.300000X0.900000*%
%ADD15C,1.778000*%
%ADD16C,2.286000*%
%ADD17C,1.524000*%
%ADD18O,1.700000X1.700000*%
%ADD19R,1.700000X1.700000*%
%ADD20C,1.600000*%
%ADD21R,1.600000X1.600000*%
G04 APERTURE END LIST*
D10*
%TO.C,U3*%
X111650000Y-116240000D03*
X114190000Y-116240000D03*
X116730000Y-116240000D03*
X119270000Y-116240000D03*
X121810000Y-116240000D03*
X124350000Y-116240000D03*
X113301000Y-102397000D03*
X113301000Y-104937000D03*
D11*
X113301000Y-94523000D03*
D12*
X113301000Y-91983000D03*
D10*
X110380000Y-113700000D03*
X110380000Y-111160000D03*
X110380000Y-108620000D03*
X110380000Y-106080000D03*
X110380000Y-103540000D03*
X110380000Y-101000000D03*
X110380000Y-98460000D03*
X110380000Y-95920000D03*
X110380000Y-93380000D03*
X110380000Y-90840000D03*
X110380000Y-88300000D03*
X110380000Y-85760000D03*
X125620000Y-85760000D03*
X125620000Y-88300000D03*
X125620000Y-90840000D03*
X125620000Y-93380000D03*
X125620000Y-95920000D03*
X125620000Y-98460000D03*
X125620000Y-101000000D03*
X125620000Y-103540000D03*
X125620000Y-106080000D03*
X125620000Y-108620000D03*
X125620000Y-111160000D03*
X125620000Y-113700000D03*
%TD*%
D13*
%TO.C,U2*%
G36*
X148300000Y-74866500D02*
G01*
X144175000Y-74866500D01*
X144175000Y-74450000D01*
X141700000Y-74450000D01*
X141700000Y-73550000D01*
X144175000Y-73550000D01*
X144175000Y-73133500D01*
X148300000Y-73133500D01*
X148300000Y-74866500D01*
G37*
D14*
X142850000Y-75500000D03*
X142850000Y-72500000D03*
%TD*%
D15*
%TO.C,U5*%
X141840000Y-98540000D03*
X141840000Y-96000000D03*
X141840000Y-93460000D03*
D16*
X159620000Y-89332500D03*
X159620000Y-102667500D03*
X144380000Y-102667500D03*
X144380000Y-89332500D03*
D15*
X154540000Y-106160000D03*
X152000000Y-106160000D03*
X149460000Y-106160000D03*
X155175000Y-88380000D03*
X148825000Y-88380000D03*
X155175000Y-83300000D03*
X148825000Y-83300000D03*
%TD*%
%TO.C,U4*%
X74840000Y-98540000D03*
X74840000Y-96000000D03*
X74840000Y-93460000D03*
D16*
X92620000Y-89332500D03*
X92620000Y-102667500D03*
X77380000Y-102667500D03*
X77380000Y-89332500D03*
D15*
X87540000Y-106160000D03*
X85000000Y-106160000D03*
X82460000Y-106160000D03*
X88175000Y-88380000D03*
X81825000Y-88380000D03*
X88175000Y-83300000D03*
X81825000Y-83300000D03*
%TD*%
D17*
%TO.C,U1*%
X119951100Y-73744500D03*
X119951100Y-76284400D03*
X117411100Y-73744500D03*
X117411100Y-76284400D03*
X114871100Y-73744500D03*
X114871100Y-76284400D03*
X112331100Y-73744500D03*
X112331100Y-76284400D03*
%TD*%
D18*
%TO.C,J1*%
X99540000Y-73000000D03*
D19*
X97000000Y-73000000D03*
%TD*%
D20*
%TO.C,C2*%
X132000000Y-73500000D03*
D21*
X132000000Y-76000000D03*
%TD*%
%TO.C,C1*%
G36*
G01*
X105762500Y-74325000D02*
X106237500Y-74325000D01*
G75*
G02*
X106475000Y-74562500I0J-237500D01*
G01*
X106475000Y-75162500D01*
G75*
G02*
X106237500Y-75400000I-237500J0D01*
G01*
X105762500Y-75400000D01*
G75*
G02*
X105525000Y-75162500I0J237500D01*
G01*
X105525000Y-74562500D01*
G75*
G02*
X105762500Y-74325000I237500J0D01*
G01*
G37*
G36*
G01*
X105762500Y-72600000D02*
X106237500Y-72600000D01*
G75*
G02*
X106475000Y-72837500I0J-237500D01*
G01*
X106475000Y-73437500D01*
G75*
G02*
X106237500Y-73675000I-237500J0D01*
G01*
X105762500Y-73675000D01*
G75*
G02*
X105525000Y-73437500I0J237500D01*
G01*
X105525000Y-72837500D01*
G75*
G02*
X105762500Y-72600000I237500J0D01*
G01*
G37*
%TD*%
M02*
