%TF.GenerationSoftware,KiCad,Pcbnew,(5.1.8)-1*%
%TF.CreationDate,2021-02-18T11:59:36+08:00*%
%TF.ProjectId,remoter,72656d6f-7465-4722-9e6b-696361645f70,rev?*%
%TF.SameCoordinates,Original*%
%TF.FileFunction,Copper,L1,Top*%
%TF.FilePolarity,Positive*%
%FSLAX46Y46*%
G04 Gerber Fmt 4.6, Leading zero omitted, Abs format (unit mm)*
G04 Created by KiCad (PCBNEW (5.1.8)-1) date 2021-02-18 11:59:36*
%MOMM*%
%LPD*%
G01*
G04 APERTURE LIST*
%TA.AperFunction,NonConductor*%
%ADD10C,0.300000*%
%TD*%
%TA.AperFunction,ComponentPad*%
%ADD11C,1.879600*%
%TD*%
%TA.AperFunction,ComponentPad*%
%ADD12C,1.400000*%
%TD*%
%TA.AperFunction,ComponentPad*%
%ADD13C,1.200000*%
%TD*%
%TA.AperFunction,SMDPad,CuDef*%
%ADD14C,0.100000*%
%TD*%
%TA.AperFunction,SMDPad,CuDef*%
%ADD15R,2.300000X0.900000*%
%TD*%
%TA.AperFunction,ComponentPad*%
%ADD16C,1.778000*%
%TD*%
%TA.AperFunction,ComponentPad*%
%ADD17C,2.286000*%
%TD*%
%TA.AperFunction,ComponentPad*%
%ADD18C,1.524000*%
%TD*%
%TA.AperFunction,ComponentPad*%
%ADD19O,1.700000X1.700000*%
%TD*%
%TA.AperFunction,ComponentPad*%
%ADD20R,1.700000X1.700000*%
%TD*%
%TA.AperFunction,ComponentPad*%
%ADD21C,1.600000*%
%TD*%
%TA.AperFunction,ComponentPad*%
%ADD22R,1.600000X1.600000*%
%TD*%
%TA.AperFunction,ViaPad*%
%ADD23C,0.800000*%
%TD*%
%TA.AperFunction,ViaPad*%
%ADD24C,0.600000*%
%TD*%
%TA.AperFunction,Conductor*%
%ADD25C,0.250000*%
%TD*%
%TA.AperFunction,Conductor*%
%ADD26C,0.025400*%
%TD*%
%TA.AperFunction,Conductor*%
%ADD27C,0.100000*%
%TD*%
%TA.AperFunction,Conductor*%
%ADD28C,0.254000*%
%TD*%
G04 APERTURE END LIST*
D10*
X99178571Y-77285714D02*
X99178571Y-78000000D01*
X99892857Y-78071428D01*
X99821428Y-78000000D01*
X99750000Y-77857142D01*
X99750000Y-77500000D01*
X99821428Y-77357142D01*
X99892857Y-77285714D01*
X100035714Y-77214285D01*
X100392857Y-77214285D01*
X100535714Y-77285714D01*
X100607142Y-77357142D01*
X100678571Y-77500000D01*
X100678571Y-77857142D01*
X100607142Y-78000000D01*
X100535714Y-78071428D01*
X99178571Y-76785714D02*
X100678571Y-76285714D01*
X99178571Y-75785714D01*
X95250000Y-78142857D02*
X95178571Y-78285714D01*
X95178571Y-78500000D01*
X95250000Y-78714285D01*
X95392857Y-78857142D01*
X95535714Y-78928571D01*
X95821428Y-79000000D01*
X96035714Y-79000000D01*
X96321428Y-78928571D01*
X96464285Y-78857142D01*
X96607142Y-78714285D01*
X96678571Y-78500000D01*
X96678571Y-78357142D01*
X96607142Y-78142857D01*
X96535714Y-78071428D01*
X96035714Y-78071428D01*
X96035714Y-78357142D01*
X96678571Y-77428571D02*
X95178571Y-77428571D01*
X96678571Y-76571428D01*
X95178571Y-76571428D01*
X96678571Y-75857142D02*
X95178571Y-75857142D01*
X95178571Y-75500000D01*
X95250000Y-75285714D01*
X95392857Y-75142857D01*
X95535714Y-75071428D01*
X95821428Y-75000000D01*
X96035714Y-75000000D01*
X96321428Y-75071428D01*
X96464285Y-75142857D01*
X96607142Y-75285714D01*
X96678571Y-75500000D01*
X96678571Y-75857142D01*
D11*
%TO.P,U3,JP1_1*%
%TO.N,Net-(U3-PadJP1_1)*%
X111650000Y-116240000D03*
%TO.P,U3,JP1_2*%
%TO.N,Net-(U3-PadJP1_2)*%
X114190000Y-116240000D03*
%TO.P,U3,JP1_3*%
%TO.N,Net-(U3-PadJP1_3)*%
X116730000Y-116240000D03*
%TO.P,U3,JP1_4*%
%TO.N,/5V*%
X119270000Y-116240000D03*
%TO.P,U3,JP1_5*%
%TO.N,GND*%
X121810000Y-116240000D03*
%TO.P,U3,JP1_6*%
X124350000Y-116240000D03*
%TO.P,U3,JP2_1*%
%TO.N,Net-(U3-PadJP2_1)*%
X113301000Y-102397000D03*
%TO.P,U3,JP2_2*%
%TO.N,Net-(U3-PadJP2_2)*%
X113301000Y-104937000D03*
D12*
%TO.P,U3,JP3_2*%
%TO.N,Net-(U3-PadJP3_2)*%
X113301000Y-94523000D03*
D13*
%TO.P,U3,JP3_1*%
%TO.N,Net-(U3-PadJP3_1)*%
X113301000Y-91983000D03*
D11*
%TO.P,U3,JP6_1*%
%TO.N,Net-(U3-PadJP6_1)*%
X110380000Y-113700000D03*
%TO.P,U3,JP6_2*%
%TO.N,Net-(U3-PadJP6_2)*%
X110380000Y-111160000D03*
%TO.P,U3,JP6_3*%
%TO.N,Net-(U3-PadJP6_3)*%
X110380000Y-108620000D03*
%TO.P,U3,JP6_4*%
%TO.N,Net-(U3-PadJP6_4)*%
X110380000Y-106080000D03*
%TO.P,U3,JP6_5*%
%TO.N,Net-(U3-PadJP6_5)*%
X110380000Y-103540000D03*
%TO.P,U3,JP6_6*%
%TO.N,Net-(U3-PadJP6_6)*%
X110380000Y-101000000D03*
%TO.P,U3,JP6_7*%
%TO.N,Net-(U3-PadJP6_7)*%
X110380000Y-98460000D03*
%TO.P,U3,JP6_8*%
%TO.N,Net-(U3-PadJP6_8)*%
X110380000Y-95920000D03*
%TO.P,U3,JP6_9*%
%TO.N,Net-(U1-Pad5)*%
X110380000Y-93380000D03*
%TO.P,U3,JP6_10*%
%TO.N,Net-(U1-Pad7)*%
X110380000Y-90840000D03*
%TO.P,U3,JP6_11*%
%TO.N,Net-(U1-Pad6)*%
X110380000Y-88300000D03*
%TO.P,U3,JP6_12*%
%TO.N,Net-(U3-PadJP6_12)*%
X110380000Y-85760000D03*
%TO.P,U3,JP7_1*%
%TO.N,Net-(U3-PadJP7_1)*%
X125620000Y-85760000D03*
%TO.P,U3,JP7_2*%
%TO.N,Net-(U1-Pad4)*%
X125620000Y-88300000D03*
%TO.P,U3,JP7_3*%
%TO.N,Net-(U1-Pad3)*%
X125620000Y-90840000D03*
%TO.P,U3,JP7_4*%
%TO.N,Net-(U3-PadJP7_4)*%
X125620000Y-93380000D03*
%TO.P,U3,JP7_5*%
%TO.N,Net-(U3-PadJP7_5)*%
X125620000Y-95920000D03*
%TO.P,U3,JP7_6*%
%TO.N,Net-(U3-PadJP7_6)*%
X125620000Y-98460000D03*
%TO.P,U3,JP7_7*%
%TO.N,Net-(U3-PadJP7_7)*%
X125620000Y-101000000D03*
%TO.P,U3,JP7_8*%
%TO.N,Net-(U3-PadJP6_7)*%
X125620000Y-103540000D03*
%TO.P,U3,JP7_9*%
%TO.N,Net-(U3-PadJP7_9)*%
X125620000Y-106080000D03*
%TO.P,U3,JP7_10*%
%TO.N,Net-(U3-PadJP7_10)*%
X125620000Y-108620000D03*
%TO.P,U3,JP7_11*%
%TO.N,Net-(U3-PadJP7_11)*%
X125620000Y-111160000D03*
%TO.P,U3,JP7_12*%
%TO.N,Net-(U3-PadJP7_12)*%
X125620000Y-113700000D03*
%TD*%
%TA.AperFunction,SMDPad,CuDef*%
D14*
%TO.P,U2,2*%
%TO.N,Net-(C2-Pad1)*%
G36*
X148300000Y-74866500D02*
G01*
X144175000Y-74866500D01*
X144175000Y-74450000D01*
X141700000Y-74450000D01*
X141700000Y-73550000D01*
X144175000Y-73550000D01*
X144175000Y-73133500D01*
X148300000Y-73133500D01*
X148300000Y-74866500D01*
G37*
%TD.AperFunction*%
D15*
%TO.P,U2,3*%
%TO.N,/5V*%
X142850000Y-75500000D03*
%TO.P,U2,1*%
%TO.N,GND*%
X142850000Y-72500000D03*
%TD*%
D16*
%TO.P,U5,V3*%
%TO.N,GND*%
X141840000Y-98540000D03*
%TO.P,U5,V2*%
%TO.N,Net-(U3-PadJP6_6)*%
X141840000Y-96000000D03*
%TO.P,U5,V1*%
%TO.N,/5V*%
X141840000Y-93460000D03*
D17*
%TO.P,U5,S4*%
%TO.N,Net-(U5-PadS1)*%
X159620000Y-89332500D03*
%TO.P,U5,S3*%
X159620000Y-102667500D03*
%TO.P,U5,S2*%
X144380000Y-102667500D03*
%TO.P,U5,S1*%
X144380000Y-89332500D03*
D16*
%TO.P,U5,H3*%
%TO.N,Net-(U5-PadH3)*%
X154540000Y-106160000D03*
%TO.P,U5,H2*%
%TO.N,Net-(U5-PadH2)*%
X152000000Y-106160000D03*
%TO.P,U5,H1*%
%TO.N,Net-(U5-PadH1)*%
X149460000Y-106160000D03*
%TO.P,U5,B2B*%
%TO.N,N/C*%
X155175000Y-88380000D03*
%TO.P,U5,B2A*%
%TO.N,Net-(U5-PadB2A)*%
X148825000Y-88380000D03*
%TO.P,U5,B1B*%
%TO.N,N/C*%
X155175000Y-83300000D03*
%TO.P,U5,B1A*%
%TO.N,Net-(U5-PadB1A)*%
X148825000Y-83300000D03*
%TD*%
%TO.P,U4,V3*%
%TO.N,GND*%
X74840000Y-98540000D03*
%TO.P,U4,V2*%
%TO.N,Net-(U3-PadJP6_8)*%
X74840000Y-96000000D03*
%TO.P,U4,V1*%
%TO.N,/5V*%
X74840000Y-93460000D03*
D17*
%TO.P,U4,S4*%
%TO.N,Net-(U4-PadS1)*%
X92620000Y-89332500D03*
%TO.P,U4,S3*%
X92620000Y-102667500D03*
%TO.P,U4,S2*%
X77380000Y-102667500D03*
%TO.P,U4,S1*%
X77380000Y-89332500D03*
D16*
%TO.P,U4,H3*%
%TO.N,GND*%
X87540000Y-106160000D03*
%TO.P,U4,H2*%
%TO.N,Net-(U3-PadJP6_7)*%
X85000000Y-106160000D03*
%TO.P,U4,H1*%
%TO.N,/5V*%
X82460000Y-106160000D03*
%TO.P,U4,B2B*%
%TO.N,N/C*%
X88175000Y-88380000D03*
%TO.P,U4,B2A*%
%TO.N,Net-(U4-PadB2A)*%
X81825000Y-88380000D03*
%TO.P,U4,B1B*%
%TO.N,N/C*%
X88175000Y-83300000D03*
%TO.P,U4,B1A*%
%TO.N,Net-(U4-PadB1A)*%
X81825000Y-83300000D03*
%TD*%
D18*
%TO.P,U1,8*%
%TO.N,Net-(U1-Pad8)*%
X119951100Y-73744500D03*
%TO.P,U1,7*%
%TO.N,Net-(U1-Pad7)*%
X119951100Y-76284400D03*
%TO.P,U1,6*%
%TO.N,Net-(U1-Pad6)*%
X117411100Y-73744500D03*
%TO.P,U1,5*%
%TO.N,Net-(U1-Pad5)*%
X117411100Y-76284400D03*
%TO.P,U1,4*%
%TO.N,Net-(U1-Pad4)*%
X114871100Y-73744500D03*
%TO.P,U1,3*%
%TO.N,Net-(U1-Pad3)*%
X114871100Y-76284400D03*
%TO.P,U1,2*%
%TO.N,Net-(C2-Pad1)*%
X112331100Y-73744500D03*
%TO.P,U1,1*%
%TO.N,GND*%
X112331100Y-76284400D03*
%TD*%
D19*
%TO.P,J1,2*%
%TO.N,/5V*%
X99540000Y-73000000D03*
D20*
%TO.P,J1,1*%
%TO.N,GND*%
X97000000Y-73000000D03*
%TD*%
D21*
%TO.P,C2,2*%
%TO.N,GND*%
X132000000Y-73500000D03*
D22*
%TO.P,C2,1*%
%TO.N,Net-(C2-Pad1)*%
X132000000Y-76000000D03*
%TD*%
%TO.P,C1,2*%
%TO.N,GND*%
%TA.AperFunction,SMDPad,CuDef*%
G36*
G01*
X105762500Y-74325000D02*
X106237500Y-74325000D01*
G75*
G02*
X106475000Y-74562500I0J-237500D01*
G01*
X106475000Y-75162500D01*
G75*
G02*
X106237500Y-75400000I-237500J0D01*
G01*
X105762500Y-75400000D01*
G75*
G02*
X105525000Y-75162500I0J237500D01*
G01*
X105525000Y-74562500D01*
G75*
G02*
X105762500Y-74325000I237500J0D01*
G01*
G37*
%TD.AperFunction*%
%TO.P,C1,1*%
%TO.N,/5V*%
%TA.AperFunction,SMDPad,CuDef*%
G36*
G01*
X105762500Y-72600000D02*
X106237500Y-72600000D01*
G75*
G02*
X106475000Y-72837500I0J-237500D01*
G01*
X106475000Y-73437500D01*
G75*
G02*
X106237500Y-73675000I-237500J0D01*
G01*
X105762500Y-73675000D01*
G75*
G02*
X105525000Y-73437500I0J237500D01*
G01*
X105525000Y-72837500D01*
G75*
G02*
X105762500Y-72600000I237500J0D01*
G01*
G37*
%TD.AperFunction*%
%TD*%
D23*
%TO.N,GND*%
X142850000Y-72500000D03*
D24*
X140000000Y-82000000D03*
%TD*%
D25*
%TO.N,GND*%
X98175001Y-74175001D02*
X98175001Y-77692547D01*
X98175001Y-77692547D02*
X99482454Y-79000000D01*
X97000000Y-73000000D02*
X98175001Y-74175001D01*
X106000000Y-74862500D02*
X106000000Y-79000000D01*
X110909200Y-74862500D02*
X112331100Y-76284400D01*
X106000000Y-74862500D02*
X110909200Y-74862500D01*
X133000000Y-72500000D02*
X142850000Y-72500000D01*
X132000000Y-73500000D02*
X133000000Y-72500000D01*
X142850000Y-72500000D02*
X142850000Y-72500000D01*
X143054001Y-97325999D02*
X141840000Y-98540000D01*
X142422721Y-94785999D02*
X143054001Y-95417279D01*
X139785999Y-94785999D02*
X142422721Y-94785999D01*
X137000000Y-92000000D02*
X139785999Y-94785999D01*
X137000000Y-85000000D02*
X137000000Y-92000000D01*
X137000000Y-85000000D02*
X137000000Y-84000000D01*
X137000000Y-84000000D02*
X132000000Y-79000000D01*
X106000000Y-79000000D02*
X132000000Y-79000000D01*
X140000000Y-82000000D02*
X135000000Y-82000000D01*
X99482454Y-79000000D02*
X100000000Y-79000000D01*
X100000000Y-79000000D02*
X99491453Y-79508547D01*
X100000000Y-79000000D02*
X106000000Y-79000000D01*
X73625999Y-95417279D02*
X73625999Y-97325999D01*
X74257279Y-94785999D02*
X73625999Y-95417279D01*
X75310723Y-94785999D02*
X74257279Y-94785999D01*
X76054001Y-94042721D02*
X75310723Y-94785999D01*
X76054001Y-92877279D02*
X76054001Y-94042721D01*
X73625999Y-90449277D02*
X76054001Y-92877279D01*
X73625999Y-97325999D02*
X74840000Y-98540000D01*
X73625999Y-85374001D02*
X73625999Y-90449277D01*
X84417279Y-107374001D02*
X86325999Y-107374001D01*
X83785999Y-106742721D02*
X84417279Y-107374001D01*
X83785999Y-105689277D02*
X83785999Y-106742721D01*
X83042721Y-104945999D02*
X83785999Y-105689277D01*
X77485857Y-104945999D02*
X83042721Y-104945999D01*
X86325999Y-107374001D02*
X87540000Y-106160000D01*
X74840000Y-102300142D02*
X77485857Y-104945999D01*
X74840000Y-98540000D02*
X74840000Y-102300142D01*
X143054001Y-98865076D02*
X143054001Y-97054001D01*
X125679077Y-116240000D02*
X143054001Y-98865076D01*
X124350000Y-116240000D02*
X125679077Y-116240000D01*
X143054001Y-97054001D02*
X143054001Y-97325999D01*
X143054001Y-95417279D02*
X143054001Y-97054001D01*
X84491453Y-79508547D02*
X99491453Y-79508547D01*
X84491453Y-79508547D02*
X83899153Y-79523086D01*
X83899153Y-79523086D02*
X83308281Y-79566672D01*
X83308281Y-79566672D02*
X82720259Y-79639197D01*
X82720259Y-79639197D02*
X82136504Y-79740488D01*
X82136504Y-79740488D02*
X81558422Y-79870301D01*
X81558422Y-79870301D02*
X80987407Y-80028322D01*
X80987407Y-80028322D02*
X80424832Y-80214172D01*
X80424832Y-80214172D02*
X79872055Y-80427401D01*
X79872055Y-80427401D02*
X79330406Y-80667498D01*
X79330406Y-80667498D02*
X78801191Y-80933882D01*
X78801191Y-80933882D02*
X78285683Y-81225913D01*
X78285683Y-81225913D02*
X77785127Y-81542888D01*
X77785127Y-81542888D02*
X77300726Y-81884041D01*
X77300726Y-81884041D02*
X76833648Y-82248552D01*
X76833648Y-82248552D02*
X76385019Y-82635542D01*
X76385019Y-82635542D02*
X75955919Y-83044080D01*
X75955919Y-83044080D02*
X73625999Y-85374001D01*
%TO.N,/5V*%
X105862500Y-73000000D02*
X106000000Y-73137500D01*
X99540000Y-73000000D02*
X105862500Y-73000000D01*
X148126136Y-75500000D02*
X142850000Y-75500000D01*
X150000000Y-73626136D02*
X148126136Y-75500000D01*
X150000000Y-73000000D02*
X150000000Y-73626136D01*
X110000000Y-71000000D02*
X148000000Y-71000000D01*
X148000000Y-71000000D02*
X150000000Y-73000000D01*
X107862500Y-73137500D02*
X110000000Y-71000000D01*
X106000000Y-73137500D02*
X107862500Y-73137500D01*
X145541722Y-93460000D02*
X141840000Y-93460000D01*
X150039001Y-88962721D02*
X145541722Y-93460000D01*
X150039001Y-82717279D02*
X150039001Y-88962721D01*
X150000000Y-82678278D02*
X150039001Y-82717279D01*
X150000000Y-73626136D02*
X150000000Y-82678278D01*
X73175989Y-85187601D02*
X73175989Y-91795989D01*
X73175989Y-91795989D02*
X74840000Y-93460000D01*
X78063448Y-106160000D02*
X82460000Y-106160000D01*
X73175989Y-101272541D02*
X78063448Y-106160000D01*
X73175989Y-91795989D02*
X73175989Y-101272541D01*
X86878647Y-114975199D02*
X78063448Y-106160000D01*
X118005199Y-114975199D02*
X86878647Y-114975199D01*
X119270000Y-116240000D02*
X118005199Y-114975199D01*
X99540000Y-73000000D02*
X98364999Y-71824999D01*
X83003057Y-75360532D02*
X73175989Y-85187601D01*
X83003057Y-75360532D02*
X83432156Y-74951993D01*
X83432156Y-74951993D02*
X83880786Y-74565003D01*
X83880786Y-74565003D02*
X84347863Y-74200492D01*
X84347863Y-74200492D02*
X84832264Y-73859339D01*
X84832264Y-73859339D02*
X85332821Y-73542365D01*
X85332821Y-73542365D02*
X85848328Y-73250334D01*
X85848328Y-73250334D02*
X86377544Y-72983949D01*
X86377544Y-72983949D02*
X86919193Y-72743853D01*
X86919193Y-72743853D02*
X87471970Y-72530623D01*
X87471970Y-72530623D02*
X88034544Y-72344774D01*
X88034544Y-72344774D02*
X88605560Y-72186752D01*
X88605560Y-72186752D02*
X89183642Y-72056940D01*
X89183642Y-72056940D02*
X89767397Y-71955649D01*
X89767397Y-71955649D02*
X90355419Y-71883123D01*
X90355419Y-71883123D02*
X90946291Y-71839538D01*
X90946291Y-71839538D02*
X91538591Y-71824999D01*
X91538591Y-71824999D02*
X98364999Y-71824999D01*
%TO.N,Net-(C2-Pad1)*%
X132000000Y-76000000D02*
X131000000Y-76000000D01*
X113418101Y-72657499D02*
X112331100Y-73744500D01*
X127657499Y-72657499D02*
X113418101Y-72657499D01*
X131000000Y-76000000D02*
X127657499Y-72657499D01*
X132000000Y-76000000D02*
X140000000Y-76000000D01*
X142000000Y-74000000D02*
X142937500Y-74000000D01*
X140000000Y-76000000D02*
X142000000Y-74000000D01*
%TO.N,Net-(U3-PadJP6_6)*%
X138104801Y-99735199D02*
X111644801Y-99735199D01*
X141840000Y-96000000D02*
X138104801Y-99735199D01*
X111644801Y-99735199D02*
X110380000Y-101000000D01*
%TO.N,Net-(U3-PadJP6_7)*%
X92700000Y-98460000D02*
X110380000Y-98460000D01*
X85000000Y-106160000D02*
X92700000Y-98460000D01*
%TO.N,Net-(U3-PadJP6_8)*%
X74840000Y-96000000D02*
X110300000Y-96000000D01*
%TD*%
D26*
%TO.N,GND*%
X97794140Y-72733582D02*
X97860352Y-72905518D01*
X97860671Y-72906271D01*
X97930573Y-73057883D01*
X97930850Y-73058448D01*
X97999508Y-73189821D01*
X97999636Y-73190059D01*
X98065138Y-73309156D01*
X98125480Y-73423753D01*
X98178828Y-73541846D01*
X98223461Y-73671587D01*
X98257650Y-73821262D01*
X98279562Y-73999126D01*
X98286834Y-74200598D01*
X98061233Y-74200598D01*
X98041052Y-74036704D01*
X98040507Y-74034275D01*
X98039674Y-74032320D01*
X97978687Y-73916977D01*
X97977313Y-73914900D01*
X97974774Y-73912531D01*
X97879863Y-73845665D01*
X97877697Y-73844437D01*
X97875514Y-73843698D01*
X97752186Y-73814092D01*
X97749531Y-73813745D01*
X97603298Y-73810177D01*
X97602117Y-73810203D01*
X97438487Y-73821454D01*
X97438287Y-73821469D01*
X97263047Y-73836295D01*
X97082089Y-73843488D01*
X96901041Y-73831987D01*
X96733556Y-73792807D01*
X96712436Y-72712436D01*
X97794140Y-72733582D01*
%TA.AperFunction,Conductor*%
D27*
G36*
X97794140Y-72733582D02*
G01*
X97860352Y-72905518D01*
X97860671Y-72906271D01*
X97930573Y-73057883D01*
X97930850Y-73058448D01*
X97999508Y-73189821D01*
X97999636Y-73190059D01*
X98065138Y-73309156D01*
X98125480Y-73423753D01*
X98178828Y-73541846D01*
X98223461Y-73671587D01*
X98257650Y-73821262D01*
X98279562Y-73999126D01*
X98286834Y-74200598D01*
X98061233Y-74200598D01*
X98041052Y-74036704D01*
X98040507Y-74034275D01*
X98039674Y-74032320D01*
X97978687Y-73916977D01*
X97977313Y-73914900D01*
X97974774Y-73912531D01*
X97879863Y-73845665D01*
X97877697Y-73844437D01*
X97875514Y-73843698D01*
X97752186Y-73814092D01*
X97749531Y-73813745D01*
X97603298Y-73810177D01*
X97602117Y-73810203D01*
X97438487Y-73821454D01*
X97438287Y-73821469D01*
X97263047Y-73836295D01*
X97082089Y-73843488D01*
X96901041Y-73831987D01*
X96733556Y-73792807D01*
X96712436Y-72712436D01*
X97794140Y-72733582D01*
G37*
%TD.AperFunction*%
%TD*%
D26*
%TO.N,GND*%
X106411987Y-75071737D02*
X106371481Y-75148531D01*
X106327645Y-75220287D01*
X106285430Y-75283192D01*
X106245642Y-75341284D01*
X106245408Y-75341638D01*
X106209201Y-75398481D01*
X106208705Y-75399332D01*
X106177005Y-75458832D01*
X106176412Y-75460112D01*
X106150145Y-75526176D01*
X106149655Y-75527671D01*
X106129746Y-75604205D01*
X106129458Y-75605655D01*
X106116834Y-75696563D01*
X106116723Y-75697797D01*
X106112803Y-75794800D01*
X105887197Y-75794800D01*
X105883276Y-75697797D01*
X105883165Y-75696563D01*
X105870541Y-75605655D01*
X105870253Y-75604205D01*
X105850344Y-75527671D01*
X105849854Y-75526176D01*
X105823587Y-75460112D01*
X105822994Y-75458832D01*
X105791294Y-75399332D01*
X105790798Y-75398481D01*
X105754591Y-75341638D01*
X105754357Y-75341284D01*
X105714569Y-75283192D01*
X105672354Y-75220287D01*
X105628518Y-75148531D01*
X105588013Y-75071737D01*
X106000000Y-74643322D01*
X106411987Y-75071737D01*
%TA.AperFunction,Conductor*%
D27*
G36*
X106411987Y-75071737D02*
G01*
X106371481Y-75148531D01*
X106327645Y-75220287D01*
X106285430Y-75283192D01*
X106245642Y-75341284D01*
X106245408Y-75341638D01*
X106209201Y-75398481D01*
X106208705Y-75399332D01*
X106177005Y-75458832D01*
X106176412Y-75460112D01*
X106150145Y-75526176D01*
X106149655Y-75527671D01*
X106129746Y-75604205D01*
X106129458Y-75605655D01*
X106116834Y-75696563D01*
X106116723Y-75697797D01*
X106112803Y-75794800D01*
X105887197Y-75794800D01*
X105883276Y-75697797D01*
X105883165Y-75696563D01*
X105870541Y-75605655D01*
X105870253Y-75604205D01*
X105850344Y-75527671D01*
X105849854Y-75526176D01*
X105823587Y-75460112D01*
X105822994Y-75458832D01*
X105791294Y-75399332D01*
X105790798Y-75398481D01*
X105754591Y-75341638D01*
X105754357Y-75341284D01*
X105714569Y-75283192D01*
X105672354Y-75220287D01*
X105628518Y-75148531D01*
X105588013Y-75071737D01*
X106000000Y-74643322D01*
X106411987Y-75071737D01*
G37*
%TD.AperFunction*%
%TD*%
D26*
%TO.N,GND*%
X111467650Y-75249543D02*
X111468838Y-75250496D01*
X111590752Y-75336763D01*
X111592289Y-75337695D01*
X111706576Y-75396350D01*
X111708278Y-75397072D01*
X111818298Y-75434568D01*
X111819798Y-75434979D01*
X111928914Y-75457771D01*
X111929870Y-75457933D01*
X112041442Y-75472473D01*
X112041713Y-75472505D01*
X112158914Y-75485226D01*
X112284913Y-75502547D01*
X112423059Y-75530858D01*
X112568652Y-75574131D01*
X112587551Y-76540851D01*
X111620831Y-76521952D01*
X111577558Y-76376359D01*
X111549247Y-76238213D01*
X111531926Y-76112214D01*
X111519205Y-75995013D01*
X111519173Y-75994742D01*
X111504633Y-75883170D01*
X111504471Y-75882214D01*
X111481679Y-75773098D01*
X111481268Y-75771598D01*
X111443772Y-75661578D01*
X111443050Y-75659876D01*
X111384395Y-75545589D01*
X111383463Y-75544052D01*
X111297196Y-75422138D01*
X111296243Y-75420950D01*
X111184021Y-75297007D01*
X111343707Y-75137321D01*
X111467650Y-75249543D01*
%TA.AperFunction,Conductor*%
D27*
G36*
X111467650Y-75249543D02*
G01*
X111468838Y-75250496D01*
X111590752Y-75336763D01*
X111592289Y-75337695D01*
X111706576Y-75396350D01*
X111708278Y-75397072D01*
X111818298Y-75434568D01*
X111819798Y-75434979D01*
X111928914Y-75457771D01*
X111929870Y-75457933D01*
X112041442Y-75472473D01*
X112041713Y-75472505D01*
X112158914Y-75485226D01*
X112284913Y-75502547D01*
X112423059Y-75530858D01*
X112568652Y-75574131D01*
X112587551Y-76540851D01*
X111620831Y-76521952D01*
X111577558Y-76376359D01*
X111549247Y-76238213D01*
X111531926Y-76112214D01*
X111519205Y-75995013D01*
X111519173Y-75994742D01*
X111504633Y-75883170D01*
X111504471Y-75882214D01*
X111481679Y-75773098D01*
X111481268Y-75771598D01*
X111443772Y-75661578D01*
X111443050Y-75659876D01*
X111384395Y-75545589D01*
X111383463Y-75544052D01*
X111297196Y-75422138D01*
X111296243Y-75420950D01*
X111184021Y-75297007D01*
X111343707Y-75137321D01*
X111467650Y-75249543D01*
G37*
%TD.AperFunction*%
%TD*%
D26*
%TO.N,GND*%
X106286031Y-74491018D02*
X106357787Y-74534854D01*
X106420692Y-74577069D01*
X106478784Y-74616857D01*
X106479138Y-74617091D01*
X106535981Y-74653298D01*
X106536832Y-74653794D01*
X106596332Y-74685494D01*
X106597612Y-74686087D01*
X106663676Y-74712354D01*
X106665171Y-74712844D01*
X106741705Y-74732753D01*
X106743155Y-74733041D01*
X106834063Y-74745665D01*
X106835297Y-74745776D01*
X106932300Y-74749697D01*
X106932300Y-74975303D01*
X106835297Y-74979223D01*
X106834063Y-74979334D01*
X106743155Y-74991958D01*
X106741705Y-74992246D01*
X106665171Y-75012155D01*
X106663676Y-75012645D01*
X106597612Y-75038912D01*
X106596332Y-75039505D01*
X106536832Y-75071205D01*
X106535981Y-75071701D01*
X106479138Y-75107908D01*
X106478784Y-75108142D01*
X106420692Y-75147930D01*
X106357787Y-75190145D01*
X106286031Y-75233981D01*
X106209237Y-75274487D01*
X105780822Y-74862500D01*
X106209237Y-74450513D01*
X106286031Y-74491018D01*
%TA.AperFunction,Conductor*%
D27*
G36*
X106286031Y-74491018D02*
G01*
X106357787Y-74534854D01*
X106420692Y-74577069D01*
X106478784Y-74616857D01*
X106479138Y-74617091D01*
X106535981Y-74653298D01*
X106536832Y-74653794D01*
X106596332Y-74685494D01*
X106597612Y-74686087D01*
X106663676Y-74712354D01*
X106665171Y-74712844D01*
X106741705Y-74732753D01*
X106743155Y-74733041D01*
X106834063Y-74745665D01*
X106835297Y-74745776D01*
X106932300Y-74749697D01*
X106932300Y-74975303D01*
X106835297Y-74979223D01*
X106834063Y-74979334D01*
X106743155Y-74991958D01*
X106741705Y-74992246D01*
X106665171Y-75012155D01*
X106663676Y-75012645D01*
X106597612Y-75038912D01*
X106596332Y-75039505D01*
X106536832Y-75071205D01*
X106535981Y-75071701D01*
X106479138Y-75107908D01*
X106478784Y-75108142D01*
X106420692Y-75147930D01*
X106357787Y-75190145D01*
X106286031Y-75233981D01*
X106209237Y-75274487D01*
X105780822Y-74862500D01*
X106209237Y-74450513D01*
X106286031Y-74491018D01*
G37*
%TD.AperFunction*%
%TD*%
D26*
%TO.N,GND*%
X143031678Y-72500000D02*
X142673418Y-72844522D01*
X142611880Y-72812482D01*
X142552541Y-72777580D01*
X142499968Y-72744378D01*
X142451143Y-72713525D01*
X142450721Y-72713269D01*
X142402714Y-72685484D01*
X142401841Y-72685023D01*
X142351553Y-72660921D01*
X142350321Y-72660409D01*
X142294646Y-72640599D01*
X142293263Y-72640193D01*
X142229096Y-72625287D01*
X142227784Y-72625054D01*
X142152023Y-72615662D01*
X142150919Y-72615574D01*
X142072700Y-72612750D01*
X142072700Y-72387250D01*
X142150919Y-72384425D01*
X142152023Y-72384337D01*
X142227784Y-72374945D01*
X142229096Y-72374712D01*
X142293263Y-72359806D01*
X142294646Y-72359400D01*
X142350321Y-72339590D01*
X142351553Y-72339078D01*
X142401841Y-72314976D01*
X142402714Y-72314515D01*
X142450721Y-72286730D01*
X142451143Y-72286474D01*
X142499968Y-72255621D01*
X142552541Y-72222419D01*
X142611880Y-72187517D01*
X142673418Y-72155478D01*
X143031678Y-72500000D01*
%TA.AperFunction,Conductor*%
D27*
G36*
X143031678Y-72500000D02*
G01*
X142673418Y-72844522D01*
X142611880Y-72812482D01*
X142552541Y-72777580D01*
X142499968Y-72744378D01*
X142451143Y-72713525D01*
X142450721Y-72713269D01*
X142402714Y-72685484D01*
X142401841Y-72685023D01*
X142351553Y-72660921D01*
X142350321Y-72660409D01*
X142294646Y-72640599D01*
X142293263Y-72640193D01*
X142229096Y-72625287D01*
X142227784Y-72625054D01*
X142152023Y-72615662D01*
X142150919Y-72615574D01*
X142072700Y-72612750D01*
X142072700Y-72387250D01*
X142150919Y-72384425D01*
X142152023Y-72384337D01*
X142227784Y-72374945D01*
X142229096Y-72374712D01*
X142293263Y-72359806D01*
X142294646Y-72359400D01*
X142350321Y-72339590D01*
X142351553Y-72339078D01*
X142401841Y-72314976D01*
X142402714Y-72314515D01*
X142450721Y-72286730D01*
X142451143Y-72286474D01*
X142499968Y-72255621D01*
X142552541Y-72222419D01*
X142611880Y-72187517D01*
X142673418Y-72155478D01*
X143031678Y-72500000D01*
G37*
%TD.AperFunction*%
%TD*%
D26*
%TO.N,GND*%
X143056678Y-72500000D02*
X142651652Y-72889494D01*
X142580288Y-72851960D01*
X142513015Y-72811202D01*
X142453817Y-72772004D01*
X142399134Y-72735210D01*
X142398764Y-72734971D01*
X142345156Y-72701539D01*
X142344300Y-72701050D01*
X142288171Y-72671833D01*
X142286902Y-72671258D01*
X142224623Y-72647087D01*
X142223153Y-72646618D01*
X142151095Y-72628323D01*
X142149676Y-72628047D01*
X142064209Y-72616461D01*
X142063004Y-72616356D01*
X141972700Y-72612792D01*
X141972700Y-72387208D01*
X142063004Y-72383643D01*
X142064209Y-72383538D01*
X142149676Y-72371952D01*
X142151095Y-72371676D01*
X142223153Y-72353381D01*
X142224623Y-72352912D01*
X142286902Y-72328741D01*
X142288171Y-72328166D01*
X142344300Y-72298949D01*
X142345156Y-72298460D01*
X142398764Y-72265028D01*
X142399134Y-72264789D01*
X142453817Y-72227995D01*
X142513015Y-72188797D01*
X142580288Y-72148039D01*
X142651652Y-72110506D01*
X143056678Y-72500000D01*
%TA.AperFunction,Conductor*%
D27*
G36*
X143056678Y-72500000D02*
G01*
X142651652Y-72889494D01*
X142580288Y-72851960D01*
X142513015Y-72811202D01*
X142453817Y-72772004D01*
X142399134Y-72735210D01*
X142398764Y-72734971D01*
X142345156Y-72701539D01*
X142344300Y-72701050D01*
X142288171Y-72671833D01*
X142286902Y-72671258D01*
X142224623Y-72647087D01*
X142223153Y-72646618D01*
X142151095Y-72628323D01*
X142149676Y-72628047D01*
X142064209Y-72616461D01*
X142063004Y-72616356D01*
X141972700Y-72612792D01*
X141972700Y-72387208D01*
X142063004Y-72383643D01*
X142064209Y-72383538D01*
X142149676Y-72371952D01*
X142151095Y-72371676D01*
X142223153Y-72353381D01*
X142224623Y-72352912D01*
X142286902Y-72328741D01*
X142288171Y-72328166D01*
X142344300Y-72298949D01*
X142345156Y-72298460D01*
X142398764Y-72265028D01*
X142399134Y-72264789D01*
X142453817Y-72227995D01*
X142513015Y-72188797D01*
X142580288Y-72148039D01*
X142651652Y-72110506D01*
X143056678Y-72500000D01*
G37*
%TD.AperFunction*%
%TD*%
D26*
%TO.N,GND*%
X133173086Y-72613702D02*
X133029253Y-72630566D01*
X133026821Y-72631097D01*
X133025193Y-72631752D01*
X132918906Y-72683270D01*
X132916783Y-72684570D01*
X132914661Y-72686601D01*
X132848190Y-72766918D01*
X132846798Y-72768982D01*
X132845952Y-72770922D01*
X132810346Y-72875502D01*
X132809744Y-72878205D01*
X132796053Y-73002512D01*
X132795977Y-73003836D01*
X132795252Y-73143332D01*
X132795255Y-73143676D01*
X132798540Y-73293630D01*
X132796901Y-73449117D01*
X132781512Y-73605497D01*
X132745708Y-73750032D01*
X131730114Y-73769886D01*
X131749988Y-72753243D01*
X131913418Y-72693357D01*
X131913768Y-72693222D01*
X132060016Y-72634672D01*
X132060202Y-72634596D01*
X132188382Y-72580911D01*
X132305480Y-72532750D01*
X132418799Y-72490617D01*
X132535580Y-72455023D01*
X132663291Y-72426408D01*
X132809317Y-72405283D01*
X132981048Y-72392193D01*
X133173086Y-72387982D01*
X133173086Y-72613702D01*
%TA.AperFunction,Conductor*%
D27*
G36*
X133173086Y-72613702D02*
G01*
X133029253Y-72630566D01*
X133026821Y-72631097D01*
X133025193Y-72631752D01*
X132918906Y-72683270D01*
X132916783Y-72684570D01*
X132914661Y-72686601D01*
X132848190Y-72766918D01*
X132846798Y-72768982D01*
X132845952Y-72770922D01*
X132810346Y-72875502D01*
X132809744Y-72878205D01*
X132796053Y-73002512D01*
X132795977Y-73003836D01*
X132795252Y-73143332D01*
X132795255Y-73143676D01*
X132798540Y-73293630D01*
X132796901Y-73449117D01*
X132781512Y-73605497D01*
X132745708Y-73750032D01*
X131730114Y-73769886D01*
X131749988Y-72753243D01*
X131913418Y-72693357D01*
X131913768Y-72693222D01*
X132060016Y-72634672D01*
X132060202Y-72634596D01*
X132188382Y-72580911D01*
X132305480Y-72532750D01*
X132418799Y-72490617D01*
X132535580Y-72455023D01*
X132663291Y-72426408D01*
X132809317Y-72405283D01*
X132981048Y-72392193D01*
X133173086Y-72387982D01*
X133173086Y-72613702D01*
G37*
%TD.AperFunction*%
%TD*%
D26*
%TO.N,GND*%
X143158788Y-97488200D02*
X143137434Y-97674876D01*
X143103971Y-97832272D01*
X143060061Y-97968969D01*
X143007303Y-98093500D01*
X142947266Y-98214321D01*
X142881561Y-98339840D01*
X142881467Y-98340024D01*
X142811953Y-98478257D01*
X142811716Y-98478755D01*
X142740134Y-98637976D01*
X142739852Y-98638656D01*
X142670953Y-98819216D01*
X141538648Y-98841352D01*
X141560758Y-97710338D01*
X141735667Y-97669146D01*
X141924123Y-97656449D01*
X142112302Y-97662911D01*
X142294368Y-97677110D01*
X142294581Y-97677124D01*
X142464484Y-97687499D01*
X142465680Y-97687516D01*
X142617452Y-97682468D01*
X142620115Y-97682094D01*
X142748066Y-97650048D01*
X142750411Y-97649210D01*
X142752384Y-97648048D01*
X142850823Y-97577430D01*
X142852694Y-97575788D01*
X142854671Y-97573002D01*
X142917908Y-97452236D01*
X142918841Y-97449928D01*
X142919263Y-97447888D01*
X142940241Y-97276556D01*
X143165869Y-97276556D01*
X143158788Y-97488200D01*
%TA.AperFunction,Conductor*%
D27*
G36*
X143158788Y-97488200D02*
G01*
X143137434Y-97674876D01*
X143103971Y-97832272D01*
X143060061Y-97968969D01*
X143007303Y-98093500D01*
X142947266Y-98214321D01*
X142881561Y-98339840D01*
X142881467Y-98340024D01*
X142811953Y-98478257D01*
X142811716Y-98478755D01*
X142740134Y-98637976D01*
X142739852Y-98638656D01*
X142670953Y-98819216D01*
X141538648Y-98841352D01*
X141560758Y-97710338D01*
X141735667Y-97669146D01*
X141924123Y-97656449D01*
X142112302Y-97662911D01*
X142294368Y-97677110D01*
X142294581Y-97677124D01*
X142464484Y-97687499D01*
X142465680Y-97687516D01*
X142617452Y-97682468D01*
X142620115Y-97682094D01*
X142748066Y-97650048D01*
X142750411Y-97649210D01*
X142752384Y-97648048D01*
X142850823Y-97577430D01*
X142852694Y-97575788D01*
X142854671Y-97573002D01*
X142917908Y-97452236D01*
X142918841Y-97449928D01*
X142919263Y-97447888D01*
X142940241Y-97276556D01*
X143165869Y-97276556D01*
X143158788Y-97488200D01*
G37*
%TD.AperFunction*%
%TD*%
D26*
%TO.N,GND*%
X140131678Y-82000000D02*
X139866915Y-82254610D01*
X139825110Y-82233543D01*
X139781620Y-82210322D01*
X139742394Y-82189152D01*
X139742148Y-82189023D01*
X139705146Y-82170086D01*
X139704559Y-82169804D01*
X139667777Y-82153301D01*
X139666877Y-82152938D01*
X139628257Y-82139044D01*
X139627169Y-82138707D01*
X139584657Y-82127596D01*
X139583553Y-82127359D01*
X139535093Y-82119207D01*
X139534111Y-82119081D01*
X139477647Y-82114061D01*
X139476849Y-82114015D01*
X139422700Y-82112622D01*
X139422700Y-81887378D01*
X139476849Y-81885984D01*
X139477647Y-81885938D01*
X139534111Y-81880918D01*
X139535093Y-81880792D01*
X139583553Y-81872640D01*
X139584657Y-81872403D01*
X139627169Y-81861292D01*
X139628257Y-81860955D01*
X139666877Y-81847061D01*
X139667777Y-81846698D01*
X139704559Y-81830195D01*
X139705146Y-81829913D01*
X139742148Y-81810976D01*
X139742394Y-81810847D01*
X139781620Y-81789677D01*
X139825110Y-81766456D01*
X139866915Y-81745390D01*
X140131678Y-82000000D01*
%TA.AperFunction,Conductor*%
D27*
G36*
X140131678Y-82000000D02*
G01*
X139866915Y-82254610D01*
X139825110Y-82233543D01*
X139781620Y-82210322D01*
X139742394Y-82189152D01*
X139742148Y-82189023D01*
X139705146Y-82170086D01*
X139704559Y-82169804D01*
X139667777Y-82153301D01*
X139666877Y-82152938D01*
X139628257Y-82139044D01*
X139627169Y-82138707D01*
X139584657Y-82127596D01*
X139583553Y-82127359D01*
X139535093Y-82119207D01*
X139534111Y-82119081D01*
X139477647Y-82114061D01*
X139476849Y-82114015D01*
X139422700Y-82112622D01*
X139422700Y-81887378D01*
X139476849Y-81885984D01*
X139477647Y-81885938D01*
X139534111Y-81880918D01*
X139535093Y-81880792D01*
X139583553Y-81872640D01*
X139584657Y-81872403D01*
X139627169Y-81861292D01*
X139628257Y-81860955D01*
X139666877Y-81847061D01*
X139667777Y-81846698D01*
X139704559Y-81830195D01*
X139705146Y-81829913D01*
X139742148Y-81810976D01*
X139742394Y-81810847D01*
X139781620Y-81789677D01*
X139825110Y-81766456D01*
X139866915Y-81745390D01*
X140131678Y-82000000D01*
G37*
%TD.AperFunction*%
%TD*%
D26*
%TO.N,GND*%
X73760736Y-97447888D02*
X73761279Y-97450318D01*
X73762091Y-97452236D01*
X73825328Y-97573002D01*
X73826694Y-97575084D01*
X73829176Y-97577430D01*
X73927615Y-97648048D01*
X73929771Y-97649294D01*
X73931933Y-97650048D01*
X74059884Y-97682094D01*
X74062547Y-97682468D01*
X74214319Y-97687516D01*
X74215515Y-97687499D01*
X74385418Y-97677124D01*
X74385631Y-97677110D01*
X74567697Y-97662911D01*
X74755876Y-97656449D01*
X74944332Y-97669146D01*
X75119242Y-97710338D01*
X75141352Y-98841352D01*
X74009047Y-98819216D01*
X73940147Y-98638656D01*
X73939865Y-98637976D01*
X73868283Y-98478755D01*
X73868046Y-98478257D01*
X73798532Y-98340024D01*
X73798438Y-98339840D01*
X73732733Y-98214321D01*
X73672696Y-98093500D01*
X73619938Y-97968969D01*
X73576028Y-97832272D01*
X73542565Y-97674876D01*
X73521211Y-97488200D01*
X73514131Y-97276556D01*
X73739759Y-97276556D01*
X73760736Y-97447888D01*
%TA.AperFunction,Conductor*%
D27*
G36*
X73760736Y-97447888D02*
G01*
X73761279Y-97450318D01*
X73762091Y-97452236D01*
X73825328Y-97573002D01*
X73826694Y-97575084D01*
X73829176Y-97577430D01*
X73927615Y-97648048D01*
X73929771Y-97649294D01*
X73931933Y-97650048D01*
X74059884Y-97682094D01*
X74062547Y-97682468D01*
X74214319Y-97687516D01*
X74215515Y-97687499D01*
X74385418Y-97677124D01*
X74385631Y-97677110D01*
X74567697Y-97662911D01*
X74755876Y-97656449D01*
X74944332Y-97669146D01*
X75119242Y-97710338D01*
X75141352Y-98841352D01*
X74009047Y-98819216D01*
X73940147Y-98638656D01*
X73939865Y-98637976D01*
X73868283Y-98478755D01*
X73868046Y-98478257D01*
X73798532Y-98340024D01*
X73798438Y-98339840D01*
X73732733Y-98214321D01*
X73672696Y-98093500D01*
X73619938Y-97968969D01*
X73576028Y-97832272D01*
X73542565Y-97674876D01*
X73521211Y-97488200D01*
X73514131Y-97276556D01*
X73739759Y-97276556D01*
X73760736Y-97447888D01*
G37*
%TD.AperFunction*%
%TD*%
D26*
%TO.N,GND*%
X87819216Y-106990953D02*
X87638656Y-107059852D01*
X87637976Y-107060134D01*
X87478755Y-107131716D01*
X87478257Y-107131953D01*
X87340024Y-107201467D01*
X87339840Y-107201561D01*
X87214321Y-107267266D01*
X87093500Y-107327303D01*
X86968969Y-107380061D01*
X86832272Y-107423971D01*
X86674876Y-107457434D01*
X86488200Y-107478788D01*
X86276556Y-107485869D01*
X86276556Y-107260241D01*
X86447888Y-107239263D01*
X86450318Y-107238720D01*
X86452236Y-107237908D01*
X86573002Y-107174671D01*
X86575084Y-107173305D01*
X86577430Y-107170823D01*
X86648048Y-107072384D01*
X86649294Y-107070228D01*
X86650048Y-107068066D01*
X86682094Y-106940115D01*
X86682468Y-106937452D01*
X86687516Y-106785680D01*
X86687499Y-106784484D01*
X86677124Y-106614581D01*
X86677110Y-106614368D01*
X86662911Y-106432302D01*
X86656449Y-106244123D01*
X86669146Y-106055667D01*
X86710338Y-105880758D01*
X87841352Y-105858648D01*
X87819216Y-106990953D01*
%TA.AperFunction,Conductor*%
D27*
G36*
X87819216Y-106990953D02*
G01*
X87638656Y-107059852D01*
X87637976Y-107060134D01*
X87478755Y-107131716D01*
X87478257Y-107131953D01*
X87340024Y-107201467D01*
X87339840Y-107201561D01*
X87214321Y-107267266D01*
X87093500Y-107327303D01*
X86968969Y-107380061D01*
X86832272Y-107423971D01*
X86674876Y-107457434D01*
X86488200Y-107478788D01*
X86276556Y-107485869D01*
X86276556Y-107260241D01*
X86447888Y-107239263D01*
X86450318Y-107238720D01*
X86452236Y-107237908D01*
X86573002Y-107174671D01*
X86575084Y-107173305D01*
X86577430Y-107170823D01*
X86648048Y-107072384D01*
X86649294Y-107070228D01*
X86650048Y-107068066D01*
X86682094Y-106940115D01*
X86682468Y-106937452D01*
X86687516Y-106785680D01*
X86687499Y-106784484D01*
X86677124Y-106614581D01*
X86677110Y-106614368D01*
X86662911Y-106432302D01*
X86656449Y-106244123D01*
X86669146Y-106055667D01*
X86710338Y-105880758D01*
X87841352Y-105858648D01*
X87819216Y-106990953D01*
G37*
%TD.AperFunction*%
%TD*%
D26*
%TO.N,GND*%
X75624491Y-98929597D02*
X75538373Y-99087404D01*
X75445900Y-99224686D01*
X75353826Y-99342233D01*
X75264809Y-99448344D01*
X75264662Y-99448522D01*
X75181627Y-99551245D01*
X75181052Y-99552015D01*
X75106899Y-99659461D01*
X75106078Y-99660825D01*
X75043581Y-99781259D01*
X75042827Y-99783029D01*
X74994755Y-99924716D01*
X74994284Y-99926542D01*
X74963409Y-100097751D01*
X74963224Y-100099343D01*
X74952945Y-100296300D01*
X74727055Y-100296300D01*
X74716775Y-100099343D01*
X74716590Y-100097751D01*
X74685715Y-99926542D01*
X74685244Y-99924716D01*
X74637172Y-99783029D01*
X74636418Y-99781259D01*
X74573921Y-99660825D01*
X74573100Y-99659461D01*
X74498947Y-99552015D01*
X74498372Y-99551245D01*
X74415337Y-99448522D01*
X74415190Y-99448344D01*
X74326173Y-99342233D01*
X74234099Y-99224686D01*
X74141626Y-99087404D01*
X74055509Y-98929597D01*
X74840000Y-98113822D01*
X75624491Y-98929597D01*
%TA.AperFunction,Conductor*%
D27*
G36*
X75624491Y-98929597D02*
G01*
X75538373Y-99087404D01*
X75445900Y-99224686D01*
X75353826Y-99342233D01*
X75264809Y-99448344D01*
X75264662Y-99448522D01*
X75181627Y-99551245D01*
X75181052Y-99552015D01*
X75106899Y-99659461D01*
X75106078Y-99660825D01*
X75043581Y-99781259D01*
X75042827Y-99783029D01*
X74994755Y-99924716D01*
X74994284Y-99926542D01*
X74963409Y-100097751D01*
X74963224Y-100099343D01*
X74952945Y-100296300D01*
X74727055Y-100296300D01*
X74716775Y-100099343D01*
X74716590Y-100097751D01*
X74685715Y-99926542D01*
X74685244Y-99924716D01*
X74637172Y-99783029D01*
X74636418Y-99781259D01*
X74573921Y-99660825D01*
X74573100Y-99659461D01*
X74498947Y-99552015D01*
X74498372Y-99551245D01*
X74415337Y-99448522D01*
X74415190Y-99448344D01*
X74326173Y-99342233D01*
X74234099Y-99224686D01*
X74141626Y-99087404D01*
X74055509Y-98929597D01*
X74840000Y-98113822D01*
X75624491Y-98929597D01*
G37*
%TD.AperFunction*%
%TD*%
D26*
%TO.N,GND*%
X124898169Y-115487121D02*
X125030602Y-115580295D01*
X125153999Y-115677196D01*
X125270796Y-115769652D01*
X125271338Y-115770058D01*
X125383831Y-115849724D01*
X125385219Y-115850579D01*
X125496008Y-115909351D01*
X125498689Y-115910403D01*
X125610376Y-115940177D01*
X125612833Y-115940580D01*
X125614453Y-115940580D01*
X125729639Y-115933251D01*
X125732097Y-115932851D01*
X125733881Y-115932231D01*
X125855167Y-115879694D01*
X125858138Y-115877888D01*
X125979236Y-115779280D01*
X126139001Y-115939045D01*
X125972835Y-116108067D01*
X125972716Y-116108189D01*
X125826067Y-116261414D01*
X125826040Y-116261442D01*
X125700089Y-116393858D01*
X125587290Y-116509339D01*
X125479944Y-116611931D01*
X125370353Y-116705701D01*
X125250777Y-116794743D01*
X125113376Y-116883188D01*
X124950395Y-116975068D01*
X124761956Y-117070419D01*
X123898422Y-116240000D01*
X124761632Y-115409892D01*
X124898169Y-115487121D01*
%TA.AperFunction,Conductor*%
D27*
G36*
X124898169Y-115487121D02*
G01*
X125030602Y-115580295D01*
X125153999Y-115677196D01*
X125270796Y-115769652D01*
X125271338Y-115770058D01*
X125383831Y-115849724D01*
X125385219Y-115850579D01*
X125496008Y-115909351D01*
X125498689Y-115910403D01*
X125610376Y-115940177D01*
X125612833Y-115940580D01*
X125614453Y-115940580D01*
X125729639Y-115933251D01*
X125732097Y-115932851D01*
X125733881Y-115932231D01*
X125855167Y-115879694D01*
X125858138Y-115877888D01*
X125979236Y-115779280D01*
X126139001Y-115939045D01*
X125972835Y-116108067D01*
X125972716Y-116108189D01*
X125826067Y-116261414D01*
X125826040Y-116261442D01*
X125700089Y-116393858D01*
X125587290Y-116509339D01*
X125479944Y-116611931D01*
X125370353Y-116705701D01*
X125250777Y-116794743D01*
X125113376Y-116883188D01*
X124950395Y-116975068D01*
X124761956Y-117070419D01*
X123898422Y-116240000D01*
X124761632Y-115409892D01*
X124898169Y-115487121D01*
G37*
%TD.AperFunction*%
%TD*%
D26*
%TO.N,/5V*%
X100062633Y-72332357D02*
X100193595Y-72420200D01*
X100305874Y-72507559D01*
X100407335Y-72591932D01*
X100407521Y-72592084D01*
X100505807Y-72670721D01*
X100506581Y-72671293D01*
X100609388Y-72741467D01*
X100610750Y-72742277D01*
X100725928Y-72801384D01*
X100727685Y-72802125D01*
X100863086Y-72847566D01*
X100864896Y-72848029D01*
X101028370Y-72877200D01*
X101029946Y-72877380D01*
X101217300Y-72887061D01*
X101217300Y-73112939D01*
X101029946Y-73122619D01*
X101028370Y-73122799D01*
X100864896Y-73151970D01*
X100863086Y-73152433D01*
X100727685Y-73197874D01*
X100725928Y-73198615D01*
X100610750Y-73257722D01*
X100609388Y-73258532D01*
X100506581Y-73328706D01*
X100505807Y-73329278D01*
X100407521Y-73407915D01*
X100407335Y-73408067D01*
X100305874Y-73492440D01*
X100193595Y-73579799D01*
X100062633Y-73667642D01*
X99912601Y-73749395D01*
X99133322Y-73000000D01*
X99912601Y-72250605D01*
X100062633Y-72332357D01*
%TA.AperFunction,Conductor*%
D27*
G36*
X100062633Y-72332357D02*
G01*
X100193595Y-72420200D01*
X100305874Y-72507559D01*
X100407335Y-72591932D01*
X100407521Y-72592084D01*
X100505807Y-72670721D01*
X100506581Y-72671293D01*
X100609388Y-72741467D01*
X100610750Y-72742277D01*
X100725928Y-72801384D01*
X100727685Y-72802125D01*
X100863086Y-72847566D01*
X100864896Y-72848029D01*
X101028370Y-72877200D01*
X101029946Y-72877380D01*
X101217300Y-72887061D01*
X101217300Y-73112939D01*
X101029946Y-73122619D01*
X101028370Y-73122799D01*
X100864896Y-73151970D01*
X100863086Y-73152433D01*
X100727685Y-73197874D01*
X100725928Y-73198615D01*
X100610750Y-73257722D01*
X100609388Y-73258532D01*
X100506581Y-73328706D01*
X100505807Y-73329278D01*
X100407521Y-73407915D01*
X100407335Y-73408067D01*
X100305874Y-73492440D01*
X100193595Y-73579799D01*
X100062633Y-73667642D01*
X99912601Y-73749395D01*
X99133322Y-73000000D01*
X99912601Y-72250605D01*
X100062633Y-72332357D01*
G37*
%TD.AperFunction*%
%TD*%
D26*
%TO.N,/5V*%
X106209903Y-73200585D02*
X105680976Y-73471858D01*
X105625243Y-73417776D01*
X105571675Y-73361218D01*
X105523420Y-73308850D01*
X105523202Y-73308620D01*
X105477287Y-73261215D01*
X105476638Y-73260590D01*
X105429980Y-73218806D01*
X105428815Y-73217880D01*
X105378284Y-73182328D01*
X105376647Y-73181351D01*
X105319110Y-73152639D01*
X105317246Y-73151887D01*
X105249575Y-73130625D01*
X105247813Y-73130207D01*
X105166877Y-73117002D01*
X105165423Y-73116850D01*
X105080200Y-73112878D01*
X105080200Y-72887272D01*
X105188917Y-72883540D01*
X105189916Y-72883466D01*
X105291272Y-72871937D01*
X105292367Y-72871763D01*
X105378521Y-72854248D01*
X105379566Y-72853990D01*
X105454937Y-72831881D01*
X105455735Y-72831617D01*
X105524745Y-72806305D01*
X105525133Y-72806156D01*
X105592163Y-72779050D01*
X105661429Y-72751624D01*
X105737227Y-72725283D01*
X105824159Y-72701313D01*
X105918206Y-72682737D01*
X106209903Y-73200585D01*
%TA.AperFunction,Conductor*%
D27*
G36*
X106209903Y-73200585D02*
G01*
X105680976Y-73471858D01*
X105625243Y-73417776D01*
X105571675Y-73361218D01*
X105523420Y-73308850D01*
X105523202Y-73308620D01*
X105477287Y-73261215D01*
X105476638Y-73260590D01*
X105429980Y-73218806D01*
X105428815Y-73217880D01*
X105378284Y-73182328D01*
X105376647Y-73181351D01*
X105319110Y-73152639D01*
X105317246Y-73151887D01*
X105249575Y-73130625D01*
X105247813Y-73130207D01*
X105166877Y-73117002D01*
X105165423Y-73116850D01*
X105080200Y-73112878D01*
X105080200Y-72887272D01*
X105188917Y-72883540D01*
X105189916Y-72883466D01*
X105291272Y-72871937D01*
X105292367Y-72871763D01*
X105378521Y-72854248D01*
X105379566Y-72853990D01*
X105454937Y-72831881D01*
X105455735Y-72831617D01*
X105524745Y-72806305D01*
X105525133Y-72806156D01*
X105592163Y-72779050D01*
X105661429Y-72751624D01*
X105737227Y-72725283D01*
X105824159Y-72701313D01*
X105918206Y-72682737D01*
X106209903Y-73200585D01*
G37*
%TD.AperFunction*%
%TD*%
D26*
%TO.N,/5V*%
X143119711Y-75148039D02*
X143186984Y-75188797D01*
X143246182Y-75227995D01*
X143300865Y-75264789D01*
X143301235Y-75265028D01*
X143354843Y-75298460D01*
X143355699Y-75298949D01*
X143411828Y-75328166D01*
X143413097Y-75328741D01*
X143475376Y-75352912D01*
X143476846Y-75353381D01*
X143548904Y-75371676D01*
X143550323Y-75371952D01*
X143635790Y-75383538D01*
X143636995Y-75383643D01*
X143727300Y-75387208D01*
X143727300Y-75612792D01*
X143636995Y-75616356D01*
X143635790Y-75616461D01*
X143550323Y-75628047D01*
X143548904Y-75628323D01*
X143476846Y-75646618D01*
X143475376Y-75647087D01*
X143413097Y-75671258D01*
X143411828Y-75671833D01*
X143355699Y-75701050D01*
X143354843Y-75701539D01*
X143301235Y-75734971D01*
X143300865Y-75735210D01*
X143246182Y-75772004D01*
X143186984Y-75811202D01*
X143119711Y-75851960D01*
X143048348Y-75889494D01*
X142643322Y-75500000D01*
X143048348Y-75110506D01*
X143119711Y-75148039D01*
%TA.AperFunction,Conductor*%
D27*
G36*
X143119711Y-75148039D02*
G01*
X143186984Y-75188797D01*
X143246182Y-75227995D01*
X143300865Y-75264789D01*
X143301235Y-75265028D01*
X143354843Y-75298460D01*
X143355699Y-75298949D01*
X143411828Y-75328166D01*
X143413097Y-75328741D01*
X143475376Y-75352912D01*
X143476846Y-75353381D01*
X143548904Y-75371676D01*
X143550323Y-75371952D01*
X143635790Y-75383538D01*
X143636995Y-75383643D01*
X143727300Y-75387208D01*
X143727300Y-75612792D01*
X143636995Y-75616356D01*
X143635790Y-75616461D01*
X143550323Y-75628047D01*
X143548904Y-75628323D01*
X143476846Y-75646618D01*
X143475376Y-75647087D01*
X143413097Y-75671258D01*
X143411828Y-75671833D01*
X143355699Y-75701050D01*
X143354843Y-75701539D01*
X143301235Y-75734971D01*
X143300865Y-75735210D01*
X143246182Y-75772004D01*
X143186984Y-75811202D01*
X143119711Y-75851960D01*
X143048348Y-75889494D01*
X142643322Y-75500000D01*
X143048348Y-75110506D01*
X143119711Y-75148039D01*
G37*
%TD.AperFunction*%
%TD*%
D26*
%TO.N,/5V*%
X106286031Y-72766018D02*
X106357787Y-72809854D01*
X106420692Y-72852069D01*
X106478784Y-72891857D01*
X106479138Y-72892091D01*
X106535981Y-72928298D01*
X106536832Y-72928794D01*
X106596332Y-72960494D01*
X106597612Y-72961087D01*
X106663676Y-72987354D01*
X106665171Y-72987844D01*
X106741705Y-73007753D01*
X106743155Y-73008041D01*
X106834063Y-73020665D01*
X106835297Y-73020776D01*
X106932300Y-73024697D01*
X106932300Y-73250303D01*
X106835297Y-73254223D01*
X106834063Y-73254334D01*
X106743155Y-73266958D01*
X106741705Y-73267246D01*
X106665171Y-73287155D01*
X106663676Y-73287645D01*
X106597612Y-73313912D01*
X106596332Y-73314505D01*
X106536832Y-73346205D01*
X106535981Y-73346701D01*
X106479138Y-73382908D01*
X106478784Y-73383142D01*
X106420692Y-73422930D01*
X106357787Y-73465145D01*
X106286031Y-73508981D01*
X106209237Y-73549487D01*
X105780822Y-73137500D01*
X106209237Y-72725513D01*
X106286031Y-72766018D01*
%TA.AperFunction,Conductor*%
D27*
G36*
X106286031Y-72766018D02*
G01*
X106357787Y-72809854D01*
X106420692Y-72852069D01*
X106478784Y-72891857D01*
X106479138Y-72892091D01*
X106535981Y-72928298D01*
X106536832Y-72928794D01*
X106596332Y-72960494D01*
X106597612Y-72961087D01*
X106663676Y-72987354D01*
X106665171Y-72987844D01*
X106741705Y-73007753D01*
X106743155Y-73008041D01*
X106834063Y-73020665D01*
X106835297Y-73020776D01*
X106932300Y-73024697D01*
X106932300Y-73250303D01*
X106835297Y-73254223D01*
X106834063Y-73254334D01*
X106743155Y-73266958D01*
X106741705Y-73267246D01*
X106665171Y-73287155D01*
X106663676Y-73287645D01*
X106597612Y-73313912D01*
X106596332Y-73314505D01*
X106536832Y-73346205D01*
X106535981Y-73346701D01*
X106479138Y-73382908D01*
X106478784Y-73383142D01*
X106420692Y-73422930D01*
X106357787Y-73465145D01*
X106286031Y-73508981D01*
X106209237Y-73549487D01*
X105780822Y-73137500D01*
X106209237Y-72725513D01*
X106286031Y-72766018D01*
G37*
%TD.AperFunction*%
%TD*%
D26*
%TO.N,/5V*%
X142387404Y-92761626D02*
X142524686Y-92854099D01*
X142642233Y-92946173D01*
X142748344Y-93035190D01*
X142748522Y-93035337D01*
X142851245Y-93118372D01*
X142852015Y-93118947D01*
X142959461Y-93193100D01*
X142960825Y-93193921D01*
X143081259Y-93256418D01*
X143083029Y-93257172D01*
X143224716Y-93305244D01*
X143226542Y-93305715D01*
X143397751Y-93336590D01*
X143399343Y-93336775D01*
X143596300Y-93347055D01*
X143596300Y-93572945D01*
X143399343Y-93583224D01*
X143397751Y-93583409D01*
X143226542Y-93614284D01*
X143224716Y-93614755D01*
X143083029Y-93662827D01*
X143081259Y-93663581D01*
X142960825Y-93726078D01*
X142959461Y-93726899D01*
X142852015Y-93801052D01*
X142851245Y-93801627D01*
X142748522Y-93884662D01*
X142748344Y-93884809D01*
X142642233Y-93973826D01*
X142524686Y-94065900D01*
X142387404Y-94158373D01*
X142229597Y-94244491D01*
X141413822Y-93460000D01*
X142229597Y-92675509D01*
X142387404Y-92761626D01*
%TA.AperFunction,Conductor*%
D27*
G36*
X142387404Y-92761626D02*
G01*
X142524686Y-92854099D01*
X142642233Y-92946173D01*
X142748344Y-93035190D01*
X142748522Y-93035337D01*
X142851245Y-93118372D01*
X142852015Y-93118947D01*
X142959461Y-93193100D01*
X142960825Y-93193921D01*
X143081259Y-93256418D01*
X143083029Y-93257172D01*
X143224716Y-93305244D01*
X143226542Y-93305715D01*
X143397751Y-93336590D01*
X143399343Y-93336775D01*
X143596300Y-93347055D01*
X143596300Y-93572945D01*
X143399343Y-93583224D01*
X143397751Y-93583409D01*
X143226542Y-93614284D01*
X143224716Y-93614755D01*
X143083029Y-93662827D01*
X143081259Y-93663581D01*
X142960825Y-93726078D01*
X142959461Y-93726899D01*
X142852015Y-93801052D01*
X142851245Y-93801627D01*
X142748522Y-93884662D01*
X142748344Y-93884809D01*
X142642233Y-93973826D01*
X142524686Y-94065900D01*
X142387404Y-94158373D01*
X142229597Y-94244491D01*
X141413822Y-93460000D01*
X142229597Y-92675509D01*
X142387404Y-92761626D01*
G37*
%TD.AperFunction*%
%TD*%
D26*
%TO.N,/5V*%
X73824512Y-92270245D02*
X73825768Y-92271240D01*
X73968662Y-92370471D01*
X73970287Y-92371429D01*
X74104467Y-92437625D01*
X74106252Y-92438343D01*
X74235604Y-92479310D01*
X74237148Y-92479695D01*
X74365556Y-92503237D01*
X74366507Y-92503374D01*
X74497859Y-92517296D01*
X74498090Y-92517319D01*
X74636078Y-92529407D01*
X74784288Y-92547418D01*
X74946750Y-92579103D01*
X75119231Y-92629795D01*
X75141352Y-93761352D01*
X74009795Y-93739231D01*
X73959103Y-93566750D01*
X73927418Y-93404288D01*
X73909407Y-93256078D01*
X73897319Y-93118090D01*
X73897296Y-93117859D01*
X73883374Y-92986507D01*
X73883237Y-92985556D01*
X73859695Y-92857148D01*
X73859310Y-92855604D01*
X73818343Y-92726252D01*
X73817625Y-92724467D01*
X73751429Y-92590287D01*
X73750471Y-92588662D01*
X73651240Y-92445768D01*
X73650245Y-92444512D01*
X73518245Y-92297974D01*
X73677974Y-92138245D01*
X73824512Y-92270245D01*
%TA.AperFunction,Conductor*%
D27*
G36*
X73824512Y-92270245D02*
G01*
X73825768Y-92271240D01*
X73968662Y-92370471D01*
X73970287Y-92371429D01*
X74104467Y-92437625D01*
X74106252Y-92438343D01*
X74235604Y-92479310D01*
X74237148Y-92479695D01*
X74365556Y-92503237D01*
X74366507Y-92503374D01*
X74497859Y-92517296D01*
X74498090Y-92517319D01*
X74636078Y-92529407D01*
X74784288Y-92547418D01*
X74946750Y-92579103D01*
X75119231Y-92629795D01*
X75141352Y-93761352D01*
X74009795Y-93739231D01*
X73959103Y-93566750D01*
X73927418Y-93404288D01*
X73909407Y-93256078D01*
X73897319Y-93118090D01*
X73897296Y-93117859D01*
X73883374Y-92986507D01*
X73883237Y-92985556D01*
X73859695Y-92857148D01*
X73859310Y-92855604D01*
X73818343Y-92726252D01*
X73817625Y-92724467D01*
X73751429Y-92590287D01*
X73750471Y-92588662D01*
X73651240Y-92445768D01*
X73650245Y-92444512D01*
X73518245Y-92297974D01*
X73677974Y-92138245D01*
X73824512Y-92270245D01*
G37*
%TD.AperFunction*%
%TD*%
D26*
%TO.N,/5V*%
X82886178Y-106160000D02*
X82070403Y-106944491D01*
X81912595Y-106858373D01*
X81775313Y-106765900D01*
X81657766Y-106673826D01*
X81551655Y-106584809D01*
X81551477Y-106584662D01*
X81448754Y-106501627D01*
X81447984Y-106501052D01*
X81340538Y-106426899D01*
X81339174Y-106426078D01*
X81218740Y-106363581D01*
X81216970Y-106362827D01*
X81075283Y-106314755D01*
X81073457Y-106314284D01*
X80902248Y-106283409D01*
X80900656Y-106283224D01*
X80703700Y-106272945D01*
X80703700Y-106047055D01*
X80900656Y-106036775D01*
X80902248Y-106036590D01*
X81073457Y-106005715D01*
X81075283Y-106005244D01*
X81216970Y-105957172D01*
X81218740Y-105956418D01*
X81339174Y-105893921D01*
X81340538Y-105893100D01*
X81447984Y-105818947D01*
X81448754Y-105818372D01*
X81551477Y-105735337D01*
X81551655Y-105735190D01*
X81657766Y-105646173D01*
X81775313Y-105554099D01*
X81912595Y-105461626D01*
X82070403Y-105375509D01*
X82886178Y-106160000D01*
%TA.AperFunction,Conductor*%
D27*
G36*
X82886178Y-106160000D02*
G01*
X82070403Y-106944491D01*
X81912595Y-106858373D01*
X81775313Y-106765900D01*
X81657766Y-106673826D01*
X81551655Y-106584809D01*
X81551477Y-106584662D01*
X81448754Y-106501627D01*
X81447984Y-106501052D01*
X81340538Y-106426899D01*
X81339174Y-106426078D01*
X81218740Y-106363581D01*
X81216970Y-106362827D01*
X81075283Y-106314755D01*
X81073457Y-106314284D01*
X80902248Y-106283409D01*
X80900656Y-106283224D01*
X80703700Y-106272945D01*
X80703700Y-106047055D01*
X80900656Y-106036775D01*
X80902248Y-106036590D01*
X81073457Y-106005715D01*
X81075283Y-106005244D01*
X81216970Y-105957172D01*
X81218740Y-105956418D01*
X81339174Y-105893921D01*
X81340538Y-105893100D01*
X81447984Y-105818947D01*
X81448754Y-105818372D01*
X81551477Y-105735337D01*
X81551655Y-105735190D01*
X81657766Y-105646173D01*
X81775313Y-105554099D01*
X81912595Y-105461626D01*
X82070403Y-105375509D01*
X82886178Y-106160000D01*
G37*
%TD.AperFunction*%
%TD*%
D26*
%TO.N,/5V*%
X118151441Y-114870123D02*
X118349363Y-114890761D01*
X118516605Y-114923298D01*
X118662122Y-114966270D01*
X118794824Y-115018274D01*
X118923642Y-115077972D01*
X119057260Y-115143910D01*
X119057380Y-115143968D01*
X119204351Y-115214582D01*
X119204770Y-115214775D01*
X119373700Y-115288511D01*
X119374295Y-115288752D01*
X119565889Y-115361094D01*
X119589313Y-116559313D01*
X118392337Y-116535913D01*
X118348596Y-116351408D01*
X118334491Y-116153337D01*
X118340212Y-115955787D01*
X118353852Y-115764823D01*
X118353866Y-115764596D01*
X118363381Y-115586508D01*
X118363388Y-115585296D01*
X118356700Y-115426286D01*
X118356300Y-115423615D01*
X118321353Y-115289616D01*
X118320492Y-115287280D01*
X118319320Y-115285331D01*
X118244057Y-115182273D01*
X118242399Y-115180416D01*
X118239647Y-115178489D01*
X118112010Y-115112304D01*
X118109698Y-115111380D01*
X118107699Y-115110971D01*
X117926798Y-115088951D01*
X117926798Y-114863291D01*
X118151441Y-114870123D01*
%TA.AperFunction,Conductor*%
D27*
G36*
X118151441Y-114870123D02*
G01*
X118349363Y-114890761D01*
X118516605Y-114923298D01*
X118662122Y-114966270D01*
X118794824Y-115018274D01*
X118923642Y-115077972D01*
X119057260Y-115143910D01*
X119057380Y-115143968D01*
X119204351Y-115214582D01*
X119204770Y-115214775D01*
X119373700Y-115288511D01*
X119374295Y-115288752D01*
X119565889Y-115361094D01*
X119589313Y-116559313D01*
X118392337Y-116535913D01*
X118348596Y-116351408D01*
X118334491Y-116153337D01*
X118340212Y-115955787D01*
X118353852Y-115764823D01*
X118353866Y-115764596D01*
X118363381Y-115586508D01*
X118363388Y-115585296D01*
X118356700Y-115426286D01*
X118356300Y-115423615D01*
X118321353Y-115289616D01*
X118320492Y-115287280D01*
X118319320Y-115285331D01*
X118244057Y-115182273D01*
X118242399Y-115180416D01*
X118239647Y-115178489D01*
X118112010Y-115112304D01*
X118109698Y-115111380D01*
X118107699Y-115110971D01*
X117926798Y-115088951D01*
X117926798Y-114863291D01*
X118151441Y-114870123D01*
G37*
%TD.AperFunction*%
%TD*%
D26*
%TO.N,/5V*%
X98540873Y-71720437D02*
X98718737Y-71742349D01*
X98868412Y-71776538D01*
X98998153Y-71821171D01*
X99116246Y-71874519D01*
X99230843Y-71934861D01*
X99349940Y-72000363D01*
X99350178Y-72000491D01*
X99481551Y-72069149D01*
X99482116Y-72069426D01*
X99633728Y-72139328D01*
X99634481Y-72139647D01*
X99806418Y-72205860D01*
X99827564Y-73287564D01*
X98747193Y-73266444D01*
X98708012Y-73098958D01*
X98696511Y-72917910D01*
X98703704Y-72736952D01*
X98718530Y-72561712D01*
X98718545Y-72561512D01*
X98729796Y-72397882D01*
X98729822Y-72396701D01*
X98726254Y-72250468D01*
X98725907Y-72247813D01*
X98696301Y-72124485D01*
X98695486Y-72122133D01*
X98694334Y-72120136D01*
X98627468Y-72025225D01*
X98625842Y-72023340D01*
X98623022Y-72021312D01*
X98507679Y-71960325D01*
X98505375Y-71959382D01*
X98503295Y-71958947D01*
X98339402Y-71938767D01*
X98339402Y-71713166D01*
X98540873Y-71720437D01*
%TA.AperFunction,Conductor*%
D27*
G36*
X98540873Y-71720437D02*
G01*
X98718737Y-71742349D01*
X98868412Y-71776538D01*
X98998153Y-71821171D01*
X99116246Y-71874519D01*
X99230843Y-71934861D01*
X99349940Y-72000363D01*
X99350178Y-72000491D01*
X99481551Y-72069149D01*
X99482116Y-72069426D01*
X99633728Y-72139328D01*
X99634481Y-72139647D01*
X99806418Y-72205860D01*
X99827564Y-73287564D01*
X98747193Y-73266444D01*
X98708012Y-73098958D01*
X98696511Y-72917910D01*
X98703704Y-72736952D01*
X98718530Y-72561712D01*
X98718545Y-72561512D01*
X98729796Y-72397882D01*
X98729822Y-72396701D01*
X98726254Y-72250468D01*
X98725907Y-72247813D01*
X98696301Y-72124485D01*
X98695486Y-72122133D01*
X98694334Y-72120136D01*
X98627468Y-72025225D01*
X98625842Y-72023340D01*
X98623022Y-72021312D01*
X98507679Y-71960325D01*
X98505375Y-71959382D01*
X98503295Y-71958947D01*
X98339402Y-71938767D01*
X98339402Y-71713166D01*
X98540873Y-71720437D01*
G37*
%TD.AperFunction*%
%TD*%
D26*
%TO.N,Net-(C2-Pad1)*%
X132381678Y-76000000D02*
X131649059Y-76704525D01*
X131488477Y-76621011D01*
X131351289Y-76537039D01*
X131237946Y-76453890D01*
X131141061Y-76368712D01*
X131053237Y-76278574D01*
X130967174Y-76180580D01*
X130875681Y-76071975D01*
X130875626Y-76071910D01*
X130771567Y-75950060D01*
X130771355Y-75949818D01*
X130647567Y-75812062D01*
X130647265Y-75811737D01*
X130505145Y-75664288D01*
X130664912Y-75504521D01*
X130759502Y-75583199D01*
X130762032Y-75584838D01*
X130859733Y-75632736D01*
X130862066Y-75633608D01*
X130863299Y-75633871D01*
X130956979Y-75648998D01*
X130960687Y-75649048D01*
X131052119Y-75636824D01*
X131054900Y-75636125D01*
X131145862Y-75601969D01*
X131147511Y-75601212D01*
X131239778Y-75550543D01*
X131240569Y-75550070D01*
X131335916Y-75488309D01*
X131336103Y-75488186D01*
X131436160Y-75420848D01*
X131542483Y-75353481D01*
X131649181Y-75295592D01*
X132381678Y-76000000D01*
%TA.AperFunction,Conductor*%
D27*
G36*
X132381678Y-76000000D02*
G01*
X131649059Y-76704525D01*
X131488477Y-76621011D01*
X131351289Y-76537039D01*
X131237946Y-76453890D01*
X131141061Y-76368712D01*
X131053237Y-76278574D01*
X130967174Y-76180580D01*
X130875681Y-76071975D01*
X130875626Y-76071910D01*
X130771567Y-75950060D01*
X130771355Y-75949818D01*
X130647567Y-75812062D01*
X130647265Y-75811737D01*
X130505145Y-75664288D01*
X130664912Y-75504521D01*
X130759502Y-75583199D01*
X130762032Y-75584838D01*
X130859733Y-75632736D01*
X130862066Y-75633608D01*
X130863299Y-75633871D01*
X130956979Y-75648998D01*
X130960687Y-75649048D01*
X131052119Y-75636824D01*
X131054900Y-75636125D01*
X131145862Y-75601969D01*
X131147511Y-75601212D01*
X131239778Y-75550543D01*
X131240569Y-75550070D01*
X131335916Y-75488309D01*
X131336103Y-75488186D01*
X131436160Y-75420848D01*
X131542483Y-75353481D01*
X131649181Y-75295592D01*
X132381678Y-76000000D01*
G37*
%TD.AperFunction*%
%TD*%
D26*
%TO.N,Net-(C2-Pad1)*%
X113478179Y-72757107D02*
X113365956Y-72881050D01*
X113365003Y-72882238D01*
X113278736Y-73004152D01*
X113277804Y-73005689D01*
X113219149Y-73119976D01*
X113218427Y-73121678D01*
X113180931Y-73231698D01*
X113180520Y-73233198D01*
X113157728Y-73342314D01*
X113157566Y-73343270D01*
X113143026Y-73454842D01*
X113142994Y-73455113D01*
X113130273Y-73572314D01*
X113112952Y-73698313D01*
X113084641Y-73836459D01*
X113041369Y-73982052D01*
X112074649Y-74000951D01*
X112093548Y-73034231D01*
X112239140Y-72990958D01*
X112377286Y-72962647D01*
X112503285Y-72945326D01*
X112620486Y-72932605D01*
X112620757Y-72932573D01*
X112732329Y-72918033D01*
X112733285Y-72917871D01*
X112842401Y-72895079D01*
X112843901Y-72894668D01*
X112953921Y-72857172D01*
X112955623Y-72856450D01*
X113069910Y-72797795D01*
X113071447Y-72796863D01*
X113193361Y-72710596D01*
X113194549Y-72709643D01*
X113318493Y-72597421D01*
X113478179Y-72757107D01*
%TA.AperFunction,Conductor*%
D27*
G36*
X113478179Y-72757107D02*
G01*
X113365956Y-72881050D01*
X113365003Y-72882238D01*
X113278736Y-73004152D01*
X113277804Y-73005689D01*
X113219149Y-73119976D01*
X113218427Y-73121678D01*
X113180931Y-73231698D01*
X113180520Y-73233198D01*
X113157728Y-73342314D01*
X113157566Y-73343270D01*
X113143026Y-73454842D01*
X113142994Y-73455113D01*
X113130273Y-73572314D01*
X113112952Y-73698313D01*
X113084641Y-73836459D01*
X113041369Y-73982052D01*
X112074649Y-74000951D01*
X112093548Y-73034231D01*
X112239140Y-72990958D01*
X112377286Y-72962647D01*
X112503285Y-72945326D01*
X112620486Y-72932605D01*
X112620757Y-72932573D01*
X112732329Y-72918033D01*
X112733285Y-72917871D01*
X112842401Y-72895079D01*
X112843901Y-72894668D01*
X112953921Y-72857172D01*
X112955623Y-72856450D01*
X113069910Y-72797795D01*
X113071447Y-72796863D01*
X113193361Y-72710596D01*
X113194549Y-72709643D01*
X113318493Y-72597421D01*
X113478179Y-72757107D01*
G37*
%TD.AperFunction*%
%TD*%
D26*
%TO.N,Net-(C2-Pad1)*%
X132491001Y-75371807D02*
X132614007Y-75453761D01*
X132719621Y-75535070D01*
X132815252Y-75613502D01*
X132815450Y-75613661D01*
X132908159Y-75686647D01*
X132908940Y-75687215D01*
X133005916Y-75752268D01*
X133007273Y-75753061D01*
X133115837Y-75807801D01*
X133117577Y-75808522D01*
X133245053Y-75850568D01*
X133246836Y-75851016D01*
X133400543Y-75877989D01*
X133402093Y-75878164D01*
X133577300Y-75887071D01*
X133577300Y-76112929D01*
X133402093Y-76121835D01*
X133400543Y-76122010D01*
X133246836Y-76148983D01*
X133245053Y-76149431D01*
X133117577Y-76191477D01*
X133115837Y-76192198D01*
X133007273Y-76246938D01*
X133005916Y-76247731D01*
X132908940Y-76312784D01*
X132908159Y-76313352D01*
X132815450Y-76386338D01*
X132815252Y-76386497D01*
X132719621Y-76464929D01*
X132614007Y-76546238D01*
X132491001Y-76628192D01*
X132350813Y-76704402D01*
X131618322Y-76000000D01*
X132350813Y-75295598D01*
X132491001Y-75371807D01*
%TA.AperFunction,Conductor*%
D27*
G36*
X132491001Y-75371807D02*
G01*
X132614007Y-75453761D01*
X132719621Y-75535070D01*
X132815252Y-75613502D01*
X132815450Y-75613661D01*
X132908159Y-75686647D01*
X132908940Y-75687215D01*
X133005916Y-75752268D01*
X133007273Y-75753061D01*
X133115837Y-75807801D01*
X133117577Y-75808522D01*
X133245053Y-75850568D01*
X133246836Y-75851016D01*
X133400543Y-75877989D01*
X133402093Y-75878164D01*
X133577300Y-75887071D01*
X133577300Y-76112929D01*
X133402093Y-76121835D01*
X133400543Y-76122010D01*
X133246836Y-76148983D01*
X133245053Y-76149431D01*
X133117577Y-76191477D01*
X133115837Y-76192198D01*
X133007273Y-76246938D01*
X133005916Y-76247731D01*
X132908940Y-76312784D01*
X132908159Y-76313352D01*
X132815450Y-76386338D01*
X132815252Y-76386497D01*
X132719621Y-76464929D01*
X132614007Y-76546238D01*
X132491001Y-76628192D01*
X132350813Y-76704402D01*
X131618322Y-76000000D01*
X132350813Y-75295598D01*
X132491001Y-75371807D01*
G37*
%TD.AperFunction*%
%TD*%
D26*
%TO.N,Net-(C2-Pad1)*%
X143144178Y-74000000D02*
X142739152Y-74389494D01*
X142667788Y-74351960D01*
X142600515Y-74311202D01*
X142541317Y-74272004D01*
X142486634Y-74235210D01*
X142486264Y-74234971D01*
X142432656Y-74201539D01*
X142431800Y-74201050D01*
X142375671Y-74171833D01*
X142374402Y-74171258D01*
X142312123Y-74147087D01*
X142310653Y-74146618D01*
X142238595Y-74128323D01*
X142237176Y-74128047D01*
X142151709Y-74116461D01*
X142150504Y-74116356D01*
X142060200Y-74112792D01*
X142060200Y-73887208D01*
X142150504Y-73883643D01*
X142151709Y-73883538D01*
X142237176Y-73871952D01*
X142238595Y-73871676D01*
X142310653Y-73853381D01*
X142312123Y-73852912D01*
X142374402Y-73828741D01*
X142375671Y-73828166D01*
X142431800Y-73798949D01*
X142432656Y-73798460D01*
X142486264Y-73765028D01*
X142486634Y-73764789D01*
X142541317Y-73727995D01*
X142600515Y-73688797D01*
X142667788Y-73648039D01*
X142739152Y-73610506D01*
X143144178Y-74000000D01*
%TA.AperFunction,Conductor*%
D27*
G36*
X143144178Y-74000000D02*
G01*
X142739152Y-74389494D01*
X142667788Y-74351960D01*
X142600515Y-74311202D01*
X142541317Y-74272004D01*
X142486634Y-74235210D01*
X142486264Y-74234971D01*
X142432656Y-74201539D01*
X142431800Y-74201050D01*
X142375671Y-74171833D01*
X142374402Y-74171258D01*
X142312123Y-74147087D01*
X142310653Y-74146618D01*
X142238595Y-74128323D01*
X142237176Y-74128047D01*
X142151709Y-74116461D01*
X142150504Y-74116356D01*
X142060200Y-74112792D01*
X142060200Y-73887208D01*
X142150504Y-73883643D01*
X142151709Y-73883538D01*
X142237176Y-73871952D01*
X142238595Y-73871676D01*
X142310653Y-73853381D01*
X142312123Y-73852912D01*
X142374402Y-73828741D01*
X142375671Y-73828166D01*
X142431800Y-73798949D01*
X142432656Y-73798460D01*
X142486264Y-73765028D01*
X142486634Y-73764789D01*
X142541317Y-73727995D01*
X142600515Y-73688797D01*
X142667788Y-73648039D01*
X142739152Y-73610506D01*
X143144178Y-74000000D01*
G37*
%TD.AperFunction*%
%TD*%
D26*
%TO.N,Net-(U3-PadJP6_6)*%
X142119231Y-96830205D02*
X141946750Y-96880896D01*
X141784288Y-96912581D01*
X141636078Y-96930592D01*
X141498090Y-96942680D01*
X141497859Y-96942703D01*
X141366507Y-96956625D01*
X141365556Y-96956762D01*
X141237148Y-96980304D01*
X141235604Y-96980689D01*
X141106252Y-97021656D01*
X141104467Y-97022374D01*
X140970287Y-97088570D01*
X140968662Y-97089528D01*
X140825768Y-97188759D01*
X140824512Y-97189754D01*
X140677974Y-97321755D01*
X140518245Y-97162026D01*
X140650245Y-97015487D01*
X140651240Y-97014231D01*
X140750471Y-96871337D01*
X140751429Y-96869712D01*
X140817625Y-96735532D01*
X140818343Y-96733747D01*
X140859310Y-96604395D01*
X140859695Y-96602851D01*
X140883237Y-96474443D01*
X140883374Y-96473492D01*
X140897296Y-96342140D01*
X140897319Y-96341909D01*
X140909407Y-96203921D01*
X140927418Y-96055711D01*
X140959103Y-95893249D01*
X141009795Y-95720769D01*
X142141352Y-95698648D01*
X142119231Y-96830205D01*
%TA.AperFunction,Conductor*%
D27*
G36*
X142119231Y-96830205D02*
G01*
X141946750Y-96880896D01*
X141784288Y-96912581D01*
X141636078Y-96930592D01*
X141498090Y-96942680D01*
X141497859Y-96942703D01*
X141366507Y-96956625D01*
X141365556Y-96956762D01*
X141237148Y-96980304D01*
X141235604Y-96980689D01*
X141106252Y-97021656D01*
X141104467Y-97022374D01*
X140970287Y-97088570D01*
X140968662Y-97089528D01*
X140825768Y-97188759D01*
X140824512Y-97189754D01*
X140677974Y-97321755D01*
X140518245Y-97162026D01*
X140650245Y-97015487D01*
X140651240Y-97014231D01*
X140750471Y-96871337D01*
X140751429Y-96869712D01*
X140817625Y-96735532D01*
X140818343Y-96733747D01*
X140859310Y-96604395D01*
X140859695Y-96602851D01*
X140883237Y-96474443D01*
X140883374Y-96473492D01*
X140897296Y-96342140D01*
X140897319Y-96341909D01*
X140909407Y-96203921D01*
X140927418Y-96055711D01*
X140959103Y-95893249D01*
X141009795Y-95720769D01*
X142141352Y-95698648D01*
X142119231Y-96830205D01*
G37*
%TD.AperFunction*%
%TD*%
D26*
%TO.N,Net-(U3-PadJP6_6)*%
X111723202Y-99848951D02*
X111542300Y-99870971D01*
X111539870Y-99871513D01*
X111537989Y-99872304D01*
X111410352Y-99938489D01*
X111408265Y-99939846D01*
X111405942Y-99942273D01*
X111330679Y-100045331D01*
X111329415Y-100047476D01*
X111328646Y-100049616D01*
X111293699Y-100183615D01*
X111293299Y-100186286D01*
X111286611Y-100345296D01*
X111286618Y-100346508D01*
X111296133Y-100524596D01*
X111296147Y-100524823D01*
X111309787Y-100715787D01*
X111315508Y-100913337D01*
X111301403Y-101111408D01*
X111257663Y-101295913D01*
X110060687Y-101319313D01*
X110084111Y-100121094D01*
X110275704Y-100048752D01*
X110276299Y-100048511D01*
X110445229Y-99974775D01*
X110445648Y-99974582D01*
X110592619Y-99903968D01*
X110592739Y-99903910D01*
X110726357Y-99837972D01*
X110855175Y-99778274D01*
X110987877Y-99726270D01*
X111133394Y-99683298D01*
X111300636Y-99650761D01*
X111498558Y-99630123D01*
X111723202Y-99623291D01*
X111723202Y-99848951D01*
%TA.AperFunction,Conductor*%
D27*
G36*
X111723202Y-99848951D02*
G01*
X111542300Y-99870971D01*
X111539870Y-99871513D01*
X111537989Y-99872304D01*
X111410352Y-99938489D01*
X111408265Y-99939846D01*
X111405942Y-99942273D01*
X111330679Y-100045331D01*
X111329415Y-100047476D01*
X111328646Y-100049616D01*
X111293699Y-100183615D01*
X111293299Y-100186286D01*
X111286611Y-100345296D01*
X111286618Y-100346508D01*
X111296133Y-100524596D01*
X111296147Y-100524823D01*
X111309787Y-100715787D01*
X111315508Y-100913337D01*
X111301403Y-101111408D01*
X111257663Y-101295913D01*
X110060687Y-101319313D01*
X110084111Y-100121094D01*
X110275704Y-100048752D01*
X110276299Y-100048511D01*
X110445229Y-99974775D01*
X110445648Y-99974582D01*
X110592619Y-99903968D01*
X110592739Y-99903910D01*
X110726357Y-99837972D01*
X110855175Y-99778274D01*
X110987877Y-99726270D01*
X111133394Y-99683298D01*
X111300636Y-99650761D01*
X111498558Y-99630123D01*
X111723202Y-99623291D01*
X111723202Y-99848951D01*
G37*
%TD.AperFunction*%
%TD*%
D26*
%TO.N,Net-(U3-PadJP6_7)*%
X110831578Y-98460000D02*
X109968266Y-99290205D01*
X109800549Y-99198492D01*
X109655237Y-99100040D01*
X109530993Y-99001826D01*
X109419038Y-98906778D01*
X109418870Y-98906637D01*
X109310553Y-98817851D01*
X109309789Y-98817271D01*
X109196493Y-98737905D01*
X109195126Y-98737071D01*
X109068050Y-98670122D01*
X109066265Y-98669350D01*
X108916607Y-98617816D01*
X108914757Y-98617331D01*
X108733714Y-98584212D01*
X108732100Y-98584023D01*
X108522900Y-98572954D01*
X108522900Y-98347046D01*
X108732100Y-98335976D01*
X108733714Y-98335787D01*
X108914757Y-98302668D01*
X108916607Y-98302183D01*
X109066265Y-98250649D01*
X109068050Y-98249877D01*
X109195126Y-98182928D01*
X109196493Y-98182094D01*
X109309789Y-98102728D01*
X109310553Y-98102148D01*
X109418870Y-98013362D01*
X109419038Y-98013221D01*
X109530993Y-97918173D01*
X109655237Y-97819959D01*
X109800549Y-97721507D01*
X109968266Y-97629795D01*
X110831578Y-98460000D01*
%TA.AperFunction,Conductor*%
D27*
G36*
X110831578Y-98460000D02*
G01*
X109968266Y-99290205D01*
X109800549Y-99198492D01*
X109655237Y-99100040D01*
X109530993Y-99001826D01*
X109419038Y-98906778D01*
X109418870Y-98906637D01*
X109310553Y-98817851D01*
X109309789Y-98817271D01*
X109196493Y-98737905D01*
X109195126Y-98737071D01*
X109068050Y-98670122D01*
X109066265Y-98669350D01*
X108916607Y-98617816D01*
X108914757Y-98617331D01*
X108733714Y-98584212D01*
X108732100Y-98584023D01*
X108522900Y-98572954D01*
X108522900Y-98347046D01*
X108732100Y-98335976D01*
X108733714Y-98335787D01*
X108914757Y-98302668D01*
X108916607Y-98302183D01*
X109066265Y-98250649D01*
X109068050Y-98249877D01*
X109195126Y-98182928D01*
X109196493Y-98182094D01*
X109309789Y-98102728D01*
X109310553Y-98102148D01*
X109418870Y-98013362D01*
X109419038Y-98013221D01*
X109530993Y-97918173D01*
X109655237Y-97819959D01*
X109800549Y-97721507D01*
X109968266Y-97629795D01*
X110831578Y-98460000D01*
G37*
%TD.AperFunction*%
%TD*%
D26*
%TO.N,Net-(U3-PadJP6_7)*%
X86321755Y-104997974D02*
X86189754Y-105144512D01*
X86188759Y-105145768D01*
X86089528Y-105288662D01*
X86088570Y-105290287D01*
X86022374Y-105424467D01*
X86021656Y-105426252D01*
X85980689Y-105555604D01*
X85980304Y-105557148D01*
X85956762Y-105685556D01*
X85956625Y-105686507D01*
X85942703Y-105817859D01*
X85942680Y-105818090D01*
X85930592Y-105956078D01*
X85912581Y-106104288D01*
X85880896Y-106266750D01*
X85830205Y-106439231D01*
X84698648Y-106461352D01*
X84720769Y-105329795D01*
X84893249Y-105279103D01*
X85055711Y-105247418D01*
X85203921Y-105229407D01*
X85341909Y-105217319D01*
X85342140Y-105217296D01*
X85473492Y-105203374D01*
X85474443Y-105203237D01*
X85602851Y-105179695D01*
X85604395Y-105179310D01*
X85733747Y-105138343D01*
X85735532Y-105137625D01*
X85869712Y-105071429D01*
X85871337Y-105070471D01*
X86014231Y-104971240D01*
X86015487Y-104970245D01*
X86162026Y-104838245D01*
X86321755Y-104997974D01*
%TA.AperFunction,Conductor*%
D27*
G36*
X86321755Y-104997974D02*
G01*
X86189754Y-105144512D01*
X86188759Y-105145768D01*
X86089528Y-105288662D01*
X86088570Y-105290287D01*
X86022374Y-105424467D01*
X86021656Y-105426252D01*
X85980689Y-105555604D01*
X85980304Y-105557148D01*
X85956762Y-105685556D01*
X85956625Y-105686507D01*
X85942703Y-105817859D01*
X85942680Y-105818090D01*
X85930592Y-105956078D01*
X85912581Y-106104288D01*
X85880896Y-106266750D01*
X85830205Y-106439231D01*
X84698648Y-106461352D01*
X84720769Y-105329795D01*
X84893249Y-105279103D01*
X85055711Y-105247418D01*
X85203921Y-105229407D01*
X85341909Y-105217319D01*
X85342140Y-105217296D01*
X85473492Y-105203374D01*
X85474443Y-105203237D01*
X85602851Y-105179695D01*
X85604395Y-105179310D01*
X85733747Y-105138343D01*
X85735532Y-105137625D01*
X85869712Y-105071429D01*
X85871337Y-105070471D01*
X86014231Y-104971240D01*
X86015487Y-104970245D01*
X86162026Y-104838245D01*
X86321755Y-104997974D01*
G37*
%TD.AperFunction*%
%TD*%
D26*
%TO.N,Net-(U3-PadJP6_8)*%
X110829950Y-95881707D02*
X110040151Y-96782128D01*
X109859801Y-96702531D01*
X109703529Y-96614384D01*
X109569985Y-96524313D01*
X109449900Y-96435413D01*
X109449830Y-96435362D01*
X109334279Y-96351026D01*
X109333611Y-96350570D01*
X109213667Y-96274231D01*
X109212413Y-96273529D01*
X109078929Y-96208460D01*
X109077273Y-96207793D01*
X108921101Y-96157265D01*
X108919369Y-96156836D01*
X108731363Y-96124120D01*
X108729830Y-96123948D01*
X108512900Y-96112928D01*
X108512900Y-95887036D01*
X108717421Y-95876040D01*
X108719077Y-95875841D01*
X108896032Y-95842698D01*
X108897957Y-95842178D01*
X109043795Y-95790209D01*
X109045678Y-95789360D01*
X109168861Y-95721239D01*
X109170326Y-95720292D01*
X109279320Y-95638693D01*
X109280178Y-95637990D01*
X109383447Y-95545587D01*
X109383717Y-95545338D01*
X109489609Y-95444918D01*
X109606420Y-95339295D01*
X109742543Y-95231132D01*
X109899332Y-95127688D01*
X110829950Y-95881707D01*
%TA.AperFunction,Conductor*%
D27*
G36*
X110829950Y-95881707D02*
G01*
X110040151Y-96782128D01*
X109859801Y-96702531D01*
X109703529Y-96614384D01*
X109569985Y-96524313D01*
X109449900Y-96435413D01*
X109449830Y-96435362D01*
X109334279Y-96351026D01*
X109333611Y-96350570D01*
X109213667Y-96274231D01*
X109212413Y-96273529D01*
X109078929Y-96208460D01*
X109077273Y-96207793D01*
X108921101Y-96157265D01*
X108919369Y-96156836D01*
X108731363Y-96124120D01*
X108729830Y-96123948D01*
X108512900Y-96112928D01*
X108512900Y-95887036D01*
X108717421Y-95876040D01*
X108719077Y-95875841D01*
X108896032Y-95842698D01*
X108897957Y-95842178D01*
X109043795Y-95790209D01*
X109045678Y-95789360D01*
X109168861Y-95721239D01*
X109170326Y-95720292D01*
X109279320Y-95638693D01*
X109280178Y-95637990D01*
X109383447Y-95545587D01*
X109383717Y-95545338D01*
X109489609Y-95444918D01*
X109606420Y-95339295D01*
X109742543Y-95231132D01*
X109899332Y-95127688D01*
X110829950Y-95881707D01*
G37*
%TD.AperFunction*%
%TD*%
D26*
%TO.N,Net-(U3-PadJP6_8)*%
X75387404Y-95301626D02*
X75524686Y-95394099D01*
X75642233Y-95486173D01*
X75748344Y-95575190D01*
X75748522Y-95575337D01*
X75851245Y-95658372D01*
X75852015Y-95658947D01*
X75959461Y-95733100D01*
X75960825Y-95733921D01*
X76081259Y-95796418D01*
X76083029Y-95797172D01*
X76224716Y-95845244D01*
X76226542Y-95845715D01*
X76397751Y-95876590D01*
X76399343Y-95876775D01*
X76596300Y-95887055D01*
X76596300Y-96112945D01*
X76399343Y-96123224D01*
X76397751Y-96123409D01*
X76226542Y-96154284D01*
X76224716Y-96154755D01*
X76083029Y-96202827D01*
X76081259Y-96203581D01*
X75960825Y-96266078D01*
X75959461Y-96266899D01*
X75852015Y-96341052D01*
X75851245Y-96341627D01*
X75748522Y-96424662D01*
X75748344Y-96424809D01*
X75642233Y-96513826D01*
X75524686Y-96605900D01*
X75387404Y-96698373D01*
X75229597Y-96784491D01*
X74413822Y-96000000D01*
X75229597Y-95215509D01*
X75387404Y-95301626D01*
%TA.AperFunction,Conductor*%
D27*
G36*
X75387404Y-95301626D02*
G01*
X75524686Y-95394099D01*
X75642233Y-95486173D01*
X75748344Y-95575190D01*
X75748522Y-95575337D01*
X75851245Y-95658372D01*
X75852015Y-95658947D01*
X75959461Y-95733100D01*
X75960825Y-95733921D01*
X76081259Y-95796418D01*
X76083029Y-95797172D01*
X76224716Y-95845244D01*
X76226542Y-95845715D01*
X76397751Y-95876590D01*
X76399343Y-95876775D01*
X76596300Y-95887055D01*
X76596300Y-96112945D01*
X76399343Y-96123224D01*
X76397751Y-96123409D01*
X76226542Y-96154284D01*
X76224716Y-96154755D01*
X76083029Y-96202827D01*
X76081259Y-96203581D01*
X75960825Y-96266078D01*
X75959461Y-96266899D01*
X75852015Y-96341052D01*
X75851245Y-96341627D01*
X75748522Y-96424662D01*
X75748344Y-96424809D01*
X75642233Y-96513826D01*
X75524686Y-96605900D01*
X75387404Y-96698373D01*
X75229597Y-96784491D01*
X74413822Y-96000000D01*
X75229597Y-95215509D01*
X75387404Y-95301626D01*
G37*
%TD.AperFunction*%
%TD*%
D28*
%TO.N,GND*%
X107547699Y-72377500D02*
X106979645Y-72377500D01*
X106965512Y-72351058D01*
X106856623Y-72218377D01*
X106723942Y-72109488D01*
X106572567Y-72028577D01*
X106408316Y-71978752D01*
X106237500Y-71961928D01*
X105762500Y-71961928D01*
X105591684Y-71978752D01*
X105427433Y-72028577D01*
X105276058Y-72109488D01*
X105143377Y-72218377D01*
X105127632Y-72237562D01*
X105056609Y-72240000D01*
X101246394Y-72240000D01*
X101103040Y-72232593D01*
X101024775Y-72218627D01*
X100979100Y-72203298D01*
X100941766Y-72184139D01*
X100891641Y-72149925D01*
X100816824Y-72090065D01*
X100719852Y-72009425D01*
X100703778Y-71996494D01*
X100590981Y-71908732D01*
X100554767Y-71882548D01*
X100422940Y-71794125D01*
X100373049Y-71763887D01*
X100318341Y-71734077D01*
X100243411Y-71684010D01*
X99973158Y-71572068D01*
X99952022Y-71567864D01*
X99886336Y-71542568D01*
X99767599Y-71487824D01*
X99656179Y-71429593D01*
X99542888Y-71367284D01*
X99532726Y-71361815D01*
X99417672Y-71301233D01*
X99383242Y-71284410D01*
X99264269Y-71230664D01*
X99209412Y-71208892D01*
X99078466Y-71163845D01*
X99013305Y-71145253D01*
X98862334Y-71110768D01*
X98798571Y-71099588D01*
X98619523Y-71077530D01*
X98564784Y-71073178D01*
X98439446Y-71068654D01*
X98402332Y-71064999D01*
X98402321Y-71064999D01*
X98364999Y-71061323D01*
X98327677Y-71064999D01*
X91566575Y-71064999D01*
X91557262Y-71064312D01*
X91529274Y-71064999D01*
X91501258Y-71064999D01*
X91491958Y-71065915D01*
X90946281Y-71079309D01*
X90927613Y-71078851D01*
X90908990Y-71080225D01*
X90890320Y-71080683D01*
X90871785Y-71082969D01*
X90318109Y-71123811D01*
X90299438Y-71124269D01*
X90280901Y-71126555D01*
X90262279Y-71127929D01*
X90243882Y-71131121D01*
X89692873Y-71199082D01*
X89674249Y-71200456D01*
X89655847Y-71203649D01*
X89637313Y-71205935D01*
X89619093Y-71210027D01*
X89072089Y-71304941D01*
X89053551Y-71307227D01*
X89035324Y-71311320D01*
X89016928Y-71314512D01*
X88998934Y-71319492D01*
X88457228Y-71441135D01*
X88438838Y-71444326D01*
X88420851Y-71449304D01*
X88402618Y-71453398D01*
X88384874Y-71459260D01*
X87849824Y-71607329D01*
X87831594Y-71611422D01*
X87813852Y-71617283D01*
X87795861Y-71622262D01*
X87778446Y-71628980D01*
X87251295Y-71803128D01*
X87233280Y-71808113D01*
X87215839Y-71814841D01*
X87198124Y-71820693D01*
X87181066Y-71828254D01*
X86663073Y-72028067D01*
X86645340Y-72033925D01*
X86628265Y-72041494D01*
X86610841Y-72048215D01*
X86594163Y-72056610D01*
X86086618Y-72281589D01*
X86069185Y-72288314D01*
X86052495Y-72296715D01*
X86035431Y-72304279D01*
X86019192Y-72313478D01*
X85523281Y-72563099D01*
X85506208Y-72570667D01*
X85489959Y-72579872D01*
X85473277Y-72588269D01*
X85457500Y-72598260D01*
X84974462Y-72871898D01*
X84957764Y-72880303D01*
X84941969Y-72890305D01*
X84925736Y-72899501D01*
X84910483Y-72910243D01*
X84441437Y-73207265D01*
X84425173Y-73216478D01*
X84409890Y-73227242D01*
X84394126Y-73237224D01*
X84379418Y-73248702D01*
X83925507Y-73568382D01*
X83909717Y-73578381D01*
X83894984Y-73589879D01*
X83879727Y-73600624D01*
X83865596Y-73612814D01*
X83427917Y-73954383D01*
X83412645Y-73965139D01*
X83398500Y-73977341D01*
X83383779Y-73988829D01*
X83370256Y-74001704D01*
X82949866Y-74364334D01*
X82935142Y-74375825D01*
X82921619Y-74388700D01*
X82907477Y-74400899D01*
X82894597Y-74414427D01*
X82499281Y-74790802D01*
X82492054Y-74796733D01*
X82472232Y-74816555D01*
X82451967Y-74835849D01*
X82445871Y-74842916D01*
X72664992Y-84623797D01*
X72635988Y-84647600D01*
X72580860Y-84714775D01*
X72541015Y-84763325D01*
X72502634Y-84835130D01*
X72470443Y-84895355D01*
X72426986Y-85038616D01*
X72415989Y-85150269D01*
X72415989Y-85150279D01*
X72412313Y-85187601D01*
X72415989Y-85224924D01*
X72415990Y-91758647D01*
X72415989Y-91758657D01*
X72415989Y-91758667D01*
X72412313Y-91795989D01*
X72415989Y-91833311D01*
X72415990Y-101235209D01*
X72412313Y-101272541D01*
X72426987Y-101421526D01*
X72470443Y-101564787D01*
X72541015Y-101696817D01*
X72596818Y-101764812D01*
X72635989Y-101812542D01*
X72664987Y-101836340D01*
X77499648Y-106671002D01*
X77523447Y-106700001D01*
X77552451Y-106723804D01*
X86314847Y-115486201D01*
X86338646Y-115515200D01*
X86367644Y-115538998D01*
X86454370Y-115610173D01*
X86570767Y-115672389D01*
X86586400Y-115680745D01*
X86729661Y-115724202D01*
X86841314Y-115735199D01*
X86841324Y-115735199D01*
X86878647Y-115738875D01*
X86915969Y-115735199D01*
X110154544Y-115735199D01*
X110135718Y-115780648D01*
X110075200Y-116084896D01*
X110075200Y-116395104D01*
X110135718Y-116699352D01*
X110254430Y-116985948D01*
X110426773Y-117243877D01*
X110646123Y-117463227D01*
X110904052Y-117635570D01*
X111190648Y-117754282D01*
X111494896Y-117814800D01*
X111805104Y-117814800D01*
X112109352Y-117754282D01*
X112395948Y-117635570D01*
X112653877Y-117463227D01*
X112873227Y-117243877D01*
X112920000Y-117173876D01*
X112966773Y-117243877D01*
X113186123Y-117463227D01*
X113444052Y-117635570D01*
X113730648Y-117754282D01*
X114034896Y-117814800D01*
X114345104Y-117814800D01*
X114649352Y-117754282D01*
X114935948Y-117635570D01*
X115193877Y-117463227D01*
X115413227Y-117243877D01*
X115460000Y-117173876D01*
X115506773Y-117243877D01*
X115726123Y-117463227D01*
X115984052Y-117635570D01*
X116270648Y-117754282D01*
X116574896Y-117814800D01*
X116885104Y-117814800D01*
X117189352Y-117754282D01*
X117475948Y-117635570D01*
X117733877Y-117463227D01*
X117953227Y-117243877D01*
X118000000Y-117173876D01*
X118046773Y-117243877D01*
X118266123Y-117463227D01*
X118524052Y-117635570D01*
X118810648Y-117754282D01*
X119114896Y-117814800D01*
X119425104Y-117814800D01*
X119729352Y-117754282D01*
X120015948Y-117635570D01*
X120273877Y-117463227D01*
X120404628Y-117332476D01*
X120897129Y-117332476D01*
X120985623Y-117590723D01*
X121264976Y-117725597D01*
X121565275Y-117803381D01*
X121874977Y-117821084D01*
X122182184Y-117778027D01*
X122475086Y-117675865D01*
X122634377Y-117590723D01*
X122722871Y-117332476D01*
X121810000Y-116419605D01*
X120897129Y-117332476D01*
X120404628Y-117332476D01*
X120493227Y-117243877D01*
X120584495Y-117107286D01*
X120717524Y-117152871D01*
X121630395Y-116240000D01*
X120717524Y-115327129D01*
X120584495Y-115372714D01*
X120493227Y-115236123D01*
X120404628Y-115147524D01*
X120897129Y-115147524D01*
X121810000Y-116060395D01*
X122722871Y-115147524D01*
X122634377Y-114889277D01*
X122355024Y-114754403D01*
X122054725Y-114676619D01*
X121745023Y-114658916D01*
X121437816Y-114701973D01*
X121144914Y-114804135D01*
X120985623Y-114889277D01*
X120897129Y-115147524D01*
X120404628Y-115147524D01*
X120273877Y-115016773D01*
X120015948Y-114844430D01*
X119729352Y-114725718D01*
X119702687Y-114720414D01*
X119618100Y-114688476D01*
X119474445Y-114625772D01*
X119340939Y-114561627D01*
X119210130Y-114497075D01*
X119196121Y-114490374D01*
X119066824Y-114430454D01*
X119031515Y-114415370D01*
X118897932Y-114363021D01*
X118846081Y-114345243D01*
X118699466Y-114301947D01*
X118640893Y-114287635D01*
X118472496Y-114254873D01*
X118417086Y-114246610D01*
X118218159Y-114225867D01*
X118171604Y-114222736D01*
X118095583Y-114220424D01*
X118042532Y-114215199D01*
X118042521Y-114215199D01*
X118005199Y-114211523D01*
X117967877Y-114215199D01*
X111871149Y-114215199D01*
X111894282Y-114159352D01*
X111954800Y-113855104D01*
X111954800Y-113544896D01*
X111894282Y-113240648D01*
X111775570Y-112954052D01*
X111603227Y-112696123D01*
X111383877Y-112476773D01*
X111313876Y-112430000D01*
X111383877Y-112383227D01*
X111603227Y-112163877D01*
X111775570Y-111905948D01*
X111894282Y-111619352D01*
X111954800Y-111315104D01*
X111954800Y-111004896D01*
X111894282Y-110700648D01*
X111775570Y-110414052D01*
X111603227Y-110156123D01*
X111383877Y-109936773D01*
X111313876Y-109890000D01*
X111383877Y-109843227D01*
X111603227Y-109623877D01*
X111775570Y-109365948D01*
X111894282Y-109079352D01*
X111954800Y-108775104D01*
X111954800Y-108464896D01*
X111894282Y-108160648D01*
X111775570Y-107874052D01*
X111603227Y-107616123D01*
X111383877Y-107396773D01*
X111313876Y-107350000D01*
X111383877Y-107303227D01*
X111603227Y-107083877D01*
X111775570Y-106825948D01*
X111894282Y-106539352D01*
X111954800Y-106235104D01*
X111954800Y-105924896D01*
X111907201Y-105685599D01*
X112077773Y-105940877D01*
X112297123Y-106160227D01*
X112555052Y-106332570D01*
X112841648Y-106451282D01*
X113145896Y-106511800D01*
X113456104Y-106511800D01*
X113760352Y-106451282D01*
X114046948Y-106332570D01*
X114304877Y-106160227D01*
X114524227Y-105940877D01*
X114696570Y-105682948D01*
X114815282Y-105396352D01*
X114875800Y-105092104D01*
X114875800Y-104781896D01*
X114815282Y-104477648D01*
X114696570Y-104191052D01*
X114524227Y-103933123D01*
X114304877Y-103713773D01*
X114234876Y-103667000D01*
X114304877Y-103620227D01*
X114524227Y-103400877D01*
X114696570Y-103142948D01*
X114815282Y-102856352D01*
X114875800Y-102552104D01*
X114875800Y-102241896D01*
X114815282Y-101937648D01*
X114696570Y-101651052D01*
X114524227Y-101393123D01*
X114304877Y-101173773D01*
X114046948Y-101001430D01*
X113760352Y-100882718D01*
X113456104Y-100822200D01*
X113145896Y-100822200D01*
X112841648Y-100882718D01*
X112555052Y-101001430D01*
X112297123Y-101173773D01*
X112077773Y-101393123D01*
X111905430Y-101651052D01*
X111786718Y-101937648D01*
X111726200Y-102241896D01*
X111726200Y-102552104D01*
X111773799Y-102791401D01*
X111603227Y-102536123D01*
X111383877Y-102316773D01*
X111313876Y-102270000D01*
X111383877Y-102223227D01*
X111603227Y-102003877D01*
X111775570Y-101745948D01*
X111894282Y-101459352D01*
X111954800Y-101155104D01*
X111954800Y-101054436D01*
X111961617Y-100958706D01*
X111962955Y-100895220D01*
X111957208Y-100696770D01*
X111955860Y-100669912D01*
X111944463Y-100510339D01*
X111959603Y-100495199D01*
X124124544Y-100495199D01*
X124105718Y-100540648D01*
X124045200Y-100844896D01*
X124045200Y-101155104D01*
X124105718Y-101459352D01*
X124224430Y-101745948D01*
X124396773Y-102003877D01*
X124616123Y-102223227D01*
X124686124Y-102270000D01*
X124616123Y-102316773D01*
X124396773Y-102536123D01*
X124224430Y-102794052D01*
X124105718Y-103080648D01*
X124045200Y-103384896D01*
X124045200Y-103695104D01*
X124105718Y-103999352D01*
X124224430Y-104285948D01*
X124396773Y-104543877D01*
X124616123Y-104763227D01*
X124686124Y-104810000D01*
X124616123Y-104856773D01*
X124396773Y-105076123D01*
X124224430Y-105334052D01*
X124105718Y-105620648D01*
X124045200Y-105924896D01*
X124045200Y-106235104D01*
X124105718Y-106539352D01*
X124224430Y-106825948D01*
X124396773Y-107083877D01*
X124616123Y-107303227D01*
X124686124Y-107350000D01*
X124616123Y-107396773D01*
X124396773Y-107616123D01*
X124224430Y-107874052D01*
X124105718Y-108160648D01*
X124045200Y-108464896D01*
X124045200Y-108775104D01*
X124105718Y-109079352D01*
X124224430Y-109365948D01*
X124396773Y-109623877D01*
X124616123Y-109843227D01*
X124686124Y-109890000D01*
X124616123Y-109936773D01*
X124396773Y-110156123D01*
X124224430Y-110414052D01*
X124105718Y-110700648D01*
X124045200Y-111004896D01*
X124045200Y-111315104D01*
X124105718Y-111619352D01*
X124224430Y-111905948D01*
X124396773Y-112163877D01*
X124616123Y-112383227D01*
X124686124Y-112430000D01*
X124616123Y-112476773D01*
X124396773Y-112696123D01*
X124224430Y-112954052D01*
X124105718Y-113240648D01*
X124045200Y-113544896D01*
X124045200Y-113855104D01*
X124105718Y-114159352D01*
X124224430Y-114445948D01*
X124369976Y-114663772D01*
X124285023Y-114658916D01*
X123977816Y-114701973D01*
X123684914Y-114804135D01*
X123525623Y-114889277D01*
X123437129Y-115147524D01*
X124121381Y-115831776D01*
X123938265Y-116007870D01*
X123257524Y-115327129D01*
X123080000Y-115387961D01*
X122902476Y-115327129D01*
X121989605Y-116240000D01*
X122902476Y-117152871D01*
X123080000Y-117092039D01*
X123257524Y-117152871D01*
X123938265Y-116472130D01*
X124121381Y-116648224D01*
X123437129Y-117332476D01*
X123525623Y-117590723D01*
X123804976Y-117725597D01*
X124105275Y-117803381D01*
X124414977Y-117821084D01*
X124722184Y-117778027D01*
X125015086Y-117675865D01*
X125174377Y-117590723D01*
X125262871Y-117332476D01*
X125024216Y-117093821D01*
X125182307Y-117004698D01*
X125188679Y-117000856D01*
X125250602Y-116960997D01*
X125442476Y-117152871D01*
X125700723Y-117064377D01*
X125835597Y-116785024D01*
X125913381Y-116484725D01*
X125920217Y-116365130D01*
X125927132Y-116357860D01*
X126073076Y-116205372D01*
X126247449Y-116028003D01*
X126262482Y-116009526D01*
X126274218Y-115987570D01*
X126281445Y-115963745D01*
X126283885Y-115938969D01*
X126281445Y-115914193D01*
X126274218Y-115890368D01*
X126262482Y-115868412D01*
X126246688Y-115849166D01*
X126069911Y-115672389D01*
X126040404Y-115650418D01*
X126017440Y-115640803D01*
X125993041Y-115635852D01*
X125968144Y-115635757D01*
X125943708Y-115640520D01*
X125920670Y-115649959D01*
X125899917Y-115663712D01*
X125835214Y-115716399D01*
X125785865Y-115574914D01*
X125700723Y-115415623D01*
X125442478Y-115327130D01*
X125494808Y-115274800D01*
X125775104Y-115274800D01*
X126079352Y-115214282D01*
X126365948Y-115095570D01*
X126623877Y-114923227D01*
X126843227Y-114703877D01*
X127015570Y-114445948D01*
X127134282Y-114159352D01*
X127194800Y-113855104D01*
X127194800Y-113544896D01*
X127134282Y-113240648D01*
X127015570Y-112954052D01*
X126843227Y-112696123D01*
X126623877Y-112476773D01*
X126553876Y-112430000D01*
X126623877Y-112383227D01*
X126843227Y-112163877D01*
X127015570Y-111905948D01*
X127134282Y-111619352D01*
X127194800Y-111315104D01*
X127194800Y-111004896D01*
X127134282Y-110700648D01*
X127015570Y-110414052D01*
X126843227Y-110156123D01*
X126623877Y-109936773D01*
X126553876Y-109890000D01*
X126623877Y-109843227D01*
X126843227Y-109623877D01*
X127015570Y-109365948D01*
X127134282Y-109079352D01*
X127194800Y-108775104D01*
X127194800Y-108464896D01*
X127134282Y-108160648D01*
X127015570Y-107874052D01*
X126843227Y-107616123D01*
X126623877Y-107396773D01*
X126553876Y-107350000D01*
X126623877Y-107303227D01*
X126843227Y-107083877D01*
X127015570Y-106825948D01*
X127134282Y-106539352D01*
X127194800Y-106235104D01*
X127194800Y-106009899D01*
X147936000Y-106009899D01*
X147936000Y-106310101D01*
X147994566Y-106604534D01*
X148109449Y-106881885D01*
X148276232Y-107131493D01*
X148488507Y-107343768D01*
X148738115Y-107510551D01*
X149015466Y-107625434D01*
X149309899Y-107684000D01*
X149610101Y-107684000D01*
X149904534Y-107625434D01*
X150181885Y-107510551D01*
X150431493Y-107343768D01*
X150643768Y-107131493D01*
X150730000Y-107002438D01*
X150816232Y-107131493D01*
X151028507Y-107343768D01*
X151278115Y-107510551D01*
X151555466Y-107625434D01*
X151849899Y-107684000D01*
X152150101Y-107684000D01*
X152444534Y-107625434D01*
X152721885Y-107510551D01*
X152971493Y-107343768D01*
X153183768Y-107131493D01*
X153270000Y-107002438D01*
X153356232Y-107131493D01*
X153568507Y-107343768D01*
X153818115Y-107510551D01*
X154095466Y-107625434D01*
X154389899Y-107684000D01*
X154690101Y-107684000D01*
X154984534Y-107625434D01*
X155261885Y-107510551D01*
X155511493Y-107343768D01*
X155723768Y-107131493D01*
X155890551Y-106881885D01*
X156005434Y-106604534D01*
X156064000Y-106310101D01*
X156064000Y-106009899D01*
X156005434Y-105715466D01*
X155890551Y-105438115D01*
X155723768Y-105188507D01*
X155511493Y-104976232D01*
X155261885Y-104809449D01*
X154984534Y-104694566D01*
X154690101Y-104636000D01*
X154389899Y-104636000D01*
X154095466Y-104694566D01*
X153818115Y-104809449D01*
X153568507Y-104976232D01*
X153356232Y-105188507D01*
X153270000Y-105317562D01*
X153183768Y-105188507D01*
X152971493Y-104976232D01*
X152721885Y-104809449D01*
X152444534Y-104694566D01*
X152150101Y-104636000D01*
X151849899Y-104636000D01*
X151555466Y-104694566D01*
X151278115Y-104809449D01*
X151028507Y-104976232D01*
X150816232Y-105188507D01*
X150730000Y-105317562D01*
X150643768Y-105188507D01*
X150431493Y-104976232D01*
X150181885Y-104809449D01*
X149904534Y-104694566D01*
X149610101Y-104636000D01*
X149309899Y-104636000D01*
X149015466Y-104694566D01*
X148738115Y-104809449D01*
X148488507Y-104976232D01*
X148276232Y-105188507D01*
X148109449Y-105438115D01*
X147994566Y-105715466D01*
X147936000Y-106009899D01*
X127194800Y-106009899D01*
X127194800Y-105924896D01*
X127134282Y-105620648D01*
X127015570Y-105334052D01*
X126843227Y-105076123D01*
X126623877Y-104856773D01*
X126553876Y-104810000D01*
X126623877Y-104763227D01*
X126843227Y-104543877D01*
X127015570Y-104285948D01*
X127134282Y-103999352D01*
X127194800Y-103695104D01*
X127194800Y-103384896D01*
X127134282Y-103080648D01*
X127015570Y-102794052D01*
X126843227Y-102536123D01*
X126799486Y-102492382D01*
X142602000Y-102492382D01*
X142602000Y-102842618D01*
X142670328Y-103186123D01*
X142804357Y-103509699D01*
X142998937Y-103800909D01*
X143246591Y-104048563D01*
X143537801Y-104243143D01*
X143861377Y-104377172D01*
X144204882Y-104445500D01*
X144555118Y-104445500D01*
X144898623Y-104377172D01*
X145222199Y-104243143D01*
X145513409Y-104048563D01*
X145761063Y-103800909D01*
X145955643Y-103509699D01*
X146089672Y-103186123D01*
X146158000Y-102842618D01*
X146158000Y-102492382D01*
X157842000Y-102492382D01*
X157842000Y-102842618D01*
X157910328Y-103186123D01*
X158044357Y-103509699D01*
X158238937Y-103800909D01*
X158486591Y-104048563D01*
X158777801Y-104243143D01*
X159101377Y-104377172D01*
X159444882Y-104445500D01*
X159795118Y-104445500D01*
X160138623Y-104377172D01*
X160462199Y-104243143D01*
X160753409Y-104048563D01*
X161001063Y-103800909D01*
X161195643Y-103509699D01*
X161329672Y-103186123D01*
X161398000Y-102842618D01*
X161398000Y-102492382D01*
X161329672Y-102148877D01*
X161195643Y-101825301D01*
X161001063Y-101534091D01*
X160753409Y-101286437D01*
X160462199Y-101091857D01*
X160138623Y-100957828D01*
X159795118Y-100889500D01*
X159444882Y-100889500D01*
X159101377Y-100957828D01*
X158777801Y-101091857D01*
X158486591Y-101286437D01*
X158238937Y-101534091D01*
X158044357Y-101825301D01*
X157910328Y-102148877D01*
X157842000Y-102492382D01*
X146158000Y-102492382D01*
X146089672Y-102148877D01*
X145955643Y-101825301D01*
X145761063Y-101534091D01*
X145513409Y-101286437D01*
X145222199Y-101091857D01*
X144898623Y-100957828D01*
X144555118Y-100889500D01*
X144204882Y-100889500D01*
X143861377Y-100957828D01*
X143537801Y-101091857D01*
X143246591Y-101286437D01*
X142998937Y-101534091D01*
X142804357Y-101825301D01*
X142670328Y-102148877D01*
X142602000Y-102492382D01*
X126799486Y-102492382D01*
X126623877Y-102316773D01*
X126553876Y-102270000D01*
X126623877Y-102223227D01*
X126843227Y-102003877D01*
X127015570Y-101745948D01*
X127134282Y-101459352D01*
X127194800Y-101155104D01*
X127194800Y-100844896D01*
X127134282Y-100540648D01*
X127115456Y-100495199D01*
X138067479Y-100495199D01*
X138104801Y-100498875D01*
X138142123Y-100495199D01*
X138142134Y-100495199D01*
X138253787Y-100484202D01*
X138397048Y-100440745D01*
X138529077Y-100370173D01*
X138644802Y-100275200D01*
X138668605Y-100246196D01*
X140310223Y-98604578D01*
X140310092Y-98606988D01*
X140352557Y-98904171D01*
X140452184Y-99187359D01*
X140530711Y-99334273D01*
X140783769Y-99416626D01*
X141399716Y-98800679D01*
X141398716Y-98851826D01*
X141401640Y-98881514D01*
X141409332Y-98905193D01*
X141421495Y-98926916D01*
X141437662Y-98945849D01*
X141457212Y-98961264D01*
X141479394Y-98972568D01*
X141503355Y-98979328D01*
X141528174Y-98981284D01*
X141579321Y-98980284D01*
X140963374Y-99596231D01*
X141045727Y-99849289D01*
X141316418Y-99979086D01*
X141607230Y-100053580D01*
X141906988Y-100069908D01*
X142204171Y-100027443D01*
X142487359Y-99927816D01*
X142634273Y-99849289D01*
X142716626Y-99596231D01*
X142090682Y-98970287D01*
X142443005Y-98963400D01*
X142896231Y-99416626D01*
X143149289Y-99334273D01*
X143279086Y-99063582D01*
X143353580Y-98772770D01*
X143369908Y-98473012D01*
X143327443Y-98175829D01*
X143229642Y-97897832D01*
X143237172Y-97874391D01*
X143240480Y-97861962D01*
X143274207Y-97703328D01*
X143276161Y-97691350D01*
X143297641Y-97503570D01*
X143298393Y-97493384D01*
X143305930Y-97268103D01*
X143303561Y-97239080D01*
X143296334Y-97215255D01*
X143284598Y-97193299D01*
X143268804Y-97174053D01*
X143249558Y-97158259D01*
X143227602Y-97146523D01*
X143203777Y-97139296D01*
X143179001Y-97136856D01*
X142929001Y-97136856D01*
X142895020Y-97141486D01*
X142871800Y-97150467D01*
X142850778Y-97163805D01*
X142832762Y-97180988D01*
X142818445Y-97201356D01*
X142808376Y-97224125D01*
X142802942Y-97248421D01*
X142783411Y-97407937D01*
X142773470Y-97426922D01*
X142716625Y-97483767D01*
X142653378Y-97289417D01*
X142811493Y-97183768D01*
X143023768Y-96971493D01*
X143190551Y-96721885D01*
X143305434Y-96444534D01*
X143364000Y-96150101D01*
X143364000Y-95849899D01*
X143305434Y-95555466D01*
X143190551Y-95278115D01*
X143023768Y-95028507D01*
X142811493Y-94816232D01*
X142686751Y-94732882D01*
X142698188Y-94726641D01*
X142748762Y-94695900D01*
X142886917Y-94602839D01*
X142923726Y-94576079D01*
X143041805Y-94483589D01*
X143058353Y-94470172D01*
X143160167Y-94384759D01*
X143239712Y-94320460D01*
X143294545Y-94282618D01*
X143336794Y-94260693D01*
X143388033Y-94243309D01*
X143473192Y-94227952D01*
X143625558Y-94220000D01*
X145504400Y-94220000D01*
X145541722Y-94223676D01*
X145579044Y-94220000D01*
X145579055Y-94220000D01*
X145690708Y-94209003D01*
X145833969Y-94165546D01*
X145965998Y-94094974D01*
X146081723Y-94000001D01*
X146105526Y-93970997D01*
X150550004Y-89526520D01*
X150579002Y-89502722D01*
X150626841Y-89444430D01*
X150673975Y-89386998D01*
X150744547Y-89254968D01*
X150749132Y-89239853D01*
X150788004Y-89111707D01*
X150799001Y-89000054D01*
X150799001Y-89000044D01*
X150802677Y-88962721D01*
X150799001Y-88925398D01*
X150799001Y-88229899D01*
X153651000Y-88229899D01*
X153651000Y-88530101D01*
X153709566Y-88824534D01*
X153824449Y-89101885D01*
X153991232Y-89351493D01*
X154203507Y-89563768D01*
X154453115Y-89730551D01*
X154730466Y-89845434D01*
X155024899Y-89904000D01*
X155325101Y-89904000D01*
X155619534Y-89845434D01*
X155896885Y-89730551D01*
X156146493Y-89563768D01*
X156358768Y-89351493D01*
X156488469Y-89157382D01*
X157842000Y-89157382D01*
X157842000Y-89507618D01*
X157910328Y-89851123D01*
X158044357Y-90174699D01*
X158238937Y-90465909D01*
X158486591Y-90713563D01*
X158777801Y-90908143D01*
X159101377Y-91042172D01*
X159444882Y-91110500D01*
X159795118Y-91110500D01*
X160138623Y-91042172D01*
X160462199Y-90908143D01*
X160753409Y-90713563D01*
X161001063Y-90465909D01*
X161195643Y-90174699D01*
X161329672Y-89851123D01*
X161398000Y-89507618D01*
X161398000Y-89157382D01*
X161329672Y-88813877D01*
X161195643Y-88490301D01*
X161001063Y-88199091D01*
X160753409Y-87951437D01*
X160462199Y-87756857D01*
X160138623Y-87622828D01*
X159795118Y-87554500D01*
X159444882Y-87554500D01*
X159101377Y-87622828D01*
X158777801Y-87756857D01*
X158486591Y-87951437D01*
X158238937Y-88199091D01*
X158044357Y-88490301D01*
X157910328Y-88813877D01*
X157842000Y-89157382D01*
X156488469Y-89157382D01*
X156525551Y-89101885D01*
X156640434Y-88824534D01*
X156699000Y-88530101D01*
X156699000Y-88229899D01*
X156640434Y-87935466D01*
X156525551Y-87658115D01*
X156358768Y-87408507D01*
X156146493Y-87196232D01*
X155896885Y-87029449D01*
X155619534Y-86914566D01*
X155325101Y-86856000D01*
X155024899Y-86856000D01*
X154730466Y-86914566D01*
X154453115Y-87029449D01*
X154203507Y-87196232D01*
X153991232Y-87408507D01*
X153824449Y-87658115D01*
X153709566Y-87935466D01*
X153651000Y-88229899D01*
X150799001Y-88229899D01*
X150799001Y-83149899D01*
X153651000Y-83149899D01*
X153651000Y-83450101D01*
X153709566Y-83744534D01*
X153824449Y-84021885D01*
X153991232Y-84271493D01*
X154203507Y-84483768D01*
X154453115Y-84650551D01*
X154730466Y-84765434D01*
X155024899Y-84824000D01*
X155325101Y-84824000D01*
X155619534Y-84765434D01*
X155896885Y-84650551D01*
X156146493Y-84483768D01*
X156358768Y-84271493D01*
X156525551Y-84021885D01*
X156640434Y-83744534D01*
X156699000Y-83450101D01*
X156699000Y-83149899D01*
X156640434Y-82855466D01*
X156525551Y-82578115D01*
X156358768Y-82328507D01*
X156146493Y-82116232D01*
X155896885Y-81949449D01*
X155619534Y-81834566D01*
X155325101Y-81776000D01*
X155024899Y-81776000D01*
X154730466Y-81834566D01*
X154453115Y-81949449D01*
X154203507Y-82116232D01*
X153991232Y-82328507D01*
X153824449Y-82578115D01*
X153709566Y-82855466D01*
X153651000Y-83149899D01*
X150799001Y-83149899D01*
X150799001Y-82754604D01*
X150802677Y-82717279D01*
X150799001Y-82679954D01*
X150799001Y-82679946D01*
X150788004Y-82568293D01*
X150760000Y-82475975D01*
X150760000Y-73663459D01*
X150763676Y-73626136D01*
X150760000Y-73588813D01*
X150760000Y-73037322D01*
X150763676Y-72999999D01*
X150760000Y-72962676D01*
X150760000Y-72962667D01*
X150749003Y-72851014D01*
X150705546Y-72707753D01*
X150697168Y-72692079D01*
X150634974Y-72575723D01*
X150563799Y-72488997D01*
X150540001Y-72459999D01*
X150511003Y-72436201D01*
X148734801Y-70660000D01*
X150860004Y-70660000D01*
X152555740Y-71413268D01*
X154291717Y-72346098D01*
X155952858Y-73406457D01*
X157529834Y-74588394D01*
X159013734Y-75885230D01*
X160396232Y-77289686D01*
X161669533Y-78793846D01*
X162826468Y-80389237D01*
X163860516Y-82066871D01*
X164765885Y-83817347D01*
X165537447Y-85630755D01*
X166170871Y-87496915D01*
X166662588Y-89405305D01*
X167009837Y-91345219D01*
X167210653Y-93305687D01*
X167263911Y-95275695D01*
X167169312Y-97244147D01*
X166927383Y-99199981D01*
X166539495Y-101132148D01*
X166007820Y-103029819D01*
X165335364Y-104882264D01*
X164525903Y-106679083D01*
X163584002Y-108410143D01*
X162514954Y-110065717D01*
X161324776Y-111636482D01*
X160020192Y-113113568D01*
X158608522Y-114488689D01*
X157097706Y-115754106D01*
X155496286Y-116902665D01*
X153813239Y-117927929D01*
X152054984Y-118825684D01*
X150863619Y-119339999D01*
X81244537Y-119340001D01*
X79752324Y-118058317D01*
X78195624Y-116519994D01*
X76750010Y-114876811D01*
X75422537Y-113136789D01*
X74219688Y-111308419D01*
X73147306Y-109400595D01*
X72210623Y-107422618D01*
X71414191Y-105384101D01*
X70761903Y-103295009D01*
X70256933Y-101165510D01*
X69901735Y-99005948D01*
X69698049Y-96826891D01*
X69646861Y-94638934D01*
X69748424Y-92452715D01*
X70002241Y-90278916D01*
X70407073Y-88128134D01*
X70960955Y-86010815D01*
X71661179Y-83937303D01*
X72504346Y-81917669D01*
X73486335Y-79961785D01*
X74602367Y-78079166D01*
X75847010Y-76278975D01*
X77214197Y-74569991D01*
X78697261Y-72960547D01*
X80291760Y-71455855D01*
X81240222Y-70660000D01*
X109265197Y-70660000D01*
X107547699Y-72377500D01*
%TA.AperFunction,Conductor*%
D27*
G36*
X107547699Y-72377500D02*
G01*
X106979645Y-72377500D01*
X106965512Y-72351058D01*
X106856623Y-72218377D01*
X106723942Y-72109488D01*
X106572567Y-72028577D01*
X106408316Y-71978752D01*
X106237500Y-71961928D01*
X105762500Y-71961928D01*
X105591684Y-71978752D01*
X105427433Y-72028577D01*
X105276058Y-72109488D01*
X105143377Y-72218377D01*
X105127632Y-72237562D01*
X105056609Y-72240000D01*
X101246394Y-72240000D01*
X101103040Y-72232593D01*
X101024775Y-72218627D01*
X100979100Y-72203298D01*
X100941766Y-72184139D01*
X100891641Y-72149925D01*
X100816824Y-72090065D01*
X100719852Y-72009425D01*
X100703778Y-71996494D01*
X100590981Y-71908732D01*
X100554767Y-71882548D01*
X100422940Y-71794125D01*
X100373049Y-71763887D01*
X100318341Y-71734077D01*
X100243411Y-71684010D01*
X99973158Y-71572068D01*
X99952022Y-71567864D01*
X99886336Y-71542568D01*
X99767599Y-71487824D01*
X99656179Y-71429593D01*
X99542888Y-71367284D01*
X99532726Y-71361815D01*
X99417672Y-71301233D01*
X99383242Y-71284410D01*
X99264269Y-71230664D01*
X99209412Y-71208892D01*
X99078466Y-71163845D01*
X99013305Y-71145253D01*
X98862334Y-71110768D01*
X98798571Y-71099588D01*
X98619523Y-71077530D01*
X98564784Y-71073178D01*
X98439446Y-71068654D01*
X98402332Y-71064999D01*
X98402321Y-71064999D01*
X98364999Y-71061323D01*
X98327677Y-71064999D01*
X91566575Y-71064999D01*
X91557262Y-71064312D01*
X91529274Y-71064999D01*
X91501258Y-71064999D01*
X91491958Y-71065915D01*
X90946281Y-71079309D01*
X90927613Y-71078851D01*
X90908990Y-71080225D01*
X90890320Y-71080683D01*
X90871785Y-71082969D01*
X90318109Y-71123811D01*
X90299438Y-71124269D01*
X90280901Y-71126555D01*
X90262279Y-71127929D01*
X90243882Y-71131121D01*
X89692873Y-71199082D01*
X89674249Y-71200456D01*
X89655847Y-71203649D01*
X89637313Y-71205935D01*
X89619093Y-71210027D01*
X89072089Y-71304941D01*
X89053551Y-71307227D01*
X89035324Y-71311320D01*
X89016928Y-71314512D01*
X88998934Y-71319492D01*
X88457228Y-71441135D01*
X88438838Y-71444326D01*
X88420851Y-71449304D01*
X88402618Y-71453398D01*
X88384874Y-71459260D01*
X87849824Y-71607329D01*
X87831594Y-71611422D01*
X87813852Y-71617283D01*
X87795861Y-71622262D01*
X87778446Y-71628980D01*
X87251295Y-71803128D01*
X87233280Y-71808113D01*
X87215839Y-71814841D01*
X87198124Y-71820693D01*
X87181066Y-71828254D01*
X86663073Y-72028067D01*
X86645340Y-72033925D01*
X86628265Y-72041494D01*
X86610841Y-72048215D01*
X86594163Y-72056610D01*
X86086618Y-72281589D01*
X86069185Y-72288314D01*
X86052495Y-72296715D01*
X86035431Y-72304279D01*
X86019192Y-72313478D01*
X85523281Y-72563099D01*
X85506208Y-72570667D01*
X85489959Y-72579872D01*
X85473277Y-72588269D01*
X85457500Y-72598260D01*
X84974462Y-72871898D01*
X84957764Y-72880303D01*
X84941969Y-72890305D01*
X84925736Y-72899501D01*
X84910483Y-72910243D01*
X84441437Y-73207265D01*
X84425173Y-73216478D01*
X84409890Y-73227242D01*
X84394126Y-73237224D01*
X84379418Y-73248702D01*
X83925507Y-73568382D01*
X83909717Y-73578381D01*
X83894984Y-73589879D01*
X83879727Y-73600624D01*
X83865596Y-73612814D01*
X83427917Y-73954383D01*
X83412645Y-73965139D01*
X83398500Y-73977341D01*
X83383779Y-73988829D01*
X83370256Y-74001704D01*
X82949866Y-74364334D01*
X82935142Y-74375825D01*
X82921619Y-74388700D01*
X82907477Y-74400899D01*
X82894597Y-74414427D01*
X82499281Y-74790802D01*
X82492054Y-74796733D01*
X82472232Y-74816555D01*
X82451967Y-74835849D01*
X82445871Y-74842916D01*
X72664992Y-84623797D01*
X72635988Y-84647600D01*
X72580860Y-84714775D01*
X72541015Y-84763325D01*
X72502634Y-84835130D01*
X72470443Y-84895355D01*
X72426986Y-85038616D01*
X72415989Y-85150269D01*
X72415989Y-85150279D01*
X72412313Y-85187601D01*
X72415989Y-85224924D01*
X72415990Y-91758647D01*
X72415989Y-91758657D01*
X72415989Y-91758667D01*
X72412313Y-91795989D01*
X72415989Y-91833311D01*
X72415990Y-101235209D01*
X72412313Y-101272541D01*
X72426987Y-101421526D01*
X72470443Y-101564787D01*
X72541015Y-101696817D01*
X72596818Y-101764812D01*
X72635989Y-101812542D01*
X72664987Y-101836340D01*
X77499648Y-106671002D01*
X77523447Y-106700001D01*
X77552451Y-106723804D01*
X86314847Y-115486201D01*
X86338646Y-115515200D01*
X86367644Y-115538998D01*
X86454370Y-115610173D01*
X86570767Y-115672389D01*
X86586400Y-115680745D01*
X86729661Y-115724202D01*
X86841314Y-115735199D01*
X86841324Y-115735199D01*
X86878647Y-115738875D01*
X86915969Y-115735199D01*
X110154544Y-115735199D01*
X110135718Y-115780648D01*
X110075200Y-116084896D01*
X110075200Y-116395104D01*
X110135718Y-116699352D01*
X110254430Y-116985948D01*
X110426773Y-117243877D01*
X110646123Y-117463227D01*
X110904052Y-117635570D01*
X111190648Y-117754282D01*
X111494896Y-117814800D01*
X111805104Y-117814800D01*
X112109352Y-117754282D01*
X112395948Y-117635570D01*
X112653877Y-117463227D01*
X112873227Y-117243877D01*
X112920000Y-117173876D01*
X112966773Y-117243877D01*
X113186123Y-117463227D01*
X113444052Y-117635570D01*
X113730648Y-117754282D01*
X114034896Y-117814800D01*
X114345104Y-117814800D01*
X114649352Y-117754282D01*
X114935948Y-117635570D01*
X115193877Y-117463227D01*
X115413227Y-117243877D01*
X115460000Y-117173876D01*
X115506773Y-117243877D01*
X115726123Y-117463227D01*
X115984052Y-117635570D01*
X116270648Y-117754282D01*
X116574896Y-117814800D01*
X116885104Y-117814800D01*
X117189352Y-117754282D01*
X117475948Y-117635570D01*
X117733877Y-117463227D01*
X117953227Y-117243877D01*
X118000000Y-117173876D01*
X118046773Y-117243877D01*
X118266123Y-117463227D01*
X118524052Y-117635570D01*
X118810648Y-117754282D01*
X119114896Y-117814800D01*
X119425104Y-117814800D01*
X119729352Y-117754282D01*
X120015948Y-117635570D01*
X120273877Y-117463227D01*
X120404628Y-117332476D01*
X120897129Y-117332476D01*
X120985623Y-117590723D01*
X121264976Y-117725597D01*
X121565275Y-117803381D01*
X121874977Y-117821084D01*
X122182184Y-117778027D01*
X122475086Y-117675865D01*
X122634377Y-117590723D01*
X122722871Y-117332476D01*
X121810000Y-116419605D01*
X120897129Y-117332476D01*
X120404628Y-117332476D01*
X120493227Y-117243877D01*
X120584495Y-117107286D01*
X120717524Y-117152871D01*
X121630395Y-116240000D01*
X120717524Y-115327129D01*
X120584495Y-115372714D01*
X120493227Y-115236123D01*
X120404628Y-115147524D01*
X120897129Y-115147524D01*
X121810000Y-116060395D01*
X122722871Y-115147524D01*
X122634377Y-114889277D01*
X122355024Y-114754403D01*
X122054725Y-114676619D01*
X121745023Y-114658916D01*
X121437816Y-114701973D01*
X121144914Y-114804135D01*
X120985623Y-114889277D01*
X120897129Y-115147524D01*
X120404628Y-115147524D01*
X120273877Y-115016773D01*
X120015948Y-114844430D01*
X119729352Y-114725718D01*
X119702687Y-114720414D01*
X119618100Y-114688476D01*
X119474445Y-114625772D01*
X119340939Y-114561627D01*
X119210130Y-114497075D01*
X119196121Y-114490374D01*
X119066824Y-114430454D01*
X119031515Y-114415370D01*
X118897932Y-114363021D01*
X118846081Y-114345243D01*
X118699466Y-114301947D01*
X118640893Y-114287635D01*
X118472496Y-114254873D01*
X118417086Y-114246610D01*
X118218159Y-114225867D01*
X118171604Y-114222736D01*
X118095583Y-114220424D01*
X118042532Y-114215199D01*
X118042521Y-114215199D01*
X118005199Y-114211523D01*
X117967877Y-114215199D01*
X111871149Y-114215199D01*
X111894282Y-114159352D01*
X111954800Y-113855104D01*
X111954800Y-113544896D01*
X111894282Y-113240648D01*
X111775570Y-112954052D01*
X111603227Y-112696123D01*
X111383877Y-112476773D01*
X111313876Y-112430000D01*
X111383877Y-112383227D01*
X111603227Y-112163877D01*
X111775570Y-111905948D01*
X111894282Y-111619352D01*
X111954800Y-111315104D01*
X111954800Y-111004896D01*
X111894282Y-110700648D01*
X111775570Y-110414052D01*
X111603227Y-110156123D01*
X111383877Y-109936773D01*
X111313876Y-109890000D01*
X111383877Y-109843227D01*
X111603227Y-109623877D01*
X111775570Y-109365948D01*
X111894282Y-109079352D01*
X111954800Y-108775104D01*
X111954800Y-108464896D01*
X111894282Y-108160648D01*
X111775570Y-107874052D01*
X111603227Y-107616123D01*
X111383877Y-107396773D01*
X111313876Y-107350000D01*
X111383877Y-107303227D01*
X111603227Y-107083877D01*
X111775570Y-106825948D01*
X111894282Y-106539352D01*
X111954800Y-106235104D01*
X111954800Y-105924896D01*
X111907201Y-105685599D01*
X112077773Y-105940877D01*
X112297123Y-106160227D01*
X112555052Y-106332570D01*
X112841648Y-106451282D01*
X113145896Y-106511800D01*
X113456104Y-106511800D01*
X113760352Y-106451282D01*
X114046948Y-106332570D01*
X114304877Y-106160227D01*
X114524227Y-105940877D01*
X114696570Y-105682948D01*
X114815282Y-105396352D01*
X114875800Y-105092104D01*
X114875800Y-104781896D01*
X114815282Y-104477648D01*
X114696570Y-104191052D01*
X114524227Y-103933123D01*
X114304877Y-103713773D01*
X114234876Y-103667000D01*
X114304877Y-103620227D01*
X114524227Y-103400877D01*
X114696570Y-103142948D01*
X114815282Y-102856352D01*
X114875800Y-102552104D01*
X114875800Y-102241896D01*
X114815282Y-101937648D01*
X114696570Y-101651052D01*
X114524227Y-101393123D01*
X114304877Y-101173773D01*
X114046948Y-101001430D01*
X113760352Y-100882718D01*
X113456104Y-100822200D01*
X113145896Y-100822200D01*
X112841648Y-100882718D01*
X112555052Y-101001430D01*
X112297123Y-101173773D01*
X112077773Y-101393123D01*
X111905430Y-101651052D01*
X111786718Y-101937648D01*
X111726200Y-102241896D01*
X111726200Y-102552104D01*
X111773799Y-102791401D01*
X111603227Y-102536123D01*
X111383877Y-102316773D01*
X111313876Y-102270000D01*
X111383877Y-102223227D01*
X111603227Y-102003877D01*
X111775570Y-101745948D01*
X111894282Y-101459352D01*
X111954800Y-101155104D01*
X111954800Y-101054436D01*
X111961617Y-100958706D01*
X111962955Y-100895220D01*
X111957208Y-100696770D01*
X111955860Y-100669912D01*
X111944463Y-100510339D01*
X111959603Y-100495199D01*
X124124544Y-100495199D01*
X124105718Y-100540648D01*
X124045200Y-100844896D01*
X124045200Y-101155104D01*
X124105718Y-101459352D01*
X124224430Y-101745948D01*
X124396773Y-102003877D01*
X124616123Y-102223227D01*
X124686124Y-102270000D01*
X124616123Y-102316773D01*
X124396773Y-102536123D01*
X124224430Y-102794052D01*
X124105718Y-103080648D01*
X124045200Y-103384896D01*
X124045200Y-103695104D01*
X124105718Y-103999352D01*
X124224430Y-104285948D01*
X124396773Y-104543877D01*
X124616123Y-104763227D01*
X124686124Y-104810000D01*
X124616123Y-104856773D01*
X124396773Y-105076123D01*
X124224430Y-105334052D01*
X124105718Y-105620648D01*
X124045200Y-105924896D01*
X124045200Y-106235104D01*
X124105718Y-106539352D01*
X124224430Y-106825948D01*
X124396773Y-107083877D01*
X124616123Y-107303227D01*
X124686124Y-107350000D01*
X124616123Y-107396773D01*
X124396773Y-107616123D01*
X124224430Y-107874052D01*
X124105718Y-108160648D01*
X124045200Y-108464896D01*
X124045200Y-108775104D01*
X124105718Y-109079352D01*
X124224430Y-109365948D01*
X124396773Y-109623877D01*
X124616123Y-109843227D01*
X124686124Y-109890000D01*
X124616123Y-109936773D01*
X124396773Y-110156123D01*
X124224430Y-110414052D01*
X124105718Y-110700648D01*
X124045200Y-111004896D01*
X124045200Y-111315104D01*
X124105718Y-111619352D01*
X124224430Y-111905948D01*
X124396773Y-112163877D01*
X124616123Y-112383227D01*
X124686124Y-112430000D01*
X124616123Y-112476773D01*
X124396773Y-112696123D01*
X124224430Y-112954052D01*
X124105718Y-113240648D01*
X124045200Y-113544896D01*
X124045200Y-113855104D01*
X124105718Y-114159352D01*
X124224430Y-114445948D01*
X124369976Y-114663772D01*
X124285023Y-114658916D01*
X123977816Y-114701973D01*
X123684914Y-114804135D01*
X123525623Y-114889277D01*
X123437129Y-115147524D01*
X124121381Y-115831776D01*
X123938265Y-116007870D01*
X123257524Y-115327129D01*
X123080000Y-115387961D01*
X122902476Y-115327129D01*
X121989605Y-116240000D01*
X122902476Y-117152871D01*
X123080000Y-117092039D01*
X123257524Y-117152871D01*
X123938265Y-116472130D01*
X124121381Y-116648224D01*
X123437129Y-117332476D01*
X123525623Y-117590723D01*
X123804976Y-117725597D01*
X124105275Y-117803381D01*
X124414977Y-117821084D01*
X124722184Y-117778027D01*
X125015086Y-117675865D01*
X125174377Y-117590723D01*
X125262871Y-117332476D01*
X125024216Y-117093821D01*
X125182307Y-117004698D01*
X125188679Y-117000856D01*
X125250602Y-116960997D01*
X125442476Y-117152871D01*
X125700723Y-117064377D01*
X125835597Y-116785024D01*
X125913381Y-116484725D01*
X125920217Y-116365130D01*
X125927132Y-116357860D01*
X126073076Y-116205372D01*
X126247449Y-116028003D01*
X126262482Y-116009526D01*
X126274218Y-115987570D01*
X126281445Y-115963745D01*
X126283885Y-115938969D01*
X126281445Y-115914193D01*
X126274218Y-115890368D01*
X126262482Y-115868412D01*
X126246688Y-115849166D01*
X126069911Y-115672389D01*
X126040404Y-115650418D01*
X126017440Y-115640803D01*
X125993041Y-115635852D01*
X125968144Y-115635757D01*
X125943708Y-115640520D01*
X125920670Y-115649959D01*
X125899917Y-115663712D01*
X125835214Y-115716399D01*
X125785865Y-115574914D01*
X125700723Y-115415623D01*
X125442478Y-115327130D01*
X125494808Y-115274800D01*
X125775104Y-115274800D01*
X126079352Y-115214282D01*
X126365948Y-115095570D01*
X126623877Y-114923227D01*
X126843227Y-114703877D01*
X127015570Y-114445948D01*
X127134282Y-114159352D01*
X127194800Y-113855104D01*
X127194800Y-113544896D01*
X127134282Y-113240648D01*
X127015570Y-112954052D01*
X126843227Y-112696123D01*
X126623877Y-112476773D01*
X126553876Y-112430000D01*
X126623877Y-112383227D01*
X126843227Y-112163877D01*
X127015570Y-111905948D01*
X127134282Y-111619352D01*
X127194800Y-111315104D01*
X127194800Y-111004896D01*
X127134282Y-110700648D01*
X127015570Y-110414052D01*
X126843227Y-110156123D01*
X126623877Y-109936773D01*
X126553876Y-109890000D01*
X126623877Y-109843227D01*
X126843227Y-109623877D01*
X127015570Y-109365948D01*
X127134282Y-109079352D01*
X127194800Y-108775104D01*
X127194800Y-108464896D01*
X127134282Y-108160648D01*
X127015570Y-107874052D01*
X126843227Y-107616123D01*
X126623877Y-107396773D01*
X126553876Y-107350000D01*
X126623877Y-107303227D01*
X126843227Y-107083877D01*
X127015570Y-106825948D01*
X127134282Y-106539352D01*
X127194800Y-106235104D01*
X127194800Y-106009899D01*
X147936000Y-106009899D01*
X147936000Y-106310101D01*
X147994566Y-106604534D01*
X148109449Y-106881885D01*
X148276232Y-107131493D01*
X148488507Y-107343768D01*
X148738115Y-107510551D01*
X149015466Y-107625434D01*
X149309899Y-107684000D01*
X149610101Y-107684000D01*
X149904534Y-107625434D01*
X150181885Y-107510551D01*
X150431493Y-107343768D01*
X150643768Y-107131493D01*
X150730000Y-107002438D01*
X150816232Y-107131493D01*
X151028507Y-107343768D01*
X151278115Y-107510551D01*
X151555466Y-107625434D01*
X151849899Y-107684000D01*
X152150101Y-107684000D01*
X152444534Y-107625434D01*
X152721885Y-107510551D01*
X152971493Y-107343768D01*
X153183768Y-107131493D01*
X153270000Y-107002438D01*
X153356232Y-107131493D01*
X153568507Y-107343768D01*
X153818115Y-107510551D01*
X154095466Y-107625434D01*
X154389899Y-107684000D01*
X154690101Y-107684000D01*
X154984534Y-107625434D01*
X155261885Y-107510551D01*
X155511493Y-107343768D01*
X155723768Y-107131493D01*
X155890551Y-106881885D01*
X156005434Y-106604534D01*
X156064000Y-106310101D01*
X156064000Y-106009899D01*
X156005434Y-105715466D01*
X155890551Y-105438115D01*
X155723768Y-105188507D01*
X155511493Y-104976232D01*
X155261885Y-104809449D01*
X154984534Y-104694566D01*
X154690101Y-104636000D01*
X154389899Y-104636000D01*
X154095466Y-104694566D01*
X153818115Y-104809449D01*
X153568507Y-104976232D01*
X153356232Y-105188507D01*
X153270000Y-105317562D01*
X153183768Y-105188507D01*
X152971493Y-104976232D01*
X152721885Y-104809449D01*
X152444534Y-104694566D01*
X152150101Y-104636000D01*
X151849899Y-104636000D01*
X151555466Y-104694566D01*
X151278115Y-104809449D01*
X151028507Y-104976232D01*
X150816232Y-105188507D01*
X150730000Y-105317562D01*
X150643768Y-105188507D01*
X150431493Y-104976232D01*
X150181885Y-104809449D01*
X149904534Y-104694566D01*
X149610101Y-104636000D01*
X149309899Y-104636000D01*
X149015466Y-104694566D01*
X148738115Y-104809449D01*
X148488507Y-104976232D01*
X148276232Y-105188507D01*
X148109449Y-105438115D01*
X147994566Y-105715466D01*
X147936000Y-106009899D01*
X127194800Y-106009899D01*
X127194800Y-105924896D01*
X127134282Y-105620648D01*
X127015570Y-105334052D01*
X126843227Y-105076123D01*
X126623877Y-104856773D01*
X126553876Y-104810000D01*
X126623877Y-104763227D01*
X126843227Y-104543877D01*
X127015570Y-104285948D01*
X127134282Y-103999352D01*
X127194800Y-103695104D01*
X127194800Y-103384896D01*
X127134282Y-103080648D01*
X127015570Y-102794052D01*
X126843227Y-102536123D01*
X126799486Y-102492382D01*
X142602000Y-102492382D01*
X142602000Y-102842618D01*
X142670328Y-103186123D01*
X142804357Y-103509699D01*
X142998937Y-103800909D01*
X143246591Y-104048563D01*
X143537801Y-104243143D01*
X143861377Y-104377172D01*
X144204882Y-104445500D01*
X144555118Y-104445500D01*
X144898623Y-104377172D01*
X145222199Y-104243143D01*
X145513409Y-104048563D01*
X145761063Y-103800909D01*
X145955643Y-103509699D01*
X146089672Y-103186123D01*
X146158000Y-102842618D01*
X146158000Y-102492382D01*
X157842000Y-102492382D01*
X157842000Y-102842618D01*
X157910328Y-103186123D01*
X158044357Y-103509699D01*
X158238937Y-103800909D01*
X158486591Y-104048563D01*
X158777801Y-104243143D01*
X159101377Y-104377172D01*
X159444882Y-104445500D01*
X159795118Y-104445500D01*
X160138623Y-104377172D01*
X160462199Y-104243143D01*
X160753409Y-104048563D01*
X161001063Y-103800909D01*
X161195643Y-103509699D01*
X161329672Y-103186123D01*
X161398000Y-102842618D01*
X161398000Y-102492382D01*
X161329672Y-102148877D01*
X161195643Y-101825301D01*
X161001063Y-101534091D01*
X160753409Y-101286437D01*
X160462199Y-101091857D01*
X160138623Y-100957828D01*
X159795118Y-100889500D01*
X159444882Y-100889500D01*
X159101377Y-100957828D01*
X158777801Y-101091857D01*
X158486591Y-101286437D01*
X158238937Y-101534091D01*
X158044357Y-101825301D01*
X157910328Y-102148877D01*
X157842000Y-102492382D01*
X146158000Y-102492382D01*
X146089672Y-102148877D01*
X145955643Y-101825301D01*
X145761063Y-101534091D01*
X145513409Y-101286437D01*
X145222199Y-101091857D01*
X144898623Y-100957828D01*
X144555118Y-100889500D01*
X144204882Y-100889500D01*
X143861377Y-100957828D01*
X143537801Y-101091857D01*
X143246591Y-101286437D01*
X142998937Y-101534091D01*
X142804357Y-101825301D01*
X142670328Y-102148877D01*
X142602000Y-102492382D01*
X126799486Y-102492382D01*
X126623877Y-102316773D01*
X126553876Y-102270000D01*
X126623877Y-102223227D01*
X126843227Y-102003877D01*
X127015570Y-101745948D01*
X127134282Y-101459352D01*
X127194800Y-101155104D01*
X127194800Y-100844896D01*
X127134282Y-100540648D01*
X127115456Y-100495199D01*
X138067479Y-100495199D01*
X138104801Y-100498875D01*
X138142123Y-100495199D01*
X138142134Y-100495199D01*
X138253787Y-100484202D01*
X138397048Y-100440745D01*
X138529077Y-100370173D01*
X138644802Y-100275200D01*
X138668605Y-100246196D01*
X140310223Y-98604578D01*
X140310092Y-98606988D01*
X140352557Y-98904171D01*
X140452184Y-99187359D01*
X140530711Y-99334273D01*
X140783769Y-99416626D01*
X141399716Y-98800679D01*
X141398716Y-98851826D01*
X141401640Y-98881514D01*
X141409332Y-98905193D01*
X141421495Y-98926916D01*
X141437662Y-98945849D01*
X141457212Y-98961264D01*
X141479394Y-98972568D01*
X141503355Y-98979328D01*
X141528174Y-98981284D01*
X141579321Y-98980284D01*
X140963374Y-99596231D01*
X141045727Y-99849289D01*
X141316418Y-99979086D01*
X141607230Y-100053580D01*
X141906988Y-100069908D01*
X142204171Y-100027443D01*
X142487359Y-99927816D01*
X142634273Y-99849289D01*
X142716626Y-99596231D01*
X142090682Y-98970287D01*
X142443005Y-98963400D01*
X142896231Y-99416626D01*
X143149289Y-99334273D01*
X143279086Y-99063582D01*
X143353580Y-98772770D01*
X143369908Y-98473012D01*
X143327443Y-98175829D01*
X143229642Y-97897832D01*
X143237172Y-97874391D01*
X143240480Y-97861962D01*
X143274207Y-97703328D01*
X143276161Y-97691350D01*
X143297641Y-97503570D01*
X143298393Y-97493384D01*
X143305930Y-97268103D01*
X143303561Y-97239080D01*
X143296334Y-97215255D01*
X143284598Y-97193299D01*
X143268804Y-97174053D01*
X143249558Y-97158259D01*
X143227602Y-97146523D01*
X143203777Y-97139296D01*
X143179001Y-97136856D01*
X142929001Y-97136856D01*
X142895020Y-97141486D01*
X142871800Y-97150467D01*
X142850778Y-97163805D01*
X142832762Y-97180988D01*
X142818445Y-97201356D01*
X142808376Y-97224125D01*
X142802942Y-97248421D01*
X142783411Y-97407937D01*
X142773470Y-97426922D01*
X142716625Y-97483767D01*
X142653378Y-97289417D01*
X142811493Y-97183768D01*
X143023768Y-96971493D01*
X143190551Y-96721885D01*
X143305434Y-96444534D01*
X143364000Y-96150101D01*
X143364000Y-95849899D01*
X143305434Y-95555466D01*
X143190551Y-95278115D01*
X143023768Y-95028507D01*
X142811493Y-94816232D01*
X142686751Y-94732882D01*
X142698188Y-94726641D01*
X142748762Y-94695900D01*
X142886917Y-94602839D01*
X142923726Y-94576079D01*
X143041805Y-94483589D01*
X143058353Y-94470172D01*
X143160167Y-94384759D01*
X143239712Y-94320460D01*
X143294545Y-94282618D01*
X143336794Y-94260693D01*
X143388033Y-94243309D01*
X143473192Y-94227952D01*
X143625558Y-94220000D01*
X145504400Y-94220000D01*
X145541722Y-94223676D01*
X145579044Y-94220000D01*
X145579055Y-94220000D01*
X145690708Y-94209003D01*
X145833969Y-94165546D01*
X145965998Y-94094974D01*
X146081723Y-94000001D01*
X146105526Y-93970997D01*
X150550004Y-89526520D01*
X150579002Y-89502722D01*
X150626841Y-89444430D01*
X150673975Y-89386998D01*
X150744547Y-89254968D01*
X150749132Y-89239853D01*
X150788004Y-89111707D01*
X150799001Y-89000054D01*
X150799001Y-89000044D01*
X150802677Y-88962721D01*
X150799001Y-88925398D01*
X150799001Y-88229899D01*
X153651000Y-88229899D01*
X153651000Y-88530101D01*
X153709566Y-88824534D01*
X153824449Y-89101885D01*
X153991232Y-89351493D01*
X154203507Y-89563768D01*
X154453115Y-89730551D01*
X154730466Y-89845434D01*
X155024899Y-89904000D01*
X155325101Y-89904000D01*
X155619534Y-89845434D01*
X155896885Y-89730551D01*
X156146493Y-89563768D01*
X156358768Y-89351493D01*
X156488469Y-89157382D01*
X157842000Y-89157382D01*
X157842000Y-89507618D01*
X157910328Y-89851123D01*
X158044357Y-90174699D01*
X158238937Y-90465909D01*
X158486591Y-90713563D01*
X158777801Y-90908143D01*
X159101377Y-91042172D01*
X159444882Y-91110500D01*
X159795118Y-91110500D01*
X160138623Y-91042172D01*
X160462199Y-90908143D01*
X160753409Y-90713563D01*
X161001063Y-90465909D01*
X161195643Y-90174699D01*
X161329672Y-89851123D01*
X161398000Y-89507618D01*
X161398000Y-89157382D01*
X161329672Y-88813877D01*
X161195643Y-88490301D01*
X161001063Y-88199091D01*
X160753409Y-87951437D01*
X160462199Y-87756857D01*
X160138623Y-87622828D01*
X159795118Y-87554500D01*
X159444882Y-87554500D01*
X159101377Y-87622828D01*
X158777801Y-87756857D01*
X158486591Y-87951437D01*
X158238937Y-88199091D01*
X158044357Y-88490301D01*
X157910328Y-88813877D01*
X157842000Y-89157382D01*
X156488469Y-89157382D01*
X156525551Y-89101885D01*
X156640434Y-88824534D01*
X156699000Y-88530101D01*
X156699000Y-88229899D01*
X156640434Y-87935466D01*
X156525551Y-87658115D01*
X156358768Y-87408507D01*
X156146493Y-87196232D01*
X155896885Y-87029449D01*
X155619534Y-86914566D01*
X155325101Y-86856000D01*
X155024899Y-86856000D01*
X154730466Y-86914566D01*
X154453115Y-87029449D01*
X154203507Y-87196232D01*
X153991232Y-87408507D01*
X153824449Y-87658115D01*
X153709566Y-87935466D01*
X153651000Y-88229899D01*
X150799001Y-88229899D01*
X150799001Y-83149899D01*
X153651000Y-83149899D01*
X153651000Y-83450101D01*
X153709566Y-83744534D01*
X153824449Y-84021885D01*
X153991232Y-84271493D01*
X154203507Y-84483768D01*
X154453115Y-84650551D01*
X154730466Y-84765434D01*
X155024899Y-84824000D01*
X155325101Y-84824000D01*
X155619534Y-84765434D01*
X155896885Y-84650551D01*
X156146493Y-84483768D01*
X156358768Y-84271493D01*
X156525551Y-84021885D01*
X156640434Y-83744534D01*
X156699000Y-83450101D01*
X156699000Y-83149899D01*
X156640434Y-82855466D01*
X156525551Y-82578115D01*
X156358768Y-82328507D01*
X156146493Y-82116232D01*
X155896885Y-81949449D01*
X155619534Y-81834566D01*
X155325101Y-81776000D01*
X155024899Y-81776000D01*
X154730466Y-81834566D01*
X154453115Y-81949449D01*
X154203507Y-82116232D01*
X153991232Y-82328507D01*
X153824449Y-82578115D01*
X153709566Y-82855466D01*
X153651000Y-83149899D01*
X150799001Y-83149899D01*
X150799001Y-82754604D01*
X150802677Y-82717279D01*
X150799001Y-82679954D01*
X150799001Y-82679946D01*
X150788004Y-82568293D01*
X150760000Y-82475975D01*
X150760000Y-73663459D01*
X150763676Y-73626136D01*
X150760000Y-73588813D01*
X150760000Y-73037322D01*
X150763676Y-72999999D01*
X150760000Y-72962676D01*
X150760000Y-72962667D01*
X150749003Y-72851014D01*
X150705546Y-72707753D01*
X150697168Y-72692079D01*
X150634974Y-72575723D01*
X150563799Y-72488997D01*
X150540001Y-72459999D01*
X150511003Y-72436201D01*
X148734801Y-70660000D01*
X150860004Y-70660000D01*
X152555740Y-71413268D01*
X154291717Y-72346098D01*
X155952858Y-73406457D01*
X157529834Y-74588394D01*
X159013734Y-75885230D01*
X160396232Y-77289686D01*
X161669533Y-78793846D01*
X162826468Y-80389237D01*
X163860516Y-82066871D01*
X164765885Y-83817347D01*
X165537447Y-85630755D01*
X166170871Y-87496915D01*
X166662588Y-89405305D01*
X167009837Y-91345219D01*
X167210653Y-93305687D01*
X167263911Y-95275695D01*
X167169312Y-97244147D01*
X166927383Y-99199981D01*
X166539495Y-101132148D01*
X166007820Y-103029819D01*
X165335364Y-104882264D01*
X164525903Y-106679083D01*
X163584002Y-108410143D01*
X162514954Y-110065717D01*
X161324776Y-111636482D01*
X160020192Y-113113568D01*
X158608522Y-114488689D01*
X157097706Y-115754106D01*
X155496286Y-116902665D01*
X153813239Y-117927929D01*
X152054984Y-118825684D01*
X150863619Y-119339999D01*
X81244537Y-119340001D01*
X79752324Y-118058317D01*
X78195624Y-116519994D01*
X76750010Y-114876811D01*
X75422537Y-113136789D01*
X74219688Y-111308419D01*
X73147306Y-109400595D01*
X72210623Y-107422618D01*
X71414191Y-105384101D01*
X70761903Y-103295009D01*
X70256933Y-101165510D01*
X69901735Y-99005948D01*
X69698049Y-96826891D01*
X69646861Y-94638934D01*
X69748424Y-92452715D01*
X70002241Y-90278916D01*
X70407073Y-88128134D01*
X70960955Y-86010815D01*
X71661179Y-83937303D01*
X72504346Y-81917669D01*
X73486335Y-79961785D01*
X74602367Y-78079166D01*
X75847010Y-76278975D01*
X77214197Y-74569991D01*
X78697261Y-72960547D01*
X80291760Y-71455855D01*
X81240222Y-70660000D01*
X109265197Y-70660000D01*
X107547699Y-72377500D01*
G37*
%TD.AperFunction*%
D28*
X110073000Y-77800000D02*
X110075440Y-77824776D01*
X110082667Y-77848601D01*
X110094403Y-77870557D01*
X110110197Y-77889803D01*
X110129443Y-77905597D01*
X110151399Y-77917333D01*
X110175224Y-77924560D01*
X110200000Y-77927000D01*
X125800000Y-77927000D01*
X125824776Y-77924560D01*
X125848601Y-77917333D01*
X125870557Y-77905597D01*
X125889803Y-77889803D01*
X125905597Y-77870557D01*
X125917333Y-77848601D01*
X125924560Y-77824776D01*
X125927000Y-77800000D01*
X125927000Y-73417499D01*
X127342698Y-73417499D01*
X130034174Y-76108976D01*
X130173221Y-76253236D01*
X130284234Y-76376776D01*
X130381719Y-76490927D01*
X130471912Y-76597989D01*
X130480431Y-76607893D01*
X130561928Y-76700689D01*
X130561928Y-76800000D01*
X130574188Y-76924482D01*
X130610498Y-77044180D01*
X130669463Y-77154494D01*
X130748815Y-77251185D01*
X130845506Y-77330537D01*
X130955820Y-77389502D01*
X131075518Y-77425812D01*
X131200000Y-77438072D01*
X132800000Y-77438072D01*
X132924482Y-77425812D01*
X133044180Y-77389502D01*
X133154494Y-77330537D01*
X133251185Y-77251185D01*
X133330537Y-77154494D01*
X133389502Y-77044180D01*
X133425812Y-76924482D01*
X133438072Y-76800000D01*
X133438072Y-76773022D01*
X133474005Y-76766716D01*
X133606125Y-76760000D01*
X139962678Y-76760000D01*
X140000000Y-76763676D01*
X140037322Y-76760000D01*
X140037333Y-76760000D01*
X140148986Y-76749003D01*
X140292247Y-76705546D01*
X140424276Y-76634974D01*
X140540001Y-76540001D01*
X140563804Y-76510997D01*
X141067565Y-76007236D01*
X141074188Y-76074482D01*
X141110498Y-76194180D01*
X141169463Y-76304494D01*
X141248815Y-76401185D01*
X141345506Y-76480537D01*
X141455820Y-76539502D01*
X141575518Y-76575812D01*
X141700000Y-76588072D01*
X144000000Y-76588072D01*
X144124482Y-76575812D01*
X144244180Y-76539502D01*
X144354494Y-76480537D01*
X144451185Y-76401185D01*
X144530537Y-76304494D01*
X144554320Y-76260000D01*
X148088814Y-76260000D01*
X148126136Y-76263676D01*
X148163458Y-76260000D01*
X148163469Y-76260000D01*
X148275122Y-76249003D01*
X148418383Y-76205546D01*
X148550412Y-76134974D01*
X148666137Y-76040001D01*
X148689940Y-76010997D01*
X149240000Y-75460937D01*
X149240001Y-81828692D01*
X148975101Y-81776000D01*
X148674899Y-81776000D01*
X148380466Y-81834566D01*
X148103115Y-81949449D01*
X147853507Y-82116232D01*
X147641232Y-82328507D01*
X147474449Y-82578115D01*
X147359566Y-82855466D01*
X147301000Y-83149899D01*
X147301000Y-83450101D01*
X147359566Y-83744534D01*
X147474449Y-84021885D01*
X147641232Y-84271493D01*
X147853507Y-84483768D01*
X148103115Y-84650551D01*
X148380466Y-84765434D01*
X148674899Y-84824000D01*
X148975101Y-84824000D01*
X149269534Y-84765434D01*
X149279001Y-84761512D01*
X149279002Y-86918488D01*
X149269534Y-86914566D01*
X148975101Y-86856000D01*
X148674899Y-86856000D01*
X148380466Y-86914566D01*
X148103115Y-87029449D01*
X147853507Y-87196232D01*
X147641232Y-87408507D01*
X147474449Y-87658115D01*
X147359566Y-87935466D01*
X147301000Y-88229899D01*
X147301000Y-88530101D01*
X147359566Y-88824534D01*
X147474449Y-89101885D01*
X147641232Y-89351493D01*
X147853507Y-89563768D01*
X148103115Y-89730551D01*
X148169056Y-89757865D01*
X145226921Y-92700000D01*
X143625563Y-92700000D01*
X143473193Y-92692047D01*
X143388033Y-92676690D01*
X143336794Y-92659306D01*
X143294545Y-92637381D01*
X143239712Y-92599539D01*
X143160167Y-92535240D01*
X143058353Y-92449827D01*
X143041805Y-92436410D01*
X142923726Y-92343920D01*
X142886917Y-92317160D01*
X142748762Y-92224099D01*
X142698186Y-92193357D01*
X142639676Y-92161427D01*
X142561885Y-92109449D01*
X142284534Y-91994566D01*
X141990101Y-91936000D01*
X141689899Y-91936000D01*
X141395466Y-91994566D01*
X141118115Y-92109449D01*
X140868507Y-92276232D01*
X140656232Y-92488507D01*
X140489449Y-92738115D01*
X140374566Y-93015466D01*
X140316000Y-93309899D01*
X140316000Y-93610101D01*
X140374566Y-93904534D01*
X140489449Y-94181885D01*
X140656232Y-94431493D01*
X140868507Y-94643768D01*
X140997562Y-94730000D01*
X140868507Y-94816232D01*
X140656232Y-95028507D01*
X140489449Y-95278115D01*
X140374566Y-95555466D01*
X140356313Y-95647230D01*
X140337519Y-95711177D01*
X140323495Y-95768679D01*
X140291609Y-95932173D01*
X140284503Y-95977123D01*
X140266409Y-96126018D01*
X140264195Y-96147205D01*
X140252596Y-96279606D01*
X140241818Y-96381299D01*
X140229802Y-96446841D01*
X140215430Y-96492218D01*
X140191494Y-96540737D01*
X140142133Y-96611817D01*
X140040007Y-96725191D01*
X137790000Y-98975199D01*
X127111149Y-98975199D01*
X127134282Y-98919352D01*
X127194800Y-98615104D01*
X127194800Y-98304896D01*
X127134282Y-98000648D01*
X127015570Y-97714052D01*
X126843227Y-97456123D01*
X126623877Y-97236773D01*
X126553876Y-97190000D01*
X126623877Y-97143227D01*
X126843227Y-96923877D01*
X127015570Y-96665948D01*
X127134282Y-96379352D01*
X127194800Y-96075104D01*
X127194800Y-95764896D01*
X127134282Y-95460648D01*
X127015570Y-95174052D01*
X126843227Y-94916123D01*
X126623877Y-94696773D01*
X126553876Y-94650000D01*
X126623877Y-94603227D01*
X126843227Y-94383877D01*
X127015570Y-94125948D01*
X127134282Y-93839352D01*
X127194800Y-93535104D01*
X127194800Y-93224896D01*
X127134282Y-92920648D01*
X127015570Y-92634052D01*
X126843227Y-92376123D01*
X126623877Y-92156773D01*
X126553876Y-92110000D01*
X126623877Y-92063227D01*
X126843227Y-91843877D01*
X127015570Y-91585948D01*
X127134282Y-91299352D01*
X127194800Y-90995104D01*
X127194800Y-90684896D01*
X127134282Y-90380648D01*
X127015570Y-90094052D01*
X126843227Y-89836123D01*
X126623877Y-89616773D01*
X126553876Y-89570000D01*
X126623877Y-89523227D01*
X126843227Y-89303877D01*
X126941112Y-89157382D01*
X142602000Y-89157382D01*
X142602000Y-89507618D01*
X142670328Y-89851123D01*
X142804357Y-90174699D01*
X142998937Y-90465909D01*
X143246591Y-90713563D01*
X143537801Y-90908143D01*
X143861377Y-91042172D01*
X144204882Y-91110500D01*
X144555118Y-91110500D01*
X144898623Y-91042172D01*
X145222199Y-90908143D01*
X145513409Y-90713563D01*
X145761063Y-90465909D01*
X145955643Y-90174699D01*
X146089672Y-89851123D01*
X146158000Y-89507618D01*
X146158000Y-89157382D01*
X146089672Y-88813877D01*
X145955643Y-88490301D01*
X145761063Y-88199091D01*
X145513409Y-87951437D01*
X145222199Y-87756857D01*
X144898623Y-87622828D01*
X144555118Y-87554500D01*
X144204882Y-87554500D01*
X143861377Y-87622828D01*
X143537801Y-87756857D01*
X143246591Y-87951437D01*
X142998937Y-88199091D01*
X142804357Y-88490301D01*
X142670328Y-88813877D01*
X142602000Y-89157382D01*
X126941112Y-89157382D01*
X127015570Y-89045948D01*
X127134282Y-88759352D01*
X127194800Y-88455104D01*
X127194800Y-88144896D01*
X127134282Y-87840648D01*
X127015570Y-87554052D01*
X126843227Y-87296123D01*
X126623877Y-87076773D01*
X126553876Y-87030000D01*
X126623877Y-86983227D01*
X126843227Y-86763877D01*
X127015570Y-86505948D01*
X127134282Y-86219352D01*
X127194800Y-85915104D01*
X127194800Y-85604896D01*
X127134282Y-85300648D01*
X127015570Y-85014052D01*
X126843227Y-84756123D01*
X126623877Y-84536773D01*
X126365948Y-84364430D01*
X126079352Y-84245718D01*
X125775104Y-84185200D01*
X125464896Y-84185200D01*
X125160648Y-84245718D01*
X124874052Y-84364430D01*
X124616123Y-84536773D01*
X124396773Y-84756123D01*
X124224430Y-85014052D01*
X124105718Y-85300648D01*
X124045200Y-85604896D01*
X124045200Y-85915104D01*
X124105718Y-86219352D01*
X124224430Y-86505948D01*
X124396773Y-86763877D01*
X124616123Y-86983227D01*
X124686124Y-87030000D01*
X124616123Y-87076773D01*
X124396773Y-87296123D01*
X124224430Y-87554052D01*
X124105718Y-87840648D01*
X124045200Y-88144896D01*
X124045200Y-88455104D01*
X124105718Y-88759352D01*
X124224430Y-89045948D01*
X124396773Y-89303877D01*
X124616123Y-89523227D01*
X124686124Y-89570000D01*
X124616123Y-89616773D01*
X124396773Y-89836123D01*
X124224430Y-90094052D01*
X124105718Y-90380648D01*
X124045200Y-90684896D01*
X124045200Y-90995104D01*
X124105718Y-91299352D01*
X124224430Y-91585948D01*
X124396773Y-91843877D01*
X124616123Y-92063227D01*
X124686124Y-92110000D01*
X124616123Y-92156773D01*
X124396773Y-92376123D01*
X124224430Y-92634052D01*
X124105718Y-92920648D01*
X124045200Y-93224896D01*
X124045200Y-93535104D01*
X124105718Y-93839352D01*
X124224430Y-94125948D01*
X124396773Y-94383877D01*
X124616123Y-94603227D01*
X124686124Y-94650000D01*
X124616123Y-94696773D01*
X124396773Y-94916123D01*
X124224430Y-95174052D01*
X124105718Y-95460648D01*
X124045200Y-95764896D01*
X124045200Y-96075104D01*
X124105718Y-96379352D01*
X124224430Y-96665948D01*
X124396773Y-96923877D01*
X124616123Y-97143227D01*
X124686124Y-97190000D01*
X124616123Y-97236773D01*
X124396773Y-97456123D01*
X124224430Y-97714052D01*
X124105718Y-98000648D01*
X124045200Y-98304896D01*
X124045200Y-98615104D01*
X124105718Y-98919352D01*
X124128851Y-98975199D01*
X111871149Y-98975199D01*
X111894282Y-98919352D01*
X111954800Y-98615104D01*
X111954800Y-98304896D01*
X111894282Y-98000648D01*
X111775570Y-97714052D01*
X111603227Y-97456123D01*
X111383877Y-97236773D01*
X111313876Y-97190000D01*
X111383877Y-97143227D01*
X111603227Y-96923877D01*
X111775570Y-96665948D01*
X111894282Y-96379352D01*
X111954800Y-96075104D01*
X111954800Y-95764896D01*
X111894282Y-95460648D01*
X111775570Y-95174052D01*
X111603227Y-94916123D01*
X111383877Y-94696773D01*
X111313876Y-94650000D01*
X111383877Y-94603227D01*
X111595590Y-94391514D01*
X111966000Y-94391514D01*
X111966000Y-94654486D01*
X112017304Y-94912405D01*
X112117939Y-95155359D01*
X112264038Y-95374013D01*
X112449987Y-95559962D01*
X112668641Y-95706061D01*
X112911595Y-95806696D01*
X113169514Y-95858000D01*
X113432486Y-95858000D01*
X113690405Y-95806696D01*
X113933359Y-95706061D01*
X114152013Y-95559962D01*
X114337962Y-95374013D01*
X114484061Y-95155359D01*
X114584696Y-94912405D01*
X114636000Y-94654486D01*
X114636000Y-94391514D01*
X114584696Y-94133595D01*
X114484061Y-93890641D01*
X114337962Y-93671987D01*
X114152013Y-93486038D01*
X113933359Y-93339939D01*
X113690405Y-93239304D01*
X113502971Y-93202021D01*
X113661236Y-93170540D01*
X113885992Y-93077443D01*
X114088267Y-92942287D01*
X114260287Y-92770267D01*
X114395443Y-92567992D01*
X114488540Y-92343236D01*
X114536000Y-92104637D01*
X114536000Y-91861363D01*
X114488540Y-91622764D01*
X114395443Y-91398008D01*
X114260287Y-91195733D01*
X114088267Y-91023713D01*
X113885992Y-90888557D01*
X113661236Y-90795460D01*
X113422637Y-90748000D01*
X113179363Y-90748000D01*
X112940764Y-90795460D01*
X112716008Y-90888557D01*
X112513733Y-91023713D01*
X112341713Y-91195733D01*
X112206557Y-91398008D01*
X112113460Y-91622764D01*
X112066000Y-91861363D01*
X112066000Y-92104637D01*
X112113460Y-92343236D01*
X112206557Y-92567992D01*
X112341713Y-92770267D01*
X112513733Y-92942287D01*
X112716008Y-93077443D01*
X112940764Y-93170540D01*
X113099029Y-93202021D01*
X112911595Y-93239304D01*
X112668641Y-93339939D01*
X112449987Y-93486038D01*
X112264038Y-93671987D01*
X112117939Y-93890641D01*
X112017304Y-94133595D01*
X111966000Y-94391514D01*
X111595590Y-94391514D01*
X111603227Y-94383877D01*
X111775570Y-94125948D01*
X111894282Y-93839352D01*
X111954800Y-93535104D01*
X111954800Y-93224896D01*
X111894282Y-92920648D01*
X111775570Y-92634052D01*
X111603227Y-92376123D01*
X111383877Y-92156773D01*
X111313876Y-92110000D01*
X111383877Y-92063227D01*
X111603227Y-91843877D01*
X111775570Y-91585948D01*
X111894282Y-91299352D01*
X111954800Y-90995104D01*
X111954800Y-90684896D01*
X111894282Y-90380648D01*
X111775570Y-90094052D01*
X111603227Y-89836123D01*
X111383877Y-89616773D01*
X111313876Y-89570000D01*
X111383877Y-89523227D01*
X111603227Y-89303877D01*
X111775570Y-89045948D01*
X111894282Y-88759352D01*
X111954800Y-88455104D01*
X111954800Y-88144896D01*
X111894282Y-87840648D01*
X111775570Y-87554052D01*
X111603227Y-87296123D01*
X111383877Y-87076773D01*
X111313876Y-87030000D01*
X111383877Y-86983227D01*
X111603227Y-86763877D01*
X111775570Y-86505948D01*
X111894282Y-86219352D01*
X111954800Y-85915104D01*
X111954800Y-85604896D01*
X111894282Y-85300648D01*
X111775570Y-85014052D01*
X111603227Y-84756123D01*
X111383877Y-84536773D01*
X111125948Y-84364430D01*
X110839352Y-84245718D01*
X110535104Y-84185200D01*
X110224896Y-84185200D01*
X109920648Y-84245718D01*
X109634052Y-84364430D01*
X109376123Y-84536773D01*
X109156773Y-84756123D01*
X108984430Y-85014052D01*
X108865718Y-85300648D01*
X108805200Y-85604896D01*
X108805200Y-85915104D01*
X108865718Y-86219352D01*
X108984430Y-86505948D01*
X109156773Y-86763877D01*
X109376123Y-86983227D01*
X109446124Y-87030000D01*
X109376123Y-87076773D01*
X109156773Y-87296123D01*
X108984430Y-87554052D01*
X108865718Y-87840648D01*
X108805200Y-88144896D01*
X108805200Y-88455104D01*
X108865718Y-88759352D01*
X108984430Y-89045948D01*
X109156773Y-89303877D01*
X109376123Y-89523227D01*
X109446124Y-89570000D01*
X109376123Y-89616773D01*
X109156773Y-89836123D01*
X108984430Y-90094052D01*
X108865718Y-90380648D01*
X108805200Y-90684896D01*
X108805200Y-90995104D01*
X108865718Y-91299352D01*
X108984430Y-91585948D01*
X109156773Y-91843877D01*
X109376123Y-92063227D01*
X109446124Y-92110000D01*
X109376123Y-92156773D01*
X109156773Y-92376123D01*
X108984430Y-92634052D01*
X108865718Y-92920648D01*
X108805200Y-93224896D01*
X108805200Y-93535104D01*
X108865718Y-93839352D01*
X108984430Y-94125948D01*
X109156773Y-94383877D01*
X109376123Y-94603227D01*
X109446124Y-94650000D01*
X109376123Y-94696773D01*
X109373407Y-94699489D01*
X109340042Y-94723679D01*
X109203159Y-94832446D01*
X109172312Y-94858602D01*
X109055098Y-94964589D01*
X109044037Y-94974832D01*
X108944695Y-95069040D01*
X108868953Y-95136813D01*
X108817149Y-95175597D01*
X108777577Y-95197480D01*
X108727642Y-95215274D01*
X108640914Y-95231518D01*
X108483147Y-95240000D01*
X76625563Y-95240000D01*
X76473193Y-95232047D01*
X76388033Y-95216690D01*
X76336794Y-95199306D01*
X76294545Y-95177381D01*
X76239712Y-95139539D01*
X76160167Y-95075240D01*
X76058353Y-94989827D01*
X76041805Y-94976410D01*
X75923726Y-94883920D01*
X75886917Y-94857160D01*
X75748762Y-94764099D01*
X75698186Y-94733357D01*
X75686752Y-94727117D01*
X75811493Y-94643768D01*
X76023768Y-94431493D01*
X76190551Y-94181885D01*
X76305434Y-93904534D01*
X76364000Y-93610101D01*
X76364000Y-93309899D01*
X76305434Y-93015466D01*
X76190551Y-92738115D01*
X76023768Y-92488507D01*
X75811493Y-92276232D01*
X75561885Y-92109449D01*
X75284534Y-91994566D01*
X75192765Y-91976312D01*
X75128821Y-91957519D01*
X75071320Y-91943495D01*
X74907826Y-91911609D01*
X74862876Y-91904503D01*
X74713981Y-91886409D01*
X74692794Y-91884195D01*
X74560393Y-91872596D01*
X74458700Y-91861818D01*
X74393158Y-91849802D01*
X74347781Y-91835430D01*
X74299262Y-91811494D01*
X74228182Y-91762134D01*
X74114808Y-91660007D01*
X73935989Y-91481188D01*
X73935989Y-89157382D01*
X75602000Y-89157382D01*
X75602000Y-89507618D01*
X75670328Y-89851123D01*
X75804357Y-90174699D01*
X75998937Y-90465909D01*
X76246591Y-90713563D01*
X76537801Y-90908143D01*
X76861377Y-91042172D01*
X77204882Y-91110500D01*
X77555118Y-91110500D01*
X77898623Y-91042172D01*
X78222199Y-90908143D01*
X78513409Y-90713563D01*
X78761063Y-90465909D01*
X78955643Y-90174699D01*
X79089672Y-89851123D01*
X79158000Y-89507618D01*
X79158000Y-89157382D01*
X79089672Y-88813877D01*
X78955643Y-88490301D01*
X78781649Y-88229899D01*
X80301000Y-88229899D01*
X80301000Y-88530101D01*
X80359566Y-88824534D01*
X80474449Y-89101885D01*
X80641232Y-89351493D01*
X80853507Y-89563768D01*
X81103115Y-89730551D01*
X81380466Y-89845434D01*
X81674899Y-89904000D01*
X81975101Y-89904000D01*
X82269534Y-89845434D01*
X82546885Y-89730551D01*
X82796493Y-89563768D01*
X83008768Y-89351493D01*
X83175551Y-89101885D01*
X83290434Y-88824534D01*
X83349000Y-88530101D01*
X83349000Y-88229899D01*
X86651000Y-88229899D01*
X86651000Y-88530101D01*
X86709566Y-88824534D01*
X86824449Y-89101885D01*
X86991232Y-89351493D01*
X87203507Y-89563768D01*
X87453115Y-89730551D01*
X87730466Y-89845434D01*
X88024899Y-89904000D01*
X88325101Y-89904000D01*
X88619534Y-89845434D01*
X88896885Y-89730551D01*
X89146493Y-89563768D01*
X89358768Y-89351493D01*
X89488469Y-89157382D01*
X90842000Y-89157382D01*
X90842000Y-89507618D01*
X90910328Y-89851123D01*
X91044357Y-90174699D01*
X91238937Y-90465909D01*
X91486591Y-90713563D01*
X91777801Y-90908143D01*
X92101377Y-91042172D01*
X92444882Y-91110500D01*
X92795118Y-91110500D01*
X93138623Y-91042172D01*
X93462199Y-90908143D01*
X93753409Y-90713563D01*
X94001063Y-90465909D01*
X94195643Y-90174699D01*
X94329672Y-89851123D01*
X94398000Y-89507618D01*
X94398000Y-89157382D01*
X94329672Y-88813877D01*
X94195643Y-88490301D01*
X94001063Y-88199091D01*
X93753409Y-87951437D01*
X93462199Y-87756857D01*
X93138623Y-87622828D01*
X92795118Y-87554500D01*
X92444882Y-87554500D01*
X92101377Y-87622828D01*
X91777801Y-87756857D01*
X91486591Y-87951437D01*
X91238937Y-88199091D01*
X91044357Y-88490301D01*
X90910328Y-88813877D01*
X90842000Y-89157382D01*
X89488469Y-89157382D01*
X89525551Y-89101885D01*
X89640434Y-88824534D01*
X89699000Y-88530101D01*
X89699000Y-88229899D01*
X89640434Y-87935466D01*
X89525551Y-87658115D01*
X89358768Y-87408507D01*
X89146493Y-87196232D01*
X88896885Y-87029449D01*
X88619534Y-86914566D01*
X88325101Y-86856000D01*
X88024899Y-86856000D01*
X87730466Y-86914566D01*
X87453115Y-87029449D01*
X87203507Y-87196232D01*
X86991232Y-87408507D01*
X86824449Y-87658115D01*
X86709566Y-87935466D01*
X86651000Y-88229899D01*
X83349000Y-88229899D01*
X83290434Y-87935466D01*
X83175551Y-87658115D01*
X83008768Y-87408507D01*
X82796493Y-87196232D01*
X82546885Y-87029449D01*
X82269534Y-86914566D01*
X81975101Y-86856000D01*
X81674899Y-86856000D01*
X81380466Y-86914566D01*
X81103115Y-87029449D01*
X80853507Y-87196232D01*
X80641232Y-87408507D01*
X80474449Y-87658115D01*
X80359566Y-87935466D01*
X80301000Y-88229899D01*
X78781649Y-88229899D01*
X78761063Y-88199091D01*
X78513409Y-87951437D01*
X78222199Y-87756857D01*
X77898623Y-87622828D01*
X77555118Y-87554500D01*
X77204882Y-87554500D01*
X76861377Y-87622828D01*
X76537801Y-87756857D01*
X76246591Y-87951437D01*
X75998937Y-88199091D01*
X75804357Y-88490301D01*
X75670328Y-88813877D01*
X75602000Y-89157382D01*
X73935989Y-89157382D01*
X73935989Y-85502402D01*
X76288492Y-83149899D01*
X80301000Y-83149899D01*
X80301000Y-83450101D01*
X80359566Y-83744534D01*
X80474449Y-84021885D01*
X80641232Y-84271493D01*
X80853507Y-84483768D01*
X81103115Y-84650551D01*
X81380466Y-84765434D01*
X81674899Y-84824000D01*
X81975101Y-84824000D01*
X82269534Y-84765434D01*
X82546885Y-84650551D01*
X82796493Y-84483768D01*
X83008768Y-84271493D01*
X83175551Y-84021885D01*
X83290434Y-83744534D01*
X83349000Y-83450101D01*
X83349000Y-83149899D01*
X86651000Y-83149899D01*
X86651000Y-83450101D01*
X86709566Y-83744534D01*
X86824449Y-84021885D01*
X86991232Y-84271493D01*
X87203507Y-84483768D01*
X87453115Y-84650551D01*
X87730466Y-84765434D01*
X88024899Y-84824000D01*
X88325101Y-84824000D01*
X88619534Y-84765434D01*
X88896885Y-84650551D01*
X89146493Y-84483768D01*
X89358768Y-84271493D01*
X89525551Y-84021885D01*
X89640434Y-83744534D01*
X89699000Y-83450101D01*
X89699000Y-83149899D01*
X89640434Y-82855466D01*
X89525551Y-82578115D01*
X89358768Y-82328507D01*
X89146493Y-82116232D01*
X88896885Y-81949449D01*
X88717150Y-81875000D01*
X139283000Y-81875000D01*
X139283000Y-82125000D01*
X139284844Y-82146566D01*
X139291456Y-82170568D01*
X139302624Y-82192819D01*
X139317918Y-82212464D01*
X139336751Y-82228748D01*
X139358398Y-82241044D01*
X139382029Y-82248881D01*
X139406735Y-82251958D01*
X139469258Y-82253566D01*
X139516808Y-82257794D01*
X139554795Y-82264184D01*
X139586331Y-82272426D01*
X139615017Y-82282746D01*
X139644414Y-82295936D01*
X139677265Y-82312748D01*
X139715321Y-82333287D01*
X139715821Y-82333556D01*
X139759426Y-82356838D01*
X139762089Y-82358219D01*
X139812080Y-82383412D01*
X139842028Y-82394052D01*
X139866752Y-82396976D01*
X139891571Y-82395020D01*
X139915532Y-82388260D01*
X139937714Y-82376955D01*
X139957264Y-82361540D01*
X140238030Y-82091540D01*
X140256955Y-82068480D01*
X140268260Y-82046298D01*
X140275020Y-82022337D01*
X140276976Y-81997518D01*
X140274052Y-81972794D01*
X140266360Y-81949115D01*
X140254198Y-81927392D01*
X140238030Y-81908460D01*
X139957264Y-81638460D01*
X139931782Y-81619470D01*
X139909016Y-81609392D01*
X139884723Y-81603948D01*
X139859833Y-81603348D01*
X139835306Y-81607616D01*
X139812082Y-81616587D01*
X139762091Y-81641779D01*
X139759426Y-81643161D01*
X139715821Y-81666443D01*
X139715321Y-81666712D01*
X139677265Y-81687251D01*
X139644414Y-81704063D01*
X139615017Y-81717253D01*
X139586331Y-81727573D01*
X139554795Y-81735815D01*
X139516808Y-81742205D01*
X139469258Y-81746433D01*
X139406733Y-81748042D01*
X139385224Y-81750440D01*
X139361399Y-81757667D01*
X139339443Y-81769403D01*
X139320197Y-81785197D01*
X139304403Y-81804443D01*
X139292667Y-81826399D01*
X139285440Y-81850224D01*
X139283000Y-81875000D01*
X88717150Y-81875000D01*
X88619534Y-81834566D01*
X88325101Y-81776000D01*
X88024899Y-81776000D01*
X87730466Y-81834566D01*
X87453115Y-81949449D01*
X87203507Y-82116232D01*
X86991232Y-82328507D01*
X86824449Y-82578115D01*
X86709566Y-82855466D01*
X86651000Y-83149899D01*
X83349000Y-83149899D01*
X83290434Y-82855466D01*
X83175551Y-82578115D01*
X83008768Y-82328507D01*
X82796493Y-82116232D01*
X82546885Y-81949449D01*
X82269534Y-81834566D01*
X81975101Y-81776000D01*
X81674899Y-81776000D01*
X81380466Y-81834566D01*
X81103115Y-81949449D01*
X80853507Y-82116232D01*
X80641232Y-82328507D01*
X80474449Y-82578115D01*
X80359566Y-82855466D01*
X80301000Y-83149899D01*
X76288492Y-83149899D01*
X83533881Y-75904510D01*
X83942692Y-75515287D01*
X84363065Y-75152671D01*
X84800730Y-74811113D01*
X85254628Y-74491443D01*
X85723657Y-74194434D01*
X86206714Y-73920787D01*
X86702590Y-73671184D01*
X87210114Y-73446215D01*
X87728080Y-73246413D01*
X88255227Y-73072267D01*
X88790281Y-72924197D01*
X89331964Y-72802559D01*
X89878943Y-72707650D01*
X90429931Y-72639691D01*
X90983589Y-72598851D01*
X91547916Y-72584999D01*
X95514296Y-72584999D01*
X95515000Y-72714250D01*
X95673750Y-72873000D01*
X96575848Y-72873000D01*
X96580813Y-73127000D01*
X95673750Y-73127000D01*
X95515000Y-73285750D01*
X95511928Y-73850000D01*
X95519737Y-73929285D01*
X94210000Y-73929285D01*
X94210000Y-80070714D01*
X98030000Y-80070714D01*
X98030000Y-74857857D01*
X98210000Y-74857857D01*
X98210000Y-79142143D01*
X102030000Y-79142143D01*
X102030000Y-74857857D01*
X98210000Y-74857857D01*
X98030000Y-74857857D01*
X98030000Y-74458971D01*
X98094180Y-74439502D01*
X98204494Y-74380537D01*
X98253526Y-74340298D01*
X98300001Y-74340298D01*
X98329254Y-74336883D01*
X98352803Y-74328801D01*
X98374322Y-74316281D01*
X98392984Y-74299803D01*
X98408074Y-74280000D01*
X98419010Y-74257635D01*
X98425373Y-74233565D01*
X98426918Y-74208717D01*
X98423841Y-74123479D01*
X98439502Y-74094180D01*
X98461513Y-74021620D01*
X98593368Y-74153475D01*
X98836589Y-74315990D01*
X99106842Y-74427932D01*
X99393740Y-74485000D01*
X99686260Y-74485000D01*
X99973158Y-74427932D01*
X100243411Y-74315990D01*
X100318354Y-74265915D01*
X100373051Y-74236110D01*
X100422940Y-74205874D01*
X100554767Y-74117451D01*
X100590981Y-74091267D01*
X100703778Y-74003505D01*
X100719852Y-73990574D01*
X100816824Y-73909934D01*
X100891641Y-73850074D01*
X100941766Y-73815860D01*
X100979100Y-73796701D01*
X101024775Y-73781372D01*
X101103040Y-73767406D01*
X101246389Y-73760000D01*
X104949765Y-73760000D01*
X104953577Y-73772567D01*
X105033774Y-73922606D01*
X104994463Y-73970506D01*
X104935498Y-74080820D01*
X104899188Y-74200518D01*
X104886928Y-74325000D01*
X104890000Y-74576750D01*
X105048750Y-74735500D01*
X105711343Y-74735500D01*
X105674470Y-74770959D01*
X105655545Y-74794020D01*
X105649094Y-74806677D01*
X105480959Y-74981517D01*
X105475125Y-74989500D01*
X105048750Y-74989500D01*
X104890000Y-75148250D01*
X104886928Y-75400000D01*
X104899188Y-75524482D01*
X104935498Y-75644180D01*
X104994463Y-75754494D01*
X105073815Y-75851185D01*
X105170506Y-75930537D01*
X105280820Y-75989502D01*
X105400518Y-76025812D01*
X105525000Y-76038072D01*
X105714250Y-76035000D01*
X105825107Y-75924143D01*
X105826399Y-75924833D01*
X105850224Y-75932060D01*
X105875000Y-75934500D01*
X106125000Y-75934500D01*
X106144726Y-75932959D01*
X106168823Y-75926700D01*
X106174638Y-75923888D01*
X106285750Y-76035000D01*
X106475000Y-76038072D01*
X106599482Y-76025812D01*
X106719180Y-75989502D01*
X106829494Y-75930537D01*
X106926185Y-75851185D01*
X107005537Y-75754494D01*
X107064502Y-75644180D01*
X107100812Y-75524482D01*
X107113072Y-75400000D01*
X107110000Y-75148250D01*
X107036719Y-75074969D01*
X107050597Y-75058057D01*
X107062333Y-75036101D01*
X107069560Y-75012276D01*
X107072000Y-74987500D01*
X107072000Y-74737500D01*
X107070459Y-74717775D01*
X107064200Y-74693678D01*
X107053360Y-74671265D01*
X107038357Y-74651398D01*
X107036768Y-74649982D01*
X107110000Y-74576750D01*
X107113072Y-74325000D01*
X107100812Y-74200518D01*
X107064502Y-74080820D01*
X107005537Y-73970506D01*
X106966226Y-73922606D01*
X106979645Y-73897500D01*
X107825178Y-73897500D01*
X107862500Y-73901176D01*
X107899822Y-73897500D01*
X107899833Y-73897500D01*
X108011486Y-73886503D01*
X108154747Y-73843046D01*
X108286776Y-73772474D01*
X108402501Y-73677501D01*
X108426304Y-73648498D01*
X110073000Y-72001803D01*
X110073000Y-77800000D01*
%TA.AperFunction,Conductor*%
D27*
G36*
X110073000Y-77800000D02*
G01*
X110075440Y-77824776D01*
X110082667Y-77848601D01*
X110094403Y-77870557D01*
X110110197Y-77889803D01*
X110129443Y-77905597D01*
X110151399Y-77917333D01*
X110175224Y-77924560D01*
X110200000Y-77927000D01*
X125800000Y-77927000D01*
X125824776Y-77924560D01*
X125848601Y-77917333D01*
X125870557Y-77905597D01*
X125889803Y-77889803D01*
X125905597Y-77870557D01*
X125917333Y-77848601D01*
X125924560Y-77824776D01*
X125927000Y-77800000D01*
X125927000Y-73417499D01*
X127342698Y-73417499D01*
X130034174Y-76108976D01*
X130173221Y-76253236D01*
X130284234Y-76376776D01*
X130381719Y-76490927D01*
X130471912Y-76597989D01*
X130480431Y-76607893D01*
X130561928Y-76700689D01*
X130561928Y-76800000D01*
X130574188Y-76924482D01*
X130610498Y-77044180D01*
X130669463Y-77154494D01*
X130748815Y-77251185D01*
X130845506Y-77330537D01*
X130955820Y-77389502D01*
X131075518Y-77425812D01*
X131200000Y-77438072D01*
X132800000Y-77438072D01*
X132924482Y-77425812D01*
X133044180Y-77389502D01*
X133154494Y-77330537D01*
X133251185Y-77251185D01*
X133330537Y-77154494D01*
X133389502Y-77044180D01*
X133425812Y-76924482D01*
X133438072Y-76800000D01*
X133438072Y-76773022D01*
X133474005Y-76766716D01*
X133606125Y-76760000D01*
X139962678Y-76760000D01*
X140000000Y-76763676D01*
X140037322Y-76760000D01*
X140037333Y-76760000D01*
X140148986Y-76749003D01*
X140292247Y-76705546D01*
X140424276Y-76634974D01*
X140540001Y-76540001D01*
X140563804Y-76510997D01*
X141067565Y-76007236D01*
X141074188Y-76074482D01*
X141110498Y-76194180D01*
X141169463Y-76304494D01*
X141248815Y-76401185D01*
X141345506Y-76480537D01*
X141455820Y-76539502D01*
X141575518Y-76575812D01*
X141700000Y-76588072D01*
X144000000Y-76588072D01*
X144124482Y-76575812D01*
X144244180Y-76539502D01*
X144354494Y-76480537D01*
X144451185Y-76401185D01*
X144530537Y-76304494D01*
X144554320Y-76260000D01*
X148088814Y-76260000D01*
X148126136Y-76263676D01*
X148163458Y-76260000D01*
X148163469Y-76260000D01*
X148275122Y-76249003D01*
X148418383Y-76205546D01*
X148550412Y-76134974D01*
X148666137Y-76040001D01*
X148689940Y-76010997D01*
X149240000Y-75460937D01*
X149240001Y-81828692D01*
X148975101Y-81776000D01*
X148674899Y-81776000D01*
X148380466Y-81834566D01*
X148103115Y-81949449D01*
X147853507Y-82116232D01*
X147641232Y-82328507D01*
X147474449Y-82578115D01*
X147359566Y-82855466D01*
X147301000Y-83149899D01*
X147301000Y-83450101D01*
X147359566Y-83744534D01*
X147474449Y-84021885D01*
X147641232Y-84271493D01*
X147853507Y-84483768D01*
X148103115Y-84650551D01*
X148380466Y-84765434D01*
X148674899Y-84824000D01*
X148975101Y-84824000D01*
X149269534Y-84765434D01*
X149279001Y-84761512D01*
X149279002Y-86918488D01*
X149269534Y-86914566D01*
X148975101Y-86856000D01*
X148674899Y-86856000D01*
X148380466Y-86914566D01*
X148103115Y-87029449D01*
X147853507Y-87196232D01*
X147641232Y-87408507D01*
X147474449Y-87658115D01*
X147359566Y-87935466D01*
X147301000Y-88229899D01*
X147301000Y-88530101D01*
X147359566Y-88824534D01*
X147474449Y-89101885D01*
X147641232Y-89351493D01*
X147853507Y-89563768D01*
X148103115Y-89730551D01*
X148169056Y-89757865D01*
X145226921Y-92700000D01*
X143625563Y-92700000D01*
X143473193Y-92692047D01*
X143388033Y-92676690D01*
X143336794Y-92659306D01*
X143294545Y-92637381D01*
X143239712Y-92599539D01*
X143160167Y-92535240D01*
X143058353Y-92449827D01*
X143041805Y-92436410D01*
X142923726Y-92343920D01*
X142886917Y-92317160D01*
X142748762Y-92224099D01*
X142698186Y-92193357D01*
X142639676Y-92161427D01*
X142561885Y-92109449D01*
X142284534Y-91994566D01*
X141990101Y-91936000D01*
X141689899Y-91936000D01*
X141395466Y-91994566D01*
X141118115Y-92109449D01*
X140868507Y-92276232D01*
X140656232Y-92488507D01*
X140489449Y-92738115D01*
X140374566Y-93015466D01*
X140316000Y-93309899D01*
X140316000Y-93610101D01*
X140374566Y-93904534D01*
X140489449Y-94181885D01*
X140656232Y-94431493D01*
X140868507Y-94643768D01*
X140997562Y-94730000D01*
X140868507Y-94816232D01*
X140656232Y-95028507D01*
X140489449Y-95278115D01*
X140374566Y-95555466D01*
X140356313Y-95647230D01*
X140337519Y-95711177D01*
X140323495Y-95768679D01*
X140291609Y-95932173D01*
X140284503Y-95977123D01*
X140266409Y-96126018D01*
X140264195Y-96147205D01*
X140252596Y-96279606D01*
X140241818Y-96381299D01*
X140229802Y-96446841D01*
X140215430Y-96492218D01*
X140191494Y-96540737D01*
X140142133Y-96611817D01*
X140040007Y-96725191D01*
X137790000Y-98975199D01*
X127111149Y-98975199D01*
X127134282Y-98919352D01*
X127194800Y-98615104D01*
X127194800Y-98304896D01*
X127134282Y-98000648D01*
X127015570Y-97714052D01*
X126843227Y-97456123D01*
X126623877Y-97236773D01*
X126553876Y-97190000D01*
X126623877Y-97143227D01*
X126843227Y-96923877D01*
X127015570Y-96665948D01*
X127134282Y-96379352D01*
X127194800Y-96075104D01*
X127194800Y-95764896D01*
X127134282Y-95460648D01*
X127015570Y-95174052D01*
X126843227Y-94916123D01*
X126623877Y-94696773D01*
X126553876Y-94650000D01*
X126623877Y-94603227D01*
X126843227Y-94383877D01*
X127015570Y-94125948D01*
X127134282Y-93839352D01*
X127194800Y-93535104D01*
X127194800Y-93224896D01*
X127134282Y-92920648D01*
X127015570Y-92634052D01*
X126843227Y-92376123D01*
X126623877Y-92156773D01*
X126553876Y-92110000D01*
X126623877Y-92063227D01*
X126843227Y-91843877D01*
X127015570Y-91585948D01*
X127134282Y-91299352D01*
X127194800Y-90995104D01*
X127194800Y-90684896D01*
X127134282Y-90380648D01*
X127015570Y-90094052D01*
X126843227Y-89836123D01*
X126623877Y-89616773D01*
X126553876Y-89570000D01*
X126623877Y-89523227D01*
X126843227Y-89303877D01*
X126941112Y-89157382D01*
X142602000Y-89157382D01*
X142602000Y-89507618D01*
X142670328Y-89851123D01*
X142804357Y-90174699D01*
X142998937Y-90465909D01*
X143246591Y-90713563D01*
X143537801Y-90908143D01*
X143861377Y-91042172D01*
X144204882Y-91110500D01*
X144555118Y-91110500D01*
X144898623Y-91042172D01*
X145222199Y-90908143D01*
X145513409Y-90713563D01*
X145761063Y-90465909D01*
X145955643Y-90174699D01*
X146089672Y-89851123D01*
X146158000Y-89507618D01*
X146158000Y-89157382D01*
X146089672Y-88813877D01*
X145955643Y-88490301D01*
X145761063Y-88199091D01*
X145513409Y-87951437D01*
X145222199Y-87756857D01*
X144898623Y-87622828D01*
X144555118Y-87554500D01*
X144204882Y-87554500D01*
X143861377Y-87622828D01*
X143537801Y-87756857D01*
X143246591Y-87951437D01*
X142998937Y-88199091D01*
X142804357Y-88490301D01*
X142670328Y-88813877D01*
X142602000Y-89157382D01*
X126941112Y-89157382D01*
X127015570Y-89045948D01*
X127134282Y-88759352D01*
X127194800Y-88455104D01*
X127194800Y-88144896D01*
X127134282Y-87840648D01*
X127015570Y-87554052D01*
X126843227Y-87296123D01*
X126623877Y-87076773D01*
X126553876Y-87030000D01*
X126623877Y-86983227D01*
X126843227Y-86763877D01*
X127015570Y-86505948D01*
X127134282Y-86219352D01*
X127194800Y-85915104D01*
X127194800Y-85604896D01*
X127134282Y-85300648D01*
X127015570Y-85014052D01*
X126843227Y-84756123D01*
X126623877Y-84536773D01*
X126365948Y-84364430D01*
X126079352Y-84245718D01*
X125775104Y-84185200D01*
X125464896Y-84185200D01*
X125160648Y-84245718D01*
X124874052Y-84364430D01*
X124616123Y-84536773D01*
X124396773Y-84756123D01*
X124224430Y-85014052D01*
X124105718Y-85300648D01*
X124045200Y-85604896D01*
X124045200Y-85915104D01*
X124105718Y-86219352D01*
X124224430Y-86505948D01*
X124396773Y-86763877D01*
X124616123Y-86983227D01*
X124686124Y-87030000D01*
X124616123Y-87076773D01*
X124396773Y-87296123D01*
X124224430Y-87554052D01*
X124105718Y-87840648D01*
X124045200Y-88144896D01*
X124045200Y-88455104D01*
X124105718Y-88759352D01*
X124224430Y-89045948D01*
X124396773Y-89303877D01*
X124616123Y-89523227D01*
X124686124Y-89570000D01*
X124616123Y-89616773D01*
X124396773Y-89836123D01*
X124224430Y-90094052D01*
X124105718Y-90380648D01*
X124045200Y-90684896D01*
X124045200Y-90995104D01*
X124105718Y-91299352D01*
X124224430Y-91585948D01*
X124396773Y-91843877D01*
X124616123Y-92063227D01*
X124686124Y-92110000D01*
X124616123Y-92156773D01*
X124396773Y-92376123D01*
X124224430Y-92634052D01*
X124105718Y-92920648D01*
X124045200Y-93224896D01*
X124045200Y-93535104D01*
X124105718Y-93839352D01*
X124224430Y-94125948D01*
X124396773Y-94383877D01*
X124616123Y-94603227D01*
X124686124Y-94650000D01*
X124616123Y-94696773D01*
X124396773Y-94916123D01*
X124224430Y-95174052D01*
X124105718Y-95460648D01*
X124045200Y-95764896D01*
X124045200Y-96075104D01*
X124105718Y-96379352D01*
X124224430Y-96665948D01*
X124396773Y-96923877D01*
X124616123Y-97143227D01*
X124686124Y-97190000D01*
X124616123Y-97236773D01*
X124396773Y-97456123D01*
X124224430Y-97714052D01*
X124105718Y-98000648D01*
X124045200Y-98304896D01*
X124045200Y-98615104D01*
X124105718Y-98919352D01*
X124128851Y-98975199D01*
X111871149Y-98975199D01*
X111894282Y-98919352D01*
X111954800Y-98615104D01*
X111954800Y-98304896D01*
X111894282Y-98000648D01*
X111775570Y-97714052D01*
X111603227Y-97456123D01*
X111383877Y-97236773D01*
X111313876Y-97190000D01*
X111383877Y-97143227D01*
X111603227Y-96923877D01*
X111775570Y-96665948D01*
X111894282Y-96379352D01*
X111954800Y-96075104D01*
X111954800Y-95764896D01*
X111894282Y-95460648D01*
X111775570Y-95174052D01*
X111603227Y-94916123D01*
X111383877Y-94696773D01*
X111313876Y-94650000D01*
X111383877Y-94603227D01*
X111595590Y-94391514D01*
X111966000Y-94391514D01*
X111966000Y-94654486D01*
X112017304Y-94912405D01*
X112117939Y-95155359D01*
X112264038Y-95374013D01*
X112449987Y-95559962D01*
X112668641Y-95706061D01*
X112911595Y-95806696D01*
X113169514Y-95858000D01*
X113432486Y-95858000D01*
X113690405Y-95806696D01*
X113933359Y-95706061D01*
X114152013Y-95559962D01*
X114337962Y-95374013D01*
X114484061Y-95155359D01*
X114584696Y-94912405D01*
X114636000Y-94654486D01*
X114636000Y-94391514D01*
X114584696Y-94133595D01*
X114484061Y-93890641D01*
X114337962Y-93671987D01*
X114152013Y-93486038D01*
X113933359Y-93339939D01*
X113690405Y-93239304D01*
X113502971Y-93202021D01*
X113661236Y-93170540D01*
X113885992Y-93077443D01*
X114088267Y-92942287D01*
X114260287Y-92770267D01*
X114395443Y-92567992D01*
X114488540Y-92343236D01*
X114536000Y-92104637D01*
X114536000Y-91861363D01*
X114488540Y-91622764D01*
X114395443Y-91398008D01*
X114260287Y-91195733D01*
X114088267Y-91023713D01*
X113885992Y-90888557D01*
X113661236Y-90795460D01*
X113422637Y-90748000D01*
X113179363Y-90748000D01*
X112940764Y-90795460D01*
X112716008Y-90888557D01*
X112513733Y-91023713D01*
X112341713Y-91195733D01*
X112206557Y-91398008D01*
X112113460Y-91622764D01*
X112066000Y-91861363D01*
X112066000Y-92104637D01*
X112113460Y-92343236D01*
X112206557Y-92567992D01*
X112341713Y-92770267D01*
X112513733Y-92942287D01*
X112716008Y-93077443D01*
X112940764Y-93170540D01*
X113099029Y-93202021D01*
X112911595Y-93239304D01*
X112668641Y-93339939D01*
X112449987Y-93486038D01*
X112264038Y-93671987D01*
X112117939Y-93890641D01*
X112017304Y-94133595D01*
X111966000Y-94391514D01*
X111595590Y-94391514D01*
X111603227Y-94383877D01*
X111775570Y-94125948D01*
X111894282Y-93839352D01*
X111954800Y-93535104D01*
X111954800Y-93224896D01*
X111894282Y-92920648D01*
X111775570Y-92634052D01*
X111603227Y-92376123D01*
X111383877Y-92156773D01*
X111313876Y-92110000D01*
X111383877Y-92063227D01*
X111603227Y-91843877D01*
X111775570Y-91585948D01*
X111894282Y-91299352D01*
X111954800Y-90995104D01*
X111954800Y-90684896D01*
X111894282Y-90380648D01*
X111775570Y-90094052D01*
X111603227Y-89836123D01*
X111383877Y-89616773D01*
X111313876Y-89570000D01*
X111383877Y-89523227D01*
X111603227Y-89303877D01*
X111775570Y-89045948D01*
X111894282Y-88759352D01*
X111954800Y-88455104D01*
X111954800Y-88144896D01*
X111894282Y-87840648D01*
X111775570Y-87554052D01*
X111603227Y-87296123D01*
X111383877Y-87076773D01*
X111313876Y-87030000D01*
X111383877Y-86983227D01*
X111603227Y-86763877D01*
X111775570Y-86505948D01*
X111894282Y-86219352D01*
X111954800Y-85915104D01*
X111954800Y-85604896D01*
X111894282Y-85300648D01*
X111775570Y-85014052D01*
X111603227Y-84756123D01*
X111383877Y-84536773D01*
X111125948Y-84364430D01*
X110839352Y-84245718D01*
X110535104Y-84185200D01*
X110224896Y-84185200D01*
X109920648Y-84245718D01*
X109634052Y-84364430D01*
X109376123Y-84536773D01*
X109156773Y-84756123D01*
X108984430Y-85014052D01*
X108865718Y-85300648D01*
X108805200Y-85604896D01*
X108805200Y-85915104D01*
X108865718Y-86219352D01*
X108984430Y-86505948D01*
X109156773Y-86763877D01*
X109376123Y-86983227D01*
X109446124Y-87030000D01*
X109376123Y-87076773D01*
X109156773Y-87296123D01*
X108984430Y-87554052D01*
X108865718Y-87840648D01*
X108805200Y-88144896D01*
X108805200Y-88455104D01*
X108865718Y-88759352D01*
X108984430Y-89045948D01*
X109156773Y-89303877D01*
X109376123Y-89523227D01*
X109446124Y-89570000D01*
X109376123Y-89616773D01*
X109156773Y-89836123D01*
X108984430Y-90094052D01*
X108865718Y-90380648D01*
X108805200Y-90684896D01*
X108805200Y-90995104D01*
X108865718Y-91299352D01*
X108984430Y-91585948D01*
X109156773Y-91843877D01*
X109376123Y-92063227D01*
X109446124Y-92110000D01*
X109376123Y-92156773D01*
X109156773Y-92376123D01*
X108984430Y-92634052D01*
X108865718Y-92920648D01*
X108805200Y-93224896D01*
X108805200Y-93535104D01*
X108865718Y-93839352D01*
X108984430Y-94125948D01*
X109156773Y-94383877D01*
X109376123Y-94603227D01*
X109446124Y-94650000D01*
X109376123Y-94696773D01*
X109373407Y-94699489D01*
X109340042Y-94723679D01*
X109203159Y-94832446D01*
X109172312Y-94858602D01*
X109055098Y-94964589D01*
X109044037Y-94974832D01*
X108944695Y-95069040D01*
X108868953Y-95136813D01*
X108817149Y-95175597D01*
X108777577Y-95197480D01*
X108727642Y-95215274D01*
X108640914Y-95231518D01*
X108483147Y-95240000D01*
X76625563Y-95240000D01*
X76473193Y-95232047D01*
X76388033Y-95216690D01*
X76336794Y-95199306D01*
X76294545Y-95177381D01*
X76239712Y-95139539D01*
X76160167Y-95075240D01*
X76058353Y-94989827D01*
X76041805Y-94976410D01*
X75923726Y-94883920D01*
X75886917Y-94857160D01*
X75748762Y-94764099D01*
X75698186Y-94733357D01*
X75686752Y-94727117D01*
X75811493Y-94643768D01*
X76023768Y-94431493D01*
X76190551Y-94181885D01*
X76305434Y-93904534D01*
X76364000Y-93610101D01*
X76364000Y-93309899D01*
X76305434Y-93015466D01*
X76190551Y-92738115D01*
X76023768Y-92488507D01*
X75811493Y-92276232D01*
X75561885Y-92109449D01*
X75284534Y-91994566D01*
X75192765Y-91976312D01*
X75128821Y-91957519D01*
X75071320Y-91943495D01*
X74907826Y-91911609D01*
X74862876Y-91904503D01*
X74713981Y-91886409D01*
X74692794Y-91884195D01*
X74560393Y-91872596D01*
X74458700Y-91861818D01*
X74393158Y-91849802D01*
X74347781Y-91835430D01*
X74299262Y-91811494D01*
X74228182Y-91762134D01*
X74114808Y-91660007D01*
X73935989Y-91481188D01*
X73935989Y-89157382D01*
X75602000Y-89157382D01*
X75602000Y-89507618D01*
X75670328Y-89851123D01*
X75804357Y-90174699D01*
X75998937Y-90465909D01*
X76246591Y-90713563D01*
X76537801Y-90908143D01*
X76861377Y-91042172D01*
X77204882Y-91110500D01*
X77555118Y-91110500D01*
X77898623Y-91042172D01*
X78222199Y-90908143D01*
X78513409Y-90713563D01*
X78761063Y-90465909D01*
X78955643Y-90174699D01*
X79089672Y-89851123D01*
X79158000Y-89507618D01*
X79158000Y-89157382D01*
X79089672Y-88813877D01*
X78955643Y-88490301D01*
X78781649Y-88229899D01*
X80301000Y-88229899D01*
X80301000Y-88530101D01*
X80359566Y-88824534D01*
X80474449Y-89101885D01*
X80641232Y-89351493D01*
X80853507Y-89563768D01*
X81103115Y-89730551D01*
X81380466Y-89845434D01*
X81674899Y-89904000D01*
X81975101Y-89904000D01*
X82269534Y-89845434D01*
X82546885Y-89730551D01*
X82796493Y-89563768D01*
X83008768Y-89351493D01*
X83175551Y-89101885D01*
X83290434Y-88824534D01*
X83349000Y-88530101D01*
X83349000Y-88229899D01*
X86651000Y-88229899D01*
X86651000Y-88530101D01*
X86709566Y-88824534D01*
X86824449Y-89101885D01*
X86991232Y-89351493D01*
X87203507Y-89563768D01*
X87453115Y-89730551D01*
X87730466Y-89845434D01*
X88024899Y-89904000D01*
X88325101Y-89904000D01*
X88619534Y-89845434D01*
X88896885Y-89730551D01*
X89146493Y-89563768D01*
X89358768Y-89351493D01*
X89488469Y-89157382D01*
X90842000Y-89157382D01*
X90842000Y-89507618D01*
X90910328Y-89851123D01*
X91044357Y-90174699D01*
X91238937Y-90465909D01*
X91486591Y-90713563D01*
X91777801Y-90908143D01*
X92101377Y-91042172D01*
X92444882Y-91110500D01*
X92795118Y-91110500D01*
X93138623Y-91042172D01*
X93462199Y-90908143D01*
X93753409Y-90713563D01*
X94001063Y-90465909D01*
X94195643Y-90174699D01*
X94329672Y-89851123D01*
X94398000Y-89507618D01*
X94398000Y-89157382D01*
X94329672Y-88813877D01*
X94195643Y-88490301D01*
X94001063Y-88199091D01*
X93753409Y-87951437D01*
X93462199Y-87756857D01*
X93138623Y-87622828D01*
X92795118Y-87554500D01*
X92444882Y-87554500D01*
X92101377Y-87622828D01*
X91777801Y-87756857D01*
X91486591Y-87951437D01*
X91238937Y-88199091D01*
X91044357Y-88490301D01*
X90910328Y-88813877D01*
X90842000Y-89157382D01*
X89488469Y-89157382D01*
X89525551Y-89101885D01*
X89640434Y-88824534D01*
X89699000Y-88530101D01*
X89699000Y-88229899D01*
X89640434Y-87935466D01*
X89525551Y-87658115D01*
X89358768Y-87408507D01*
X89146493Y-87196232D01*
X88896885Y-87029449D01*
X88619534Y-86914566D01*
X88325101Y-86856000D01*
X88024899Y-86856000D01*
X87730466Y-86914566D01*
X87453115Y-87029449D01*
X87203507Y-87196232D01*
X86991232Y-87408507D01*
X86824449Y-87658115D01*
X86709566Y-87935466D01*
X86651000Y-88229899D01*
X83349000Y-88229899D01*
X83290434Y-87935466D01*
X83175551Y-87658115D01*
X83008768Y-87408507D01*
X82796493Y-87196232D01*
X82546885Y-87029449D01*
X82269534Y-86914566D01*
X81975101Y-86856000D01*
X81674899Y-86856000D01*
X81380466Y-86914566D01*
X81103115Y-87029449D01*
X80853507Y-87196232D01*
X80641232Y-87408507D01*
X80474449Y-87658115D01*
X80359566Y-87935466D01*
X80301000Y-88229899D01*
X78781649Y-88229899D01*
X78761063Y-88199091D01*
X78513409Y-87951437D01*
X78222199Y-87756857D01*
X77898623Y-87622828D01*
X77555118Y-87554500D01*
X77204882Y-87554500D01*
X76861377Y-87622828D01*
X76537801Y-87756857D01*
X76246591Y-87951437D01*
X75998937Y-88199091D01*
X75804357Y-88490301D01*
X75670328Y-88813877D01*
X75602000Y-89157382D01*
X73935989Y-89157382D01*
X73935989Y-85502402D01*
X76288492Y-83149899D01*
X80301000Y-83149899D01*
X80301000Y-83450101D01*
X80359566Y-83744534D01*
X80474449Y-84021885D01*
X80641232Y-84271493D01*
X80853507Y-84483768D01*
X81103115Y-84650551D01*
X81380466Y-84765434D01*
X81674899Y-84824000D01*
X81975101Y-84824000D01*
X82269534Y-84765434D01*
X82546885Y-84650551D01*
X82796493Y-84483768D01*
X83008768Y-84271493D01*
X83175551Y-84021885D01*
X83290434Y-83744534D01*
X83349000Y-83450101D01*
X83349000Y-83149899D01*
X86651000Y-83149899D01*
X86651000Y-83450101D01*
X86709566Y-83744534D01*
X86824449Y-84021885D01*
X86991232Y-84271493D01*
X87203507Y-84483768D01*
X87453115Y-84650551D01*
X87730466Y-84765434D01*
X88024899Y-84824000D01*
X88325101Y-84824000D01*
X88619534Y-84765434D01*
X88896885Y-84650551D01*
X89146493Y-84483768D01*
X89358768Y-84271493D01*
X89525551Y-84021885D01*
X89640434Y-83744534D01*
X89699000Y-83450101D01*
X89699000Y-83149899D01*
X89640434Y-82855466D01*
X89525551Y-82578115D01*
X89358768Y-82328507D01*
X89146493Y-82116232D01*
X88896885Y-81949449D01*
X88717150Y-81875000D01*
X139283000Y-81875000D01*
X139283000Y-82125000D01*
X139284844Y-82146566D01*
X139291456Y-82170568D01*
X139302624Y-82192819D01*
X139317918Y-82212464D01*
X139336751Y-82228748D01*
X139358398Y-82241044D01*
X139382029Y-82248881D01*
X139406735Y-82251958D01*
X139469258Y-82253566D01*
X139516808Y-82257794D01*
X139554795Y-82264184D01*
X139586331Y-82272426D01*
X139615017Y-82282746D01*
X139644414Y-82295936D01*
X139677265Y-82312748D01*
X139715321Y-82333287D01*
X139715821Y-82333556D01*
X139759426Y-82356838D01*
X139762089Y-82358219D01*
X139812080Y-82383412D01*
X139842028Y-82394052D01*
X139866752Y-82396976D01*
X139891571Y-82395020D01*
X139915532Y-82388260D01*
X139937714Y-82376955D01*
X139957264Y-82361540D01*
X140238030Y-82091540D01*
X140256955Y-82068480D01*
X140268260Y-82046298D01*
X140275020Y-82022337D01*
X140276976Y-81997518D01*
X140274052Y-81972794D01*
X140266360Y-81949115D01*
X140254198Y-81927392D01*
X140238030Y-81908460D01*
X139957264Y-81638460D01*
X139931782Y-81619470D01*
X139909016Y-81609392D01*
X139884723Y-81603948D01*
X139859833Y-81603348D01*
X139835306Y-81607616D01*
X139812082Y-81616587D01*
X139762091Y-81641779D01*
X139759426Y-81643161D01*
X139715821Y-81666443D01*
X139715321Y-81666712D01*
X139677265Y-81687251D01*
X139644414Y-81704063D01*
X139615017Y-81717253D01*
X139586331Y-81727573D01*
X139554795Y-81735815D01*
X139516808Y-81742205D01*
X139469258Y-81746433D01*
X139406733Y-81748042D01*
X139385224Y-81750440D01*
X139361399Y-81757667D01*
X139339443Y-81769403D01*
X139320197Y-81785197D01*
X139304403Y-81804443D01*
X139292667Y-81826399D01*
X139285440Y-81850224D01*
X139283000Y-81875000D01*
X88717150Y-81875000D01*
X88619534Y-81834566D01*
X88325101Y-81776000D01*
X88024899Y-81776000D01*
X87730466Y-81834566D01*
X87453115Y-81949449D01*
X87203507Y-82116232D01*
X86991232Y-82328507D01*
X86824449Y-82578115D01*
X86709566Y-82855466D01*
X86651000Y-83149899D01*
X83349000Y-83149899D01*
X83290434Y-82855466D01*
X83175551Y-82578115D01*
X83008768Y-82328507D01*
X82796493Y-82116232D01*
X82546885Y-81949449D01*
X82269534Y-81834566D01*
X81975101Y-81776000D01*
X81674899Y-81776000D01*
X81380466Y-81834566D01*
X81103115Y-81949449D01*
X80853507Y-82116232D01*
X80641232Y-82328507D01*
X80474449Y-82578115D01*
X80359566Y-82855466D01*
X80301000Y-83149899D01*
X76288492Y-83149899D01*
X83533881Y-75904510D01*
X83942692Y-75515287D01*
X84363065Y-75152671D01*
X84800730Y-74811113D01*
X85254628Y-74491443D01*
X85723657Y-74194434D01*
X86206714Y-73920787D01*
X86702590Y-73671184D01*
X87210114Y-73446215D01*
X87728080Y-73246413D01*
X88255227Y-73072267D01*
X88790281Y-72924197D01*
X89331964Y-72802559D01*
X89878943Y-72707650D01*
X90429931Y-72639691D01*
X90983589Y-72598851D01*
X91547916Y-72584999D01*
X95514296Y-72584999D01*
X95515000Y-72714250D01*
X95673750Y-72873000D01*
X96575848Y-72873000D01*
X96580813Y-73127000D01*
X95673750Y-73127000D01*
X95515000Y-73285750D01*
X95511928Y-73850000D01*
X95519737Y-73929285D01*
X94210000Y-73929285D01*
X94210000Y-80070714D01*
X98030000Y-80070714D01*
X98030000Y-74857857D01*
X98210000Y-74857857D01*
X98210000Y-79142143D01*
X102030000Y-79142143D01*
X102030000Y-74857857D01*
X98210000Y-74857857D01*
X98030000Y-74857857D01*
X98030000Y-74458971D01*
X98094180Y-74439502D01*
X98204494Y-74380537D01*
X98253526Y-74340298D01*
X98300001Y-74340298D01*
X98329254Y-74336883D01*
X98352803Y-74328801D01*
X98374322Y-74316281D01*
X98392984Y-74299803D01*
X98408074Y-74280000D01*
X98419010Y-74257635D01*
X98425373Y-74233565D01*
X98426918Y-74208717D01*
X98423841Y-74123479D01*
X98439502Y-74094180D01*
X98461513Y-74021620D01*
X98593368Y-74153475D01*
X98836589Y-74315990D01*
X99106842Y-74427932D01*
X99393740Y-74485000D01*
X99686260Y-74485000D01*
X99973158Y-74427932D01*
X100243411Y-74315990D01*
X100318354Y-74265915D01*
X100373051Y-74236110D01*
X100422940Y-74205874D01*
X100554767Y-74117451D01*
X100590981Y-74091267D01*
X100703778Y-74003505D01*
X100719852Y-73990574D01*
X100816824Y-73909934D01*
X100891641Y-73850074D01*
X100941766Y-73815860D01*
X100979100Y-73796701D01*
X101024775Y-73781372D01*
X101103040Y-73767406D01*
X101246389Y-73760000D01*
X104949765Y-73760000D01*
X104953577Y-73772567D01*
X105033774Y-73922606D01*
X104994463Y-73970506D01*
X104935498Y-74080820D01*
X104899188Y-74200518D01*
X104886928Y-74325000D01*
X104890000Y-74576750D01*
X105048750Y-74735500D01*
X105711343Y-74735500D01*
X105674470Y-74770959D01*
X105655545Y-74794020D01*
X105649094Y-74806677D01*
X105480959Y-74981517D01*
X105475125Y-74989500D01*
X105048750Y-74989500D01*
X104890000Y-75148250D01*
X104886928Y-75400000D01*
X104899188Y-75524482D01*
X104935498Y-75644180D01*
X104994463Y-75754494D01*
X105073815Y-75851185D01*
X105170506Y-75930537D01*
X105280820Y-75989502D01*
X105400518Y-76025812D01*
X105525000Y-76038072D01*
X105714250Y-76035000D01*
X105825107Y-75924143D01*
X105826399Y-75924833D01*
X105850224Y-75932060D01*
X105875000Y-75934500D01*
X106125000Y-75934500D01*
X106144726Y-75932959D01*
X106168823Y-75926700D01*
X106174638Y-75923888D01*
X106285750Y-76035000D01*
X106475000Y-76038072D01*
X106599482Y-76025812D01*
X106719180Y-75989502D01*
X106829494Y-75930537D01*
X106926185Y-75851185D01*
X107005537Y-75754494D01*
X107064502Y-75644180D01*
X107100812Y-75524482D01*
X107113072Y-75400000D01*
X107110000Y-75148250D01*
X107036719Y-75074969D01*
X107050597Y-75058057D01*
X107062333Y-75036101D01*
X107069560Y-75012276D01*
X107072000Y-74987500D01*
X107072000Y-74737500D01*
X107070459Y-74717775D01*
X107064200Y-74693678D01*
X107053360Y-74671265D01*
X107038357Y-74651398D01*
X107036768Y-74649982D01*
X107110000Y-74576750D01*
X107113072Y-74325000D01*
X107100812Y-74200518D01*
X107064502Y-74080820D01*
X107005537Y-73970506D01*
X106966226Y-73922606D01*
X106979645Y-73897500D01*
X107825178Y-73897500D01*
X107862500Y-73901176D01*
X107899822Y-73897500D01*
X107899833Y-73897500D01*
X108011486Y-73886503D01*
X108154747Y-73843046D01*
X108286776Y-73772474D01*
X108402501Y-73677501D01*
X108426304Y-73648498D01*
X110073000Y-72001803D01*
X110073000Y-77800000D01*
G37*
%TD.AperFunction*%
%TD*%
M02*
