%TF.GenerationSoftware,KiCad,Pcbnew,(5.1.8)-1*%
%TF.CreationDate,2021-02-18T11:59:36+08:00*%
%TF.ProjectId,remoter,72656d6f-7465-4722-9e6b-696361645f70,rev?*%
%TF.SameCoordinates,Original*%
%TF.FileFunction,Copper,L2,Bot*%
%TF.FilePolarity,Positive*%
%FSLAX46Y46*%
G04 Gerber Fmt 4.6, Leading zero omitted, Abs format (unit mm)*
G04 Created by KiCad (PCBNEW (5.1.8)-1) date 2021-02-18 11:59:36*
%MOMM*%
%LPD*%
G01*
G04 APERTURE LIST*
%TA.AperFunction,ComponentPad*%
%ADD10C,1.879600*%
%TD*%
%TA.AperFunction,ComponentPad*%
%ADD11C,1.400000*%
%TD*%
%TA.AperFunction,ComponentPad*%
%ADD12C,1.200000*%
%TD*%
%TA.AperFunction,ComponentPad*%
%ADD13C,1.778000*%
%TD*%
%TA.AperFunction,ComponentPad*%
%ADD14C,2.286000*%
%TD*%
%TA.AperFunction,ComponentPad*%
%ADD15C,1.524000*%
%TD*%
%TA.AperFunction,ComponentPad*%
%ADD16O,1.700000X1.700000*%
%TD*%
%TA.AperFunction,ComponentPad*%
%ADD17R,1.700000X1.700000*%
%TD*%
%TA.AperFunction,ComponentPad*%
%ADD18C,1.600000*%
%TD*%
%TA.AperFunction,ComponentPad*%
%ADD19R,1.600000X1.600000*%
%TD*%
%TA.AperFunction,ViaPad*%
%ADD20C,0.800000*%
%TD*%
%TA.AperFunction,ViaPad*%
%ADD21C,0.600000*%
%TD*%
%TA.AperFunction,Conductor*%
%ADD22C,0.250000*%
%TD*%
%TA.AperFunction,Conductor*%
%ADD23C,0.025400*%
%TD*%
%TA.AperFunction,Conductor*%
%ADD24C,0.100000*%
%TD*%
%TA.AperFunction,Conductor*%
%ADD25C,0.254000*%
%TD*%
G04 APERTURE END LIST*
D10*
%TO.P,U3,JP1_1*%
%TO.N,Net-(U3-PadJP1_1)*%
X111650000Y-116240000D03*
%TO.P,U3,JP1_2*%
%TO.N,Net-(U3-PadJP1_2)*%
X114190000Y-116240000D03*
%TO.P,U3,JP1_3*%
%TO.N,Net-(U3-PadJP1_3)*%
X116730000Y-116240000D03*
%TO.P,U3,JP1_4*%
%TO.N,/5V*%
X119270000Y-116240000D03*
%TO.P,U3,JP1_5*%
%TO.N,GND*%
X121810000Y-116240000D03*
%TO.P,U3,JP1_6*%
X124350000Y-116240000D03*
%TO.P,U3,JP2_1*%
%TO.N,Net-(U3-PadJP2_1)*%
X113301000Y-102397000D03*
%TO.P,U3,JP2_2*%
%TO.N,Net-(U3-PadJP2_2)*%
X113301000Y-104937000D03*
D11*
%TO.P,U3,JP3_2*%
%TO.N,Net-(U3-PadJP3_2)*%
X113301000Y-94523000D03*
D12*
%TO.P,U3,JP3_1*%
%TO.N,Net-(U3-PadJP3_1)*%
X113301000Y-91983000D03*
D10*
%TO.P,U3,JP6_1*%
%TO.N,Net-(U3-PadJP6_1)*%
X110380000Y-113700000D03*
%TO.P,U3,JP6_2*%
%TO.N,Net-(U3-PadJP6_2)*%
X110380000Y-111160000D03*
%TO.P,U3,JP6_3*%
%TO.N,Net-(U3-PadJP6_3)*%
X110380000Y-108620000D03*
%TO.P,U3,JP6_4*%
%TO.N,Net-(U3-PadJP6_4)*%
X110380000Y-106080000D03*
%TO.P,U3,JP6_5*%
%TO.N,Net-(U3-PadJP6_5)*%
X110380000Y-103540000D03*
%TO.P,U3,JP6_6*%
%TO.N,Net-(U3-PadJP6_6)*%
X110380000Y-101000000D03*
%TO.P,U3,JP6_7*%
%TO.N,Net-(U3-PadJP6_7)*%
X110380000Y-98460000D03*
%TO.P,U3,JP6_8*%
%TO.N,Net-(U3-PadJP6_8)*%
X110380000Y-95920000D03*
%TO.P,U3,JP6_9*%
%TO.N,Net-(U1-Pad5)*%
X110380000Y-93380000D03*
%TO.P,U3,JP6_10*%
%TO.N,Net-(U1-Pad7)*%
X110380000Y-90840000D03*
%TO.P,U3,JP6_11*%
%TO.N,Net-(U1-Pad6)*%
X110380000Y-88300000D03*
%TO.P,U3,JP6_12*%
%TO.N,Net-(U3-PadJP6_12)*%
X110380000Y-85760000D03*
%TO.P,U3,JP7_1*%
%TO.N,Net-(U3-PadJP7_1)*%
X125620000Y-85760000D03*
%TO.P,U3,JP7_2*%
%TO.N,Net-(U1-Pad4)*%
X125620000Y-88300000D03*
%TO.P,U3,JP7_3*%
%TO.N,Net-(U1-Pad3)*%
X125620000Y-90840000D03*
%TO.P,U3,JP7_4*%
%TO.N,Net-(U3-PadJP7_4)*%
X125620000Y-93380000D03*
%TO.P,U3,JP7_5*%
%TO.N,Net-(U3-PadJP7_5)*%
X125620000Y-95920000D03*
%TO.P,U3,JP7_6*%
%TO.N,Net-(U3-PadJP7_6)*%
X125620000Y-98460000D03*
%TO.P,U3,JP7_7*%
%TO.N,Net-(U3-PadJP7_7)*%
X125620000Y-101000000D03*
%TO.P,U3,JP7_8*%
%TO.N,Net-(U3-PadJP6_7)*%
X125620000Y-103540000D03*
%TO.P,U3,JP7_9*%
%TO.N,Net-(U3-PadJP7_9)*%
X125620000Y-106080000D03*
%TO.P,U3,JP7_10*%
%TO.N,Net-(U3-PadJP7_10)*%
X125620000Y-108620000D03*
%TO.P,U3,JP7_11*%
%TO.N,Net-(U3-PadJP7_11)*%
X125620000Y-111160000D03*
%TO.P,U3,JP7_12*%
%TO.N,Net-(U3-PadJP7_12)*%
X125620000Y-113700000D03*
%TD*%
D13*
%TO.P,U5,V3*%
%TO.N,GND*%
X141840000Y-98540000D03*
%TO.P,U5,V2*%
%TO.N,Net-(U3-PadJP6_6)*%
X141840000Y-96000000D03*
%TO.P,U5,V1*%
%TO.N,/5V*%
X141840000Y-93460000D03*
D14*
%TO.P,U5,S4*%
%TO.N,Net-(U5-PadS1)*%
X159620000Y-89332500D03*
%TO.P,U5,S3*%
X159620000Y-102667500D03*
%TO.P,U5,S2*%
X144380000Y-102667500D03*
%TO.P,U5,S1*%
X144380000Y-89332500D03*
D13*
%TO.P,U5,H3*%
%TO.N,Net-(U5-PadH3)*%
X154540000Y-106160000D03*
%TO.P,U5,H2*%
%TO.N,Net-(U5-PadH2)*%
X152000000Y-106160000D03*
%TO.P,U5,H1*%
%TO.N,Net-(U5-PadH1)*%
X149460000Y-106160000D03*
%TO.P,U5,B2B*%
%TO.N,N/C*%
X155175000Y-88380000D03*
%TO.P,U5,B2A*%
%TO.N,Net-(U5-PadB2A)*%
X148825000Y-88380000D03*
%TO.P,U5,B1B*%
%TO.N,N/C*%
X155175000Y-83300000D03*
%TO.P,U5,B1A*%
%TO.N,Net-(U5-PadB1A)*%
X148825000Y-83300000D03*
%TD*%
%TO.P,U4,V3*%
%TO.N,GND*%
X74840000Y-98540000D03*
%TO.P,U4,V2*%
%TO.N,Net-(U3-PadJP6_8)*%
X74840000Y-96000000D03*
%TO.P,U4,V1*%
%TO.N,/5V*%
X74840000Y-93460000D03*
D14*
%TO.P,U4,S4*%
%TO.N,Net-(U4-PadS1)*%
X92620000Y-89332500D03*
%TO.P,U4,S3*%
X92620000Y-102667500D03*
%TO.P,U4,S2*%
X77380000Y-102667500D03*
%TO.P,U4,S1*%
X77380000Y-89332500D03*
D13*
%TO.P,U4,H3*%
%TO.N,GND*%
X87540000Y-106160000D03*
%TO.P,U4,H2*%
%TO.N,Net-(U3-PadJP6_7)*%
X85000000Y-106160000D03*
%TO.P,U4,H1*%
%TO.N,/5V*%
X82460000Y-106160000D03*
%TO.P,U4,B2B*%
%TO.N,N/C*%
X88175000Y-88380000D03*
%TO.P,U4,B2A*%
%TO.N,Net-(U4-PadB2A)*%
X81825000Y-88380000D03*
%TO.P,U4,B1B*%
%TO.N,N/C*%
X88175000Y-83300000D03*
%TO.P,U4,B1A*%
%TO.N,Net-(U4-PadB1A)*%
X81825000Y-83300000D03*
%TD*%
D15*
%TO.P,U1,8*%
%TO.N,Net-(U1-Pad8)*%
X119951100Y-73744500D03*
%TO.P,U1,7*%
%TO.N,Net-(U1-Pad7)*%
X119951100Y-76284400D03*
%TO.P,U1,6*%
%TO.N,Net-(U1-Pad6)*%
X117411100Y-73744500D03*
%TO.P,U1,5*%
%TO.N,Net-(U1-Pad5)*%
X117411100Y-76284400D03*
%TO.P,U1,4*%
%TO.N,Net-(U1-Pad4)*%
X114871100Y-73744500D03*
%TO.P,U1,3*%
%TO.N,Net-(U1-Pad3)*%
X114871100Y-76284400D03*
%TO.P,U1,2*%
%TO.N,Net-(C2-Pad1)*%
X112331100Y-73744500D03*
%TO.P,U1,1*%
%TO.N,GND*%
X112331100Y-76284400D03*
%TD*%
D16*
%TO.P,J1,2*%
%TO.N,/5V*%
X99540000Y-73000000D03*
D17*
%TO.P,J1,1*%
%TO.N,GND*%
X97000000Y-73000000D03*
%TD*%
D18*
%TO.P,C2,2*%
%TO.N,GND*%
X132000000Y-73500000D03*
D19*
%TO.P,C2,1*%
%TO.N,Net-(C2-Pad1)*%
X132000000Y-76000000D03*
%TD*%
D20*
%TO.N,GND*%
X142850000Y-72500000D03*
D21*
X140000000Y-82000000D03*
%TD*%
D22*
%TO.N,GND*%
X142850000Y-72500000D02*
X142850000Y-79150000D01*
X142850000Y-79150000D02*
X140000000Y-82000000D01*
X140000000Y-82000000D02*
X140000000Y-82000000D01*
%TO.N,Net-(U1-Pad7)*%
X119715600Y-76284400D02*
X119314109Y-76685891D01*
X119951100Y-76284400D02*
X119715600Y-76284400D01*
X117899895Y-83320104D02*
X110380000Y-90840000D01*
X117899895Y-83320104D02*
X117982655Y-83235286D01*
X117982655Y-83235286D02*
X118063309Y-83148463D01*
X118063309Y-83148463D02*
X118141809Y-83059687D01*
X118141809Y-83059687D02*
X118218105Y-82969012D01*
X118218105Y-82969012D02*
X118292154Y-82876491D01*
X118292154Y-82876491D02*
X118363910Y-82782181D01*
X118363910Y-82782181D02*
X118433330Y-82686138D01*
X118433330Y-82686138D02*
X118500371Y-82588420D01*
X118500371Y-82588420D02*
X118564995Y-82489087D01*
X118564995Y-82489087D02*
X118627161Y-82388198D01*
X118627161Y-82388198D02*
X118686832Y-82285813D01*
X118686832Y-82285813D02*
X118743973Y-82181995D01*
X118743973Y-82181995D02*
X118798549Y-82076806D01*
X118798549Y-82076806D02*
X118850527Y-81970309D01*
X118850527Y-81970309D02*
X118899876Y-81862568D01*
X118899876Y-81862568D02*
X118946566Y-81753649D01*
X118946566Y-81753649D02*
X118990569Y-81643617D01*
X118990569Y-81643617D02*
X119031858Y-81532538D01*
X119031858Y-81532538D02*
X119070409Y-81420480D01*
X119070409Y-81420480D02*
X119106198Y-81307509D01*
X119106198Y-81307509D02*
X119139203Y-81193693D01*
X119139203Y-81193693D02*
X119169406Y-81079102D01*
X119169406Y-81079102D02*
X119196788Y-80963805D01*
X119196788Y-80963805D02*
X119221331Y-80847870D01*
X119221331Y-80847870D02*
X119243022Y-80731367D01*
X119243022Y-80731367D02*
X119261848Y-80614368D01*
X119261848Y-80614368D02*
X119277796Y-80496941D01*
X119277796Y-80496941D02*
X119290858Y-80379159D01*
X119290858Y-80379159D02*
X119301025Y-80261092D01*
X119301025Y-80261092D02*
X119308292Y-80142810D01*
X119308292Y-80142810D02*
X119312654Y-80024386D01*
X119312654Y-80024386D02*
X119314109Y-79905891D01*
X119314109Y-79905891D02*
X119314109Y-76685891D01*
%TO.N,Net-(U1-Pad6)*%
X114585786Y-84094213D02*
X110380000Y-88300000D01*
X114585786Y-84094213D02*
X114668546Y-84009395D01*
X114668546Y-84009395D02*
X114749200Y-83922572D01*
X114749200Y-83922572D02*
X114827700Y-83833796D01*
X114827700Y-83833796D02*
X114903996Y-83743121D01*
X114903996Y-83743121D02*
X114978045Y-83650600D01*
X114978045Y-83650600D02*
X115049801Y-83556290D01*
X115049801Y-83556290D02*
X115119221Y-83460247D01*
X115119221Y-83460247D02*
X115186262Y-83362529D01*
X115186262Y-83362529D02*
X115250886Y-83263196D01*
X115250886Y-83263196D02*
X115313052Y-83162307D01*
X115313052Y-83162307D02*
X115372723Y-83059922D01*
X115372723Y-83059922D02*
X115429864Y-82956104D01*
X115429864Y-82956104D02*
X115484440Y-82850915D01*
X115484440Y-82850915D02*
X115536418Y-82744418D01*
X115536418Y-82744418D02*
X115585767Y-82636677D01*
X115585767Y-82636677D02*
X115632457Y-82527758D01*
X115632457Y-82527758D02*
X115676460Y-82417726D01*
X115676460Y-82417726D02*
X115717749Y-82306647D01*
X115717749Y-82306647D02*
X115756300Y-82194589D01*
X115756300Y-82194589D02*
X115792089Y-82081618D01*
X115792089Y-82081618D02*
X115825094Y-81967802D01*
X115825094Y-81967802D02*
X115855297Y-81853211D01*
X115855297Y-81853211D02*
X115882679Y-81737914D01*
X115882679Y-81737914D02*
X115907222Y-81621979D01*
X115907222Y-81621979D02*
X115928913Y-81505476D01*
X115928913Y-81505476D02*
X115947739Y-81388477D01*
X115947739Y-81388477D02*
X115963687Y-81271050D01*
X115963687Y-81271050D02*
X115976749Y-81153268D01*
X115976749Y-81153268D02*
X115986916Y-81035201D01*
X115986916Y-81035201D02*
X115994183Y-80916919D01*
X115994183Y-80916919D02*
X115998545Y-80798495D01*
X115998545Y-80798495D02*
X116000000Y-80680000D01*
X116707106Y-74448493D02*
X117411100Y-73744500D01*
X116707106Y-74448493D02*
X116625398Y-74534312D01*
X116625398Y-74534312D02*
X116548000Y-74624038D01*
X116548000Y-74624038D02*
X116475098Y-74717454D01*
X116475098Y-74717454D02*
X116406867Y-74814334D01*
X116406867Y-74814334D02*
X116343472Y-74914445D01*
X116343472Y-74914445D02*
X116285066Y-75017547D01*
X116285066Y-75017547D02*
X116231789Y-75123390D01*
X116231789Y-75123390D02*
X116183770Y-75231720D01*
X116183770Y-75231720D02*
X116141124Y-75342275D01*
X116141124Y-75342275D02*
X116103954Y-75454790D01*
X116103954Y-75454790D02*
X116072350Y-75568993D01*
X116072350Y-75568993D02*
X116046387Y-75684610D01*
X116046387Y-75684610D02*
X116026129Y-75801361D01*
X116026129Y-75801361D02*
X116011624Y-75918965D01*
X116011624Y-75918965D02*
X116002907Y-76037140D01*
X116002907Y-76037140D02*
X116000000Y-76155600D01*
X116000000Y-76155600D02*
X116000000Y-80680000D01*
%TO.N,Net-(U1-Pad5)*%
X110501801Y-93258199D02*
X110380000Y-93380000D01*
X118498101Y-75197399D02*
X121197399Y-75197399D01*
X117411100Y-76284400D02*
X118498101Y-75197399D01*
X120585786Y-86570119D02*
X120668546Y-86485301D01*
X120668546Y-86485301D02*
X120749200Y-86398478D01*
X120749200Y-86398478D02*
X120827700Y-86309702D01*
X120827700Y-86309702D02*
X120903996Y-86219027D01*
X120903996Y-86219027D02*
X120978045Y-86126506D01*
X120978045Y-86126506D02*
X121049801Y-86032196D01*
X121049801Y-86032196D02*
X121119221Y-85936153D01*
X121119221Y-85936153D02*
X121186262Y-85838435D01*
X121186262Y-85838435D02*
X121250886Y-85739102D01*
X121250886Y-85739102D02*
X121313052Y-85638213D01*
X121313052Y-85638213D02*
X121372723Y-85535828D01*
X121372723Y-85535828D02*
X121429864Y-85432010D01*
X121429864Y-85432010D02*
X121484440Y-85326821D01*
X121484440Y-85326821D02*
X121536418Y-85220324D01*
X121536418Y-85220324D02*
X121585767Y-85112583D01*
X121585767Y-85112583D02*
X121632457Y-85003664D01*
X121632457Y-85003664D02*
X121676460Y-84893632D01*
X121676460Y-84893632D02*
X121717749Y-84782553D01*
X121717749Y-84782553D02*
X121756300Y-84670495D01*
X121756300Y-84670495D02*
X121792089Y-84557524D01*
X121792089Y-84557524D02*
X121825094Y-84443708D01*
X121825094Y-84443708D02*
X121855297Y-84329117D01*
X121855297Y-84329117D02*
X121882679Y-84213820D01*
X121882679Y-84213820D02*
X121907222Y-84097885D01*
X121907222Y-84097885D02*
X121928913Y-83981382D01*
X121928913Y-83981382D02*
X121947739Y-83864383D01*
X121947739Y-83864383D02*
X121963687Y-83746956D01*
X121963687Y-83746956D02*
X121976749Y-83629174D01*
X121976749Y-83629174D02*
X121986916Y-83511107D01*
X121986916Y-83511107D02*
X121994183Y-83392825D01*
X121994183Y-83392825D02*
X121998545Y-83274401D01*
X121998545Y-83274401D02*
X122000000Y-83155906D01*
X111897707Y-93258199D02*
X110501801Y-93258199D01*
X111897707Y-93258199D02*
X112134626Y-93252382D01*
X112134626Y-93252382D02*
X112370975Y-93234948D01*
X112370975Y-93234948D02*
X112606184Y-93205938D01*
X112606184Y-93205938D02*
X112839686Y-93165421D01*
X112839686Y-93165421D02*
X113070918Y-93113496D01*
X113070918Y-93113496D02*
X113299325Y-93050288D01*
X113299325Y-93050288D02*
X113524354Y-92975948D01*
X113524354Y-92975948D02*
X113745465Y-92890656D01*
X113745465Y-92890656D02*
X113962125Y-92794617D01*
X113962125Y-92794617D02*
X114173811Y-92688063D01*
X114173811Y-92688063D02*
X114380014Y-92571251D01*
X114380014Y-92571251D02*
X114580236Y-92444461D01*
X114580236Y-92444461D02*
X114773997Y-92308000D01*
X114773997Y-92308000D02*
X114960828Y-92162195D01*
X114960828Y-92162195D02*
X115140279Y-92007399D01*
X115140279Y-92007399D02*
X115311920Y-91843985D01*
X115311920Y-91843985D02*
X120585786Y-86570119D01*
X121292893Y-75292893D02*
X121197399Y-75197399D01*
X121292893Y-75292893D02*
X121374599Y-75378713D01*
X121374599Y-75378713D02*
X121451997Y-75468439D01*
X121451997Y-75468439D02*
X121524900Y-75561854D01*
X121524900Y-75561854D02*
X121593130Y-75658735D01*
X121593130Y-75658735D02*
X121656525Y-75758846D01*
X121656525Y-75758846D02*
X121714931Y-75861947D01*
X121714931Y-75861947D02*
X121768208Y-75967790D01*
X121768208Y-75967790D02*
X121816227Y-76076120D01*
X121816227Y-76076120D02*
X121858873Y-76186676D01*
X121858873Y-76186676D02*
X121896043Y-76299190D01*
X121896043Y-76299190D02*
X121927647Y-76413394D01*
X121927647Y-76413394D02*
X121953610Y-76529010D01*
X121953610Y-76529010D02*
X121973868Y-76645761D01*
X121973868Y-76645761D02*
X121988373Y-76763365D01*
X121988373Y-76763365D02*
X121997090Y-76881540D01*
X121997090Y-76881540D02*
X122000000Y-77000000D01*
X122000000Y-77000000D02*
X122000000Y-83155906D01*
%TO.N,Net-(U1-Pad4)*%
X127414213Y-73414213D02*
X128000000Y-74000000D01*
X127414213Y-73414213D02*
X127242573Y-73250797D01*
X127242573Y-73250797D02*
X127063121Y-73096001D01*
X127063121Y-73096001D02*
X126876290Y-72950196D01*
X126876290Y-72950196D02*
X126682530Y-72813735D01*
X126682530Y-72813735D02*
X126482307Y-72686945D01*
X126482307Y-72686945D02*
X126276104Y-72570133D01*
X126276104Y-72570133D02*
X126064418Y-72463579D01*
X126064418Y-72463579D02*
X125847759Y-72367540D01*
X125847759Y-72367540D02*
X125626648Y-72282248D01*
X125626648Y-72282248D02*
X125401618Y-72207909D01*
X125401618Y-72207909D02*
X125173212Y-72144700D01*
X125173212Y-72144700D02*
X124941979Y-72092775D01*
X124941979Y-72092775D02*
X124708477Y-72052259D01*
X124708477Y-72052259D02*
X124473268Y-72023248D01*
X124473268Y-72023248D02*
X124236919Y-72005814D01*
X124236919Y-72005814D02*
X124000000Y-72000000D01*
X126585786Y-87334213D02*
X125620000Y-88300000D01*
X126585786Y-87334213D02*
X126668546Y-87249395D01*
X126668546Y-87249395D02*
X126749200Y-87162572D01*
X126749200Y-87162572D02*
X126827700Y-87073796D01*
X126827700Y-87073796D02*
X126903996Y-86983121D01*
X126903996Y-86983121D02*
X126978045Y-86890600D01*
X126978045Y-86890600D02*
X127049801Y-86796290D01*
X127049801Y-86796290D02*
X127119221Y-86700247D01*
X127119221Y-86700247D02*
X127186262Y-86602529D01*
X127186262Y-86602529D02*
X127250886Y-86503196D01*
X127250886Y-86503196D02*
X127313052Y-86402307D01*
X127313052Y-86402307D02*
X127372723Y-86299922D01*
X127372723Y-86299922D02*
X127429864Y-86196104D01*
X127429864Y-86196104D02*
X127484440Y-86090915D01*
X127484440Y-86090915D02*
X127536418Y-85984418D01*
X127536418Y-85984418D02*
X127585767Y-85876677D01*
X127585767Y-85876677D02*
X127632457Y-85767758D01*
X127632457Y-85767758D02*
X127676460Y-85657726D01*
X127676460Y-85657726D02*
X127717749Y-85546647D01*
X127717749Y-85546647D02*
X127756300Y-85434589D01*
X127756300Y-85434589D02*
X127792089Y-85321618D01*
X127792089Y-85321618D02*
X127825094Y-85207802D01*
X127825094Y-85207802D02*
X127855297Y-85093211D01*
X127855297Y-85093211D02*
X127882679Y-84977914D01*
X127882679Y-84977914D02*
X127907222Y-84861979D01*
X127907222Y-84861979D02*
X127928913Y-84745476D01*
X127928913Y-84745476D02*
X127947739Y-84628477D01*
X127947739Y-84628477D02*
X127963687Y-84511050D01*
X127963687Y-84511050D02*
X127976749Y-84393268D01*
X127976749Y-84393268D02*
X127986916Y-84275201D01*
X127986916Y-84275201D02*
X127994183Y-84156919D01*
X127994183Y-84156919D02*
X127998545Y-84038495D01*
X127998545Y-84038495D02*
X128000000Y-83920000D01*
X128000000Y-83920000D02*
X128000000Y-74000000D01*
X115908493Y-72707106D02*
X114871100Y-73744500D01*
X115908493Y-72707106D02*
X115994312Y-72625398D01*
X115994312Y-72625398D02*
X116084038Y-72548000D01*
X116084038Y-72548000D02*
X116177454Y-72475098D01*
X116177454Y-72475098D02*
X116274334Y-72406867D01*
X116274334Y-72406867D02*
X116374445Y-72343472D01*
X116374445Y-72343472D02*
X116477547Y-72285066D01*
X116477547Y-72285066D02*
X116583390Y-72231789D01*
X116583390Y-72231789D02*
X116691720Y-72183770D01*
X116691720Y-72183770D02*
X116802275Y-72141124D01*
X116802275Y-72141124D02*
X116914790Y-72103954D01*
X116914790Y-72103954D02*
X117028993Y-72072350D01*
X117028993Y-72072350D02*
X117144610Y-72046387D01*
X117144610Y-72046387D02*
X117261361Y-72026129D01*
X117261361Y-72026129D02*
X117378965Y-72011624D01*
X117378965Y-72011624D02*
X117497140Y-72002907D01*
X117497140Y-72002907D02*
X117615600Y-72000000D01*
X117615600Y-72000000D02*
X124000000Y-72000000D01*
%TO.N,Net-(U1-Pad3)*%
X114871100Y-76284400D02*
X114715600Y-76284400D01*
X127585786Y-88874213D02*
X125620000Y-90840000D01*
X127585786Y-88874213D02*
X127668546Y-88789395D01*
X127668546Y-88789395D02*
X127749200Y-88702572D01*
X127749200Y-88702572D02*
X127827700Y-88613796D01*
X127827700Y-88613796D02*
X127903996Y-88523121D01*
X127903996Y-88523121D02*
X127978045Y-88430600D01*
X127978045Y-88430600D02*
X128049801Y-88336290D01*
X128049801Y-88336290D02*
X128119221Y-88240247D01*
X128119221Y-88240247D02*
X128186262Y-88142529D01*
X128186262Y-88142529D02*
X128250886Y-88043196D01*
X128250886Y-88043196D02*
X128313052Y-87942307D01*
X128313052Y-87942307D02*
X128372723Y-87839922D01*
X128372723Y-87839922D02*
X128429864Y-87736104D01*
X128429864Y-87736104D02*
X128484440Y-87630915D01*
X128484440Y-87630915D02*
X128536418Y-87524418D01*
X128536418Y-87524418D02*
X128585767Y-87416677D01*
X128585767Y-87416677D02*
X128632457Y-87307758D01*
X128632457Y-87307758D02*
X128676460Y-87197726D01*
X128676460Y-87197726D02*
X128717749Y-87086647D01*
X128717749Y-87086647D02*
X128756300Y-86974589D01*
X128756300Y-86974589D02*
X128792089Y-86861618D01*
X128792089Y-86861618D02*
X128825094Y-86747802D01*
X128825094Y-86747802D02*
X128855297Y-86633211D01*
X128855297Y-86633211D02*
X128882679Y-86517914D01*
X128882679Y-86517914D02*
X128907222Y-86401979D01*
X128907222Y-86401979D02*
X128928913Y-86285476D01*
X128928913Y-86285476D02*
X128947739Y-86168477D01*
X128947739Y-86168477D02*
X128963687Y-86051050D01*
X128963687Y-86051050D02*
X128976749Y-85933268D01*
X128976749Y-85933268D02*
X128986916Y-85815201D01*
X128986916Y-85815201D02*
X128994183Y-85696919D01*
X128994183Y-85696919D02*
X128998545Y-85578495D01*
X128998545Y-85578495D02*
X129000000Y-85460000D01*
X127585786Y-71585786D02*
X127668546Y-71670603D01*
X127668546Y-71670603D02*
X127749200Y-71757426D01*
X127749200Y-71757426D02*
X127827700Y-71846202D01*
X127827700Y-71846202D02*
X127903997Y-71936877D01*
X127903997Y-71936877D02*
X127978045Y-72029398D01*
X127978045Y-72029398D02*
X128049801Y-72123708D01*
X128049801Y-72123708D02*
X128119221Y-72219751D01*
X128119221Y-72219751D02*
X128186262Y-72317469D01*
X128186262Y-72317469D02*
X128250886Y-72416802D01*
X128250886Y-72416802D02*
X128313052Y-72517692D01*
X128313052Y-72517692D02*
X128372724Y-72620076D01*
X128372724Y-72620076D02*
X128429865Y-72723894D01*
X128429865Y-72723894D02*
X128484440Y-72829084D01*
X128484440Y-72829084D02*
X128536418Y-72935581D01*
X128536418Y-72935581D02*
X128585767Y-73043321D01*
X128585767Y-73043321D02*
X128632457Y-73152240D01*
X128632457Y-73152240D02*
X128676460Y-73262272D01*
X128676460Y-73262272D02*
X128717749Y-73373351D01*
X128717749Y-73373351D02*
X128756300Y-73485410D01*
X128756300Y-73485410D02*
X128792089Y-73598381D01*
X128792089Y-73598381D02*
X128825095Y-73712196D01*
X128825095Y-73712196D02*
X128855297Y-73826787D01*
X128855297Y-73826787D02*
X128882679Y-73942085D01*
X128882679Y-73942085D02*
X128907222Y-74058020D01*
X128907222Y-74058020D02*
X128928913Y-74174522D01*
X128928913Y-74174522D02*
X128947739Y-74291522D01*
X128947739Y-74291522D02*
X128963687Y-74408948D01*
X128963687Y-74408948D02*
X128976749Y-74526731D01*
X128976749Y-74526731D02*
X128986916Y-74644798D01*
X128986916Y-74644798D02*
X128994183Y-74763080D01*
X128994183Y-74763080D02*
X128998545Y-74881504D01*
X128998545Y-74881504D02*
X129000000Y-75000000D01*
X129000000Y-75000000D02*
X129000000Y-85460000D01*
X126500000Y-71000000D02*
X115000000Y-71000000D01*
X126500000Y-71000000D02*
X126735494Y-71023194D01*
X126735494Y-71023194D02*
X126961939Y-71091885D01*
X126961939Y-71091885D02*
X127170632Y-71203434D01*
X127170632Y-71203434D02*
X127353553Y-71353553D01*
X127353553Y-71353553D02*
X127585786Y-71585786D01*
X113784099Y-74197399D02*
X113787006Y-74315858D01*
X113787006Y-74315858D02*
X113795723Y-74434033D01*
X113795723Y-74434033D02*
X113810228Y-74551637D01*
X113810228Y-74551637D02*
X113830486Y-74668388D01*
X113830486Y-74668388D02*
X113856448Y-74784004D01*
X113856448Y-74784004D02*
X113888053Y-74898208D01*
X113888053Y-74898208D02*
X113925223Y-75010722D01*
X113925223Y-75010722D02*
X113967869Y-75121278D01*
X113967869Y-75121278D02*
X114015888Y-75229607D01*
X114015888Y-75229607D02*
X114069165Y-75335451D01*
X114069165Y-75335451D02*
X114127571Y-75438552D01*
X114127571Y-75438552D02*
X114190966Y-75538663D01*
X114190966Y-75538663D02*
X114259197Y-75635543D01*
X114259197Y-75635543D02*
X114332099Y-75728959D01*
X114332099Y-75728959D02*
X114409497Y-75818685D01*
X114409497Y-75818685D02*
X114491205Y-75904505D01*
X114491205Y-75904505D02*
X114871100Y-76284400D01*
X114491205Y-71508794D02*
X115000000Y-71000000D01*
X114491205Y-71508794D02*
X114409497Y-71594613D01*
X114409497Y-71594613D02*
X114332099Y-71684339D01*
X114332099Y-71684339D02*
X114259197Y-71777755D01*
X114259197Y-71777755D02*
X114190966Y-71874635D01*
X114190966Y-71874635D02*
X114127571Y-71974746D01*
X114127571Y-71974746D02*
X114069165Y-72077848D01*
X114069165Y-72077848D02*
X114015888Y-72183691D01*
X114015888Y-72183691D02*
X113967869Y-72292021D01*
X113967869Y-72292021D02*
X113925223Y-72402576D01*
X113925223Y-72402576D02*
X113888053Y-72515091D01*
X113888053Y-72515091D02*
X113856449Y-72629294D01*
X113856449Y-72629294D02*
X113830486Y-72744911D01*
X113830486Y-72744911D02*
X113810228Y-72861662D01*
X113810228Y-72861662D02*
X113795723Y-72979266D01*
X113795723Y-72979266D02*
X113787006Y-73097441D01*
X113787006Y-73097441D02*
X113784099Y-73215901D01*
X113784099Y-73215901D02*
X113784099Y-74197399D01*
%TD*%
D23*
%TO.N,GND*%
X143194522Y-72676582D02*
X143162482Y-72738118D01*
X143127580Y-72797458D01*
X143094380Y-72850028D01*
X143063525Y-72898856D01*
X143063269Y-72899278D01*
X143035484Y-72947285D01*
X143035023Y-72948158D01*
X143010921Y-72998446D01*
X143010409Y-72999678D01*
X142990599Y-73055353D01*
X142990193Y-73056736D01*
X142975287Y-73120903D01*
X142975054Y-73122215D01*
X142965662Y-73197976D01*
X142965574Y-73199080D01*
X142962750Y-73277300D01*
X142737250Y-73277300D01*
X142734425Y-73199080D01*
X142734337Y-73197976D01*
X142724945Y-73122215D01*
X142724712Y-73120903D01*
X142709806Y-73056736D01*
X142709400Y-73055353D01*
X142689590Y-72999678D01*
X142689078Y-72998446D01*
X142664976Y-72948158D01*
X142664515Y-72947285D01*
X142636730Y-72899278D01*
X142636474Y-72898856D01*
X142605619Y-72850028D01*
X142572419Y-72797458D01*
X142537517Y-72738119D01*
X142505478Y-72676582D01*
X142850000Y-72318322D01*
X143194522Y-72676582D01*
%TA.AperFunction,Conductor*%
D24*
G36*
X143194522Y-72676582D02*
G01*
X143162482Y-72738118D01*
X143127580Y-72797458D01*
X143094380Y-72850028D01*
X143063525Y-72898856D01*
X143063269Y-72899278D01*
X143035484Y-72947285D01*
X143035023Y-72948158D01*
X143010921Y-72998446D01*
X143010409Y-72999678D01*
X142990599Y-73055353D01*
X142990193Y-73056736D01*
X142975287Y-73120903D01*
X142975054Y-73122215D01*
X142965662Y-73197976D01*
X142965574Y-73199080D01*
X142962750Y-73277300D01*
X142737250Y-73277300D01*
X142734425Y-73199080D01*
X142734337Y-73197976D01*
X142724945Y-73122215D01*
X142724712Y-73120903D01*
X142709806Y-73056736D01*
X142709400Y-73055353D01*
X142689590Y-72999678D01*
X142689078Y-72998446D01*
X142664976Y-72948158D01*
X142664515Y-72947285D01*
X142636730Y-72899278D01*
X142636474Y-72898856D01*
X142605619Y-72850028D01*
X142572419Y-72797458D01*
X142537517Y-72738119D01*
X142505478Y-72676582D01*
X142850000Y-72318322D01*
X143194522Y-72676582D01*
G37*
%TD.AperFunction*%
%TD*%
D23*
%TO.N,GND*%
X140487848Y-81671425D02*
X140450544Y-81710699D01*
X140450012Y-81711295D01*
X140413636Y-81754770D01*
X140413030Y-81755554D01*
X140384528Y-81795585D01*
X140383915Y-81796533D01*
X140361711Y-81834449D01*
X140361180Y-81835457D01*
X140343696Y-81872590D01*
X140343317Y-81873483D01*
X140328977Y-81911161D01*
X140328760Y-81911775D01*
X140315987Y-81951330D01*
X140315905Y-81951595D01*
X140303122Y-81994355D01*
X140303123Y-81994355D01*
X140288819Y-82041430D01*
X140274142Y-82085930D01*
X139906890Y-82093110D01*
X139914070Y-81725858D01*
X139958569Y-81711180D01*
X140005644Y-81696876D01*
X140005644Y-81696877D01*
X140048404Y-81684094D01*
X140048669Y-81684012D01*
X140088224Y-81671239D01*
X140088838Y-81671022D01*
X140126516Y-81656682D01*
X140127409Y-81656303D01*
X140164542Y-81638819D01*
X140165550Y-81638288D01*
X140203466Y-81616084D01*
X140204414Y-81615471D01*
X140244445Y-81586969D01*
X140245229Y-81586363D01*
X140288704Y-81549987D01*
X140289300Y-81549455D01*
X140328575Y-81512152D01*
X140487848Y-81671425D01*
%TA.AperFunction,Conductor*%
D24*
G36*
X140487848Y-81671425D02*
G01*
X140450544Y-81710699D01*
X140450012Y-81711295D01*
X140413636Y-81754770D01*
X140413030Y-81755554D01*
X140384528Y-81795585D01*
X140383915Y-81796533D01*
X140361711Y-81834449D01*
X140361180Y-81835457D01*
X140343696Y-81872590D01*
X140343317Y-81873483D01*
X140328977Y-81911161D01*
X140328760Y-81911775D01*
X140315987Y-81951330D01*
X140315905Y-81951595D01*
X140303122Y-81994355D01*
X140303123Y-81994355D01*
X140288819Y-82041430D01*
X140274142Y-82085930D01*
X139906890Y-82093110D01*
X139914070Y-81725858D01*
X139958569Y-81711180D01*
X140005644Y-81696876D01*
X140005644Y-81696877D01*
X140048404Y-81684094D01*
X140048669Y-81684012D01*
X140088224Y-81671239D01*
X140088838Y-81671022D01*
X140126516Y-81656682D01*
X140127409Y-81656303D01*
X140164542Y-81638819D01*
X140165550Y-81638288D01*
X140203466Y-81616084D01*
X140204414Y-81615471D01*
X140244445Y-81586969D01*
X140245229Y-81586363D01*
X140288704Y-81549987D01*
X140289300Y-81549455D01*
X140328575Y-81512152D01*
X140487848Y-81671425D01*
G37*
%TD.AperFunction*%
%TD*%
D23*
%TO.N,Net-(U1-Pad7)*%
X111773039Y-89606704D02*
X111632938Y-89762458D01*
X111631930Y-89763733D01*
X111527332Y-89915168D01*
X111526367Y-89916819D01*
X111456982Y-90059083D01*
X111456266Y-90060891D01*
X111413750Y-90198087D01*
X111413373Y-90199643D01*
X111389382Y-90335876D01*
X111389252Y-90336827D01*
X111375440Y-90476199D01*
X111375420Y-90476417D01*
X111363463Y-90622816D01*
X111345060Y-90780090D01*
X111311925Y-90952456D01*
X111258182Y-91135903D01*
X110060687Y-91159313D01*
X110084097Y-89961817D01*
X110267543Y-89908074D01*
X110439909Y-89874939D01*
X110597183Y-89856536D01*
X110743582Y-89844579D01*
X110743800Y-89844559D01*
X110883172Y-89830747D01*
X110884123Y-89830617D01*
X111020356Y-89806626D01*
X111021912Y-89806249D01*
X111159108Y-89763733D01*
X111160916Y-89763017D01*
X111303180Y-89693632D01*
X111304831Y-89692667D01*
X111456266Y-89588069D01*
X111457541Y-89587061D01*
X111613296Y-89446961D01*
X111773039Y-89606704D01*
%TA.AperFunction,Conductor*%
D24*
G36*
X111773039Y-89606704D02*
G01*
X111632938Y-89762458D01*
X111631930Y-89763733D01*
X111527332Y-89915168D01*
X111526367Y-89916819D01*
X111456982Y-90059083D01*
X111456266Y-90060891D01*
X111413750Y-90198087D01*
X111413373Y-90199643D01*
X111389382Y-90335876D01*
X111389252Y-90336827D01*
X111375440Y-90476199D01*
X111375420Y-90476417D01*
X111363463Y-90622816D01*
X111345060Y-90780090D01*
X111311925Y-90952456D01*
X111258182Y-91135903D01*
X110060687Y-91159313D01*
X110084097Y-89961817D01*
X110267543Y-89908074D01*
X110439909Y-89874939D01*
X110597183Y-89856536D01*
X110743582Y-89844579D01*
X110743800Y-89844559D01*
X110883172Y-89830747D01*
X110884123Y-89830617D01*
X111020356Y-89806626D01*
X111021912Y-89806249D01*
X111159108Y-89763733D01*
X111160916Y-89763017D01*
X111303180Y-89693632D01*
X111304831Y-89692667D01*
X111456266Y-89588069D01*
X111457541Y-89587061D01*
X111613296Y-89446961D01*
X111773039Y-89606704D01*
G37*
%TD.AperFunction*%
%TD*%
D23*
%TO.N,Net-(U1-Pad7)*%
X120253558Y-76084267D02*
X120042092Y-77028169D01*
X119954415Y-77039568D01*
X119954298Y-77039584D01*
X119861656Y-77052503D01*
X119861166Y-77052581D01*
X119773857Y-77068258D01*
X119772921Y-77068463D01*
X119692431Y-77089281D01*
X119690970Y-77089755D01*
X119618787Y-77118096D01*
X119616790Y-77119090D01*
X119554398Y-77157338D01*
X119552107Y-77159134D01*
X119500993Y-77209673D01*
X119498975Y-77212266D01*
X119460625Y-77277477D01*
X119459384Y-77280345D01*
X119435284Y-77362613D01*
X119434815Y-77365142D01*
X119427411Y-77455191D01*
X119201434Y-77455191D01*
X119195234Y-77248147D01*
X119195193Y-77247437D01*
X119178881Y-77058033D01*
X119178827Y-77057527D01*
X119157861Y-76892025D01*
X119157841Y-76891872D01*
X119137332Y-76744385D01*
X119122399Y-76609201D01*
X119118046Y-76480320D01*
X119129208Y-76351546D01*
X119160892Y-76216497D01*
X119218280Y-76068777D01*
X119302522Y-75909928D01*
X120253558Y-76084267D01*
%TA.AperFunction,Conductor*%
D24*
G36*
X120253558Y-76084267D02*
G01*
X120042092Y-77028169D01*
X119954415Y-77039568D01*
X119954298Y-77039584D01*
X119861656Y-77052503D01*
X119861166Y-77052581D01*
X119773857Y-77068258D01*
X119772921Y-77068463D01*
X119692431Y-77089281D01*
X119690970Y-77089755D01*
X119618787Y-77118096D01*
X119616790Y-77119090D01*
X119554398Y-77157338D01*
X119552107Y-77159134D01*
X119500993Y-77209673D01*
X119498975Y-77212266D01*
X119460625Y-77277477D01*
X119459384Y-77280345D01*
X119435284Y-77362613D01*
X119434815Y-77365142D01*
X119427411Y-77455191D01*
X119201434Y-77455191D01*
X119195234Y-77248147D01*
X119195193Y-77247437D01*
X119178881Y-77058033D01*
X119178827Y-77057527D01*
X119157861Y-76892025D01*
X119157841Y-76891872D01*
X119137332Y-76744385D01*
X119122399Y-76609201D01*
X119118046Y-76480320D01*
X119129208Y-76351546D01*
X119160892Y-76216497D01*
X119218280Y-76068777D01*
X119302522Y-75909928D01*
X120253558Y-76084267D01*
G37*
%TD.AperFunction*%
%TD*%
D23*
%TO.N,Net-(U1-Pad6)*%
X111773039Y-87066704D02*
X111632938Y-87222458D01*
X111631930Y-87223733D01*
X111527332Y-87375168D01*
X111526367Y-87376819D01*
X111456982Y-87519083D01*
X111456266Y-87520891D01*
X111413750Y-87658087D01*
X111413373Y-87659643D01*
X111389382Y-87795876D01*
X111389252Y-87796827D01*
X111375440Y-87936199D01*
X111375420Y-87936417D01*
X111363463Y-88082816D01*
X111345060Y-88240090D01*
X111311925Y-88412456D01*
X111258182Y-88595903D01*
X110060687Y-88619313D01*
X110084097Y-87421817D01*
X110267543Y-87368074D01*
X110439909Y-87334939D01*
X110597183Y-87316536D01*
X110743582Y-87304579D01*
X110743800Y-87304559D01*
X110883172Y-87290747D01*
X110884123Y-87290617D01*
X111020356Y-87266626D01*
X111021912Y-87266249D01*
X111159108Y-87223733D01*
X111160916Y-87223017D01*
X111303180Y-87153632D01*
X111304831Y-87152667D01*
X111456266Y-87048069D01*
X111457541Y-87047061D01*
X111613296Y-86906961D01*
X111773039Y-87066704D01*
%TA.AperFunction,Conductor*%
D24*
G36*
X111773039Y-87066704D02*
G01*
X111632938Y-87222458D01*
X111631930Y-87223733D01*
X111527332Y-87375168D01*
X111526367Y-87376819D01*
X111456982Y-87519083D01*
X111456266Y-87520891D01*
X111413750Y-87658087D01*
X111413373Y-87659643D01*
X111389382Y-87795876D01*
X111389252Y-87796827D01*
X111375440Y-87936199D01*
X111375420Y-87936417D01*
X111363463Y-88082816D01*
X111345060Y-88240090D01*
X111311925Y-88412456D01*
X111258182Y-88595903D01*
X110060687Y-88619313D01*
X110084097Y-87421817D01*
X110267543Y-87368074D01*
X110439909Y-87334939D01*
X110597183Y-87316536D01*
X110743582Y-87304579D01*
X110743800Y-87304559D01*
X110883172Y-87290747D01*
X110884123Y-87290617D01*
X111020356Y-87266626D01*
X111021912Y-87266249D01*
X111159108Y-87223733D01*
X111160916Y-87223017D01*
X111303180Y-87153632D01*
X111304831Y-87152667D01*
X111456266Y-87048069D01*
X111457541Y-87047061D01*
X111613296Y-86906961D01*
X111773039Y-87066704D01*
G37*
%TD.AperFunction*%
%TD*%
D23*
%TO.N,Net-(U1-Pad6)*%
X117648652Y-74454769D02*
X117503059Y-74498041D01*
X117364913Y-74526352D01*
X117238914Y-74543673D01*
X117121713Y-74556394D01*
X117121442Y-74556426D01*
X117009870Y-74570966D01*
X117008914Y-74571128D01*
X116899798Y-74593920D01*
X116898298Y-74594331D01*
X116788278Y-74631827D01*
X116786576Y-74632549D01*
X116672289Y-74691204D01*
X116670752Y-74692136D01*
X116548838Y-74778403D01*
X116547650Y-74779356D01*
X116423707Y-74891579D01*
X116264021Y-74731893D01*
X116376243Y-74607949D01*
X116377196Y-74606761D01*
X116463463Y-74484847D01*
X116464395Y-74483310D01*
X116523050Y-74369023D01*
X116523772Y-74367321D01*
X116561268Y-74257301D01*
X116561679Y-74255801D01*
X116584471Y-74146685D01*
X116584633Y-74145729D01*
X116599173Y-74034157D01*
X116599205Y-74033886D01*
X116611926Y-73916685D01*
X116629247Y-73790686D01*
X116657558Y-73652540D01*
X116700831Y-73506948D01*
X117667551Y-73488049D01*
X117648652Y-74454769D01*
%TA.AperFunction,Conductor*%
D24*
G36*
X117648652Y-74454769D02*
G01*
X117503059Y-74498041D01*
X117364913Y-74526352D01*
X117238914Y-74543673D01*
X117121713Y-74556394D01*
X117121442Y-74556426D01*
X117009870Y-74570966D01*
X117008914Y-74571128D01*
X116899798Y-74593920D01*
X116898298Y-74594331D01*
X116788278Y-74631827D01*
X116786576Y-74632549D01*
X116672289Y-74691204D01*
X116670752Y-74692136D01*
X116548838Y-74778403D01*
X116547650Y-74779356D01*
X116423707Y-74891579D01*
X116264021Y-74731893D01*
X116376243Y-74607949D01*
X116377196Y-74606761D01*
X116463463Y-74484847D01*
X116464395Y-74483310D01*
X116523050Y-74369023D01*
X116523772Y-74367321D01*
X116561268Y-74257301D01*
X116561679Y-74255801D01*
X116584471Y-74146685D01*
X116584633Y-74145729D01*
X116599173Y-74034157D01*
X116599205Y-74033886D01*
X116611926Y-73916685D01*
X116629247Y-73790686D01*
X116657558Y-73652540D01*
X116700831Y-73506948D01*
X117667551Y-73488049D01*
X117648652Y-74454769D01*
G37*
%TD.AperFunction*%
%TD*%
D23*
%TO.N,Net-(U1-Pad5)*%
X110868165Y-92576512D02*
X111029668Y-92658769D01*
X111167723Y-92744182D01*
X111291766Y-92829510D01*
X111291779Y-92829519D01*
X111410910Y-92911256D01*
X111411523Y-92911651D01*
X111534782Y-92986197D01*
X111535973Y-92986834D01*
X111672655Y-93050770D01*
X111674242Y-93051386D01*
X111833647Y-93101290D01*
X111835318Y-93101691D01*
X112026740Y-93134142D01*
X112028232Y-93134305D01*
X112248901Y-93145283D01*
X112248901Y-93371171D01*
X112046983Y-93382140D01*
X112045302Y-93382344D01*
X111870590Y-93415525D01*
X111868625Y-93416065D01*
X111724859Y-93468278D01*
X111722926Y-93469170D01*
X111601838Y-93537887D01*
X111600325Y-93538895D01*
X111493646Y-93621589D01*
X111492746Y-93622356D01*
X111392206Y-93716500D01*
X111391889Y-93716807D01*
X111289311Y-93819782D01*
X111176579Y-93928918D01*
X111045542Y-94041647D01*
X110894840Y-94150558D01*
X109932152Y-93437918D01*
X110681850Y-92503844D01*
X110868165Y-92576512D01*
%TA.AperFunction,Conductor*%
D24*
G36*
X110868165Y-92576512D02*
G01*
X111029668Y-92658769D01*
X111167723Y-92744182D01*
X111291766Y-92829510D01*
X111291779Y-92829519D01*
X111410910Y-92911256D01*
X111411523Y-92911651D01*
X111534782Y-92986197D01*
X111535973Y-92986834D01*
X111672655Y-93050770D01*
X111674242Y-93051386D01*
X111833647Y-93101290D01*
X111835318Y-93101691D01*
X112026740Y-93134142D01*
X112028232Y-93134305D01*
X112248901Y-93145283D01*
X112248901Y-93371171D01*
X112046983Y-93382140D01*
X112045302Y-93382344D01*
X111870590Y-93415525D01*
X111868625Y-93416065D01*
X111724859Y-93468278D01*
X111722926Y-93469170D01*
X111601838Y-93537887D01*
X111600325Y-93538895D01*
X111493646Y-93621589D01*
X111492746Y-93622356D01*
X111392206Y-93716500D01*
X111391889Y-93716807D01*
X111289311Y-93819782D01*
X111176579Y-93928918D01*
X111045542Y-94041647D01*
X110894840Y-94150558D01*
X109932152Y-93437918D01*
X110681850Y-92503844D01*
X110868165Y-92576512D01*
G37*
%TD.AperFunction*%
%TD*%
D23*
%TO.N,Net-(U1-Pad5)*%
X118558179Y-75297007D02*
X118445956Y-75420950D01*
X118445003Y-75422138D01*
X118358736Y-75544052D01*
X118357804Y-75545589D01*
X118299149Y-75659876D01*
X118298427Y-75661578D01*
X118260931Y-75771598D01*
X118260520Y-75773098D01*
X118237728Y-75882214D01*
X118237566Y-75883170D01*
X118223026Y-75994742D01*
X118222994Y-75995013D01*
X118210273Y-76112214D01*
X118192952Y-76238213D01*
X118164641Y-76376359D01*
X118121369Y-76521952D01*
X117154649Y-76540851D01*
X117173548Y-75574131D01*
X117319140Y-75530858D01*
X117457286Y-75502547D01*
X117583285Y-75485226D01*
X117700486Y-75472505D01*
X117700757Y-75472473D01*
X117812329Y-75457933D01*
X117813285Y-75457771D01*
X117922401Y-75434979D01*
X117923901Y-75434568D01*
X118033921Y-75397072D01*
X118035623Y-75396350D01*
X118149910Y-75337695D01*
X118151447Y-75336763D01*
X118273361Y-75250496D01*
X118274549Y-75249543D01*
X118398493Y-75137321D01*
X118558179Y-75297007D01*
%TA.AperFunction,Conductor*%
D24*
G36*
X118558179Y-75297007D02*
G01*
X118445956Y-75420950D01*
X118445003Y-75422138D01*
X118358736Y-75544052D01*
X118357804Y-75545589D01*
X118299149Y-75659876D01*
X118298427Y-75661578D01*
X118260931Y-75771598D01*
X118260520Y-75773098D01*
X118237728Y-75882214D01*
X118237566Y-75883170D01*
X118223026Y-75994742D01*
X118222994Y-75995013D01*
X118210273Y-76112214D01*
X118192952Y-76238213D01*
X118164641Y-76376359D01*
X118121369Y-76521952D01*
X117154649Y-76540851D01*
X117173548Y-75574131D01*
X117319140Y-75530858D01*
X117457286Y-75502547D01*
X117583285Y-75485226D01*
X117700486Y-75472505D01*
X117700757Y-75472473D01*
X117812329Y-75457933D01*
X117813285Y-75457771D01*
X117922401Y-75434979D01*
X117923901Y-75434568D01*
X118033921Y-75397072D01*
X118035623Y-75396350D01*
X118149910Y-75337695D01*
X118151447Y-75336763D01*
X118273361Y-75250496D01*
X118274549Y-75249543D01*
X118398493Y-75137321D01*
X118558179Y-75297007D01*
G37*
%TD.AperFunction*%
%TD*%
D23*
%TO.N,Net-(U1-Pad4)*%
X127013039Y-87066704D02*
X126872938Y-87222458D01*
X126871930Y-87223733D01*
X126767332Y-87375168D01*
X126766367Y-87376819D01*
X126696982Y-87519083D01*
X126696266Y-87520891D01*
X126653750Y-87658087D01*
X126653373Y-87659643D01*
X126629382Y-87795876D01*
X126629252Y-87796827D01*
X126615440Y-87936199D01*
X126615420Y-87936417D01*
X126603463Y-88082816D01*
X126585060Y-88240090D01*
X126551925Y-88412456D01*
X126498182Y-88595903D01*
X125300687Y-88619313D01*
X125324097Y-87421817D01*
X125507543Y-87368074D01*
X125679909Y-87334939D01*
X125837183Y-87316536D01*
X125983582Y-87304579D01*
X125983800Y-87304559D01*
X126123172Y-87290747D01*
X126124123Y-87290617D01*
X126260356Y-87266626D01*
X126261912Y-87266249D01*
X126399108Y-87223733D01*
X126400916Y-87223017D01*
X126543180Y-87153632D01*
X126544831Y-87152667D01*
X126696266Y-87048069D01*
X126697541Y-87047061D01*
X126853296Y-86906961D01*
X127013039Y-87066704D01*
%TA.AperFunction,Conductor*%
D24*
G36*
X127013039Y-87066704D02*
G01*
X126872938Y-87222458D01*
X126871930Y-87223733D01*
X126767332Y-87375168D01*
X126766367Y-87376819D01*
X126696982Y-87519083D01*
X126696266Y-87520891D01*
X126653750Y-87658087D01*
X126653373Y-87659643D01*
X126629382Y-87795876D01*
X126629252Y-87796827D01*
X126615440Y-87936199D01*
X126615420Y-87936417D01*
X126603463Y-88082816D01*
X126585060Y-88240090D01*
X126551925Y-88412456D01*
X126498182Y-88595903D01*
X125300687Y-88619313D01*
X125324097Y-87421817D01*
X125507543Y-87368074D01*
X125679909Y-87334939D01*
X125837183Y-87316536D01*
X125983582Y-87304579D01*
X125983800Y-87304559D01*
X126123172Y-87290747D01*
X126124123Y-87290617D01*
X126260356Y-87266626D01*
X126261912Y-87266249D01*
X126399108Y-87223733D01*
X126400916Y-87223017D01*
X126543180Y-87153632D01*
X126544831Y-87152667D01*
X126696266Y-87048069D01*
X126697541Y-87047061D01*
X126853296Y-86906961D01*
X127013039Y-87066704D01*
G37*
%TD.AperFunction*%
%TD*%
D23*
%TO.N,Net-(U1-Pad4)*%
X116018179Y-72757107D02*
X115905956Y-72881050D01*
X115905003Y-72882238D01*
X115818736Y-73004152D01*
X115817804Y-73005689D01*
X115759149Y-73119976D01*
X115758427Y-73121678D01*
X115720931Y-73231698D01*
X115720520Y-73233198D01*
X115697728Y-73342314D01*
X115697566Y-73343270D01*
X115683026Y-73454842D01*
X115682994Y-73455113D01*
X115670273Y-73572314D01*
X115652952Y-73698313D01*
X115624641Y-73836459D01*
X115581369Y-73982052D01*
X114614649Y-74000951D01*
X114633548Y-73034231D01*
X114779140Y-72990958D01*
X114917286Y-72962647D01*
X115043285Y-72945326D01*
X115160486Y-72932605D01*
X115160757Y-72932573D01*
X115272329Y-72918033D01*
X115273285Y-72917871D01*
X115382401Y-72895079D01*
X115383901Y-72894668D01*
X115493921Y-72857172D01*
X115495623Y-72856450D01*
X115609910Y-72797795D01*
X115611447Y-72796863D01*
X115733361Y-72710596D01*
X115734549Y-72709643D01*
X115858493Y-72597421D01*
X116018179Y-72757107D01*
%TA.AperFunction,Conductor*%
D24*
G36*
X116018179Y-72757107D02*
G01*
X115905956Y-72881050D01*
X115905003Y-72882238D01*
X115818736Y-73004152D01*
X115817804Y-73005689D01*
X115759149Y-73119976D01*
X115758427Y-73121678D01*
X115720931Y-73231698D01*
X115720520Y-73233198D01*
X115697728Y-73342314D01*
X115697566Y-73343270D01*
X115683026Y-73454842D01*
X115682994Y-73455113D01*
X115670273Y-73572314D01*
X115652952Y-73698313D01*
X115624641Y-73836459D01*
X115581369Y-73982052D01*
X114614649Y-74000951D01*
X114633548Y-73034231D01*
X114779140Y-72990958D01*
X114917286Y-72962647D01*
X115043285Y-72945326D01*
X115160486Y-72932605D01*
X115160757Y-72932573D01*
X115272329Y-72918033D01*
X115273285Y-72917871D01*
X115382401Y-72895079D01*
X115383901Y-72894668D01*
X115493921Y-72857172D01*
X115495623Y-72856450D01*
X115609910Y-72797795D01*
X115611447Y-72796863D01*
X115733361Y-72710596D01*
X115734549Y-72709643D01*
X115858493Y-72597421D01*
X116018179Y-72757107D01*
G37*
%TD.AperFunction*%
%TD*%
D23*
%TO.N,Net-(U1-Pad3)*%
X114007650Y-75249543D02*
X114008838Y-75250496D01*
X114130752Y-75336763D01*
X114132289Y-75337695D01*
X114246576Y-75396350D01*
X114248278Y-75397072D01*
X114358298Y-75434568D01*
X114359798Y-75434979D01*
X114468914Y-75457771D01*
X114469870Y-75457933D01*
X114581442Y-75472473D01*
X114581713Y-75472505D01*
X114698914Y-75485226D01*
X114824913Y-75502547D01*
X114963059Y-75530858D01*
X115108652Y-75574131D01*
X115127551Y-76540851D01*
X114160831Y-76521952D01*
X114117558Y-76376359D01*
X114089247Y-76238213D01*
X114071926Y-76112214D01*
X114059205Y-75995013D01*
X114059173Y-75994742D01*
X114044633Y-75883170D01*
X114044471Y-75882214D01*
X114021679Y-75773098D01*
X114021268Y-75771598D01*
X113983772Y-75661578D01*
X113983050Y-75659876D01*
X113924395Y-75545589D01*
X113923463Y-75544052D01*
X113837196Y-75422138D01*
X113836243Y-75420950D01*
X113724021Y-75297007D01*
X113883707Y-75137321D01*
X114007650Y-75249543D01*
%TA.AperFunction,Conductor*%
D24*
G36*
X114007650Y-75249543D02*
G01*
X114008838Y-75250496D01*
X114130752Y-75336763D01*
X114132289Y-75337695D01*
X114246576Y-75396350D01*
X114248278Y-75397072D01*
X114358298Y-75434568D01*
X114359798Y-75434979D01*
X114468914Y-75457771D01*
X114469870Y-75457933D01*
X114581442Y-75472473D01*
X114581713Y-75472505D01*
X114698914Y-75485226D01*
X114824913Y-75502547D01*
X114963059Y-75530858D01*
X115108652Y-75574131D01*
X115127551Y-76540851D01*
X114160831Y-76521952D01*
X114117558Y-76376359D01*
X114089247Y-76238213D01*
X114071926Y-76112214D01*
X114059205Y-75995013D01*
X114059173Y-75994742D01*
X114044633Y-75883170D01*
X114044471Y-75882214D01*
X114021679Y-75773098D01*
X114021268Y-75771598D01*
X113983772Y-75661578D01*
X113983050Y-75659876D01*
X113924395Y-75545589D01*
X113923463Y-75544052D01*
X113837196Y-75422138D01*
X113836243Y-75420950D01*
X113724021Y-75297007D01*
X113883707Y-75137321D01*
X114007650Y-75249543D01*
G37*
%TD.AperFunction*%
%TD*%
D23*
%TO.N,Net-(U1-Pad3)*%
X127013039Y-89606704D02*
X126872938Y-89762458D01*
X126871930Y-89763733D01*
X126767332Y-89915168D01*
X126766367Y-89916819D01*
X126696982Y-90059083D01*
X126696266Y-90060891D01*
X126653750Y-90198087D01*
X126653373Y-90199643D01*
X126629382Y-90335876D01*
X126629252Y-90336827D01*
X126615440Y-90476199D01*
X126615420Y-90476417D01*
X126603463Y-90622816D01*
X126585060Y-90780090D01*
X126551925Y-90952456D01*
X126498182Y-91135903D01*
X125300687Y-91159313D01*
X125324097Y-89961817D01*
X125507543Y-89908074D01*
X125679909Y-89874939D01*
X125837183Y-89856536D01*
X125983582Y-89844579D01*
X125983800Y-89844559D01*
X126123172Y-89830747D01*
X126124123Y-89830617D01*
X126260356Y-89806626D01*
X126261912Y-89806249D01*
X126399108Y-89763733D01*
X126400916Y-89763017D01*
X126543180Y-89693632D01*
X126544831Y-89692667D01*
X126696266Y-89588069D01*
X126697541Y-89587061D01*
X126853296Y-89446961D01*
X127013039Y-89606704D01*
%TA.AperFunction,Conductor*%
D24*
G36*
X127013039Y-89606704D02*
G01*
X126872938Y-89762458D01*
X126871930Y-89763733D01*
X126767332Y-89915168D01*
X126766367Y-89916819D01*
X126696982Y-90059083D01*
X126696266Y-90060891D01*
X126653750Y-90198087D01*
X126653373Y-90199643D01*
X126629382Y-90335876D01*
X126629252Y-90336827D01*
X126615440Y-90476199D01*
X126615420Y-90476417D01*
X126603463Y-90622816D01*
X126585060Y-90780090D01*
X126551925Y-90952456D01*
X126498182Y-91135903D01*
X125300687Y-91159313D01*
X125324097Y-89961817D01*
X125507543Y-89908074D01*
X125679909Y-89874939D01*
X125837183Y-89856536D01*
X125983582Y-89844579D01*
X125983800Y-89844559D01*
X126123172Y-89830747D01*
X126124123Y-89830617D01*
X126260356Y-89806626D01*
X126261912Y-89806249D01*
X126399108Y-89763733D01*
X126400916Y-89763017D01*
X126543180Y-89693632D01*
X126544831Y-89692667D01*
X126696266Y-89588069D01*
X126697541Y-89587061D01*
X126853296Y-89446961D01*
X127013039Y-89606704D01*
G37*
%TD.AperFunction*%
%TD*%
D25*
%TO.N,GND*%
X110073000Y-77800000D02*
X110075440Y-77824776D01*
X110082667Y-77848601D01*
X110094403Y-77870557D01*
X110110197Y-77889803D01*
X110129443Y-77905597D01*
X110151399Y-77917333D01*
X110175224Y-77924560D01*
X110200000Y-77927000D01*
X115240000Y-77927000D01*
X115240001Y-80675277D01*
X115238717Y-80779860D01*
X115235042Y-80879624D01*
X115228917Y-80979315D01*
X115220354Y-81078747D01*
X115209345Y-81178020D01*
X115195909Y-81276949D01*
X115180043Y-81375557D01*
X115161773Y-81473684D01*
X115141089Y-81571391D01*
X115118020Y-81668527D01*
X115092571Y-81765079D01*
X115064762Y-81860977D01*
X115034604Y-81956176D01*
X115002124Y-82050587D01*
X114967331Y-82144189D01*
X114930261Y-82236886D01*
X114890928Y-82328644D01*
X114849328Y-82419467D01*
X114805538Y-82509186D01*
X114759558Y-82597808D01*
X114711398Y-82685308D01*
X114661135Y-82771551D01*
X114608747Y-82856572D01*
X114554297Y-82940266D01*
X114497819Y-83022588D01*
X114439316Y-83103527D01*
X114378851Y-83182997D01*
X114316473Y-83260936D01*
X114252189Y-83337335D01*
X114186035Y-83412149D01*
X114118069Y-83485314D01*
X114045156Y-83560040D01*
X111954800Y-85650397D01*
X111954800Y-85604896D01*
X111894282Y-85300648D01*
X111775570Y-85014052D01*
X111603227Y-84756123D01*
X111383877Y-84536773D01*
X111125948Y-84364430D01*
X110839352Y-84245718D01*
X110535104Y-84185200D01*
X110224896Y-84185200D01*
X109920648Y-84245718D01*
X109634052Y-84364430D01*
X109376123Y-84536773D01*
X109156773Y-84756123D01*
X108984430Y-85014052D01*
X108865718Y-85300648D01*
X108805200Y-85604896D01*
X108805200Y-85915104D01*
X108865718Y-86219352D01*
X108984430Y-86505948D01*
X109156773Y-86763877D01*
X109376123Y-86983227D01*
X109446124Y-87030000D01*
X109376123Y-87076773D01*
X109156773Y-87296123D01*
X108984430Y-87554052D01*
X108865718Y-87840648D01*
X108805200Y-88144896D01*
X108805200Y-88455104D01*
X108865718Y-88759352D01*
X108984430Y-89045948D01*
X109156773Y-89303877D01*
X109376123Y-89523227D01*
X109446124Y-89570000D01*
X109376123Y-89616773D01*
X109156773Y-89836123D01*
X108984430Y-90094052D01*
X108865718Y-90380648D01*
X108805200Y-90684896D01*
X108805200Y-90995104D01*
X108865718Y-91299352D01*
X108984430Y-91585948D01*
X109156773Y-91843877D01*
X109376123Y-92063227D01*
X109446124Y-92110000D01*
X109376123Y-92156773D01*
X109156773Y-92376123D01*
X108984430Y-92634052D01*
X108865718Y-92920648D01*
X108805200Y-93224896D01*
X108805200Y-93535104D01*
X108865718Y-93839352D01*
X108984430Y-94125948D01*
X109156773Y-94383877D01*
X109376123Y-94603227D01*
X109446124Y-94650000D01*
X109376123Y-94696773D01*
X109156773Y-94916123D01*
X108984430Y-95174052D01*
X108865718Y-95460648D01*
X108805200Y-95764896D01*
X108805200Y-96075104D01*
X108865718Y-96379352D01*
X108984430Y-96665948D01*
X109156773Y-96923877D01*
X109376123Y-97143227D01*
X109446124Y-97190000D01*
X109376123Y-97236773D01*
X109156773Y-97456123D01*
X108984430Y-97714052D01*
X108865718Y-98000648D01*
X108805200Y-98304896D01*
X108805200Y-98615104D01*
X108865718Y-98919352D01*
X108984430Y-99205948D01*
X109156773Y-99463877D01*
X109376123Y-99683227D01*
X109446124Y-99730000D01*
X109376123Y-99776773D01*
X109156773Y-99996123D01*
X108984430Y-100254052D01*
X108865718Y-100540648D01*
X108805200Y-100844896D01*
X108805200Y-101155104D01*
X108865718Y-101459352D01*
X108984430Y-101745948D01*
X109156773Y-102003877D01*
X109376123Y-102223227D01*
X109446124Y-102270000D01*
X109376123Y-102316773D01*
X109156773Y-102536123D01*
X108984430Y-102794052D01*
X108865718Y-103080648D01*
X108805200Y-103384896D01*
X108805200Y-103695104D01*
X108865718Y-103999352D01*
X108984430Y-104285948D01*
X109156773Y-104543877D01*
X109376123Y-104763227D01*
X109446124Y-104810000D01*
X109376123Y-104856773D01*
X109156773Y-105076123D01*
X108984430Y-105334052D01*
X108865718Y-105620648D01*
X108805200Y-105924896D01*
X108805200Y-106235104D01*
X108865718Y-106539352D01*
X108984430Y-106825948D01*
X109156773Y-107083877D01*
X109376123Y-107303227D01*
X109446124Y-107350000D01*
X109376123Y-107396773D01*
X109156773Y-107616123D01*
X108984430Y-107874052D01*
X108865718Y-108160648D01*
X108805200Y-108464896D01*
X108805200Y-108775104D01*
X108865718Y-109079352D01*
X108984430Y-109365948D01*
X109156773Y-109623877D01*
X109376123Y-109843227D01*
X109446124Y-109890000D01*
X109376123Y-109936773D01*
X109156773Y-110156123D01*
X108984430Y-110414052D01*
X108865718Y-110700648D01*
X108805200Y-111004896D01*
X108805200Y-111315104D01*
X108865718Y-111619352D01*
X108984430Y-111905948D01*
X109156773Y-112163877D01*
X109376123Y-112383227D01*
X109446124Y-112430000D01*
X109376123Y-112476773D01*
X109156773Y-112696123D01*
X108984430Y-112954052D01*
X108865718Y-113240648D01*
X108805200Y-113544896D01*
X108805200Y-113855104D01*
X108865718Y-114159352D01*
X108984430Y-114445948D01*
X109156773Y-114703877D01*
X109376123Y-114923227D01*
X109634052Y-115095570D01*
X109920648Y-115214282D01*
X110224896Y-115274800D01*
X110400930Y-115274800D01*
X110254430Y-115494052D01*
X110135718Y-115780648D01*
X110075200Y-116084896D01*
X110075200Y-116395104D01*
X110135718Y-116699352D01*
X110254430Y-116985948D01*
X110426773Y-117243877D01*
X110646123Y-117463227D01*
X110904052Y-117635570D01*
X111190648Y-117754282D01*
X111494896Y-117814800D01*
X111805104Y-117814800D01*
X112109352Y-117754282D01*
X112395948Y-117635570D01*
X112653877Y-117463227D01*
X112873227Y-117243877D01*
X112920000Y-117173876D01*
X112966773Y-117243877D01*
X113186123Y-117463227D01*
X113444052Y-117635570D01*
X113730648Y-117754282D01*
X114034896Y-117814800D01*
X114345104Y-117814800D01*
X114649352Y-117754282D01*
X114935948Y-117635570D01*
X115193877Y-117463227D01*
X115413227Y-117243877D01*
X115460000Y-117173876D01*
X115506773Y-117243877D01*
X115726123Y-117463227D01*
X115984052Y-117635570D01*
X116270648Y-117754282D01*
X116574896Y-117814800D01*
X116885104Y-117814800D01*
X117189352Y-117754282D01*
X117475948Y-117635570D01*
X117733877Y-117463227D01*
X117953227Y-117243877D01*
X118000000Y-117173876D01*
X118046773Y-117243877D01*
X118266123Y-117463227D01*
X118524052Y-117635570D01*
X118810648Y-117754282D01*
X119114896Y-117814800D01*
X119425104Y-117814800D01*
X119729352Y-117754282D01*
X120015948Y-117635570D01*
X120273877Y-117463227D01*
X120404628Y-117332476D01*
X120897129Y-117332476D01*
X120985623Y-117590723D01*
X121264976Y-117725597D01*
X121565275Y-117803381D01*
X121874977Y-117821084D01*
X122182184Y-117778027D01*
X122475086Y-117675865D01*
X122634377Y-117590723D01*
X122722871Y-117332476D01*
X123437129Y-117332476D01*
X123525623Y-117590723D01*
X123804976Y-117725597D01*
X124105275Y-117803381D01*
X124414977Y-117821084D01*
X124722184Y-117778027D01*
X125015086Y-117675865D01*
X125174377Y-117590723D01*
X125262871Y-117332476D01*
X124350000Y-116419605D01*
X123437129Y-117332476D01*
X122722871Y-117332476D01*
X121810000Y-116419605D01*
X120897129Y-117332476D01*
X120404628Y-117332476D01*
X120493227Y-117243877D01*
X120584495Y-117107286D01*
X120717524Y-117152871D01*
X121630395Y-116240000D01*
X121989605Y-116240000D01*
X122902476Y-117152871D01*
X123080000Y-117092039D01*
X123257524Y-117152871D01*
X124170395Y-116240000D01*
X123257524Y-115327129D01*
X123080000Y-115387961D01*
X122902476Y-115327129D01*
X121989605Y-116240000D01*
X121630395Y-116240000D01*
X120717524Y-115327129D01*
X120584495Y-115372714D01*
X120493227Y-115236123D01*
X120404628Y-115147524D01*
X120897129Y-115147524D01*
X121810000Y-116060395D01*
X122722871Y-115147524D01*
X122634377Y-114889277D01*
X122355024Y-114754403D01*
X122054725Y-114676619D01*
X121745023Y-114658916D01*
X121437816Y-114701973D01*
X121144914Y-114804135D01*
X120985623Y-114889277D01*
X120897129Y-115147524D01*
X120404628Y-115147524D01*
X120273877Y-115016773D01*
X120015948Y-114844430D01*
X119729352Y-114725718D01*
X119425104Y-114665200D01*
X119114896Y-114665200D01*
X118810648Y-114725718D01*
X118524052Y-114844430D01*
X118266123Y-115016773D01*
X118046773Y-115236123D01*
X118000000Y-115306124D01*
X117953227Y-115236123D01*
X117733877Y-115016773D01*
X117475948Y-114844430D01*
X117189352Y-114725718D01*
X116885104Y-114665200D01*
X116574896Y-114665200D01*
X116270648Y-114725718D01*
X115984052Y-114844430D01*
X115726123Y-115016773D01*
X115506773Y-115236123D01*
X115460000Y-115306124D01*
X115413227Y-115236123D01*
X115193877Y-115016773D01*
X114935948Y-114844430D01*
X114649352Y-114725718D01*
X114345104Y-114665200D01*
X114034896Y-114665200D01*
X113730648Y-114725718D01*
X113444052Y-114844430D01*
X113186123Y-115016773D01*
X112966773Y-115236123D01*
X112920000Y-115306124D01*
X112873227Y-115236123D01*
X112653877Y-115016773D01*
X112395948Y-114844430D01*
X112109352Y-114725718D01*
X111805104Y-114665200D01*
X111629070Y-114665200D01*
X111775570Y-114445948D01*
X111894282Y-114159352D01*
X111954800Y-113855104D01*
X111954800Y-113544896D01*
X111894282Y-113240648D01*
X111775570Y-112954052D01*
X111603227Y-112696123D01*
X111383877Y-112476773D01*
X111313876Y-112430000D01*
X111383877Y-112383227D01*
X111603227Y-112163877D01*
X111775570Y-111905948D01*
X111894282Y-111619352D01*
X111954800Y-111315104D01*
X111954800Y-111004896D01*
X111894282Y-110700648D01*
X111775570Y-110414052D01*
X111603227Y-110156123D01*
X111383877Y-109936773D01*
X111313876Y-109890000D01*
X111383877Y-109843227D01*
X111603227Y-109623877D01*
X111775570Y-109365948D01*
X111894282Y-109079352D01*
X111954800Y-108775104D01*
X111954800Y-108464896D01*
X111894282Y-108160648D01*
X111775570Y-107874052D01*
X111603227Y-107616123D01*
X111383877Y-107396773D01*
X111313876Y-107350000D01*
X111383877Y-107303227D01*
X111603227Y-107083877D01*
X111775570Y-106825948D01*
X111894282Y-106539352D01*
X111954800Y-106235104D01*
X111954800Y-105924896D01*
X111907201Y-105685599D01*
X112077773Y-105940877D01*
X112297123Y-106160227D01*
X112555052Y-106332570D01*
X112841648Y-106451282D01*
X113145896Y-106511800D01*
X113456104Y-106511800D01*
X113760352Y-106451282D01*
X114046948Y-106332570D01*
X114304877Y-106160227D01*
X114524227Y-105940877D01*
X114696570Y-105682948D01*
X114815282Y-105396352D01*
X114875800Y-105092104D01*
X114875800Y-104781896D01*
X114815282Y-104477648D01*
X114696570Y-104191052D01*
X114524227Y-103933123D01*
X114304877Y-103713773D01*
X114234876Y-103667000D01*
X114304877Y-103620227D01*
X114524227Y-103400877D01*
X114696570Y-103142948D01*
X114815282Y-102856352D01*
X114875800Y-102552104D01*
X114875800Y-102241896D01*
X114815282Y-101937648D01*
X114696570Y-101651052D01*
X114524227Y-101393123D01*
X114304877Y-101173773D01*
X114046948Y-101001430D01*
X113760352Y-100882718D01*
X113456104Y-100822200D01*
X113145896Y-100822200D01*
X112841648Y-100882718D01*
X112555052Y-101001430D01*
X112297123Y-101173773D01*
X112077773Y-101393123D01*
X111905430Y-101651052D01*
X111786718Y-101937648D01*
X111726200Y-102241896D01*
X111726200Y-102552104D01*
X111773799Y-102791401D01*
X111603227Y-102536123D01*
X111383877Y-102316773D01*
X111313876Y-102270000D01*
X111383877Y-102223227D01*
X111603227Y-102003877D01*
X111775570Y-101745948D01*
X111894282Y-101459352D01*
X111954800Y-101155104D01*
X111954800Y-100844896D01*
X111894282Y-100540648D01*
X111775570Y-100254052D01*
X111603227Y-99996123D01*
X111383877Y-99776773D01*
X111313876Y-99730000D01*
X111383877Y-99683227D01*
X111603227Y-99463877D01*
X111775570Y-99205948D01*
X111894282Y-98919352D01*
X111954800Y-98615104D01*
X111954800Y-98304896D01*
X111894282Y-98000648D01*
X111775570Y-97714052D01*
X111603227Y-97456123D01*
X111383877Y-97236773D01*
X111313876Y-97190000D01*
X111383877Y-97143227D01*
X111603227Y-96923877D01*
X111775570Y-96665948D01*
X111894282Y-96379352D01*
X111954800Y-96075104D01*
X111954800Y-95764896D01*
X111894282Y-95460648D01*
X111775570Y-95174052D01*
X111603227Y-94916123D01*
X111383877Y-94696773D01*
X111313876Y-94650000D01*
X111383877Y-94603227D01*
X111408952Y-94578152D01*
X111425363Y-94566292D01*
X111467543Y-94533004D01*
X111599276Y-94419676D01*
X111626829Y-94394527D01*
X111739896Y-94285067D01*
X111748100Y-94276979D01*
X111842981Y-94181730D01*
X111913851Y-94115368D01*
X111961136Y-94078715D01*
X111996157Y-94058840D01*
X112041668Y-94042312D01*
X112056263Y-94039540D01*
X112017304Y-94133595D01*
X111966000Y-94391514D01*
X111966000Y-94654486D01*
X112017304Y-94912405D01*
X112117939Y-95155359D01*
X112264038Y-95374013D01*
X112449987Y-95559962D01*
X112668641Y-95706061D01*
X112911595Y-95806696D01*
X113169514Y-95858000D01*
X113432486Y-95858000D01*
X113690405Y-95806696D01*
X113933359Y-95706061D01*
X114152013Y-95559962D01*
X114337962Y-95374013D01*
X114484061Y-95155359D01*
X114584696Y-94912405D01*
X114636000Y-94654486D01*
X114636000Y-94391514D01*
X114584696Y-94133595D01*
X114484061Y-93890641D01*
X114337962Y-93671987D01*
X114190624Y-93524649D01*
X114253066Y-93496971D01*
X114270483Y-93490252D01*
X114287157Y-93481859D01*
X114304239Y-93474287D01*
X114320497Y-93465077D01*
X114498843Y-93375305D01*
X114515929Y-93367731D01*
X114532194Y-93358517D01*
X114548862Y-93350127D01*
X114564627Y-93340144D01*
X114738391Y-93241708D01*
X114755073Y-93233311D01*
X114770849Y-93223321D01*
X114787098Y-93214116D01*
X114802366Y-93203363D01*
X114971081Y-93096525D01*
X114987325Y-93087323D01*
X115002592Y-93076571D01*
X115018377Y-93066575D01*
X115033102Y-93055084D01*
X115196360Y-92940104D01*
X115212143Y-92930110D01*
X115226869Y-92918617D01*
X115242131Y-92907869D01*
X115256268Y-92895674D01*
X115413714Y-92772802D01*
X115428971Y-92762057D01*
X115443101Y-92749868D01*
X115457836Y-92738369D01*
X115471369Y-92725484D01*
X115622561Y-92595065D01*
X115637288Y-92583572D01*
X115650822Y-92570686D01*
X115664959Y-92558492D01*
X115677829Y-92544974D01*
X115815704Y-92413708D01*
X115822922Y-92407784D01*
X115842706Y-92388000D01*
X115863006Y-92368673D01*
X115869115Y-92361591D01*
X121100103Y-87130604D01*
X121103673Y-87127600D01*
X121126439Y-87104268D01*
X121149585Y-87081122D01*
X121152557Y-87077501D01*
X121192959Y-87036094D01*
X121199955Y-87029908D01*
X121219014Y-87009392D01*
X121238577Y-86989342D01*
X121244414Y-86982049D01*
X121286965Y-86936243D01*
X121293811Y-86929884D01*
X121312370Y-86908896D01*
X121331427Y-86888381D01*
X121337082Y-86880949D01*
X121378511Y-86834096D01*
X121385191Y-86827578D01*
X121403200Y-86806175D01*
X121421771Y-86785173D01*
X121427250Y-86777592D01*
X121467501Y-86729756D01*
X121474027Y-86723068D01*
X121491530Y-86701198D01*
X121509559Y-86679772D01*
X121514843Y-86672070D01*
X121553915Y-86623252D01*
X121560274Y-86616406D01*
X121577238Y-86594110D01*
X121594732Y-86572252D01*
X121599824Y-86564425D01*
X121637691Y-86514656D01*
X121643878Y-86507659D01*
X121660276Y-86484972D01*
X121677241Y-86462675D01*
X121682144Y-86454717D01*
X121718774Y-86404040D01*
X121724791Y-86396889D01*
X121740634Y-86373797D01*
X121757037Y-86351103D01*
X121761743Y-86343029D01*
X121797121Y-86291462D01*
X121802951Y-86284178D01*
X121818209Y-86260725D01*
X121834073Y-86237602D01*
X121838580Y-86229412D01*
X121872670Y-86177013D01*
X121878331Y-86169573D01*
X121893029Y-86145719D01*
X121908292Y-86122259D01*
X121912593Y-86113969D01*
X121945398Y-86060731D01*
X121950875Y-86053153D01*
X121964984Y-86028945D01*
X121979666Y-86005117D01*
X121983763Y-85996722D01*
X122015252Y-85942693D01*
X122020534Y-85934994D01*
X122034037Y-85910460D01*
X122048142Y-85886259D01*
X122052031Y-85877768D01*
X122082182Y-85822988D01*
X122087276Y-85815158D01*
X122100170Y-85790307D01*
X122113678Y-85765764D01*
X122117361Y-85757173D01*
X122146156Y-85701672D01*
X122151057Y-85693719D01*
X122163340Y-85668553D01*
X122176238Y-85643693D01*
X122179708Y-85635017D01*
X122207130Y-85578831D01*
X122211839Y-85570752D01*
X122223512Y-85545268D01*
X122235785Y-85520121D01*
X122239037Y-85511371D01*
X122265079Y-85454516D01*
X122269584Y-85446331D01*
X122280620Y-85420586D01*
X122292281Y-85395127D01*
X122295320Y-85386293D01*
X122319956Y-85328822D01*
X122324258Y-85320530D01*
X122334659Y-85294522D01*
X122345691Y-85268786D01*
X122348511Y-85259884D01*
X122371734Y-85201814D01*
X122375830Y-85193422D01*
X122385580Y-85167191D01*
X122395986Y-85141171D01*
X122398591Y-85132190D01*
X122420372Y-85073590D01*
X122424264Y-85065094D01*
X122433380Y-85038596D01*
X122443134Y-85012355D01*
X122445513Y-85003327D01*
X122465857Y-84944195D01*
X122469537Y-84935609D01*
X122477992Y-84908920D01*
X122487105Y-84882431D01*
X122489265Y-84873337D01*
X122508149Y-84813728D01*
X122511620Y-84805048D01*
X122519420Y-84778150D01*
X122527876Y-84751458D01*
X122529812Y-84742314D01*
X122547227Y-84682260D01*
X122550480Y-84673507D01*
X122557619Y-84646422D01*
X122565420Y-84619520D01*
X122567129Y-84610340D01*
X122583065Y-84549878D01*
X122586103Y-84541048D01*
X122592572Y-84513808D01*
X122599713Y-84486716D01*
X122601197Y-84477490D01*
X122615643Y-84416663D01*
X122618469Y-84407744D01*
X122624273Y-84380328D01*
X122630738Y-84353105D01*
X122631995Y-84343847D01*
X122644948Y-84282663D01*
X122647548Y-84273696D01*
X122652673Y-84246169D01*
X122658475Y-84218762D01*
X122659505Y-84209478D01*
X122670949Y-84148010D01*
X122673330Y-84138977D01*
X122677780Y-84111320D01*
X122682906Y-84083790D01*
X122683707Y-84074486D01*
X122693642Y-84012747D01*
X122695801Y-84003654D01*
X122699569Y-83975913D01*
X122704018Y-83948261D01*
X122704591Y-83938929D01*
X122713006Y-83876972D01*
X122714941Y-83867831D01*
X122718029Y-83839982D01*
X122721797Y-83812241D01*
X122722141Y-83802912D01*
X122729034Y-83740751D01*
X122730743Y-83731573D01*
X122733143Y-83703699D01*
X122736233Y-83675839D01*
X122736348Y-83666487D01*
X122741711Y-83604201D01*
X122743196Y-83594974D01*
X122744914Y-83567004D01*
X122747316Y-83539116D01*
X122747201Y-83529782D01*
X122751037Y-83467356D01*
X122752293Y-83458107D01*
X122753323Y-83430147D01*
X122755042Y-83402168D01*
X122754698Y-83392825D01*
X122756999Y-83330346D01*
X122758029Y-83321062D01*
X122758373Y-83293061D01*
X122759404Y-83265069D01*
X122758831Y-83255745D01*
X122759542Y-83197894D01*
X122760000Y-83193239D01*
X122760000Y-83160562D01*
X122760401Y-83127908D01*
X122760000Y-83123251D01*
X122760000Y-77927000D01*
X125800000Y-77927000D01*
X125824776Y-77924560D01*
X125848601Y-77917333D01*
X125870557Y-77905597D01*
X125889803Y-77889803D01*
X125905597Y-77870557D01*
X125917333Y-77848601D01*
X125924560Y-77824776D01*
X125927000Y-77800000D01*
X125927000Y-73245843D01*
X126091475Y-73339017D01*
X126260174Y-73445844D01*
X126423424Y-73560818D01*
X126580837Y-73683665D01*
X126732037Y-73814091D01*
X126883408Y-73958209D01*
X127240001Y-74314803D01*
X127240000Y-83915357D01*
X127238717Y-84019860D01*
X127235042Y-84119624D01*
X127228917Y-84219315D01*
X127220354Y-84318747D01*
X127209345Y-84418020D01*
X127195909Y-84516949D01*
X127180043Y-84615557D01*
X127161773Y-84713684D01*
X127141089Y-84811391D01*
X127118020Y-84908527D01*
X127092571Y-85005079D01*
X127064762Y-85100977D01*
X127059048Y-85119016D01*
X127015570Y-85014052D01*
X126843227Y-84756123D01*
X126623877Y-84536773D01*
X126365948Y-84364430D01*
X126079352Y-84245718D01*
X125775104Y-84185200D01*
X125464896Y-84185200D01*
X125160648Y-84245718D01*
X124874052Y-84364430D01*
X124616123Y-84536773D01*
X124396773Y-84756123D01*
X124224430Y-85014052D01*
X124105718Y-85300648D01*
X124045200Y-85604896D01*
X124045200Y-85915104D01*
X124105718Y-86219352D01*
X124224430Y-86505948D01*
X124396773Y-86763877D01*
X124616123Y-86983227D01*
X124686124Y-87030000D01*
X124616123Y-87076773D01*
X124396773Y-87296123D01*
X124224430Y-87554052D01*
X124105718Y-87840648D01*
X124045200Y-88144896D01*
X124045200Y-88455104D01*
X124105718Y-88759352D01*
X124224430Y-89045948D01*
X124396773Y-89303877D01*
X124616123Y-89523227D01*
X124686124Y-89570000D01*
X124616123Y-89616773D01*
X124396773Y-89836123D01*
X124224430Y-90094052D01*
X124105718Y-90380648D01*
X124045200Y-90684896D01*
X124045200Y-90995104D01*
X124105718Y-91299352D01*
X124224430Y-91585948D01*
X124396773Y-91843877D01*
X124616123Y-92063227D01*
X124686124Y-92110000D01*
X124616123Y-92156773D01*
X124396773Y-92376123D01*
X124224430Y-92634052D01*
X124105718Y-92920648D01*
X124045200Y-93224896D01*
X124045200Y-93535104D01*
X124105718Y-93839352D01*
X124224430Y-94125948D01*
X124396773Y-94383877D01*
X124616123Y-94603227D01*
X124686124Y-94650000D01*
X124616123Y-94696773D01*
X124396773Y-94916123D01*
X124224430Y-95174052D01*
X124105718Y-95460648D01*
X124045200Y-95764896D01*
X124045200Y-96075104D01*
X124105718Y-96379352D01*
X124224430Y-96665948D01*
X124396773Y-96923877D01*
X124616123Y-97143227D01*
X124686124Y-97190000D01*
X124616123Y-97236773D01*
X124396773Y-97456123D01*
X124224430Y-97714052D01*
X124105718Y-98000648D01*
X124045200Y-98304896D01*
X124045200Y-98615104D01*
X124105718Y-98919352D01*
X124224430Y-99205948D01*
X124396773Y-99463877D01*
X124616123Y-99683227D01*
X124686124Y-99730000D01*
X124616123Y-99776773D01*
X124396773Y-99996123D01*
X124224430Y-100254052D01*
X124105718Y-100540648D01*
X124045200Y-100844896D01*
X124045200Y-101155104D01*
X124105718Y-101459352D01*
X124224430Y-101745948D01*
X124396773Y-102003877D01*
X124616123Y-102223227D01*
X124686124Y-102270000D01*
X124616123Y-102316773D01*
X124396773Y-102536123D01*
X124224430Y-102794052D01*
X124105718Y-103080648D01*
X124045200Y-103384896D01*
X124045200Y-103695104D01*
X124105718Y-103999352D01*
X124224430Y-104285948D01*
X124396773Y-104543877D01*
X124616123Y-104763227D01*
X124686124Y-104810000D01*
X124616123Y-104856773D01*
X124396773Y-105076123D01*
X124224430Y-105334052D01*
X124105718Y-105620648D01*
X124045200Y-105924896D01*
X124045200Y-106235104D01*
X124105718Y-106539352D01*
X124224430Y-106825948D01*
X124396773Y-107083877D01*
X124616123Y-107303227D01*
X124686124Y-107350000D01*
X124616123Y-107396773D01*
X124396773Y-107616123D01*
X124224430Y-107874052D01*
X124105718Y-108160648D01*
X124045200Y-108464896D01*
X124045200Y-108775104D01*
X124105718Y-109079352D01*
X124224430Y-109365948D01*
X124396773Y-109623877D01*
X124616123Y-109843227D01*
X124686124Y-109890000D01*
X124616123Y-109936773D01*
X124396773Y-110156123D01*
X124224430Y-110414052D01*
X124105718Y-110700648D01*
X124045200Y-111004896D01*
X124045200Y-111315104D01*
X124105718Y-111619352D01*
X124224430Y-111905948D01*
X124396773Y-112163877D01*
X124616123Y-112383227D01*
X124686124Y-112430000D01*
X124616123Y-112476773D01*
X124396773Y-112696123D01*
X124224430Y-112954052D01*
X124105718Y-113240648D01*
X124045200Y-113544896D01*
X124045200Y-113855104D01*
X124105718Y-114159352D01*
X124224430Y-114445948D01*
X124369976Y-114663772D01*
X124285023Y-114658916D01*
X123977816Y-114701973D01*
X123684914Y-114804135D01*
X123525623Y-114889277D01*
X123437129Y-115147524D01*
X124350000Y-116060395D01*
X124364143Y-116046253D01*
X124543748Y-116225858D01*
X124529605Y-116240000D01*
X125442476Y-117152871D01*
X125700723Y-117064377D01*
X125835597Y-116785024D01*
X125913381Y-116484725D01*
X125931084Y-116175023D01*
X125888027Y-115867816D01*
X125785865Y-115574914D01*
X125700723Y-115415623D01*
X125442478Y-115327130D01*
X125494808Y-115274800D01*
X125775104Y-115274800D01*
X126079352Y-115214282D01*
X126365948Y-115095570D01*
X126623877Y-114923227D01*
X126843227Y-114703877D01*
X127015570Y-114445948D01*
X127134282Y-114159352D01*
X127194800Y-113855104D01*
X127194800Y-113544896D01*
X127134282Y-113240648D01*
X127015570Y-112954052D01*
X126843227Y-112696123D01*
X126623877Y-112476773D01*
X126553876Y-112430000D01*
X126623877Y-112383227D01*
X126843227Y-112163877D01*
X127015570Y-111905948D01*
X127134282Y-111619352D01*
X127194800Y-111315104D01*
X127194800Y-111004896D01*
X127134282Y-110700648D01*
X127015570Y-110414052D01*
X126843227Y-110156123D01*
X126623877Y-109936773D01*
X126553876Y-109890000D01*
X126623877Y-109843227D01*
X126843227Y-109623877D01*
X127015570Y-109365948D01*
X127134282Y-109079352D01*
X127194800Y-108775104D01*
X127194800Y-108464896D01*
X127134282Y-108160648D01*
X127015570Y-107874052D01*
X126843227Y-107616123D01*
X126623877Y-107396773D01*
X126553876Y-107350000D01*
X126623877Y-107303227D01*
X126843227Y-107083877D01*
X127015570Y-106825948D01*
X127134282Y-106539352D01*
X127194800Y-106235104D01*
X127194800Y-106009899D01*
X147936000Y-106009899D01*
X147936000Y-106310101D01*
X147994566Y-106604534D01*
X148109449Y-106881885D01*
X148276232Y-107131493D01*
X148488507Y-107343768D01*
X148738115Y-107510551D01*
X149015466Y-107625434D01*
X149309899Y-107684000D01*
X149610101Y-107684000D01*
X149904534Y-107625434D01*
X150181885Y-107510551D01*
X150431493Y-107343768D01*
X150643768Y-107131493D01*
X150730000Y-107002438D01*
X150816232Y-107131493D01*
X151028507Y-107343768D01*
X151278115Y-107510551D01*
X151555466Y-107625434D01*
X151849899Y-107684000D01*
X152150101Y-107684000D01*
X152444534Y-107625434D01*
X152721885Y-107510551D01*
X152971493Y-107343768D01*
X153183768Y-107131493D01*
X153270000Y-107002438D01*
X153356232Y-107131493D01*
X153568507Y-107343768D01*
X153818115Y-107510551D01*
X154095466Y-107625434D01*
X154389899Y-107684000D01*
X154690101Y-107684000D01*
X154984534Y-107625434D01*
X155261885Y-107510551D01*
X155511493Y-107343768D01*
X155723768Y-107131493D01*
X155890551Y-106881885D01*
X156005434Y-106604534D01*
X156064000Y-106310101D01*
X156064000Y-106009899D01*
X156005434Y-105715466D01*
X155890551Y-105438115D01*
X155723768Y-105188507D01*
X155511493Y-104976232D01*
X155261885Y-104809449D01*
X154984534Y-104694566D01*
X154690101Y-104636000D01*
X154389899Y-104636000D01*
X154095466Y-104694566D01*
X153818115Y-104809449D01*
X153568507Y-104976232D01*
X153356232Y-105188507D01*
X153270000Y-105317562D01*
X153183768Y-105188507D01*
X152971493Y-104976232D01*
X152721885Y-104809449D01*
X152444534Y-104694566D01*
X152150101Y-104636000D01*
X151849899Y-104636000D01*
X151555466Y-104694566D01*
X151278115Y-104809449D01*
X151028507Y-104976232D01*
X150816232Y-105188507D01*
X150730000Y-105317562D01*
X150643768Y-105188507D01*
X150431493Y-104976232D01*
X150181885Y-104809449D01*
X149904534Y-104694566D01*
X149610101Y-104636000D01*
X149309899Y-104636000D01*
X149015466Y-104694566D01*
X148738115Y-104809449D01*
X148488507Y-104976232D01*
X148276232Y-105188507D01*
X148109449Y-105438115D01*
X147994566Y-105715466D01*
X147936000Y-106009899D01*
X127194800Y-106009899D01*
X127194800Y-105924896D01*
X127134282Y-105620648D01*
X127015570Y-105334052D01*
X126843227Y-105076123D01*
X126623877Y-104856773D01*
X126553876Y-104810000D01*
X126623877Y-104763227D01*
X126843227Y-104543877D01*
X127015570Y-104285948D01*
X127134282Y-103999352D01*
X127194800Y-103695104D01*
X127194800Y-103384896D01*
X127134282Y-103080648D01*
X127015570Y-102794052D01*
X126843227Y-102536123D01*
X126799486Y-102492382D01*
X142602000Y-102492382D01*
X142602000Y-102842618D01*
X142670328Y-103186123D01*
X142804357Y-103509699D01*
X142998937Y-103800909D01*
X143246591Y-104048563D01*
X143537801Y-104243143D01*
X143861377Y-104377172D01*
X144204882Y-104445500D01*
X144555118Y-104445500D01*
X144898623Y-104377172D01*
X145222199Y-104243143D01*
X145513409Y-104048563D01*
X145761063Y-103800909D01*
X145955643Y-103509699D01*
X146089672Y-103186123D01*
X146158000Y-102842618D01*
X146158000Y-102492382D01*
X157842000Y-102492382D01*
X157842000Y-102842618D01*
X157910328Y-103186123D01*
X158044357Y-103509699D01*
X158238937Y-103800909D01*
X158486591Y-104048563D01*
X158777801Y-104243143D01*
X159101377Y-104377172D01*
X159444882Y-104445500D01*
X159795118Y-104445500D01*
X160138623Y-104377172D01*
X160462199Y-104243143D01*
X160753409Y-104048563D01*
X161001063Y-103800909D01*
X161195643Y-103509699D01*
X161329672Y-103186123D01*
X161398000Y-102842618D01*
X161398000Y-102492382D01*
X161329672Y-102148877D01*
X161195643Y-101825301D01*
X161001063Y-101534091D01*
X160753409Y-101286437D01*
X160462199Y-101091857D01*
X160138623Y-100957828D01*
X159795118Y-100889500D01*
X159444882Y-100889500D01*
X159101377Y-100957828D01*
X158777801Y-101091857D01*
X158486591Y-101286437D01*
X158238937Y-101534091D01*
X158044357Y-101825301D01*
X157910328Y-102148877D01*
X157842000Y-102492382D01*
X146158000Y-102492382D01*
X146089672Y-102148877D01*
X145955643Y-101825301D01*
X145761063Y-101534091D01*
X145513409Y-101286437D01*
X145222199Y-101091857D01*
X144898623Y-100957828D01*
X144555118Y-100889500D01*
X144204882Y-100889500D01*
X143861377Y-100957828D01*
X143537801Y-101091857D01*
X143246591Y-101286437D01*
X142998937Y-101534091D01*
X142804357Y-101825301D01*
X142670328Y-102148877D01*
X142602000Y-102492382D01*
X126799486Y-102492382D01*
X126623877Y-102316773D01*
X126553876Y-102270000D01*
X126623877Y-102223227D01*
X126843227Y-102003877D01*
X127015570Y-101745948D01*
X127134282Y-101459352D01*
X127194800Y-101155104D01*
X127194800Y-100844896D01*
X127134282Y-100540648D01*
X127015570Y-100254052D01*
X126843227Y-99996123D01*
X126623877Y-99776773D01*
X126553876Y-99730000D01*
X126623877Y-99683227D01*
X126710873Y-99596231D01*
X140963374Y-99596231D01*
X141045727Y-99849289D01*
X141316418Y-99979086D01*
X141607230Y-100053580D01*
X141906988Y-100069908D01*
X142204171Y-100027443D01*
X142487359Y-99927816D01*
X142634273Y-99849289D01*
X142716626Y-99596231D01*
X141840000Y-98719605D01*
X140963374Y-99596231D01*
X126710873Y-99596231D01*
X126843227Y-99463877D01*
X127015570Y-99205948D01*
X127134282Y-98919352D01*
X127194800Y-98615104D01*
X127194800Y-98606988D01*
X140310092Y-98606988D01*
X140352557Y-98904171D01*
X140452184Y-99187359D01*
X140530711Y-99334273D01*
X140783769Y-99416626D01*
X141660395Y-98540000D01*
X142019605Y-98540000D01*
X142896231Y-99416626D01*
X143149289Y-99334273D01*
X143279086Y-99063582D01*
X143353580Y-98772770D01*
X143369908Y-98473012D01*
X143327443Y-98175829D01*
X143227816Y-97892641D01*
X143149289Y-97745727D01*
X142896231Y-97663374D01*
X142019605Y-98540000D01*
X141660395Y-98540000D01*
X140783769Y-97663374D01*
X140530711Y-97745727D01*
X140400914Y-98016418D01*
X140326420Y-98307230D01*
X140310092Y-98606988D01*
X127194800Y-98606988D01*
X127194800Y-98304896D01*
X127134282Y-98000648D01*
X127015570Y-97714052D01*
X126843227Y-97456123D01*
X126623877Y-97236773D01*
X126553876Y-97190000D01*
X126623877Y-97143227D01*
X126843227Y-96923877D01*
X127015570Y-96665948D01*
X127134282Y-96379352D01*
X127194800Y-96075104D01*
X127194800Y-95764896D01*
X127134282Y-95460648D01*
X127015570Y-95174052D01*
X126843227Y-94916123D01*
X126623877Y-94696773D01*
X126553876Y-94650000D01*
X126623877Y-94603227D01*
X126843227Y-94383877D01*
X127015570Y-94125948D01*
X127134282Y-93839352D01*
X127194800Y-93535104D01*
X127194800Y-93309899D01*
X140316000Y-93309899D01*
X140316000Y-93610101D01*
X140374566Y-93904534D01*
X140489449Y-94181885D01*
X140656232Y-94431493D01*
X140868507Y-94643768D01*
X140997562Y-94730000D01*
X140868507Y-94816232D01*
X140656232Y-95028507D01*
X140489449Y-95278115D01*
X140374566Y-95555466D01*
X140316000Y-95849899D01*
X140316000Y-96150101D01*
X140374566Y-96444534D01*
X140489449Y-96721885D01*
X140656232Y-96971493D01*
X140868507Y-97183768D01*
X141026622Y-97289417D01*
X140963374Y-97483769D01*
X141840000Y-98360395D01*
X142716626Y-97483769D01*
X142653378Y-97289417D01*
X142811493Y-97183768D01*
X143023768Y-96971493D01*
X143190551Y-96721885D01*
X143305434Y-96444534D01*
X143364000Y-96150101D01*
X143364000Y-95849899D01*
X143305434Y-95555466D01*
X143190551Y-95278115D01*
X143023768Y-95028507D01*
X142811493Y-94816232D01*
X142682438Y-94730000D01*
X142811493Y-94643768D01*
X143023768Y-94431493D01*
X143190551Y-94181885D01*
X143305434Y-93904534D01*
X143364000Y-93610101D01*
X143364000Y-93309899D01*
X143305434Y-93015466D01*
X143190551Y-92738115D01*
X143023768Y-92488507D01*
X142811493Y-92276232D01*
X142561885Y-92109449D01*
X142284534Y-91994566D01*
X141990101Y-91936000D01*
X141689899Y-91936000D01*
X141395466Y-91994566D01*
X141118115Y-92109449D01*
X140868507Y-92276232D01*
X140656232Y-92488507D01*
X140489449Y-92738115D01*
X140374566Y-93015466D01*
X140316000Y-93309899D01*
X127194800Y-93309899D01*
X127194800Y-93224896D01*
X127134282Y-92920648D01*
X127015570Y-92634052D01*
X126843227Y-92376123D01*
X126623877Y-92156773D01*
X126553876Y-92110000D01*
X126623877Y-92063227D01*
X126843227Y-91843877D01*
X127015570Y-91585948D01*
X127134282Y-91299352D01*
X127153443Y-91203021D01*
X127173671Y-91133975D01*
X127187866Y-91075320D01*
X127221202Y-90901904D01*
X127228316Y-90855832D01*
X127246800Y-90697868D01*
X127248996Y-90675760D01*
X127260524Y-90534611D01*
X127271429Y-90424576D01*
X127284301Y-90351483D01*
X127300507Y-90299189D01*
X127327505Y-90243832D01*
X127381723Y-90165336D01*
X127491432Y-90043369D01*
X128100103Y-89434698D01*
X128103673Y-89431694D01*
X128126439Y-89408362D01*
X128149585Y-89385216D01*
X128152557Y-89381595D01*
X128192959Y-89340188D01*
X128199955Y-89334002D01*
X128219014Y-89313486D01*
X128238577Y-89293436D01*
X128244414Y-89286143D01*
X128286965Y-89240337D01*
X128293811Y-89233978D01*
X128312370Y-89212990D01*
X128331427Y-89192475D01*
X128337082Y-89185043D01*
X128361540Y-89157382D01*
X142602000Y-89157382D01*
X142602000Y-89507618D01*
X142670328Y-89851123D01*
X142804357Y-90174699D01*
X142998937Y-90465909D01*
X143246591Y-90713563D01*
X143537801Y-90908143D01*
X143861377Y-91042172D01*
X144204882Y-91110500D01*
X144555118Y-91110500D01*
X144898623Y-91042172D01*
X145222199Y-90908143D01*
X145513409Y-90713563D01*
X145761063Y-90465909D01*
X145955643Y-90174699D01*
X146089672Y-89851123D01*
X146158000Y-89507618D01*
X146158000Y-89157382D01*
X146089672Y-88813877D01*
X145955643Y-88490301D01*
X145781649Y-88229899D01*
X147301000Y-88229899D01*
X147301000Y-88530101D01*
X147359566Y-88824534D01*
X147474449Y-89101885D01*
X147641232Y-89351493D01*
X147853507Y-89563768D01*
X148103115Y-89730551D01*
X148380466Y-89845434D01*
X148674899Y-89904000D01*
X148975101Y-89904000D01*
X149269534Y-89845434D01*
X149546885Y-89730551D01*
X149796493Y-89563768D01*
X150008768Y-89351493D01*
X150175551Y-89101885D01*
X150290434Y-88824534D01*
X150349000Y-88530101D01*
X150349000Y-88229899D01*
X153651000Y-88229899D01*
X153651000Y-88530101D01*
X153709566Y-88824534D01*
X153824449Y-89101885D01*
X153991232Y-89351493D01*
X154203507Y-89563768D01*
X154453115Y-89730551D01*
X154730466Y-89845434D01*
X155024899Y-89904000D01*
X155325101Y-89904000D01*
X155619534Y-89845434D01*
X155896885Y-89730551D01*
X156146493Y-89563768D01*
X156358768Y-89351493D01*
X156488469Y-89157382D01*
X157842000Y-89157382D01*
X157842000Y-89507618D01*
X157910328Y-89851123D01*
X158044357Y-90174699D01*
X158238937Y-90465909D01*
X158486591Y-90713563D01*
X158777801Y-90908143D01*
X159101377Y-91042172D01*
X159444882Y-91110500D01*
X159795118Y-91110500D01*
X160138623Y-91042172D01*
X160462199Y-90908143D01*
X160753409Y-90713563D01*
X161001063Y-90465909D01*
X161195643Y-90174699D01*
X161329672Y-89851123D01*
X161398000Y-89507618D01*
X161398000Y-89157382D01*
X161329672Y-88813877D01*
X161195643Y-88490301D01*
X161001063Y-88199091D01*
X160753409Y-87951437D01*
X160462199Y-87756857D01*
X160138623Y-87622828D01*
X159795118Y-87554500D01*
X159444882Y-87554500D01*
X159101377Y-87622828D01*
X158777801Y-87756857D01*
X158486591Y-87951437D01*
X158238937Y-88199091D01*
X158044357Y-88490301D01*
X157910328Y-88813877D01*
X157842000Y-89157382D01*
X156488469Y-89157382D01*
X156525551Y-89101885D01*
X156640434Y-88824534D01*
X156699000Y-88530101D01*
X156699000Y-88229899D01*
X156640434Y-87935466D01*
X156525551Y-87658115D01*
X156358768Y-87408507D01*
X156146493Y-87196232D01*
X155896885Y-87029449D01*
X155619534Y-86914566D01*
X155325101Y-86856000D01*
X155024899Y-86856000D01*
X154730466Y-86914566D01*
X154453115Y-87029449D01*
X154203507Y-87196232D01*
X153991232Y-87408507D01*
X153824449Y-87658115D01*
X153709566Y-87935466D01*
X153651000Y-88229899D01*
X150349000Y-88229899D01*
X150290434Y-87935466D01*
X150175551Y-87658115D01*
X150008768Y-87408507D01*
X149796493Y-87196232D01*
X149546885Y-87029449D01*
X149269534Y-86914566D01*
X148975101Y-86856000D01*
X148674899Y-86856000D01*
X148380466Y-86914566D01*
X148103115Y-87029449D01*
X147853507Y-87196232D01*
X147641232Y-87408507D01*
X147474449Y-87658115D01*
X147359566Y-87935466D01*
X147301000Y-88229899D01*
X145781649Y-88229899D01*
X145761063Y-88199091D01*
X145513409Y-87951437D01*
X145222199Y-87756857D01*
X144898623Y-87622828D01*
X144555118Y-87554500D01*
X144204882Y-87554500D01*
X143861377Y-87622828D01*
X143537801Y-87756857D01*
X143246591Y-87951437D01*
X142998937Y-88199091D01*
X142804357Y-88490301D01*
X142670328Y-88813877D01*
X142602000Y-89157382D01*
X128361540Y-89157382D01*
X128378511Y-89138190D01*
X128385191Y-89131672D01*
X128403200Y-89110269D01*
X128421771Y-89089267D01*
X128427250Y-89081686D01*
X128467501Y-89033850D01*
X128474027Y-89027162D01*
X128491530Y-89005292D01*
X128509559Y-88983866D01*
X128514843Y-88976164D01*
X128553915Y-88927346D01*
X128560274Y-88920500D01*
X128577238Y-88898204D01*
X128594732Y-88876346D01*
X128599824Y-88868519D01*
X128637691Y-88818750D01*
X128643878Y-88811753D01*
X128660276Y-88789066D01*
X128677241Y-88766769D01*
X128682144Y-88758811D01*
X128718774Y-88708134D01*
X128724791Y-88700983D01*
X128740634Y-88677891D01*
X128757037Y-88655197D01*
X128761743Y-88647123D01*
X128797121Y-88595556D01*
X128802951Y-88588272D01*
X128818209Y-88564819D01*
X128834073Y-88541696D01*
X128838580Y-88533506D01*
X128872670Y-88481107D01*
X128878331Y-88473667D01*
X128893029Y-88449813D01*
X128908292Y-88426353D01*
X128912593Y-88418063D01*
X128945398Y-88364825D01*
X128950875Y-88357247D01*
X128964984Y-88333039D01*
X128979666Y-88309211D01*
X128983763Y-88300816D01*
X129015252Y-88246787D01*
X129020534Y-88239088D01*
X129034037Y-88214554D01*
X129048142Y-88190353D01*
X129052031Y-88181862D01*
X129082182Y-88127082D01*
X129087276Y-88119252D01*
X129100170Y-88094401D01*
X129113678Y-88069858D01*
X129117361Y-88061267D01*
X129146156Y-88005766D01*
X129151057Y-87997813D01*
X129163340Y-87972647D01*
X129176238Y-87947787D01*
X129179708Y-87939111D01*
X129207130Y-87882925D01*
X129211839Y-87874846D01*
X129223512Y-87849362D01*
X129235785Y-87824215D01*
X129239037Y-87815465D01*
X129265079Y-87758610D01*
X129269584Y-87750425D01*
X129280620Y-87724680D01*
X129292281Y-87699221D01*
X129295320Y-87690387D01*
X129319956Y-87632916D01*
X129324258Y-87624624D01*
X129334659Y-87598616D01*
X129345691Y-87572880D01*
X129348511Y-87563978D01*
X129371734Y-87505908D01*
X129375830Y-87497516D01*
X129385580Y-87471285D01*
X129395986Y-87445265D01*
X129398591Y-87436284D01*
X129420372Y-87377684D01*
X129424264Y-87369188D01*
X129433380Y-87342690D01*
X129443134Y-87316449D01*
X129445513Y-87307421D01*
X129465857Y-87248289D01*
X129469537Y-87239703D01*
X129477992Y-87213014D01*
X129487105Y-87186525D01*
X129489265Y-87177431D01*
X129508149Y-87117822D01*
X129511620Y-87109142D01*
X129519420Y-87082244D01*
X129527876Y-87055552D01*
X129529812Y-87046408D01*
X129547227Y-86986354D01*
X129550480Y-86977601D01*
X129557619Y-86950516D01*
X129565420Y-86923614D01*
X129567129Y-86914434D01*
X129583065Y-86853972D01*
X129586103Y-86845142D01*
X129592572Y-86817902D01*
X129599713Y-86790810D01*
X129601197Y-86781584D01*
X129615643Y-86720757D01*
X129618469Y-86711838D01*
X129624273Y-86684422D01*
X129630738Y-86657199D01*
X129631995Y-86647941D01*
X129644948Y-86586757D01*
X129647548Y-86577790D01*
X129652673Y-86550263D01*
X129658475Y-86522856D01*
X129659505Y-86513572D01*
X129670949Y-86452104D01*
X129673330Y-86443071D01*
X129677780Y-86415414D01*
X129682906Y-86387884D01*
X129683707Y-86378580D01*
X129693642Y-86316841D01*
X129695801Y-86307748D01*
X129699569Y-86280007D01*
X129704018Y-86252355D01*
X129704591Y-86243023D01*
X129713006Y-86181066D01*
X129714941Y-86171925D01*
X129718029Y-86144076D01*
X129721797Y-86116335D01*
X129722141Y-86107006D01*
X129729034Y-86044845D01*
X129730743Y-86035667D01*
X129733143Y-86007793D01*
X129736233Y-85979933D01*
X129736348Y-85970581D01*
X129741711Y-85908295D01*
X129743196Y-85899068D01*
X129744914Y-85871098D01*
X129747316Y-85843210D01*
X129747201Y-85833876D01*
X129751037Y-85771450D01*
X129752293Y-85762201D01*
X129753323Y-85734241D01*
X129755042Y-85706262D01*
X129754698Y-85696919D01*
X129756999Y-85634440D01*
X129758029Y-85625156D01*
X129758373Y-85597155D01*
X129759404Y-85569163D01*
X129758831Y-85559839D01*
X129759542Y-85501988D01*
X129760000Y-85497333D01*
X129760000Y-85464656D01*
X129760401Y-85432002D01*
X129760000Y-85427345D01*
X129760000Y-83149899D01*
X147301000Y-83149899D01*
X147301000Y-83450101D01*
X147359566Y-83744534D01*
X147474449Y-84021885D01*
X147641232Y-84271493D01*
X147853507Y-84483768D01*
X148103115Y-84650551D01*
X148380466Y-84765434D01*
X148674899Y-84824000D01*
X148975101Y-84824000D01*
X149269534Y-84765434D01*
X149546885Y-84650551D01*
X149796493Y-84483768D01*
X150008768Y-84271493D01*
X150175551Y-84021885D01*
X150290434Y-83744534D01*
X150349000Y-83450101D01*
X150349000Y-83149899D01*
X153651000Y-83149899D01*
X153651000Y-83450101D01*
X153709566Y-83744534D01*
X153824449Y-84021885D01*
X153991232Y-84271493D01*
X154203507Y-84483768D01*
X154453115Y-84650551D01*
X154730466Y-84765434D01*
X155024899Y-84824000D01*
X155325101Y-84824000D01*
X155619534Y-84765434D01*
X155896885Y-84650551D01*
X156146493Y-84483768D01*
X156358768Y-84271493D01*
X156525551Y-84021885D01*
X156640434Y-83744534D01*
X156699000Y-83450101D01*
X156699000Y-83149899D01*
X156640434Y-82855466D01*
X156525551Y-82578115D01*
X156358768Y-82328507D01*
X156146493Y-82116232D01*
X155896885Y-81949449D01*
X155619534Y-81834566D01*
X155325101Y-81776000D01*
X155024899Y-81776000D01*
X154730466Y-81834566D01*
X154453115Y-81949449D01*
X154203507Y-82116232D01*
X153991232Y-82328507D01*
X153824449Y-82578115D01*
X153709566Y-82855466D01*
X153651000Y-83149899D01*
X150349000Y-83149899D01*
X150290434Y-82855466D01*
X150175551Y-82578115D01*
X150008768Y-82328507D01*
X149796493Y-82116232D01*
X149546885Y-81949449D01*
X149269534Y-81834566D01*
X148975101Y-81776000D01*
X148674899Y-81776000D01*
X148380466Y-81834566D01*
X148103115Y-81949449D01*
X147853507Y-82116232D01*
X147641232Y-82328507D01*
X147474449Y-82578115D01*
X147359566Y-82855466D01*
X147301000Y-83149899D01*
X129760000Y-83149899D01*
X129760000Y-82103584D01*
X139766958Y-82103584D01*
X139769882Y-82133272D01*
X139777574Y-82156951D01*
X139789737Y-82178674D01*
X139805904Y-82197607D01*
X139825454Y-82213022D01*
X139847636Y-82224326D01*
X139871597Y-82231086D01*
X139896416Y-82233042D01*
X140285867Y-82225428D01*
X140317317Y-82220835D01*
X140340541Y-82211864D01*
X140361568Y-82198534D01*
X140379591Y-82181358D01*
X140393916Y-82160996D01*
X140403994Y-82138231D01*
X140421528Y-82085068D01*
X140422433Y-82082211D01*
X140436804Y-82034915D01*
X140436969Y-82034369D01*
X140449356Y-81992933D01*
X140460699Y-81957806D01*
X140472154Y-81927709D01*
X140485140Y-81900128D01*
X140501610Y-81872004D01*
X140523959Y-81840616D01*
X140554582Y-81804015D01*
X140597662Y-81758661D01*
X140611177Y-81741754D01*
X140622913Y-81719798D01*
X140630140Y-81695973D01*
X140632580Y-81671197D01*
X140630140Y-81646421D01*
X140622913Y-81622596D01*
X140611177Y-81600640D01*
X140595383Y-81581394D01*
X140418606Y-81404617D01*
X140402055Y-81390674D01*
X140380407Y-81378377D01*
X140356777Y-81370539D01*
X140332072Y-81367462D01*
X140307240Y-81369264D01*
X140283238Y-81375875D01*
X140260987Y-81387042D01*
X140241341Y-81402336D01*
X140195984Y-81445417D01*
X140159383Y-81476040D01*
X140127995Y-81498389D01*
X140099871Y-81514859D01*
X140072290Y-81527845D01*
X140042193Y-81539300D01*
X140007066Y-81550643D01*
X139965630Y-81563030D01*
X139965084Y-81563195D01*
X139917788Y-81577566D01*
X139914928Y-81578471D01*
X139861766Y-81596006D01*
X139833068Y-81609659D01*
X139813518Y-81625074D01*
X139797351Y-81644007D01*
X139785188Y-81665730D01*
X139777496Y-81689409D01*
X139774572Y-81714133D01*
X139766958Y-82103584D01*
X129760000Y-82103584D01*
X129760000Y-75200000D01*
X130561928Y-75200000D01*
X130561928Y-76800000D01*
X130574188Y-76924482D01*
X130610498Y-77044180D01*
X130669463Y-77154494D01*
X130748815Y-77251185D01*
X130845506Y-77330537D01*
X130955820Y-77389502D01*
X131075518Y-77425812D01*
X131200000Y-77438072D01*
X132800000Y-77438072D01*
X132924482Y-77425812D01*
X133044180Y-77389502D01*
X133154494Y-77330537D01*
X133251185Y-77251185D01*
X133330537Y-77154494D01*
X133389502Y-77044180D01*
X133425812Y-76924482D01*
X133438072Y-76800000D01*
X133438072Y-75200000D01*
X133425812Y-75075518D01*
X133389502Y-74955820D01*
X133330537Y-74845506D01*
X133251185Y-74748815D01*
X133154494Y-74669463D01*
X133044180Y-74610498D01*
X132924482Y-74574188D01*
X132800000Y-74561928D01*
X132792785Y-74561928D01*
X132813097Y-74492702D01*
X132000000Y-73679605D01*
X131186903Y-74492702D01*
X131207215Y-74561928D01*
X131200000Y-74561928D01*
X131075518Y-74574188D01*
X130955820Y-74610498D01*
X130845506Y-74669463D01*
X130748815Y-74748815D01*
X130669463Y-74845506D01*
X130610498Y-74955820D01*
X130574188Y-75075518D01*
X130561928Y-75200000D01*
X129760000Y-75200000D01*
X129760000Y-75032655D01*
X129760401Y-75027998D01*
X129760000Y-74995344D01*
X129760000Y-74962667D01*
X129759542Y-74958012D01*
X129758831Y-74900160D01*
X129759404Y-74890836D01*
X129758373Y-74862844D01*
X129758029Y-74834843D01*
X129756999Y-74825559D01*
X129754698Y-74763080D01*
X129755042Y-74753737D01*
X129753323Y-74725758D01*
X129752293Y-74697798D01*
X129751037Y-74688549D01*
X129747201Y-74626123D01*
X129747316Y-74616789D01*
X129744914Y-74588901D01*
X129743196Y-74560931D01*
X129741711Y-74551704D01*
X129736348Y-74489418D01*
X129736233Y-74480066D01*
X129733143Y-74452205D01*
X129730743Y-74424332D01*
X129729034Y-74415154D01*
X129722141Y-74352993D01*
X129721797Y-74343662D01*
X129718029Y-74315917D01*
X129714941Y-74288073D01*
X129713006Y-74278934D01*
X129704591Y-74216972D01*
X129704018Y-74207645D01*
X129699570Y-74180004D01*
X129695801Y-74152250D01*
X129693641Y-74143154D01*
X129683708Y-74081422D01*
X129682906Y-74072113D01*
X129677778Y-74044570D01*
X129673330Y-74016928D01*
X129670950Y-74007899D01*
X129659504Y-73946424D01*
X129658475Y-73937143D01*
X129652675Y-73909745D01*
X129647548Y-73882208D01*
X129644947Y-73873239D01*
X129631995Y-73812056D01*
X129630738Y-73802801D01*
X129624273Y-73775579D01*
X129618469Y-73748161D01*
X129615644Y-73739244D01*
X129601197Y-73678409D01*
X129599714Y-73669194D01*
X129592581Y-73642129D01*
X129586104Y-73614857D01*
X129583063Y-73606019D01*
X129573705Y-73570512D01*
X130559783Y-73570512D01*
X130601213Y-73850130D01*
X130696397Y-74116292D01*
X130763329Y-74241514D01*
X131007298Y-74313097D01*
X131820395Y-73500000D01*
X132179605Y-73500000D01*
X132992702Y-74313097D01*
X133236671Y-74241514D01*
X133357571Y-73986004D01*
X133426300Y-73711816D01*
X133440217Y-73429488D01*
X133398787Y-73149870D01*
X133303603Y-72883708D01*
X133236671Y-72758486D01*
X132992702Y-72686903D01*
X132179605Y-73500000D01*
X131820395Y-73500000D01*
X131007298Y-72686903D01*
X130763329Y-72758486D01*
X130642429Y-73013996D01*
X130573700Y-73288184D01*
X130559783Y-73570512D01*
X129573705Y-73570512D01*
X129567129Y-73545562D01*
X129565419Y-73536376D01*
X129557621Y-73509487D01*
X129550483Y-73482403D01*
X129547226Y-73473641D01*
X129529811Y-73413590D01*
X129527876Y-73404447D01*
X129519416Y-73377742D01*
X129511617Y-73350849D01*
X129508148Y-73342175D01*
X129489267Y-73282574D01*
X129487106Y-73273476D01*
X129477988Y-73246972D01*
X129469537Y-73220296D01*
X129465859Y-73211715D01*
X129445513Y-73152574D01*
X129443134Y-73143549D01*
X129433384Y-73117318D01*
X129424265Y-73090812D01*
X129420372Y-73082313D01*
X129398591Y-73023714D01*
X129395986Y-73014733D01*
X129385580Y-72988713D01*
X129375830Y-72962482D01*
X129371734Y-72954090D01*
X129348511Y-72896020D01*
X129345691Y-72887118D01*
X129334659Y-72861382D01*
X129324258Y-72835374D01*
X129319956Y-72827082D01*
X129295320Y-72769612D01*
X129292280Y-72760774D01*
X129280618Y-72735314D01*
X129269584Y-72709573D01*
X129265077Y-72701385D01*
X129239039Y-72644539D01*
X129235785Y-72635784D01*
X129223499Y-72610610D01*
X129211837Y-72585151D01*
X129207135Y-72577083D01*
X129179711Y-72520895D01*
X129176242Y-72512220D01*
X129173689Y-72507298D01*
X131186903Y-72507298D01*
X132000000Y-73320395D01*
X132634963Y-72685432D01*
X142363484Y-72685432D01*
X142368076Y-72709901D01*
X142377353Y-72733004D01*
X142413756Y-72802923D01*
X142416935Y-72808661D01*
X142452099Y-72868445D01*
X142454188Y-72871872D01*
X142487504Y-72924626D01*
X142487522Y-72924655D01*
X142517056Y-72971392D01*
X142541131Y-73012989D01*
X142560216Y-73052809D01*
X142575362Y-73095378D01*
X142587127Y-73146021D01*
X142595016Y-73209661D01*
X142598083Y-73294584D01*
X142600440Y-73314776D01*
X142607667Y-73338601D01*
X142619403Y-73360557D01*
X142635197Y-73379803D01*
X142654443Y-73395597D01*
X142676399Y-73407333D01*
X142700224Y-73414560D01*
X142725000Y-73417000D01*
X142975000Y-73417000D01*
X142995266Y-73415373D01*
X143019336Y-73409010D01*
X143041702Y-73398074D01*
X143061504Y-73382984D01*
X143077982Y-73364321D01*
X143090503Y-73342803D01*
X143098585Y-73319254D01*
X143101917Y-73294582D01*
X143104983Y-73209661D01*
X143112872Y-73146021D01*
X143124637Y-73095378D01*
X143139783Y-73052809D01*
X143158868Y-73012989D01*
X143182943Y-72971392D01*
X143212477Y-72924655D01*
X143212495Y-72924626D01*
X143245811Y-72871872D01*
X143247900Y-72868445D01*
X143283064Y-72808661D01*
X143286242Y-72802924D01*
X143322646Y-72733005D01*
X143334052Y-72701561D01*
X143336976Y-72676837D01*
X143335020Y-72652018D01*
X143328260Y-72628057D01*
X143316955Y-72605875D01*
X143301541Y-72586325D01*
X142941541Y-72211970D01*
X142918480Y-72193045D01*
X142896298Y-72181740D01*
X142872337Y-72174980D01*
X142847518Y-72173024D01*
X142822794Y-72175948D01*
X142799115Y-72183640D01*
X142777392Y-72195803D01*
X142758459Y-72211970D01*
X142398459Y-72586325D01*
X142378652Y-72613276D01*
X142368876Y-72636173D01*
X142363754Y-72660537D01*
X142363484Y-72685432D01*
X132634963Y-72685432D01*
X132813097Y-72507298D01*
X132741514Y-72263329D01*
X132486004Y-72142429D01*
X132211816Y-72073700D01*
X131929488Y-72059783D01*
X131649870Y-72101213D01*
X131383708Y-72196397D01*
X131258486Y-72263329D01*
X131186903Y-72507298D01*
X129173689Y-72507298D01*
X129163338Y-72487347D01*
X129151057Y-72462186D01*
X129146160Y-72454238D01*
X129117363Y-72398735D01*
X129113679Y-72390140D01*
X129100172Y-72365599D01*
X129087281Y-72340753D01*
X129082185Y-72332920D01*
X129052028Y-72278128D01*
X129048139Y-72269638D01*
X129034043Y-72245453D01*
X129020535Y-72220910D01*
X129015248Y-72213203D01*
X128983766Y-72159188D01*
X128979668Y-72150791D01*
X128964968Y-72126934D01*
X128950870Y-72102745D01*
X128945401Y-72095179D01*
X128912591Y-72041931D01*
X128908292Y-72033645D01*
X128893041Y-72010202D01*
X128878333Y-71986333D01*
X128872667Y-71978886D01*
X128838580Y-71926492D01*
X128834073Y-71918302D01*
X128818209Y-71895179D01*
X128802951Y-71871726D01*
X128797121Y-71864442D01*
X128761743Y-71812875D01*
X128757037Y-71804801D01*
X128740634Y-71782107D01*
X128724791Y-71759015D01*
X128718774Y-71751864D01*
X128682144Y-71701187D01*
X128677241Y-71693229D01*
X128660276Y-71670932D01*
X128643878Y-71648245D01*
X128637691Y-71641248D01*
X128599826Y-71591482D01*
X128594735Y-71583656D01*
X128577239Y-71561795D01*
X128560274Y-71539498D01*
X128553916Y-71532653D01*
X128514848Y-71483840D01*
X128509558Y-71476129D01*
X128491517Y-71454689D01*
X128474031Y-71432840D01*
X128467507Y-71426154D01*
X128427246Y-71378305D01*
X128421771Y-71370731D01*
X128403211Y-71349741D01*
X128385188Y-71328322D01*
X128378505Y-71321801D01*
X128337082Y-71274955D01*
X128331427Y-71267523D01*
X128312370Y-71247008D01*
X128293811Y-71226020D01*
X128286965Y-71219661D01*
X128244412Y-71173853D01*
X128238575Y-71166560D01*
X128219015Y-71146513D01*
X128199955Y-71125996D01*
X128192958Y-71119809D01*
X128152547Y-71078393D01*
X128149585Y-71074784D01*
X128126516Y-71051715D01*
X128103670Y-71028301D01*
X128100088Y-71025287D01*
X127864555Y-70789754D01*
X127777829Y-70718579D01*
X127777827Y-70718578D01*
X127706450Y-70660000D01*
X150860004Y-70660000D01*
X152555740Y-71413268D01*
X154291717Y-72346098D01*
X155952858Y-73406457D01*
X157529834Y-74588394D01*
X159013734Y-75885230D01*
X160396232Y-77289686D01*
X161669533Y-78793846D01*
X162826468Y-80389237D01*
X163860516Y-82066871D01*
X164765885Y-83817347D01*
X165537447Y-85630755D01*
X166170871Y-87496915D01*
X166662588Y-89405305D01*
X167009837Y-91345219D01*
X167210653Y-93305687D01*
X167263911Y-95275695D01*
X167169312Y-97244147D01*
X166927383Y-99199981D01*
X166539495Y-101132148D01*
X166007820Y-103029819D01*
X165335364Y-104882264D01*
X164525903Y-106679083D01*
X163584002Y-108410143D01*
X162514954Y-110065717D01*
X161324776Y-111636482D01*
X160020192Y-113113568D01*
X158608522Y-114488689D01*
X157097706Y-115754106D01*
X155496286Y-116902665D01*
X153813239Y-117927929D01*
X152054984Y-118825684D01*
X150863619Y-119339999D01*
X81244537Y-119340001D01*
X79752324Y-118058317D01*
X78195624Y-116519994D01*
X76750010Y-114876811D01*
X75422537Y-113136789D01*
X74219688Y-111308419D01*
X73147306Y-109400595D01*
X72210623Y-107422618D01*
X71658686Y-106009899D01*
X80936000Y-106009899D01*
X80936000Y-106310101D01*
X80994566Y-106604534D01*
X81109449Y-106881885D01*
X81276232Y-107131493D01*
X81488507Y-107343768D01*
X81738115Y-107510551D01*
X82015466Y-107625434D01*
X82309899Y-107684000D01*
X82610101Y-107684000D01*
X82904534Y-107625434D01*
X83181885Y-107510551D01*
X83431493Y-107343768D01*
X83643768Y-107131493D01*
X83730000Y-107002438D01*
X83816232Y-107131493D01*
X84028507Y-107343768D01*
X84278115Y-107510551D01*
X84555466Y-107625434D01*
X84849899Y-107684000D01*
X85150101Y-107684000D01*
X85444534Y-107625434D01*
X85721885Y-107510551D01*
X85971493Y-107343768D01*
X86099030Y-107216231D01*
X86663374Y-107216231D01*
X86745727Y-107469289D01*
X87016418Y-107599086D01*
X87307230Y-107673580D01*
X87606988Y-107689908D01*
X87904171Y-107647443D01*
X88187359Y-107547816D01*
X88334273Y-107469289D01*
X88416626Y-107216231D01*
X87540000Y-106339605D01*
X86663374Y-107216231D01*
X86099030Y-107216231D01*
X86183768Y-107131493D01*
X86289417Y-106973378D01*
X86483769Y-107036626D01*
X87360395Y-106160000D01*
X87719605Y-106160000D01*
X88596231Y-107036626D01*
X88849289Y-106954273D01*
X88979086Y-106683582D01*
X89053580Y-106392770D01*
X89069908Y-106093012D01*
X89027443Y-105795829D01*
X88927816Y-105512641D01*
X88849289Y-105365727D01*
X88596231Y-105283374D01*
X87719605Y-106160000D01*
X87360395Y-106160000D01*
X86483769Y-105283374D01*
X86289417Y-105346622D01*
X86183768Y-105188507D01*
X86099030Y-105103769D01*
X86663374Y-105103769D01*
X87540000Y-105980395D01*
X88416626Y-105103769D01*
X88334273Y-104850711D01*
X88063582Y-104720914D01*
X87772770Y-104646420D01*
X87473012Y-104630092D01*
X87175829Y-104672557D01*
X86892641Y-104772184D01*
X86745727Y-104850711D01*
X86663374Y-105103769D01*
X86099030Y-105103769D01*
X85971493Y-104976232D01*
X85721885Y-104809449D01*
X85444534Y-104694566D01*
X85150101Y-104636000D01*
X84849899Y-104636000D01*
X84555466Y-104694566D01*
X84278115Y-104809449D01*
X84028507Y-104976232D01*
X83816232Y-105188507D01*
X83730000Y-105317562D01*
X83643768Y-105188507D01*
X83431493Y-104976232D01*
X83181885Y-104809449D01*
X82904534Y-104694566D01*
X82610101Y-104636000D01*
X82309899Y-104636000D01*
X82015466Y-104694566D01*
X81738115Y-104809449D01*
X81488507Y-104976232D01*
X81276232Y-105188507D01*
X81109449Y-105438115D01*
X80994566Y-105715466D01*
X80936000Y-106009899D01*
X71658686Y-106009899D01*
X71414191Y-105384101D01*
X70761903Y-103295009D01*
X70571576Y-102492382D01*
X75602000Y-102492382D01*
X75602000Y-102842618D01*
X75670328Y-103186123D01*
X75804357Y-103509699D01*
X75998937Y-103800909D01*
X76246591Y-104048563D01*
X76537801Y-104243143D01*
X76861377Y-104377172D01*
X77204882Y-104445500D01*
X77555118Y-104445500D01*
X77898623Y-104377172D01*
X78222199Y-104243143D01*
X78513409Y-104048563D01*
X78761063Y-103800909D01*
X78955643Y-103509699D01*
X79089672Y-103186123D01*
X79158000Y-102842618D01*
X79158000Y-102492382D01*
X90842000Y-102492382D01*
X90842000Y-102842618D01*
X90910328Y-103186123D01*
X91044357Y-103509699D01*
X91238937Y-103800909D01*
X91486591Y-104048563D01*
X91777801Y-104243143D01*
X92101377Y-104377172D01*
X92444882Y-104445500D01*
X92795118Y-104445500D01*
X93138623Y-104377172D01*
X93462199Y-104243143D01*
X93753409Y-104048563D01*
X94001063Y-103800909D01*
X94195643Y-103509699D01*
X94329672Y-103186123D01*
X94398000Y-102842618D01*
X94398000Y-102492382D01*
X94329672Y-102148877D01*
X94195643Y-101825301D01*
X94001063Y-101534091D01*
X93753409Y-101286437D01*
X93462199Y-101091857D01*
X93138623Y-100957828D01*
X92795118Y-100889500D01*
X92444882Y-100889500D01*
X92101377Y-100957828D01*
X91777801Y-101091857D01*
X91486591Y-101286437D01*
X91238937Y-101534091D01*
X91044357Y-101825301D01*
X90910328Y-102148877D01*
X90842000Y-102492382D01*
X79158000Y-102492382D01*
X79089672Y-102148877D01*
X78955643Y-101825301D01*
X78761063Y-101534091D01*
X78513409Y-101286437D01*
X78222199Y-101091857D01*
X77898623Y-100957828D01*
X77555118Y-100889500D01*
X77204882Y-100889500D01*
X76861377Y-100957828D01*
X76537801Y-101091857D01*
X76246591Y-101286437D01*
X75998937Y-101534091D01*
X75804357Y-101825301D01*
X75670328Y-102148877D01*
X75602000Y-102492382D01*
X70571576Y-102492382D01*
X70256933Y-101165510D01*
X69998823Y-99596231D01*
X73963374Y-99596231D01*
X74045727Y-99849289D01*
X74316418Y-99979086D01*
X74607230Y-100053580D01*
X74906988Y-100069908D01*
X75204171Y-100027443D01*
X75487359Y-99927816D01*
X75634273Y-99849289D01*
X75716626Y-99596231D01*
X74840000Y-98719605D01*
X73963374Y-99596231D01*
X69998823Y-99596231D01*
X69901735Y-99005948D01*
X69864443Y-98606988D01*
X73310092Y-98606988D01*
X73352557Y-98904171D01*
X73452184Y-99187359D01*
X73530711Y-99334273D01*
X73783769Y-99416626D01*
X74660395Y-98540000D01*
X75019605Y-98540000D01*
X75896231Y-99416626D01*
X76149289Y-99334273D01*
X76279086Y-99063582D01*
X76353580Y-98772770D01*
X76369908Y-98473012D01*
X76327443Y-98175829D01*
X76227816Y-97892641D01*
X76149289Y-97745727D01*
X75896231Y-97663374D01*
X75019605Y-98540000D01*
X74660395Y-98540000D01*
X73783769Y-97663374D01*
X73530711Y-97745727D01*
X73400914Y-98016418D01*
X73326420Y-98307230D01*
X73310092Y-98606988D01*
X69864443Y-98606988D01*
X69698049Y-96826891D01*
X69646861Y-94638934D01*
X69708602Y-93309899D01*
X73316000Y-93309899D01*
X73316000Y-93610101D01*
X73374566Y-93904534D01*
X73489449Y-94181885D01*
X73656232Y-94431493D01*
X73868507Y-94643768D01*
X73997562Y-94730000D01*
X73868507Y-94816232D01*
X73656232Y-95028507D01*
X73489449Y-95278115D01*
X73374566Y-95555466D01*
X73316000Y-95849899D01*
X73316000Y-96150101D01*
X73374566Y-96444534D01*
X73489449Y-96721885D01*
X73656232Y-96971493D01*
X73868507Y-97183768D01*
X74026622Y-97289417D01*
X73963374Y-97483769D01*
X74840000Y-98360395D01*
X75716626Y-97483769D01*
X75653378Y-97289417D01*
X75811493Y-97183768D01*
X76023768Y-96971493D01*
X76190551Y-96721885D01*
X76305434Y-96444534D01*
X76364000Y-96150101D01*
X76364000Y-95849899D01*
X76305434Y-95555466D01*
X76190551Y-95278115D01*
X76023768Y-95028507D01*
X75811493Y-94816232D01*
X75682438Y-94730000D01*
X75811493Y-94643768D01*
X76023768Y-94431493D01*
X76190551Y-94181885D01*
X76305434Y-93904534D01*
X76364000Y-93610101D01*
X76364000Y-93309899D01*
X76305434Y-93015466D01*
X76190551Y-92738115D01*
X76023768Y-92488507D01*
X75811493Y-92276232D01*
X75561885Y-92109449D01*
X75284534Y-91994566D01*
X74990101Y-91936000D01*
X74689899Y-91936000D01*
X74395466Y-91994566D01*
X74118115Y-92109449D01*
X73868507Y-92276232D01*
X73656232Y-92488507D01*
X73489449Y-92738115D01*
X73374566Y-93015466D01*
X73316000Y-93309899D01*
X69708602Y-93309899D01*
X69748424Y-92452715D01*
X70002241Y-90278916D01*
X70213342Y-89157382D01*
X75602000Y-89157382D01*
X75602000Y-89507618D01*
X75670328Y-89851123D01*
X75804357Y-90174699D01*
X75998937Y-90465909D01*
X76246591Y-90713563D01*
X76537801Y-90908143D01*
X76861377Y-91042172D01*
X77204882Y-91110500D01*
X77555118Y-91110500D01*
X77898623Y-91042172D01*
X78222199Y-90908143D01*
X78513409Y-90713563D01*
X78761063Y-90465909D01*
X78955643Y-90174699D01*
X79089672Y-89851123D01*
X79158000Y-89507618D01*
X79158000Y-89157382D01*
X79089672Y-88813877D01*
X78955643Y-88490301D01*
X78781649Y-88229899D01*
X80301000Y-88229899D01*
X80301000Y-88530101D01*
X80359566Y-88824534D01*
X80474449Y-89101885D01*
X80641232Y-89351493D01*
X80853507Y-89563768D01*
X81103115Y-89730551D01*
X81380466Y-89845434D01*
X81674899Y-89904000D01*
X81975101Y-89904000D01*
X82269534Y-89845434D01*
X82546885Y-89730551D01*
X82796493Y-89563768D01*
X83008768Y-89351493D01*
X83175551Y-89101885D01*
X83290434Y-88824534D01*
X83349000Y-88530101D01*
X83349000Y-88229899D01*
X86651000Y-88229899D01*
X86651000Y-88530101D01*
X86709566Y-88824534D01*
X86824449Y-89101885D01*
X86991232Y-89351493D01*
X87203507Y-89563768D01*
X87453115Y-89730551D01*
X87730466Y-89845434D01*
X88024899Y-89904000D01*
X88325101Y-89904000D01*
X88619534Y-89845434D01*
X88896885Y-89730551D01*
X89146493Y-89563768D01*
X89358768Y-89351493D01*
X89488469Y-89157382D01*
X90842000Y-89157382D01*
X90842000Y-89507618D01*
X90910328Y-89851123D01*
X91044357Y-90174699D01*
X91238937Y-90465909D01*
X91486591Y-90713563D01*
X91777801Y-90908143D01*
X92101377Y-91042172D01*
X92444882Y-91110500D01*
X92795118Y-91110500D01*
X93138623Y-91042172D01*
X93462199Y-90908143D01*
X93753409Y-90713563D01*
X94001063Y-90465909D01*
X94195643Y-90174699D01*
X94329672Y-89851123D01*
X94398000Y-89507618D01*
X94398000Y-89157382D01*
X94329672Y-88813877D01*
X94195643Y-88490301D01*
X94001063Y-88199091D01*
X93753409Y-87951437D01*
X93462199Y-87756857D01*
X93138623Y-87622828D01*
X92795118Y-87554500D01*
X92444882Y-87554500D01*
X92101377Y-87622828D01*
X91777801Y-87756857D01*
X91486591Y-87951437D01*
X91238937Y-88199091D01*
X91044357Y-88490301D01*
X90910328Y-88813877D01*
X90842000Y-89157382D01*
X89488469Y-89157382D01*
X89525551Y-89101885D01*
X89640434Y-88824534D01*
X89699000Y-88530101D01*
X89699000Y-88229899D01*
X89640434Y-87935466D01*
X89525551Y-87658115D01*
X89358768Y-87408507D01*
X89146493Y-87196232D01*
X88896885Y-87029449D01*
X88619534Y-86914566D01*
X88325101Y-86856000D01*
X88024899Y-86856000D01*
X87730466Y-86914566D01*
X87453115Y-87029449D01*
X87203507Y-87196232D01*
X86991232Y-87408507D01*
X86824449Y-87658115D01*
X86709566Y-87935466D01*
X86651000Y-88229899D01*
X83349000Y-88229899D01*
X83290434Y-87935466D01*
X83175551Y-87658115D01*
X83008768Y-87408507D01*
X82796493Y-87196232D01*
X82546885Y-87029449D01*
X82269534Y-86914566D01*
X81975101Y-86856000D01*
X81674899Y-86856000D01*
X81380466Y-86914566D01*
X81103115Y-87029449D01*
X80853507Y-87196232D01*
X80641232Y-87408507D01*
X80474449Y-87658115D01*
X80359566Y-87935466D01*
X80301000Y-88229899D01*
X78781649Y-88229899D01*
X78761063Y-88199091D01*
X78513409Y-87951437D01*
X78222199Y-87756857D01*
X77898623Y-87622828D01*
X77555118Y-87554500D01*
X77204882Y-87554500D01*
X76861377Y-87622828D01*
X76537801Y-87756857D01*
X76246591Y-87951437D01*
X75998937Y-88199091D01*
X75804357Y-88490301D01*
X75670328Y-88813877D01*
X75602000Y-89157382D01*
X70213342Y-89157382D01*
X70407073Y-88128134D01*
X70960955Y-86010815D01*
X71661179Y-83937303D01*
X71989908Y-83149899D01*
X80301000Y-83149899D01*
X80301000Y-83450101D01*
X80359566Y-83744534D01*
X80474449Y-84021885D01*
X80641232Y-84271493D01*
X80853507Y-84483768D01*
X81103115Y-84650551D01*
X81380466Y-84765434D01*
X81674899Y-84824000D01*
X81975101Y-84824000D01*
X82269534Y-84765434D01*
X82546885Y-84650551D01*
X82796493Y-84483768D01*
X83008768Y-84271493D01*
X83175551Y-84021885D01*
X83290434Y-83744534D01*
X83349000Y-83450101D01*
X83349000Y-83149899D01*
X86651000Y-83149899D01*
X86651000Y-83450101D01*
X86709566Y-83744534D01*
X86824449Y-84021885D01*
X86991232Y-84271493D01*
X87203507Y-84483768D01*
X87453115Y-84650551D01*
X87730466Y-84765434D01*
X88024899Y-84824000D01*
X88325101Y-84824000D01*
X88619534Y-84765434D01*
X88896885Y-84650551D01*
X89146493Y-84483768D01*
X89358768Y-84271493D01*
X89525551Y-84021885D01*
X89640434Y-83744534D01*
X89699000Y-83450101D01*
X89699000Y-83149899D01*
X89640434Y-82855466D01*
X89525551Y-82578115D01*
X89358768Y-82328507D01*
X89146493Y-82116232D01*
X88896885Y-81949449D01*
X88619534Y-81834566D01*
X88325101Y-81776000D01*
X88024899Y-81776000D01*
X87730466Y-81834566D01*
X87453115Y-81949449D01*
X87203507Y-82116232D01*
X86991232Y-82328507D01*
X86824449Y-82578115D01*
X86709566Y-82855466D01*
X86651000Y-83149899D01*
X83349000Y-83149899D01*
X83290434Y-82855466D01*
X83175551Y-82578115D01*
X83008768Y-82328507D01*
X82796493Y-82116232D01*
X82546885Y-81949449D01*
X82269534Y-81834566D01*
X81975101Y-81776000D01*
X81674899Y-81776000D01*
X81380466Y-81834566D01*
X81103115Y-81949449D01*
X80853507Y-82116232D01*
X80641232Y-82328507D01*
X80474449Y-82578115D01*
X80359566Y-82855466D01*
X80301000Y-83149899D01*
X71989908Y-83149899D01*
X72504346Y-81917669D01*
X73486335Y-79961785D01*
X74602367Y-78079166D01*
X75847010Y-76278975D01*
X77214197Y-74569991D01*
X77877651Y-73850000D01*
X95511928Y-73850000D01*
X95524188Y-73974482D01*
X95560498Y-74094180D01*
X95619463Y-74204494D01*
X95698815Y-74301185D01*
X95795506Y-74380537D01*
X95905820Y-74439502D01*
X96025518Y-74475812D01*
X96150000Y-74488072D01*
X96714250Y-74485000D01*
X96873000Y-74326250D01*
X96873000Y-73127000D01*
X95673750Y-73127000D01*
X95515000Y-73285750D01*
X95511928Y-73850000D01*
X77877651Y-73850000D01*
X78697261Y-72960547D01*
X79556185Y-72150000D01*
X95511928Y-72150000D01*
X95515000Y-72714250D01*
X95673750Y-72873000D01*
X96873000Y-72873000D01*
X96873000Y-71673750D01*
X97127000Y-71673750D01*
X97127000Y-72873000D01*
X97147000Y-72873000D01*
X97147000Y-73127000D01*
X97127000Y-73127000D01*
X97127000Y-74326250D01*
X97285750Y-74485000D01*
X97850000Y-74488072D01*
X97974482Y-74475812D01*
X98094180Y-74439502D01*
X98204494Y-74380537D01*
X98301185Y-74301185D01*
X98380537Y-74204494D01*
X98439502Y-74094180D01*
X98461513Y-74021620D01*
X98593368Y-74153475D01*
X98836589Y-74315990D01*
X99106842Y-74427932D01*
X99393740Y-74485000D01*
X99686260Y-74485000D01*
X99973158Y-74427932D01*
X100243411Y-74315990D01*
X100486632Y-74153475D01*
X100693475Y-73946632D01*
X100855990Y-73703411D01*
X100967932Y-73433158D01*
X101025000Y-73146260D01*
X101025000Y-72853740D01*
X100967932Y-72566842D01*
X100855990Y-72296589D01*
X100693475Y-72053368D01*
X100486632Y-71846525D01*
X100243411Y-71684010D01*
X99973158Y-71572068D01*
X99686260Y-71515000D01*
X99393740Y-71515000D01*
X99106842Y-71572068D01*
X98836589Y-71684010D01*
X98593368Y-71846525D01*
X98461513Y-71978380D01*
X98439502Y-71905820D01*
X98380537Y-71795506D01*
X98301185Y-71698815D01*
X98204494Y-71619463D01*
X98094180Y-71560498D01*
X97974482Y-71524188D01*
X97850000Y-71511928D01*
X97285750Y-71515000D01*
X97127000Y-71673750D01*
X96873000Y-71673750D01*
X96714250Y-71515000D01*
X96150000Y-71511928D01*
X96025518Y-71524188D01*
X95905820Y-71560498D01*
X95795506Y-71619463D01*
X95698815Y-71698815D01*
X95619463Y-71795506D01*
X95560498Y-71905820D01*
X95524188Y-72025518D01*
X95511928Y-72150000D01*
X79556185Y-72150000D01*
X80291760Y-71455855D01*
X81240222Y-70660000D01*
X110073000Y-70660000D01*
X110073000Y-77800000D01*
%TA.AperFunction,Conductor*%
D24*
G36*
X110073000Y-77800000D02*
G01*
X110075440Y-77824776D01*
X110082667Y-77848601D01*
X110094403Y-77870557D01*
X110110197Y-77889803D01*
X110129443Y-77905597D01*
X110151399Y-77917333D01*
X110175224Y-77924560D01*
X110200000Y-77927000D01*
X115240000Y-77927000D01*
X115240001Y-80675277D01*
X115238717Y-80779860D01*
X115235042Y-80879624D01*
X115228917Y-80979315D01*
X115220354Y-81078747D01*
X115209345Y-81178020D01*
X115195909Y-81276949D01*
X115180043Y-81375557D01*
X115161773Y-81473684D01*
X115141089Y-81571391D01*
X115118020Y-81668527D01*
X115092571Y-81765079D01*
X115064762Y-81860977D01*
X115034604Y-81956176D01*
X115002124Y-82050587D01*
X114967331Y-82144189D01*
X114930261Y-82236886D01*
X114890928Y-82328644D01*
X114849328Y-82419467D01*
X114805538Y-82509186D01*
X114759558Y-82597808D01*
X114711398Y-82685308D01*
X114661135Y-82771551D01*
X114608747Y-82856572D01*
X114554297Y-82940266D01*
X114497819Y-83022588D01*
X114439316Y-83103527D01*
X114378851Y-83182997D01*
X114316473Y-83260936D01*
X114252189Y-83337335D01*
X114186035Y-83412149D01*
X114118069Y-83485314D01*
X114045156Y-83560040D01*
X111954800Y-85650397D01*
X111954800Y-85604896D01*
X111894282Y-85300648D01*
X111775570Y-85014052D01*
X111603227Y-84756123D01*
X111383877Y-84536773D01*
X111125948Y-84364430D01*
X110839352Y-84245718D01*
X110535104Y-84185200D01*
X110224896Y-84185200D01*
X109920648Y-84245718D01*
X109634052Y-84364430D01*
X109376123Y-84536773D01*
X109156773Y-84756123D01*
X108984430Y-85014052D01*
X108865718Y-85300648D01*
X108805200Y-85604896D01*
X108805200Y-85915104D01*
X108865718Y-86219352D01*
X108984430Y-86505948D01*
X109156773Y-86763877D01*
X109376123Y-86983227D01*
X109446124Y-87030000D01*
X109376123Y-87076773D01*
X109156773Y-87296123D01*
X108984430Y-87554052D01*
X108865718Y-87840648D01*
X108805200Y-88144896D01*
X108805200Y-88455104D01*
X108865718Y-88759352D01*
X108984430Y-89045948D01*
X109156773Y-89303877D01*
X109376123Y-89523227D01*
X109446124Y-89570000D01*
X109376123Y-89616773D01*
X109156773Y-89836123D01*
X108984430Y-90094052D01*
X108865718Y-90380648D01*
X108805200Y-90684896D01*
X108805200Y-90995104D01*
X108865718Y-91299352D01*
X108984430Y-91585948D01*
X109156773Y-91843877D01*
X109376123Y-92063227D01*
X109446124Y-92110000D01*
X109376123Y-92156773D01*
X109156773Y-92376123D01*
X108984430Y-92634052D01*
X108865718Y-92920648D01*
X108805200Y-93224896D01*
X108805200Y-93535104D01*
X108865718Y-93839352D01*
X108984430Y-94125948D01*
X109156773Y-94383877D01*
X109376123Y-94603227D01*
X109446124Y-94650000D01*
X109376123Y-94696773D01*
X109156773Y-94916123D01*
X108984430Y-95174052D01*
X108865718Y-95460648D01*
X108805200Y-95764896D01*
X108805200Y-96075104D01*
X108865718Y-96379352D01*
X108984430Y-96665948D01*
X109156773Y-96923877D01*
X109376123Y-97143227D01*
X109446124Y-97190000D01*
X109376123Y-97236773D01*
X109156773Y-97456123D01*
X108984430Y-97714052D01*
X108865718Y-98000648D01*
X108805200Y-98304896D01*
X108805200Y-98615104D01*
X108865718Y-98919352D01*
X108984430Y-99205948D01*
X109156773Y-99463877D01*
X109376123Y-99683227D01*
X109446124Y-99730000D01*
X109376123Y-99776773D01*
X109156773Y-99996123D01*
X108984430Y-100254052D01*
X108865718Y-100540648D01*
X108805200Y-100844896D01*
X108805200Y-101155104D01*
X108865718Y-101459352D01*
X108984430Y-101745948D01*
X109156773Y-102003877D01*
X109376123Y-102223227D01*
X109446124Y-102270000D01*
X109376123Y-102316773D01*
X109156773Y-102536123D01*
X108984430Y-102794052D01*
X108865718Y-103080648D01*
X108805200Y-103384896D01*
X108805200Y-103695104D01*
X108865718Y-103999352D01*
X108984430Y-104285948D01*
X109156773Y-104543877D01*
X109376123Y-104763227D01*
X109446124Y-104810000D01*
X109376123Y-104856773D01*
X109156773Y-105076123D01*
X108984430Y-105334052D01*
X108865718Y-105620648D01*
X108805200Y-105924896D01*
X108805200Y-106235104D01*
X108865718Y-106539352D01*
X108984430Y-106825948D01*
X109156773Y-107083877D01*
X109376123Y-107303227D01*
X109446124Y-107350000D01*
X109376123Y-107396773D01*
X109156773Y-107616123D01*
X108984430Y-107874052D01*
X108865718Y-108160648D01*
X108805200Y-108464896D01*
X108805200Y-108775104D01*
X108865718Y-109079352D01*
X108984430Y-109365948D01*
X109156773Y-109623877D01*
X109376123Y-109843227D01*
X109446124Y-109890000D01*
X109376123Y-109936773D01*
X109156773Y-110156123D01*
X108984430Y-110414052D01*
X108865718Y-110700648D01*
X108805200Y-111004896D01*
X108805200Y-111315104D01*
X108865718Y-111619352D01*
X108984430Y-111905948D01*
X109156773Y-112163877D01*
X109376123Y-112383227D01*
X109446124Y-112430000D01*
X109376123Y-112476773D01*
X109156773Y-112696123D01*
X108984430Y-112954052D01*
X108865718Y-113240648D01*
X108805200Y-113544896D01*
X108805200Y-113855104D01*
X108865718Y-114159352D01*
X108984430Y-114445948D01*
X109156773Y-114703877D01*
X109376123Y-114923227D01*
X109634052Y-115095570D01*
X109920648Y-115214282D01*
X110224896Y-115274800D01*
X110400930Y-115274800D01*
X110254430Y-115494052D01*
X110135718Y-115780648D01*
X110075200Y-116084896D01*
X110075200Y-116395104D01*
X110135718Y-116699352D01*
X110254430Y-116985948D01*
X110426773Y-117243877D01*
X110646123Y-117463227D01*
X110904052Y-117635570D01*
X111190648Y-117754282D01*
X111494896Y-117814800D01*
X111805104Y-117814800D01*
X112109352Y-117754282D01*
X112395948Y-117635570D01*
X112653877Y-117463227D01*
X112873227Y-117243877D01*
X112920000Y-117173876D01*
X112966773Y-117243877D01*
X113186123Y-117463227D01*
X113444052Y-117635570D01*
X113730648Y-117754282D01*
X114034896Y-117814800D01*
X114345104Y-117814800D01*
X114649352Y-117754282D01*
X114935948Y-117635570D01*
X115193877Y-117463227D01*
X115413227Y-117243877D01*
X115460000Y-117173876D01*
X115506773Y-117243877D01*
X115726123Y-117463227D01*
X115984052Y-117635570D01*
X116270648Y-117754282D01*
X116574896Y-117814800D01*
X116885104Y-117814800D01*
X117189352Y-117754282D01*
X117475948Y-117635570D01*
X117733877Y-117463227D01*
X117953227Y-117243877D01*
X118000000Y-117173876D01*
X118046773Y-117243877D01*
X118266123Y-117463227D01*
X118524052Y-117635570D01*
X118810648Y-117754282D01*
X119114896Y-117814800D01*
X119425104Y-117814800D01*
X119729352Y-117754282D01*
X120015948Y-117635570D01*
X120273877Y-117463227D01*
X120404628Y-117332476D01*
X120897129Y-117332476D01*
X120985623Y-117590723D01*
X121264976Y-117725597D01*
X121565275Y-117803381D01*
X121874977Y-117821084D01*
X122182184Y-117778027D01*
X122475086Y-117675865D01*
X122634377Y-117590723D01*
X122722871Y-117332476D01*
X123437129Y-117332476D01*
X123525623Y-117590723D01*
X123804976Y-117725597D01*
X124105275Y-117803381D01*
X124414977Y-117821084D01*
X124722184Y-117778027D01*
X125015086Y-117675865D01*
X125174377Y-117590723D01*
X125262871Y-117332476D01*
X124350000Y-116419605D01*
X123437129Y-117332476D01*
X122722871Y-117332476D01*
X121810000Y-116419605D01*
X120897129Y-117332476D01*
X120404628Y-117332476D01*
X120493227Y-117243877D01*
X120584495Y-117107286D01*
X120717524Y-117152871D01*
X121630395Y-116240000D01*
X121989605Y-116240000D01*
X122902476Y-117152871D01*
X123080000Y-117092039D01*
X123257524Y-117152871D01*
X124170395Y-116240000D01*
X123257524Y-115327129D01*
X123080000Y-115387961D01*
X122902476Y-115327129D01*
X121989605Y-116240000D01*
X121630395Y-116240000D01*
X120717524Y-115327129D01*
X120584495Y-115372714D01*
X120493227Y-115236123D01*
X120404628Y-115147524D01*
X120897129Y-115147524D01*
X121810000Y-116060395D01*
X122722871Y-115147524D01*
X122634377Y-114889277D01*
X122355024Y-114754403D01*
X122054725Y-114676619D01*
X121745023Y-114658916D01*
X121437816Y-114701973D01*
X121144914Y-114804135D01*
X120985623Y-114889277D01*
X120897129Y-115147524D01*
X120404628Y-115147524D01*
X120273877Y-115016773D01*
X120015948Y-114844430D01*
X119729352Y-114725718D01*
X119425104Y-114665200D01*
X119114896Y-114665200D01*
X118810648Y-114725718D01*
X118524052Y-114844430D01*
X118266123Y-115016773D01*
X118046773Y-115236123D01*
X118000000Y-115306124D01*
X117953227Y-115236123D01*
X117733877Y-115016773D01*
X117475948Y-114844430D01*
X117189352Y-114725718D01*
X116885104Y-114665200D01*
X116574896Y-114665200D01*
X116270648Y-114725718D01*
X115984052Y-114844430D01*
X115726123Y-115016773D01*
X115506773Y-115236123D01*
X115460000Y-115306124D01*
X115413227Y-115236123D01*
X115193877Y-115016773D01*
X114935948Y-114844430D01*
X114649352Y-114725718D01*
X114345104Y-114665200D01*
X114034896Y-114665200D01*
X113730648Y-114725718D01*
X113444052Y-114844430D01*
X113186123Y-115016773D01*
X112966773Y-115236123D01*
X112920000Y-115306124D01*
X112873227Y-115236123D01*
X112653877Y-115016773D01*
X112395948Y-114844430D01*
X112109352Y-114725718D01*
X111805104Y-114665200D01*
X111629070Y-114665200D01*
X111775570Y-114445948D01*
X111894282Y-114159352D01*
X111954800Y-113855104D01*
X111954800Y-113544896D01*
X111894282Y-113240648D01*
X111775570Y-112954052D01*
X111603227Y-112696123D01*
X111383877Y-112476773D01*
X111313876Y-112430000D01*
X111383877Y-112383227D01*
X111603227Y-112163877D01*
X111775570Y-111905948D01*
X111894282Y-111619352D01*
X111954800Y-111315104D01*
X111954800Y-111004896D01*
X111894282Y-110700648D01*
X111775570Y-110414052D01*
X111603227Y-110156123D01*
X111383877Y-109936773D01*
X111313876Y-109890000D01*
X111383877Y-109843227D01*
X111603227Y-109623877D01*
X111775570Y-109365948D01*
X111894282Y-109079352D01*
X111954800Y-108775104D01*
X111954800Y-108464896D01*
X111894282Y-108160648D01*
X111775570Y-107874052D01*
X111603227Y-107616123D01*
X111383877Y-107396773D01*
X111313876Y-107350000D01*
X111383877Y-107303227D01*
X111603227Y-107083877D01*
X111775570Y-106825948D01*
X111894282Y-106539352D01*
X111954800Y-106235104D01*
X111954800Y-105924896D01*
X111907201Y-105685599D01*
X112077773Y-105940877D01*
X112297123Y-106160227D01*
X112555052Y-106332570D01*
X112841648Y-106451282D01*
X113145896Y-106511800D01*
X113456104Y-106511800D01*
X113760352Y-106451282D01*
X114046948Y-106332570D01*
X114304877Y-106160227D01*
X114524227Y-105940877D01*
X114696570Y-105682948D01*
X114815282Y-105396352D01*
X114875800Y-105092104D01*
X114875800Y-104781896D01*
X114815282Y-104477648D01*
X114696570Y-104191052D01*
X114524227Y-103933123D01*
X114304877Y-103713773D01*
X114234876Y-103667000D01*
X114304877Y-103620227D01*
X114524227Y-103400877D01*
X114696570Y-103142948D01*
X114815282Y-102856352D01*
X114875800Y-102552104D01*
X114875800Y-102241896D01*
X114815282Y-101937648D01*
X114696570Y-101651052D01*
X114524227Y-101393123D01*
X114304877Y-101173773D01*
X114046948Y-101001430D01*
X113760352Y-100882718D01*
X113456104Y-100822200D01*
X113145896Y-100822200D01*
X112841648Y-100882718D01*
X112555052Y-101001430D01*
X112297123Y-101173773D01*
X112077773Y-101393123D01*
X111905430Y-101651052D01*
X111786718Y-101937648D01*
X111726200Y-102241896D01*
X111726200Y-102552104D01*
X111773799Y-102791401D01*
X111603227Y-102536123D01*
X111383877Y-102316773D01*
X111313876Y-102270000D01*
X111383877Y-102223227D01*
X111603227Y-102003877D01*
X111775570Y-101745948D01*
X111894282Y-101459352D01*
X111954800Y-101155104D01*
X111954800Y-100844896D01*
X111894282Y-100540648D01*
X111775570Y-100254052D01*
X111603227Y-99996123D01*
X111383877Y-99776773D01*
X111313876Y-99730000D01*
X111383877Y-99683227D01*
X111603227Y-99463877D01*
X111775570Y-99205948D01*
X111894282Y-98919352D01*
X111954800Y-98615104D01*
X111954800Y-98304896D01*
X111894282Y-98000648D01*
X111775570Y-97714052D01*
X111603227Y-97456123D01*
X111383877Y-97236773D01*
X111313876Y-97190000D01*
X111383877Y-97143227D01*
X111603227Y-96923877D01*
X111775570Y-96665948D01*
X111894282Y-96379352D01*
X111954800Y-96075104D01*
X111954800Y-95764896D01*
X111894282Y-95460648D01*
X111775570Y-95174052D01*
X111603227Y-94916123D01*
X111383877Y-94696773D01*
X111313876Y-94650000D01*
X111383877Y-94603227D01*
X111408952Y-94578152D01*
X111425363Y-94566292D01*
X111467543Y-94533004D01*
X111599276Y-94419676D01*
X111626829Y-94394527D01*
X111739896Y-94285067D01*
X111748100Y-94276979D01*
X111842981Y-94181730D01*
X111913851Y-94115368D01*
X111961136Y-94078715D01*
X111996157Y-94058840D01*
X112041668Y-94042312D01*
X112056263Y-94039540D01*
X112017304Y-94133595D01*
X111966000Y-94391514D01*
X111966000Y-94654486D01*
X112017304Y-94912405D01*
X112117939Y-95155359D01*
X112264038Y-95374013D01*
X112449987Y-95559962D01*
X112668641Y-95706061D01*
X112911595Y-95806696D01*
X113169514Y-95858000D01*
X113432486Y-95858000D01*
X113690405Y-95806696D01*
X113933359Y-95706061D01*
X114152013Y-95559962D01*
X114337962Y-95374013D01*
X114484061Y-95155359D01*
X114584696Y-94912405D01*
X114636000Y-94654486D01*
X114636000Y-94391514D01*
X114584696Y-94133595D01*
X114484061Y-93890641D01*
X114337962Y-93671987D01*
X114190624Y-93524649D01*
X114253066Y-93496971D01*
X114270483Y-93490252D01*
X114287157Y-93481859D01*
X114304239Y-93474287D01*
X114320497Y-93465077D01*
X114498843Y-93375305D01*
X114515929Y-93367731D01*
X114532194Y-93358517D01*
X114548862Y-93350127D01*
X114564627Y-93340144D01*
X114738391Y-93241708D01*
X114755073Y-93233311D01*
X114770849Y-93223321D01*
X114787098Y-93214116D01*
X114802366Y-93203363D01*
X114971081Y-93096525D01*
X114987325Y-93087323D01*
X115002592Y-93076571D01*
X115018377Y-93066575D01*
X115033102Y-93055084D01*
X115196360Y-92940104D01*
X115212143Y-92930110D01*
X115226869Y-92918617D01*
X115242131Y-92907869D01*
X115256268Y-92895674D01*
X115413714Y-92772802D01*
X115428971Y-92762057D01*
X115443101Y-92749868D01*
X115457836Y-92738369D01*
X115471369Y-92725484D01*
X115622561Y-92595065D01*
X115637288Y-92583572D01*
X115650822Y-92570686D01*
X115664959Y-92558492D01*
X115677829Y-92544974D01*
X115815704Y-92413708D01*
X115822922Y-92407784D01*
X115842706Y-92388000D01*
X115863006Y-92368673D01*
X115869115Y-92361591D01*
X121100103Y-87130604D01*
X121103673Y-87127600D01*
X121126439Y-87104268D01*
X121149585Y-87081122D01*
X121152557Y-87077501D01*
X121192959Y-87036094D01*
X121199955Y-87029908D01*
X121219014Y-87009392D01*
X121238577Y-86989342D01*
X121244414Y-86982049D01*
X121286965Y-86936243D01*
X121293811Y-86929884D01*
X121312370Y-86908896D01*
X121331427Y-86888381D01*
X121337082Y-86880949D01*
X121378511Y-86834096D01*
X121385191Y-86827578D01*
X121403200Y-86806175D01*
X121421771Y-86785173D01*
X121427250Y-86777592D01*
X121467501Y-86729756D01*
X121474027Y-86723068D01*
X121491530Y-86701198D01*
X121509559Y-86679772D01*
X121514843Y-86672070D01*
X121553915Y-86623252D01*
X121560274Y-86616406D01*
X121577238Y-86594110D01*
X121594732Y-86572252D01*
X121599824Y-86564425D01*
X121637691Y-86514656D01*
X121643878Y-86507659D01*
X121660276Y-86484972D01*
X121677241Y-86462675D01*
X121682144Y-86454717D01*
X121718774Y-86404040D01*
X121724791Y-86396889D01*
X121740634Y-86373797D01*
X121757037Y-86351103D01*
X121761743Y-86343029D01*
X121797121Y-86291462D01*
X121802951Y-86284178D01*
X121818209Y-86260725D01*
X121834073Y-86237602D01*
X121838580Y-86229412D01*
X121872670Y-86177013D01*
X121878331Y-86169573D01*
X121893029Y-86145719D01*
X121908292Y-86122259D01*
X121912593Y-86113969D01*
X121945398Y-86060731D01*
X121950875Y-86053153D01*
X121964984Y-86028945D01*
X121979666Y-86005117D01*
X121983763Y-85996722D01*
X122015252Y-85942693D01*
X122020534Y-85934994D01*
X122034037Y-85910460D01*
X122048142Y-85886259D01*
X122052031Y-85877768D01*
X122082182Y-85822988D01*
X122087276Y-85815158D01*
X122100170Y-85790307D01*
X122113678Y-85765764D01*
X122117361Y-85757173D01*
X122146156Y-85701672D01*
X122151057Y-85693719D01*
X122163340Y-85668553D01*
X122176238Y-85643693D01*
X122179708Y-85635017D01*
X122207130Y-85578831D01*
X122211839Y-85570752D01*
X122223512Y-85545268D01*
X122235785Y-85520121D01*
X122239037Y-85511371D01*
X122265079Y-85454516D01*
X122269584Y-85446331D01*
X122280620Y-85420586D01*
X122292281Y-85395127D01*
X122295320Y-85386293D01*
X122319956Y-85328822D01*
X122324258Y-85320530D01*
X122334659Y-85294522D01*
X122345691Y-85268786D01*
X122348511Y-85259884D01*
X122371734Y-85201814D01*
X122375830Y-85193422D01*
X122385580Y-85167191D01*
X122395986Y-85141171D01*
X122398591Y-85132190D01*
X122420372Y-85073590D01*
X122424264Y-85065094D01*
X122433380Y-85038596D01*
X122443134Y-85012355D01*
X122445513Y-85003327D01*
X122465857Y-84944195D01*
X122469537Y-84935609D01*
X122477992Y-84908920D01*
X122487105Y-84882431D01*
X122489265Y-84873337D01*
X122508149Y-84813728D01*
X122511620Y-84805048D01*
X122519420Y-84778150D01*
X122527876Y-84751458D01*
X122529812Y-84742314D01*
X122547227Y-84682260D01*
X122550480Y-84673507D01*
X122557619Y-84646422D01*
X122565420Y-84619520D01*
X122567129Y-84610340D01*
X122583065Y-84549878D01*
X122586103Y-84541048D01*
X122592572Y-84513808D01*
X122599713Y-84486716D01*
X122601197Y-84477490D01*
X122615643Y-84416663D01*
X122618469Y-84407744D01*
X122624273Y-84380328D01*
X122630738Y-84353105D01*
X122631995Y-84343847D01*
X122644948Y-84282663D01*
X122647548Y-84273696D01*
X122652673Y-84246169D01*
X122658475Y-84218762D01*
X122659505Y-84209478D01*
X122670949Y-84148010D01*
X122673330Y-84138977D01*
X122677780Y-84111320D01*
X122682906Y-84083790D01*
X122683707Y-84074486D01*
X122693642Y-84012747D01*
X122695801Y-84003654D01*
X122699569Y-83975913D01*
X122704018Y-83948261D01*
X122704591Y-83938929D01*
X122713006Y-83876972D01*
X122714941Y-83867831D01*
X122718029Y-83839982D01*
X122721797Y-83812241D01*
X122722141Y-83802912D01*
X122729034Y-83740751D01*
X122730743Y-83731573D01*
X122733143Y-83703699D01*
X122736233Y-83675839D01*
X122736348Y-83666487D01*
X122741711Y-83604201D01*
X122743196Y-83594974D01*
X122744914Y-83567004D01*
X122747316Y-83539116D01*
X122747201Y-83529782D01*
X122751037Y-83467356D01*
X122752293Y-83458107D01*
X122753323Y-83430147D01*
X122755042Y-83402168D01*
X122754698Y-83392825D01*
X122756999Y-83330346D01*
X122758029Y-83321062D01*
X122758373Y-83293061D01*
X122759404Y-83265069D01*
X122758831Y-83255745D01*
X122759542Y-83197894D01*
X122760000Y-83193239D01*
X122760000Y-83160562D01*
X122760401Y-83127908D01*
X122760000Y-83123251D01*
X122760000Y-77927000D01*
X125800000Y-77927000D01*
X125824776Y-77924560D01*
X125848601Y-77917333D01*
X125870557Y-77905597D01*
X125889803Y-77889803D01*
X125905597Y-77870557D01*
X125917333Y-77848601D01*
X125924560Y-77824776D01*
X125927000Y-77800000D01*
X125927000Y-73245843D01*
X126091475Y-73339017D01*
X126260174Y-73445844D01*
X126423424Y-73560818D01*
X126580837Y-73683665D01*
X126732037Y-73814091D01*
X126883408Y-73958209D01*
X127240001Y-74314803D01*
X127240000Y-83915357D01*
X127238717Y-84019860D01*
X127235042Y-84119624D01*
X127228917Y-84219315D01*
X127220354Y-84318747D01*
X127209345Y-84418020D01*
X127195909Y-84516949D01*
X127180043Y-84615557D01*
X127161773Y-84713684D01*
X127141089Y-84811391D01*
X127118020Y-84908527D01*
X127092571Y-85005079D01*
X127064762Y-85100977D01*
X127059048Y-85119016D01*
X127015570Y-85014052D01*
X126843227Y-84756123D01*
X126623877Y-84536773D01*
X126365948Y-84364430D01*
X126079352Y-84245718D01*
X125775104Y-84185200D01*
X125464896Y-84185200D01*
X125160648Y-84245718D01*
X124874052Y-84364430D01*
X124616123Y-84536773D01*
X124396773Y-84756123D01*
X124224430Y-85014052D01*
X124105718Y-85300648D01*
X124045200Y-85604896D01*
X124045200Y-85915104D01*
X124105718Y-86219352D01*
X124224430Y-86505948D01*
X124396773Y-86763877D01*
X124616123Y-86983227D01*
X124686124Y-87030000D01*
X124616123Y-87076773D01*
X124396773Y-87296123D01*
X124224430Y-87554052D01*
X124105718Y-87840648D01*
X124045200Y-88144896D01*
X124045200Y-88455104D01*
X124105718Y-88759352D01*
X124224430Y-89045948D01*
X124396773Y-89303877D01*
X124616123Y-89523227D01*
X124686124Y-89570000D01*
X124616123Y-89616773D01*
X124396773Y-89836123D01*
X124224430Y-90094052D01*
X124105718Y-90380648D01*
X124045200Y-90684896D01*
X124045200Y-90995104D01*
X124105718Y-91299352D01*
X124224430Y-91585948D01*
X124396773Y-91843877D01*
X124616123Y-92063227D01*
X124686124Y-92110000D01*
X124616123Y-92156773D01*
X124396773Y-92376123D01*
X124224430Y-92634052D01*
X124105718Y-92920648D01*
X124045200Y-93224896D01*
X124045200Y-93535104D01*
X124105718Y-93839352D01*
X124224430Y-94125948D01*
X124396773Y-94383877D01*
X124616123Y-94603227D01*
X124686124Y-94650000D01*
X124616123Y-94696773D01*
X124396773Y-94916123D01*
X124224430Y-95174052D01*
X124105718Y-95460648D01*
X124045200Y-95764896D01*
X124045200Y-96075104D01*
X124105718Y-96379352D01*
X124224430Y-96665948D01*
X124396773Y-96923877D01*
X124616123Y-97143227D01*
X124686124Y-97190000D01*
X124616123Y-97236773D01*
X124396773Y-97456123D01*
X124224430Y-97714052D01*
X124105718Y-98000648D01*
X124045200Y-98304896D01*
X124045200Y-98615104D01*
X124105718Y-98919352D01*
X124224430Y-99205948D01*
X124396773Y-99463877D01*
X124616123Y-99683227D01*
X124686124Y-99730000D01*
X124616123Y-99776773D01*
X124396773Y-99996123D01*
X124224430Y-100254052D01*
X124105718Y-100540648D01*
X124045200Y-100844896D01*
X124045200Y-101155104D01*
X124105718Y-101459352D01*
X124224430Y-101745948D01*
X124396773Y-102003877D01*
X124616123Y-102223227D01*
X124686124Y-102270000D01*
X124616123Y-102316773D01*
X124396773Y-102536123D01*
X124224430Y-102794052D01*
X124105718Y-103080648D01*
X124045200Y-103384896D01*
X124045200Y-103695104D01*
X124105718Y-103999352D01*
X124224430Y-104285948D01*
X124396773Y-104543877D01*
X124616123Y-104763227D01*
X124686124Y-104810000D01*
X124616123Y-104856773D01*
X124396773Y-105076123D01*
X124224430Y-105334052D01*
X124105718Y-105620648D01*
X124045200Y-105924896D01*
X124045200Y-106235104D01*
X124105718Y-106539352D01*
X124224430Y-106825948D01*
X124396773Y-107083877D01*
X124616123Y-107303227D01*
X124686124Y-107350000D01*
X124616123Y-107396773D01*
X124396773Y-107616123D01*
X124224430Y-107874052D01*
X124105718Y-108160648D01*
X124045200Y-108464896D01*
X124045200Y-108775104D01*
X124105718Y-109079352D01*
X124224430Y-109365948D01*
X124396773Y-109623877D01*
X124616123Y-109843227D01*
X124686124Y-109890000D01*
X124616123Y-109936773D01*
X124396773Y-110156123D01*
X124224430Y-110414052D01*
X124105718Y-110700648D01*
X124045200Y-111004896D01*
X124045200Y-111315104D01*
X124105718Y-111619352D01*
X124224430Y-111905948D01*
X124396773Y-112163877D01*
X124616123Y-112383227D01*
X124686124Y-112430000D01*
X124616123Y-112476773D01*
X124396773Y-112696123D01*
X124224430Y-112954052D01*
X124105718Y-113240648D01*
X124045200Y-113544896D01*
X124045200Y-113855104D01*
X124105718Y-114159352D01*
X124224430Y-114445948D01*
X124369976Y-114663772D01*
X124285023Y-114658916D01*
X123977816Y-114701973D01*
X123684914Y-114804135D01*
X123525623Y-114889277D01*
X123437129Y-115147524D01*
X124350000Y-116060395D01*
X124364143Y-116046253D01*
X124543748Y-116225858D01*
X124529605Y-116240000D01*
X125442476Y-117152871D01*
X125700723Y-117064377D01*
X125835597Y-116785024D01*
X125913381Y-116484725D01*
X125931084Y-116175023D01*
X125888027Y-115867816D01*
X125785865Y-115574914D01*
X125700723Y-115415623D01*
X125442478Y-115327130D01*
X125494808Y-115274800D01*
X125775104Y-115274800D01*
X126079352Y-115214282D01*
X126365948Y-115095570D01*
X126623877Y-114923227D01*
X126843227Y-114703877D01*
X127015570Y-114445948D01*
X127134282Y-114159352D01*
X127194800Y-113855104D01*
X127194800Y-113544896D01*
X127134282Y-113240648D01*
X127015570Y-112954052D01*
X126843227Y-112696123D01*
X126623877Y-112476773D01*
X126553876Y-112430000D01*
X126623877Y-112383227D01*
X126843227Y-112163877D01*
X127015570Y-111905948D01*
X127134282Y-111619352D01*
X127194800Y-111315104D01*
X127194800Y-111004896D01*
X127134282Y-110700648D01*
X127015570Y-110414052D01*
X126843227Y-110156123D01*
X126623877Y-109936773D01*
X126553876Y-109890000D01*
X126623877Y-109843227D01*
X126843227Y-109623877D01*
X127015570Y-109365948D01*
X127134282Y-109079352D01*
X127194800Y-108775104D01*
X127194800Y-108464896D01*
X127134282Y-108160648D01*
X127015570Y-107874052D01*
X126843227Y-107616123D01*
X126623877Y-107396773D01*
X126553876Y-107350000D01*
X126623877Y-107303227D01*
X126843227Y-107083877D01*
X127015570Y-106825948D01*
X127134282Y-106539352D01*
X127194800Y-106235104D01*
X127194800Y-106009899D01*
X147936000Y-106009899D01*
X147936000Y-106310101D01*
X147994566Y-106604534D01*
X148109449Y-106881885D01*
X148276232Y-107131493D01*
X148488507Y-107343768D01*
X148738115Y-107510551D01*
X149015466Y-107625434D01*
X149309899Y-107684000D01*
X149610101Y-107684000D01*
X149904534Y-107625434D01*
X150181885Y-107510551D01*
X150431493Y-107343768D01*
X150643768Y-107131493D01*
X150730000Y-107002438D01*
X150816232Y-107131493D01*
X151028507Y-107343768D01*
X151278115Y-107510551D01*
X151555466Y-107625434D01*
X151849899Y-107684000D01*
X152150101Y-107684000D01*
X152444534Y-107625434D01*
X152721885Y-107510551D01*
X152971493Y-107343768D01*
X153183768Y-107131493D01*
X153270000Y-107002438D01*
X153356232Y-107131493D01*
X153568507Y-107343768D01*
X153818115Y-107510551D01*
X154095466Y-107625434D01*
X154389899Y-107684000D01*
X154690101Y-107684000D01*
X154984534Y-107625434D01*
X155261885Y-107510551D01*
X155511493Y-107343768D01*
X155723768Y-107131493D01*
X155890551Y-106881885D01*
X156005434Y-106604534D01*
X156064000Y-106310101D01*
X156064000Y-106009899D01*
X156005434Y-105715466D01*
X155890551Y-105438115D01*
X155723768Y-105188507D01*
X155511493Y-104976232D01*
X155261885Y-104809449D01*
X154984534Y-104694566D01*
X154690101Y-104636000D01*
X154389899Y-104636000D01*
X154095466Y-104694566D01*
X153818115Y-104809449D01*
X153568507Y-104976232D01*
X153356232Y-105188507D01*
X153270000Y-105317562D01*
X153183768Y-105188507D01*
X152971493Y-104976232D01*
X152721885Y-104809449D01*
X152444534Y-104694566D01*
X152150101Y-104636000D01*
X151849899Y-104636000D01*
X151555466Y-104694566D01*
X151278115Y-104809449D01*
X151028507Y-104976232D01*
X150816232Y-105188507D01*
X150730000Y-105317562D01*
X150643768Y-105188507D01*
X150431493Y-104976232D01*
X150181885Y-104809449D01*
X149904534Y-104694566D01*
X149610101Y-104636000D01*
X149309899Y-104636000D01*
X149015466Y-104694566D01*
X148738115Y-104809449D01*
X148488507Y-104976232D01*
X148276232Y-105188507D01*
X148109449Y-105438115D01*
X147994566Y-105715466D01*
X147936000Y-106009899D01*
X127194800Y-106009899D01*
X127194800Y-105924896D01*
X127134282Y-105620648D01*
X127015570Y-105334052D01*
X126843227Y-105076123D01*
X126623877Y-104856773D01*
X126553876Y-104810000D01*
X126623877Y-104763227D01*
X126843227Y-104543877D01*
X127015570Y-104285948D01*
X127134282Y-103999352D01*
X127194800Y-103695104D01*
X127194800Y-103384896D01*
X127134282Y-103080648D01*
X127015570Y-102794052D01*
X126843227Y-102536123D01*
X126799486Y-102492382D01*
X142602000Y-102492382D01*
X142602000Y-102842618D01*
X142670328Y-103186123D01*
X142804357Y-103509699D01*
X142998937Y-103800909D01*
X143246591Y-104048563D01*
X143537801Y-104243143D01*
X143861377Y-104377172D01*
X144204882Y-104445500D01*
X144555118Y-104445500D01*
X144898623Y-104377172D01*
X145222199Y-104243143D01*
X145513409Y-104048563D01*
X145761063Y-103800909D01*
X145955643Y-103509699D01*
X146089672Y-103186123D01*
X146158000Y-102842618D01*
X146158000Y-102492382D01*
X157842000Y-102492382D01*
X157842000Y-102842618D01*
X157910328Y-103186123D01*
X158044357Y-103509699D01*
X158238937Y-103800909D01*
X158486591Y-104048563D01*
X158777801Y-104243143D01*
X159101377Y-104377172D01*
X159444882Y-104445500D01*
X159795118Y-104445500D01*
X160138623Y-104377172D01*
X160462199Y-104243143D01*
X160753409Y-104048563D01*
X161001063Y-103800909D01*
X161195643Y-103509699D01*
X161329672Y-103186123D01*
X161398000Y-102842618D01*
X161398000Y-102492382D01*
X161329672Y-102148877D01*
X161195643Y-101825301D01*
X161001063Y-101534091D01*
X160753409Y-101286437D01*
X160462199Y-101091857D01*
X160138623Y-100957828D01*
X159795118Y-100889500D01*
X159444882Y-100889500D01*
X159101377Y-100957828D01*
X158777801Y-101091857D01*
X158486591Y-101286437D01*
X158238937Y-101534091D01*
X158044357Y-101825301D01*
X157910328Y-102148877D01*
X157842000Y-102492382D01*
X146158000Y-102492382D01*
X146089672Y-102148877D01*
X145955643Y-101825301D01*
X145761063Y-101534091D01*
X145513409Y-101286437D01*
X145222199Y-101091857D01*
X144898623Y-100957828D01*
X144555118Y-100889500D01*
X144204882Y-100889500D01*
X143861377Y-100957828D01*
X143537801Y-101091857D01*
X143246591Y-101286437D01*
X142998937Y-101534091D01*
X142804357Y-101825301D01*
X142670328Y-102148877D01*
X142602000Y-102492382D01*
X126799486Y-102492382D01*
X126623877Y-102316773D01*
X126553876Y-102270000D01*
X126623877Y-102223227D01*
X126843227Y-102003877D01*
X127015570Y-101745948D01*
X127134282Y-101459352D01*
X127194800Y-101155104D01*
X127194800Y-100844896D01*
X127134282Y-100540648D01*
X127015570Y-100254052D01*
X126843227Y-99996123D01*
X126623877Y-99776773D01*
X126553876Y-99730000D01*
X126623877Y-99683227D01*
X126710873Y-99596231D01*
X140963374Y-99596231D01*
X141045727Y-99849289D01*
X141316418Y-99979086D01*
X141607230Y-100053580D01*
X141906988Y-100069908D01*
X142204171Y-100027443D01*
X142487359Y-99927816D01*
X142634273Y-99849289D01*
X142716626Y-99596231D01*
X141840000Y-98719605D01*
X140963374Y-99596231D01*
X126710873Y-99596231D01*
X126843227Y-99463877D01*
X127015570Y-99205948D01*
X127134282Y-98919352D01*
X127194800Y-98615104D01*
X127194800Y-98606988D01*
X140310092Y-98606988D01*
X140352557Y-98904171D01*
X140452184Y-99187359D01*
X140530711Y-99334273D01*
X140783769Y-99416626D01*
X141660395Y-98540000D01*
X142019605Y-98540000D01*
X142896231Y-99416626D01*
X143149289Y-99334273D01*
X143279086Y-99063582D01*
X143353580Y-98772770D01*
X143369908Y-98473012D01*
X143327443Y-98175829D01*
X143227816Y-97892641D01*
X143149289Y-97745727D01*
X142896231Y-97663374D01*
X142019605Y-98540000D01*
X141660395Y-98540000D01*
X140783769Y-97663374D01*
X140530711Y-97745727D01*
X140400914Y-98016418D01*
X140326420Y-98307230D01*
X140310092Y-98606988D01*
X127194800Y-98606988D01*
X127194800Y-98304896D01*
X127134282Y-98000648D01*
X127015570Y-97714052D01*
X126843227Y-97456123D01*
X126623877Y-97236773D01*
X126553876Y-97190000D01*
X126623877Y-97143227D01*
X126843227Y-96923877D01*
X127015570Y-96665948D01*
X127134282Y-96379352D01*
X127194800Y-96075104D01*
X127194800Y-95764896D01*
X127134282Y-95460648D01*
X127015570Y-95174052D01*
X126843227Y-94916123D01*
X126623877Y-94696773D01*
X126553876Y-94650000D01*
X126623877Y-94603227D01*
X126843227Y-94383877D01*
X127015570Y-94125948D01*
X127134282Y-93839352D01*
X127194800Y-93535104D01*
X127194800Y-93309899D01*
X140316000Y-93309899D01*
X140316000Y-93610101D01*
X140374566Y-93904534D01*
X140489449Y-94181885D01*
X140656232Y-94431493D01*
X140868507Y-94643768D01*
X140997562Y-94730000D01*
X140868507Y-94816232D01*
X140656232Y-95028507D01*
X140489449Y-95278115D01*
X140374566Y-95555466D01*
X140316000Y-95849899D01*
X140316000Y-96150101D01*
X140374566Y-96444534D01*
X140489449Y-96721885D01*
X140656232Y-96971493D01*
X140868507Y-97183768D01*
X141026622Y-97289417D01*
X140963374Y-97483769D01*
X141840000Y-98360395D01*
X142716626Y-97483769D01*
X142653378Y-97289417D01*
X142811493Y-97183768D01*
X143023768Y-96971493D01*
X143190551Y-96721885D01*
X143305434Y-96444534D01*
X143364000Y-96150101D01*
X143364000Y-95849899D01*
X143305434Y-95555466D01*
X143190551Y-95278115D01*
X143023768Y-95028507D01*
X142811493Y-94816232D01*
X142682438Y-94730000D01*
X142811493Y-94643768D01*
X143023768Y-94431493D01*
X143190551Y-94181885D01*
X143305434Y-93904534D01*
X143364000Y-93610101D01*
X143364000Y-93309899D01*
X143305434Y-93015466D01*
X143190551Y-92738115D01*
X143023768Y-92488507D01*
X142811493Y-92276232D01*
X142561885Y-92109449D01*
X142284534Y-91994566D01*
X141990101Y-91936000D01*
X141689899Y-91936000D01*
X141395466Y-91994566D01*
X141118115Y-92109449D01*
X140868507Y-92276232D01*
X140656232Y-92488507D01*
X140489449Y-92738115D01*
X140374566Y-93015466D01*
X140316000Y-93309899D01*
X127194800Y-93309899D01*
X127194800Y-93224896D01*
X127134282Y-92920648D01*
X127015570Y-92634052D01*
X126843227Y-92376123D01*
X126623877Y-92156773D01*
X126553876Y-92110000D01*
X126623877Y-92063227D01*
X126843227Y-91843877D01*
X127015570Y-91585948D01*
X127134282Y-91299352D01*
X127153443Y-91203021D01*
X127173671Y-91133975D01*
X127187866Y-91075320D01*
X127221202Y-90901904D01*
X127228316Y-90855832D01*
X127246800Y-90697868D01*
X127248996Y-90675760D01*
X127260524Y-90534611D01*
X127271429Y-90424576D01*
X127284301Y-90351483D01*
X127300507Y-90299189D01*
X127327505Y-90243832D01*
X127381723Y-90165336D01*
X127491432Y-90043369D01*
X128100103Y-89434698D01*
X128103673Y-89431694D01*
X128126439Y-89408362D01*
X128149585Y-89385216D01*
X128152557Y-89381595D01*
X128192959Y-89340188D01*
X128199955Y-89334002D01*
X128219014Y-89313486D01*
X128238577Y-89293436D01*
X128244414Y-89286143D01*
X128286965Y-89240337D01*
X128293811Y-89233978D01*
X128312370Y-89212990D01*
X128331427Y-89192475D01*
X128337082Y-89185043D01*
X128361540Y-89157382D01*
X142602000Y-89157382D01*
X142602000Y-89507618D01*
X142670328Y-89851123D01*
X142804357Y-90174699D01*
X142998937Y-90465909D01*
X143246591Y-90713563D01*
X143537801Y-90908143D01*
X143861377Y-91042172D01*
X144204882Y-91110500D01*
X144555118Y-91110500D01*
X144898623Y-91042172D01*
X145222199Y-90908143D01*
X145513409Y-90713563D01*
X145761063Y-90465909D01*
X145955643Y-90174699D01*
X146089672Y-89851123D01*
X146158000Y-89507618D01*
X146158000Y-89157382D01*
X146089672Y-88813877D01*
X145955643Y-88490301D01*
X145781649Y-88229899D01*
X147301000Y-88229899D01*
X147301000Y-88530101D01*
X147359566Y-88824534D01*
X147474449Y-89101885D01*
X147641232Y-89351493D01*
X147853507Y-89563768D01*
X148103115Y-89730551D01*
X148380466Y-89845434D01*
X148674899Y-89904000D01*
X148975101Y-89904000D01*
X149269534Y-89845434D01*
X149546885Y-89730551D01*
X149796493Y-89563768D01*
X150008768Y-89351493D01*
X150175551Y-89101885D01*
X150290434Y-88824534D01*
X150349000Y-88530101D01*
X150349000Y-88229899D01*
X153651000Y-88229899D01*
X153651000Y-88530101D01*
X153709566Y-88824534D01*
X153824449Y-89101885D01*
X153991232Y-89351493D01*
X154203507Y-89563768D01*
X154453115Y-89730551D01*
X154730466Y-89845434D01*
X155024899Y-89904000D01*
X155325101Y-89904000D01*
X155619534Y-89845434D01*
X155896885Y-89730551D01*
X156146493Y-89563768D01*
X156358768Y-89351493D01*
X156488469Y-89157382D01*
X157842000Y-89157382D01*
X157842000Y-89507618D01*
X157910328Y-89851123D01*
X158044357Y-90174699D01*
X158238937Y-90465909D01*
X158486591Y-90713563D01*
X158777801Y-90908143D01*
X159101377Y-91042172D01*
X159444882Y-91110500D01*
X159795118Y-91110500D01*
X160138623Y-91042172D01*
X160462199Y-90908143D01*
X160753409Y-90713563D01*
X161001063Y-90465909D01*
X161195643Y-90174699D01*
X161329672Y-89851123D01*
X161398000Y-89507618D01*
X161398000Y-89157382D01*
X161329672Y-88813877D01*
X161195643Y-88490301D01*
X161001063Y-88199091D01*
X160753409Y-87951437D01*
X160462199Y-87756857D01*
X160138623Y-87622828D01*
X159795118Y-87554500D01*
X159444882Y-87554500D01*
X159101377Y-87622828D01*
X158777801Y-87756857D01*
X158486591Y-87951437D01*
X158238937Y-88199091D01*
X158044357Y-88490301D01*
X157910328Y-88813877D01*
X157842000Y-89157382D01*
X156488469Y-89157382D01*
X156525551Y-89101885D01*
X156640434Y-88824534D01*
X156699000Y-88530101D01*
X156699000Y-88229899D01*
X156640434Y-87935466D01*
X156525551Y-87658115D01*
X156358768Y-87408507D01*
X156146493Y-87196232D01*
X155896885Y-87029449D01*
X155619534Y-86914566D01*
X155325101Y-86856000D01*
X155024899Y-86856000D01*
X154730466Y-86914566D01*
X154453115Y-87029449D01*
X154203507Y-87196232D01*
X153991232Y-87408507D01*
X153824449Y-87658115D01*
X153709566Y-87935466D01*
X153651000Y-88229899D01*
X150349000Y-88229899D01*
X150290434Y-87935466D01*
X150175551Y-87658115D01*
X150008768Y-87408507D01*
X149796493Y-87196232D01*
X149546885Y-87029449D01*
X149269534Y-86914566D01*
X148975101Y-86856000D01*
X148674899Y-86856000D01*
X148380466Y-86914566D01*
X148103115Y-87029449D01*
X147853507Y-87196232D01*
X147641232Y-87408507D01*
X147474449Y-87658115D01*
X147359566Y-87935466D01*
X147301000Y-88229899D01*
X145781649Y-88229899D01*
X145761063Y-88199091D01*
X145513409Y-87951437D01*
X145222199Y-87756857D01*
X144898623Y-87622828D01*
X144555118Y-87554500D01*
X144204882Y-87554500D01*
X143861377Y-87622828D01*
X143537801Y-87756857D01*
X143246591Y-87951437D01*
X142998937Y-88199091D01*
X142804357Y-88490301D01*
X142670328Y-88813877D01*
X142602000Y-89157382D01*
X128361540Y-89157382D01*
X128378511Y-89138190D01*
X128385191Y-89131672D01*
X128403200Y-89110269D01*
X128421771Y-89089267D01*
X128427250Y-89081686D01*
X128467501Y-89033850D01*
X128474027Y-89027162D01*
X128491530Y-89005292D01*
X128509559Y-88983866D01*
X128514843Y-88976164D01*
X128553915Y-88927346D01*
X128560274Y-88920500D01*
X128577238Y-88898204D01*
X128594732Y-88876346D01*
X128599824Y-88868519D01*
X128637691Y-88818750D01*
X128643878Y-88811753D01*
X128660276Y-88789066D01*
X128677241Y-88766769D01*
X128682144Y-88758811D01*
X128718774Y-88708134D01*
X128724791Y-88700983D01*
X128740634Y-88677891D01*
X128757037Y-88655197D01*
X128761743Y-88647123D01*
X128797121Y-88595556D01*
X128802951Y-88588272D01*
X128818209Y-88564819D01*
X128834073Y-88541696D01*
X128838580Y-88533506D01*
X128872670Y-88481107D01*
X128878331Y-88473667D01*
X128893029Y-88449813D01*
X128908292Y-88426353D01*
X128912593Y-88418063D01*
X128945398Y-88364825D01*
X128950875Y-88357247D01*
X128964984Y-88333039D01*
X128979666Y-88309211D01*
X128983763Y-88300816D01*
X129015252Y-88246787D01*
X129020534Y-88239088D01*
X129034037Y-88214554D01*
X129048142Y-88190353D01*
X129052031Y-88181862D01*
X129082182Y-88127082D01*
X129087276Y-88119252D01*
X129100170Y-88094401D01*
X129113678Y-88069858D01*
X129117361Y-88061267D01*
X129146156Y-88005766D01*
X129151057Y-87997813D01*
X129163340Y-87972647D01*
X129176238Y-87947787D01*
X129179708Y-87939111D01*
X129207130Y-87882925D01*
X129211839Y-87874846D01*
X129223512Y-87849362D01*
X129235785Y-87824215D01*
X129239037Y-87815465D01*
X129265079Y-87758610D01*
X129269584Y-87750425D01*
X129280620Y-87724680D01*
X129292281Y-87699221D01*
X129295320Y-87690387D01*
X129319956Y-87632916D01*
X129324258Y-87624624D01*
X129334659Y-87598616D01*
X129345691Y-87572880D01*
X129348511Y-87563978D01*
X129371734Y-87505908D01*
X129375830Y-87497516D01*
X129385580Y-87471285D01*
X129395986Y-87445265D01*
X129398591Y-87436284D01*
X129420372Y-87377684D01*
X129424264Y-87369188D01*
X129433380Y-87342690D01*
X129443134Y-87316449D01*
X129445513Y-87307421D01*
X129465857Y-87248289D01*
X129469537Y-87239703D01*
X129477992Y-87213014D01*
X129487105Y-87186525D01*
X129489265Y-87177431D01*
X129508149Y-87117822D01*
X129511620Y-87109142D01*
X129519420Y-87082244D01*
X129527876Y-87055552D01*
X129529812Y-87046408D01*
X129547227Y-86986354D01*
X129550480Y-86977601D01*
X129557619Y-86950516D01*
X129565420Y-86923614D01*
X129567129Y-86914434D01*
X129583065Y-86853972D01*
X129586103Y-86845142D01*
X129592572Y-86817902D01*
X129599713Y-86790810D01*
X129601197Y-86781584D01*
X129615643Y-86720757D01*
X129618469Y-86711838D01*
X129624273Y-86684422D01*
X129630738Y-86657199D01*
X129631995Y-86647941D01*
X129644948Y-86586757D01*
X129647548Y-86577790D01*
X129652673Y-86550263D01*
X129658475Y-86522856D01*
X129659505Y-86513572D01*
X129670949Y-86452104D01*
X129673330Y-86443071D01*
X129677780Y-86415414D01*
X129682906Y-86387884D01*
X129683707Y-86378580D01*
X129693642Y-86316841D01*
X129695801Y-86307748D01*
X129699569Y-86280007D01*
X129704018Y-86252355D01*
X129704591Y-86243023D01*
X129713006Y-86181066D01*
X129714941Y-86171925D01*
X129718029Y-86144076D01*
X129721797Y-86116335D01*
X129722141Y-86107006D01*
X129729034Y-86044845D01*
X129730743Y-86035667D01*
X129733143Y-86007793D01*
X129736233Y-85979933D01*
X129736348Y-85970581D01*
X129741711Y-85908295D01*
X129743196Y-85899068D01*
X129744914Y-85871098D01*
X129747316Y-85843210D01*
X129747201Y-85833876D01*
X129751037Y-85771450D01*
X129752293Y-85762201D01*
X129753323Y-85734241D01*
X129755042Y-85706262D01*
X129754698Y-85696919D01*
X129756999Y-85634440D01*
X129758029Y-85625156D01*
X129758373Y-85597155D01*
X129759404Y-85569163D01*
X129758831Y-85559839D01*
X129759542Y-85501988D01*
X129760000Y-85497333D01*
X129760000Y-85464656D01*
X129760401Y-85432002D01*
X129760000Y-85427345D01*
X129760000Y-83149899D01*
X147301000Y-83149899D01*
X147301000Y-83450101D01*
X147359566Y-83744534D01*
X147474449Y-84021885D01*
X147641232Y-84271493D01*
X147853507Y-84483768D01*
X148103115Y-84650551D01*
X148380466Y-84765434D01*
X148674899Y-84824000D01*
X148975101Y-84824000D01*
X149269534Y-84765434D01*
X149546885Y-84650551D01*
X149796493Y-84483768D01*
X150008768Y-84271493D01*
X150175551Y-84021885D01*
X150290434Y-83744534D01*
X150349000Y-83450101D01*
X150349000Y-83149899D01*
X153651000Y-83149899D01*
X153651000Y-83450101D01*
X153709566Y-83744534D01*
X153824449Y-84021885D01*
X153991232Y-84271493D01*
X154203507Y-84483768D01*
X154453115Y-84650551D01*
X154730466Y-84765434D01*
X155024899Y-84824000D01*
X155325101Y-84824000D01*
X155619534Y-84765434D01*
X155896885Y-84650551D01*
X156146493Y-84483768D01*
X156358768Y-84271493D01*
X156525551Y-84021885D01*
X156640434Y-83744534D01*
X156699000Y-83450101D01*
X156699000Y-83149899D01*
X156640434Y-82855466D01*
X156525551Y-82578115D01*
X156358768Y-82328507D01*
X156146493Y-82116232D01*
X155896885Y-81949449D01*
X155619534Y-81834566D01*
X155325101Y-81776000D01*
X155024899Y-81776000D01*
X154730466Y-81834566D01*
X154453115Y-81949449D01*
X154203507Y-82116232D01*
X153991232Y-82328507D01*
X153824449Y-82578115D01*
X153709566Y-82855466D01*
X153651000Y-83149899D01*
X150349000Y-83149899D01*
X150290434Y-82855466D01*
X150175551Y-82578115D01*
X150008768Y-82328507D01*
X149796493Y-82116232D01*
X149546885Y-81949449D01*
X149269534Y-81834566D01*
X148975101Y-81776000D01*
X148674899Y-81776000D01*
X148380466Y-81834566D01*
X148103115Y-81949449D01*
X147853507Y-82116232D01*
X147641232Y-82328507D01*
X147474449Y-82578115D01*
X147359566Y-82855466D01*
X147301000Y-83149899D01*
X129760000Y-83149899D01*
X129760000Y-82103584D01*
X139766958Y-82103584D01*
X139769882Y-82133272D01*
X139777574Y-82156951D01*
X139789737Y-82178674D01*
X139805904Y-82197607D01*
X139825454Y-82213022D01*
X139847636Y-82224326D01*
X139871597Y-82231086D01*
X139896416Y-82233042D01*
X140285867Y-82225428D01*
X140317317Y-82220835D01*
X140340541Y-82211864D01*
X140361568Y-82198534D01*
X140379591Y-82181358D01*
X140393916Y-82160996D01*
X140403994Y-82138231D01*
X140421528Y-82085068D01*
X140422433Y-82082211D01*
X140436804Y-82034915D01*
X140436969Y-82034369D01*
X140449356Y-81992933D01*
X140460699Y-81957806D01*
X140472154Y-81927709D01*
X140485140Y-81900128D01*
X140501610Y-81872004D01*
X140523959Y-81840616D01*
X140554582Y-81804015D01*
X140597662Y-81758661D01*
X140611177Y-81741754D01*
X140622913Y-81719798D01*
X140630140Y-81695973D01*
X140632580Y-81671197D01*
X140630140Y-81646421D01*
X140622913Y-81622596D01*
X140611177Y-81600640D01*
X140595383Y-81581394D01*
X140418606Y-81404617D01*
X140402055Y-81390674D01*
X140380407Y-81378377D01*
X140356777Y-81370539D01*
X140332072Y-81367462D01*
X140307240Y-81369264D01*
X140283238Y-81375875D01*
X140260987Y-81387042D01*
X140241341Y-81402336D01*
X140195984Y-81445417D01*
X140159383Y-81476040D01*
X140127995Y-81498389D01*
X140099871Y-81514859D01*
X140072290Y-81527845D01*
X140042193Y-81539300D01*
X140007066Y-81550643D01*
X139965630Y-81563030D01*
X139965084Y-81563195D01*
X139917788Y-81577566D01*
X139914928Y-81578471D01*
X139861766Y-81596006D01*
X139833068Y-81609659D01*
X139813518Y-81625074D01*
X139797351Y-81644007D01*
X139785188Y-81665730D01*
X139777496Y-81689409D01*
X139774572Y-81714133D01*
X139766958Y-82103584D01*
X129760000Y-82103584D01*
X129760000Y-75200000D01*
X130561928Y-75200000D01*
X130561928Y-76800000D01*
X130574188Y-76924482D01*
X130610498Y-77044180D01*
X130669463Y-77154494D01*
X130748815Y-77251185D01*
X130845506Y-77330537D01*
X130955820Y-77389502D01*
X131075518Y-77425812D01*
X131200000Y-77438072D01*
X132800000Y-77438072D01*
X132924482Y-77425812D01*
X133044180Y-77389502D01*
X133154494Y-77330537D01*
X133251185Y-77251185D01*
X133330537Y-77154494D01*
X133389502Y-77044180D01*
X133425812Y-76924482D01*
X133438072Y-76800000D01*
X133438072Y-75200000D01*
X133425812Y-75075518D01*
X133389502Y-74955820D01*
X133330537Y-74845506D01*
X133251185Y-74748815D01*
X133154494Y-74669463D01*
X133044180Y-74610498D01*
X132924482Y-74574188D01*
X132800000Y-74561928D01*
X132792785Y-74561928D01*
X132813097Y-74492702D01*
X132000000Y-73679605D01*
X131186903Y-74492702D01*
X131207215Y-74561928D01*
X131200000Y-74561928D01*
X131075518Y-74574188D01*
X130955820Y-74610498D01*
X130845506Y-74669463D01*
X130748815Y-74748815D01*
X130669463Y-74845506D01*
X130610498Y-74955820D01*
X130574188Y-75075518D01*
X130561928Y-75200000D01*
X129760000Y-75200000D01*
X129760000Y-75032655D01*
X129760401Y-75027998D01*
X129760000Y-74995344D01*
X129760000Y-74962667D01*
X129759542Y-74958012D01*
X129758831Y-74900160D01*
X129759404Y-74890836D01*
X129758373Y-74862844D01*
X129758029Y-74834843D01*
X129756999Y-74825559D01*
X129754698Y-74763080D01*
X129755042Y-74753737D01*
X129753323Y-74725758D01*
X129752293Y-74697798D01*
X129751037Y-74688549D01*
X129747201Y-74626123D01*
X129747316Y-74616789D01*
X129744914Y-74588901D01*
X129743196Y-74560931D01*
X129741711Y-74551704D01*
X129736348Y-74489418D01*
X129736233Y-74480066D01*
X129733143Y-74452205D01*
X129730743Y-74424332D01*
X129729034Y-74415154D01*
X129722141Y-74352993D01*
X129721797Y-74343662D01*
X129718029Y-74315917D01*
X129714941Y-74288073D01*
X129713006Y-74278934D01*
X129704591Y-74216972D01*
X129704018Y-74207645D01*
X129699570Y-74180004D01*
X129695801Y-74152250D01*
X129693641Y-74143154D01*
X129683708Y-74081422D01*
X129682906Y-74072113D01*
X129677778Y-74044570D01*
X129673330Y-74016928D01*
X129670950Y-74007899D01*
X129659504Y-73946424D01*
X129658475Y-73937143D01*
X129652675Y-73909745D01*
X129647548Y-73882208D01*
X129644947Y-73873239D01*
X129631995Y-73812056D01*
X129630738Y-73802801D01*
X129624273Y-73775579D01*
X129618469Y-73748161D01*
X129615644Y-73739244D01*
X129601197Y-73678409D01*
X129599714Y-73669194D01*
X129592581Y-73642129D01*
X129586104Y-73614857D01*
X129583063Y-73606019D01*
X129573705Y-73570512D01*
X130559783Y-73570512D01*
X130601213Y-73850130D01*
X130696397Y-74116292D01*
X130763329Y-74241514D01*
X131007298Y-74313097D01*
X131820395Y-73500000D01*
X132179605Y-73500000D01*
X132992702Y-74313097D01*
X133236671Y-74241514D01*
X133357571Y-73986004D01*
X133426300Y-73711816D01*
X133440217Y-73429488D01*
X133398787Y-73149870D01*
X133303603Y-72883708D01*
X133236671Y-72758486D01*
X132992702Y-72686903D01*
X132179605Y-73500000D01*
X131820395Y-73500000D01*
X131007298Y-72686903D01*
X130763329Y-72758486D01*
X130642429Y-73013996D01*
X130573700Y-73288184D01*
X130559783Y-73570512D01*
X129573705Y-73570512D01*
X129567129Y-73545562D01*
X129565419Y-73536376D01*
X129557621Y-73509487D01*
X129550483Y-73482403D01*
X129547226Y-73473641D01*
X129529811Y-73413590D01*
X129527876Y-73404447D01*
X129519416Y-73377742D01*
X129511617Y-73350849D01*
X129508148Y-73342175D01*
X129489267Y-73282574D01*
X129487106Y-73273476D01*
X129477988Y-73246972D01*
X129469537Y-73220296D01*
X129465859Y-73211715D01*
X129445513Y-73152574D01*
X129443134Y-73143549D01*
X129433384Y-73117318D01*
X129424265Y-73090812D01*
X129420372Y-73082313D01*
X129398591Y-73023714D01*
X129395986Y-73014733D01*
X129385580Y-72988713D01*
X129375830Y-72962482D01*
X129371734Y-72954090D01*
X129348511Y-72896020D01*
X129345691Y-72887118D01*
X129334659Y-72861382D01*
X129324258Y-72835374D01*
X129319956Y-72827082D01*
X129295320Y-72769612D01*
X129292280Y-72760774D01*
X129280618Y-72735314D01*
X129269584Y-72709573D01*
X129265077Y-72701385D01*
X129239039Y-72644539D01*
X129235785Y-72635784D01*
X129223499Y-72610610D01*
X129211837Y-72585151D01*
X129207135Y-72577083D01*
X129179711Y-72520895D01*
X129176242Y-72512220D01*
X129173689Y-72507298D01*
X131186903Y-72507298D01*
X132000000Y-73320395D01*
X132634963Y-72685432D01*
X142363484Y-72685432D01*
X142368076Y-72709901D01*
X142377353Y-72733004D01*
X142413756Y-72802923D01*
X142416935Y-72808661D01*
X142452099Y-72868445D01*
X142454188Y-72871872D01*
X142487504Y-72924626D01*
X142487522Y-72924655D01*
X142517056Y-72971392D01*
X142541131Y-73012989D01*
X142560216Y-73052809D01*
X142575362Y-73095378D01*
X142587127Y-73146021D01*
X142595016Y-73209661D01*
X142598083Y-73294584D01*
X142600440Y-73314776D01*
X142607667Y-73338601D01*
X142619403Y-73360557D01*
X142635197Y-73379803D01*
X142654443Y-73395597D01*
X142676399Y-73407333D01*
X142700224Y-73414560D01*
X142725000Y-73417000D01*
X142975000Y-73417000D01*
X142995266Y-73415373D01*
X143019336Y-73409010D01*
X143041702Y-73398074D01*
X143061504Y-73382984D01*
X143077982Y-73364321D01*
X143090503Y-73342803D01*
X143098585Y-73319254D01*
X143101917Y-73294582D01*
X143104983Y-73209661D01*
X143112872Y-73146021D01*
X143124637Y-73095378D01*
X143139783Y-73052809D01*
X143158868Y-73012989D01*
X143182943Y-72971392D01*
X143212477Y-72924655D01*
X143212495Y-72924626D01*
X143245811Y-72871872D01*
X143247900Y-72868445D01*
X143283064Y-72808661D01*
X143286242Y-72802924D01*
X143322646Y-72733005D01*
X143334052Y-72701561D01*
X143336976Y-72676837D01*
X143335020Y-72652018D01*
X143328260Y-72628057D01*
X143316955Y-72605875D01*
X143301541Y-72586325D01*
X142941541Y-72211970D01*
X142918480Y-72193045D01*
X142896298Y-72181740D01*
X142872337Y-72174980D01*
X142847518Y-72173024D01*
X142822794Y-72175948D01*
X142799115Y-72183640D01*
X142777392Y-72195803D01*
X142758459Y-72211970D01*
X142398459Y-72586325D01*
X142378652Y-72613276D01*
X142368876Y-72636173D01*
X142363754Y-72660537D01*
X142363484Y-72685432D01*
X132634963Y-72685432D01*
X132813097Y-72507298D01*
X132741514Y-72263329D01*
X132486004Y-72142429D01*
X132211816Y-72073700D01*
X131929488Y-72059783D01*
X131649870Y-72101213D01*
X131383708Y-72196397D01*
X131258486Y-72263329D01*
X131186903Y-72507298D01*
X129173689Y-72507298D01*
X129163338Y-72487347D01*
X129151057Y-72462186D01*
X129146160Y-72454238D01*
X129117363Y-72398735D01*
X129113679Y-72390140D01*
X129100172Y-72365599D01*
X129087281Y-72340753D01*
X129082185Y-72332920D01*
X129052028Y-72278128D01*
X129048139Y-72269638D01*
X129034043Y-72245453D01*
X129020535Y-72220910D01*
X129015248Y-72213203D01*
X128983766Y-72159188D01*
X128979668Y-72150791D01*
X128964968Y-72126934D01*
X128950870Y-72102745D01*
X128945401Y-72095179D01*
X128912591Y-72041931D01*
X128908292Y-72033645D01*
X128893041Y-72010202D01*
X128878333Y-71986333D01*
X128872667Y-71978886D01*
X128838580Y-71926492D01*
X128834073Y-71918302D01*
X128818209Y-71895179D01*
X128802951Y-71871726D01*
X128797121Y-71864442D01*
X128761743Y-71812875D01*
X128757037Y-71804801D01*
X128740634Y-71782107D01*
X128724791Y-71759015D01*
X128718774Y-71751864D01*
X128682144Y-71701187D01*
X128677241Y-71693229D01*
X128660276Y-71670932D01*
X128643878Y-71648245D01*
X128637691Y-71641248D01*
X128599826Y-71591482D01*
X128594735Y-71583656D01*
X128577239Y-71561795D01*
X128560274Y-71539498D01*
X128553916Y-71532653D01*
X128514848Y-71483840D01*
X128509558Y-71476129D01*
X128491517Y-71454689D01*
X128474031Y-71432840D01*
X128467507Y-71426154D01*
X128427246Y-71378305D01*
X128421771Y-71370731D01*
X128403211Y-71349741D01*
X128385188Y-71328322D01*
X128378505Y-71321801D01*
X128337082Y-71274955D01*
X128331427Y-71267523D01*
X128312370Y-71247008D01*
X128293811Y-71226020D01*
X128286965Y-71219661D01*
X128244412Y-71173853D01*
X128238575Y-71166560D01*
X128219015Y-71146513D01*
X128199955Y-71125996D01*
X128192958Y-71119809D01*
X128152547Y-71078393D01*
X128149585Y-71074784D01*
X128126516Y-71051715D01*
X128103670Y-71028301D01*
X128100088Y-71025287D01*
X127864555Y-70789754D01*
X127777829Y-70718579D01*
X127777827Y-70718578D01*
X127706450Y-70660000D01*
X150860004Y-70660000D01*
X152555740Y-71413268D01*
X154291717Y-72346098D01*
X155952858Y-73406457D01*
X157529834Y-74588394D01*
X159013734Y-75885230D01*
X160396232Y-77289686D01*
X161669533Y-78793846D01*
X162826468Y-80389237D01*
X163860516Y-82066871D01*
X164765885Y-83817347D01*
X165537447Y-85630755D01*
X166170871Y-87496915D01*
X166662588Y-89405305D01*
X167009837Y-91345219D01*
X167210653Y-93305687D01*
X167263911Y-95275695D01*
X167169312Y-97244147D01*
X166927383Y-99199981D01*
X166539495Y-101132148D01*
X166007820Y-103029819D01*
X165335364Y-104882264D01*
X164525903Y-106679083D01*
X163584002Y-108410143D01*
X162514954Y-110065717D01*
X161324776Y-111636482D01*
X160020192Y-113113568D01*
X158608522Y-114488689D01*
X157097706Y-115754106D01*
X155496286Y-116902665D01*
X153813239Y-117927929D01*
X152054984Y-118825684D01*
X150863619Y-119339999D01*
X81244537Y-119340001D01*
X79752324Y-118058317D01*
X78195624Y-116519994D01*
X76750010Y-114876811D01*
X75422537Y-113136789D01*
X74219688Y-111308419D01*
X73147306Y-109400595D01*
X72210623Y-107422618D01*
X71658686Y-106009899D01*
X80936000Y-106009899D01*
X80936000Y-106310101D01*
X80994566Y-106604534D01*
X81109449Y-106881885D01*
X81276232Y-107131493D01*
X81488507Y-107343768D01*
X81738115Y-107510551D01*
X82015466Y-107625434D01*
X82309899Y-107684000D01*
X82610101Y-107684000D01*
X82904534Y-107625434D01*
X83181885Y-107510551D01*
X83431493Y-107343768D01*
X83643768Y-107131493D01*
X83730000Y-107002438D01*
X83816232Y-107131493D01*
X84028507Y-107343768D01*
X84278115Y-107510551D01*
X84555466Y-107625434D01*
X84849899Y-107684000D01*
X85150101Y-107684000D01*
X85444534Y-107625434D01*
X85721885Y-107510551D01*
X85971493Y-107343768D01*
X86099030Y-107216231D01*
X86663374Y-107216231D01*
X86745727Y-107469289D01*
X87016418Y-107599086D01*
X87307230Y-107673580D01*
X87606988Y-107689908D01*
X87904171Y-107647443D01*
X88187359Y-107547816D01*
X88334273Y-107469289D01*
X88416626Y-107216231D01*
X87540000Y-106339605D01*
X86663374Y-107216231D01*
X86099030Y-107216231D01*
X86183768Y-107131493D01*
X86289417Y-106973378D01*
X86483769Y-107036626D01*
X87360395Y-106160000D01*
X87719605Y-106160000D01*
X88596231Y-107036626D01*
X88849289Y-106954273D01*
X88979086Y-106683582D01*
X89053580Y-106392770D01*
X89069908Y-106093012D01*
X89027443Y-105795829D01*
X88927816Y-105512641D01*
X88849289Y-105365727D01*
X88596231Y-105283374D01*
X87719605Y-106160000D01*
X87360395Y-106160000D01*
X86483769Y-105283374D01*
X86289417Y-105346622D01*
X86183768Y-105188507D01*
X86099030Y-105103769D01*
X86663374Y-105103769D01*
X87540000Y-105980395D01*
X88416626Y-105103769D01*
X88334273Y-104850711D01*
X88063582Y-104720914D01*
X87772770Y-104646420D01*
X87473012Y-104630092D01*
X87175829Y-104672557D01*
X86892641Y-104772184D01*
X86745727Y-104850711D01*
X86663374Y-105103769D01*
X86099030Y-105103769D01*
X85971493Y-104976232D01*
X85721885Y-104809449D01*
X85444534Y-104694566D01*
X85150101Y-104636000D01*
X84849899Y-104636000D01*
X84555466Y-104694566D01*
X84278115Y-104809449D01*
X84028507Y-104976232D01*
X83816232Y-105188507D01*
X83730000Y-105317562D01*
X83643768Y-105188507D01*
X83431493Y-104976232D01*
X83181885Y-104809449D01*
X82904534Y-104694566D01*
X82610101Y-104636000D01*
X82309899Y-104636000D01*
X82015466Y-104694566D01*
X81738115Y-104809449D01*
X81488507Y-104976232D01*
X81276232Y-105188507D01*
X81109449Y-105438115D01*
X80994566Y-105715466D01*
X80936000Y-106009899D01*
X71658686Y-106009899D01*
X71414191Y-105384101D01*
X70761903Y-103295009D01*
X70571576Y-102492382D01*
X75602000Y-102492382D01*
X75602000Y-102842618D01*
X75670328Y-103186123D01*
X75804357Y-103509699D01*
X75998937Y-103800909D01*
X76246591Y-104048563D01*
X76537801Y-104243143D01*
X76861377Y-104377172D01*
X77204882Y-104445500D01*
X77555118Y-104445500D01*
X77898623Y-104377172D01*
X78222199Y-104243143D01*
X78513409Y-104048563D01*
X78761063Y-103800909D01*
X78955643Y-103509699D01*
X79089672Y-103186123D01*
X79158000Y-102842618D01*
X79158000Y-102492382D01*
X90842000Y-102492382D01*
X90842000Y-102842618D01*
X90910328Y-103186123D01*
X91044357Y-103509699D01*
X91238937Y-103800909D01*
X91486591Y-104048563D01*
X91777801Y-104243143D01*
X92101377Y-104377172D01*
X92444882Y-104445500D01*
X92795118Y-104445500D01*
X93138623Y-104377172D01*
X93462199Y-104243143D01*
X93753409Y-104048563D01*
X94001063Y-103800909D01*
X94195643Y-103509699D01*
X94329672Y-103186123D01*
X94398000Y-102842618D01*
X94398000Y-102492382D01*
X94329672Y-102148877D01*
X94195643Y-101825301D01*
X94001063Y-101534091D01*
X93753409Y-101286437D01*
X93462199Y-101091857D01*
X93138623Y-100957828D01*
X92795118Y-100889500D01*
X92444882Y-100889500D01*
X92101377Y-100957828D01*
X91777801Y-101091857D01*
X91486591Y-101286437D01*
X91238937Y-101534091D01*
X91044357Y-101825301D01*
X90910328Y-102148877D01*
X90842000Y-102492382D01*
X79158000Y-102492382D01*
X79089672Y-102148877D01*
X78955643Y-101825301D01*
X78761063Y-101534091D01*
X78513409Y-101286437D01*
X78222199Y-101091857D01*
X77898623Y-100957828D01*
X77555118Y-100889500D01*
X77204882Y-100889500D01*
X76861377Y-100957828D01*
X76537801Y-101091857D01*
X76246591Y-101286437D01*
X75998937Y-101534091D01*
X75804357Y-101825301D01*
X75670328Y-102148877D01*
X75602000Y-102492382D01*
X70571576Y-102492382D01*
X70256933Y-101165510D01*
X69998823Y-99596231D01*
X73963374Y-99596231D01*
X74045727Y-99849289D01*
X74316418Y-99979086D01*
X74607230Y-100053580D01*
X74906988Y-100069908D01*
X75204171Y-100027443D01*
X75487359Y-99927816D01*
X75634273Y-99849289D01*
X75716626Y-99596231D01*
X74840000Y-98719605D01*
X73963374Y-99596231D01*
X69998823Y-99596231D01*
X69901735Y-99005948D01*
X69864443Y-98606988D01*
X73310092Y-98606988D01*
X73352557Y-98904171D01*
X73452184Y-99187359D01*
X73530711Y-99334273D01*
X73783769Y-99416626D01*
X74660395Y-98540000D01*
X75019605Y-98540000D01*
X75896231Y-99416626D01*
X76149289Y-99334273D01*
X76279086Y-99063582D01*
X76353580Y-98772770D01*
X76369908Y-98473012D01*
X76327443Y-98175829D01*
X76227816Y-97892641D01*
X76149289Y-97745727D01*
X75896231Y-97663374D01*
X75019605Y-98540000D01*
X74660395Y-98540000D01*
X73783769Y-97663374D01*
X73530711Y-97745727D01*
X73400914Y-98016418D01*
X73326420Y-98307230D01*
X73310092Y-98606988D01*
X69864443Y-98606988D01*
X69698049Y-96826891D01*
X69646861Y-94638934D01*
X69708602Y-93309899D01*
X73316000Y-93309899D01*
X73316000Y-93610101D01*
X73374566Y-93904534D01*
X73489449Y-94181885D01*
X73656232Y-94431493D01*
X73868507Y-94643768D01*
X73997562Y-94730000D01*
X73868507Y-94816232D01*
X73656232Y-95028507D01*
X73489449Y-95278115D01*
X73374566Y-95555466D01*
X73316000Y-95849899D01*
X73316000Y-96150101D01*
X73374566Y-96444534D01*
X73489449Y-96721885D01*
X73656232Y-96971493D01*
X73868507Y-97183768D01*
X74026622Y-97289417D01*
X73963374Y-97483769D01*
X74840000Y-98360395D01*
X75716626Y-97483769D01*
X75653378Y-97289417D01*
X75811493Y-97183768D01*
X76023768Y-96971493D01*
X76190551Y-96721885D01*
X76305434Y-96444534D01*
X76364000Y-96150101D01*
X76364000Y-95849899D01*
X76305434Y-95555466D01*
X76190551Y-95278115D01*
X76023768Y-95028507D01*
X75811493Y-94816232D01*
X75682438Y-94730000D01*
X75811493Y-94643768D01*
X76023768Y-94431493D01*
X76190551Y-94181885D01*
X76305434Y-93904534D01*
X76364000Y-93610101D01*
X76364000Y-93309899D01*
X76305434Y-93015466D01*
X76190551Y-92738115D01*
X76023768Y-92488507D01*
X75811493Y-92276232D01*
X75561885Y-92109449D01*
X75284534Y-91994566D01*
X74990101Y-91936000D01*
X74689899Y-91936000D01*
X74395466Y-91994566D01*
X74118115Y-92109449D01*
X73868507Y-92276232D01*
X73656232Y-92488507D01*
X73489449Y-92738115D01*
X73374566Y-93015466D01*
X73316000Y-93309899D01*
X69708602Y-93309899D01*
X69748424Y-92452715D01*
X70002241Y-90278916D01*
X70213342Y-89157382D01*
X75602000Y-89157382D01*
X75602000Y-89507618D01*
X75670328Y-89851123D01*
X75804357Y-90174699D01*
X75998937Y-90465909D01*
X76246591Y-90713563D01*
X76537801Y-90908143D01*
X76861377Y-91042172D01*
X77204882Y-91110500D01*
X77555118Y-91110500D01*
X77898623Y-91042172D01*
X78222199Y-90908143D01*
X78513409Y-90713563D01*
X78761063Y-90465909D01*
X78955643Y-90174699D01*
X79089672Y-89851123D01*
X79158000Y-89507618D01*
X79158000Y-89157382D01*
X79089672Y-88813877D01*
X78955643Y-88490301D01*
X78781649Y-88229899D01*
X80301000Y-88229899D01*
X80301000Y-88530101D01*
X80359566Y-88824534D01*
X80474449Y-89101885D01*
X80641232Y-89351493D01*
X80853507Y-89563768D01*
X81103115Y-89730551D01*
X81380466Y-89845434D01*
X81674899Y-89904000D01*
X81975101Y-89904000D01*
X82269534Y-89845434D01*
X82546885Y-89730551D01*
X82796493Y-89563768D01*
X83008768Y-89351493D01*
X83175551Y-89101885D01*
X83290434Y-88824534D01*
X83349000Y-88530101D01*
X83349000Y-88229899D01*
X86651000Y-88229899D01*
X86651000Y-88530101D01*
X86709566Y-88824534D01*
X86824449Y-89101885D01*
X86991232Y-89351493D01*
X87203507Y-89563768D01*
X87453115Y-89730551D01*
X87730466Y-89845434D01*
X88024899Y-89904000D01*
X88325101Y-89904000D01*
X88619534Y-89845434D01*
X88896885Y-89730551D01*
X89146493Y-89563768D01*
X89358768Y-89351493D01*
X89488469Y-89157382D01*
X90842000Y-89157382D01*
X90842000Y-89507618D01*
X90910328Y-89851123D01*
X91044357Y-90174699D01*
X91238937Y-90465909D01*
X91486591Y-90713563D01*
X91777801Y-90908143D01*
X92101377Y-91042172D01*
X92444882Y-91110500D01*
X92795118Y-91110500D01*
X93138623Y-91042172D01*
X93462199Y-90908143D01*
X93753409Y-90713563D01*
X94001063Y-90465909D01*
X94195643Y-90174699D01*
X94329672Y-89851123D01*
X94398000Y-89507618D01*
X94398000Y-89157382D01*
X94329672Y-88813877D01*
X94195643Y-88490301D01*
X94001063Y-88199091D01*
X93753409Y-87951437D01*
X93462199Y-87756857D01*
X93138623Y-87622828D01*
X92795118Y-87554500D01*
X92444882Y-87554500D01*
X92101377Y-87622828D01*
X91777801Y-87756857D01*
X91486591Y-87951437D01*
X91238937Y-88199091D01*
X91044357Y-88490301D01*
X90910328Y-88813877D01*
X90842000Y-89157382D01*
X89488469Y-89157382D01*
X89525551Y-89101885D01*
X89640434Y-88824534D01*
X89699000Y-88530101D01*
X89699000Y-88229899D01*
X89640434Y-87935466D01*
X89525551Y-87658115D01*
X89358768Y-87408507D01*
X89146493Y-87196232D01*
X88896885Y-87029449D01*
X88619534Y-86914566D01*
X88325101Y-86856000D01*
X88024899Y-86856000D01*
X87730466Y-86914566D01*
X87453115Y-87029449D01*
X87203507Y-87196232D01*
X86991232Y-87408507D01*
X86824449Y-87658115D01*
X86709566Y-87935466D01*
X86651000Y-88229899D01*
X83349000Y-88229899D01*
X83290434Y-87935466D01*
X83175551Y-87658115D01*
X83008768Y-87408507D01*
X82796493Y-87196232D01*
X82546885Y-87029449D01*
X82269534Y-86914566D01*
X81975101Y-86856000D01*
X81674899Y-86856000D01*
X81380466Y-86914566D01*
X81103115Y-87029449D01*
X80853507Y-87196232D01*
X80641232Y-87408507D01*
X80474449Y-87658115D01*
X80359566Y-87935466D01*
X80301000Y-88229899D01*
X78781649Y-88229899D01*
X78761063Y-88199091D01*
X78513409Y-87951437D01*
X78222199Y-87756857D01*
X77898623Y-87622828D01*
X77555118Y-87554500D01*
X77204882Y-87554500D01*
X76861377Y-87622828D01*
X76537801Y-87756857D01*
X76246591Y-87951437D01*
X75998937Y-88199091D01*
X75804357Y-88490301D01*
X75670328Y-88813877D01*
X75602000Y-89157382D01*
X70213342Y-89157382D01*
X70407073Y-88128134D01*
X70960955Y-86010815D01*
X71661179Y-83937303D01*
X71989908Y-83149899D01*
X80301000Y-83149899D01*
X80301000Y-83450101D01*
X80359566Y-83744534D01*
X80474449Y-84021885D01*
X80641232Y-84271493D01*
X80853507Y-84483768D01*
X81103115Y-84650551D01*
X81380466Y-84765434D01*
X81674899Y-84824000D01*
X81975101Y-84824000D01*
X82269534Y-84765434D01*
X82546885Y-84650551D01*
X82796493Y-84483768D01*
X83008768Y-84271493D01*
X83175551Y-84021885D01*
X83290434Y-83744534D01*
X83349000Y-83450101D01*
X83349000Y-83149899D01*
X86651000Y-83149899D01*
X86651000Y-83450101D01*
X86709566Y-83744534D01*
X86824449Y-84021885D01*
X86991232Y-84271493D01*
X87203507Y-84483768D01*
X87453115Y-84650551D01*
X87730466Y-84765434D01*
X88024899Y-84824000D01*
X88325101Y-84824000D01*
X88619534Y-84765434D01*
X88896885Y-84650551D01*
X89146493Y-84483768D01*
X89358768Y-84271493D01*
X89525551Y-84021885D01*
X89640434Y-83744534D01*
X89699000Y-83450101D01*
X89699000Y-83149899D01*
X89640434Y-82855466D01*
X89525551Y-82578115D01*
X89358768Y-82328507D01*
X89146493Y-82116232D01*
X88896885Y-81949449D01*
X88619534Y-81834566D01*
X88325101Y-81776000D01*
X88024899Y-81776000D01*
X87730466Y-81834566D01*
X87453115Y-81949449D01*
X87203507Y-82116232D01*
X86991232Y-82328507D01*
X86824449Y-82578115D01*
X86709566Y-82855466D01*
X86651000Y-83149899D01*
X83349000Y-83149899D01*
X83290434Y-82855466D01*
X83175551Y-82578115D01*
X83008768Y-82328507D01*
X82796493Y-82116232D01*
X82546885Y-81949449D01*
X82269534Y-81834566D01*
X81975101Y-81776000D01*
X81674899Y-81776000D01*
X81380466Y-81834566D01*
X81103115Y-81949449D01*
X80853507Y-82116232D01*
X80641232Y-82328507D01*
X80474449Y-82578115D01*
X80359566Y-82855466D01*
X80301000Y-83149899D01*
X71989908Y-83149899D01*
X72504346Y-81917669D01*
X73486335Y-79961785D01*
X74602367Y-78079166D01*
X75847010Y-76278975D01*
X77214197Y-74569991D01*
X77877651Y-73850000D01*
X95511928Y-73850000D01*
X95524188Y-73974482D01*
X95560498Y-74094180D01*
X95619463Y-74204494D01*
X95698815Y-74301185D01*
X95795506Y-74380537D01*
X95905820Y-74439502D01*
X96025518Y-74475812D01*
X96150000Y-74488072D01*
X96714250Y-74485000D01*
X96873000Y-74326250D01*
X96873000Y-73127000D01*
X95673750Y-73127000D01*
X95515000Y-73285750D01*
X95511928Y-73850000D01*
X77877651Y-73850000D01*
X78697261Y-72960547D01*
X79556185Y-72150000D01*
X95511928Y-72150000D01*
X95515000Y-72714250D01*
X95673750Y-72873000D01*
X96873000Y-72873000D01*
X96873000Y-71673750D01*
X97127000Y-71673750D01*
X97127000Y-72873000D01*
X97147000Y-72873000D01*
X97147000Y-73127000D01*
X97127000Y-73127000D01*
X97127000Y-74326250D01*
X97285750Y-74485000D01*
X97850000Y-74488072D01*
X97974482Y-74475812D01*
X98094180Y-74439502D01*
X98204494Y-74380537D01*
X98301185Y-74301185D01*
X98380537Y-74204494D01*
X98439502Y-74094180D01*
X98461513Y-74021620D01*
X98593368Y-74153475D01*
X98836589Y-74315990D01*
X99106842Y-74427932D01*
X99393740Y-74485000D01*
X99686260Y-74485000D01*
X99973158Y-74427932D01*
X100243411Y-74315990D01*
X100486632Y-74153475D01*
X100693475Y-73946632D01*
X100855990Y-73703411D01*
X100967932Y-73433158D01*
X101025000Y-73146260D01*
X101025000Y-72853740D01*
X100967932Y-72566842D01*
X100855990Y-72296589D01*
X100693475Y-72053368D01*
X100486632Y-71846525D01*
X100243411Y-71684010D01*
X99973158Y-71572068D01*
X99686260Y-71515000D01*
X99393740Y-71515000D01*
X99106842Y-71572068D01*
X98836589Y-71684010D01*
X98593368Y-71846525D01*
X98461513Y-71978380D01*
X98439502Y-71905820D01*
X98380537Y-71795506D01*
X98301185Y-71698815D01*
X98204494Y-71619463D01*
X98094180Y-71560498D01*
X97974482Y-71524188D01*
X97850000Y-71511928D01*
X97285750Y-71515000D01*
X97127000Y-71673750D01*
X96873000Y-71673750D01*
X96714250Y-71515000D01*
X96150000Y-71511928D01*
X96025518Y-71524188D01*
X95905820Y-71560498D01*
X95795506Y-71619463D01*
X95698815Y-71698815D01*
X95619463Y-71795506D01*
X95560498Y-71905820D01*
X95524188Y-72025518D01*
X95511928Y-72150000D01*
X79556185Y-72150000D01*
X80291760Y-71455855D01*
X81240222Y-70660000D01*
X110073000Y-70660000D01*
X110073000Y-77800000D01*
G37*
%TD.AperFunction*%
%TD*%
M02*
